<svg xmlns="http://www.w3.org/2000/svg" xmlns:xlink="http://www.w3.org/1999/xlink" viewBox="0 0 88.41 65.11"><defs><style>.cls-1{fill:url(#linear-gradient);}.cls-2{fill:url(#linear-gradient-2);}.cls-3{fill:url(#linear-gradient-3);}.cls-4{fill:url(#linear-gradient-4);}.cls-5{fill:url(#linear-gradient-5);}.cls-6{fill:url(#linear-gradient-6);}.cls-7{fill:url(#linear-gradient-7);}.cls-8{fill:url(#linear-gradient-8);}.cls-9{fill:url(#linear-gradient-9);}.cls-10{fill:url(#linear-gradient-10);}.cls-11{fill:url(#linear-gradient-11);}.cls-12{fill:url(#linear-gradient-12);}.cls-13{fill:url(#linear-gradient-13);}.cls-14{fill:url(#linear-gradient-14);}.cls-15{fill:#d9713c;}.cls-16{fill:url(#linear-gradient-15);}.cls-17{fill:url(#linear-gradient-16);}.cls-18{fill:url(#linear-gradient-17);}.cls-19{fill:url(#linear-gradient-18);}.cls-20{fill:url(#linear-gradient-19);}.cls-21{fill:url(#linear-gradient-20);}.cls-22{fill:url(#linear-gradient-21);}.cls-23{fill:#ffd008;}.cls-24{fill:url(#linear-gradient-22);}.cls-25{fill:url(#linear-gradient-23);}.cls-26{fill:url(#linear-gradient-24);}.cls-27{fill:url(#linear-gradient-25);}.cls-28{fill:url(#linear-gradient-26);}.cls-29{fill:url(#linear-gradient-27);}.cls-30{fill:url(#linear-gradient-28);}.cls-31{fill:url(#linear-gradient-29);}.cls-32{fill:url(#linear-gradient-30);}.cls-33{fill:url(#linear-gradient-31);}</style><linearGradient id="linear-gradient" x1="84.36" y1="39.23" x2="84.36" y2="60.15" gradientUnits="userSpaceOnUse"><stop offset="0" stop-color="#a0182c"/><stop offset="1" stop-color="#59230e"/></linearGradient><linearGradient id="linear-gradient-2" x1="84.36" y1="60.61" x2="84.36" y2="38.77" gradientUnits="userSpaceOnUse"><stop offset="0" stop-color="#a0182c"/><stop offset="0.19" stop-color="#b11822"/><stop offset="0.42" stop-color="#be171b"/><stop offset="0.63" stop-color="#c21718"/><stop offset="0.76" stop-color="#bf171a"/><stop offset="0.88" stop-color="#b41720"/><stop offset="0.99" stop-color="#a2182b"/><stop offset="1" stop-color="#a0182c"/></linearGradient><linearGradient id="linear-gradient-3" x1="84.51" y1="47.96" x2="84.51" y2="38.76" xlink:href="#linear-gradient"/><linearGradient id="linear-gradient-4" x1="-204.27" y1="39.23" x2="-204.27" y2="60.15" gradientTransform="matrix(-1, 0, 0, 1, -200.22, 0)" xlink:href="#linear-gradient"/><linearGradient id="linear-gradient-5" x1="-204.27" y1="60.61" x2="-204.27" y2="38.77" gradientTransform="matrix(-1, 0, 0, 1, -200.22, 0)" xlink:href="#linear-gradient-2"/><linearGradient id="linear-gradient-6" x1="-204.13" y1="47.96" x2="-204.13" y2="38.76" gradientTransform="matrix(-1, 0, 0, 1, -200.22, 0)" xlink:href="#linear-gradient"/><linearGradient id="linear-gradient-7" x1="44.21" y1="11.8" x2="44.21" y2="1.05" xlink:href="#linear-gradient"/><linearGradient id="linear-gradient-8" x1="44.21" y1="11.82" x2="44.21" y2="0.32" gradientUnits="userSpaceOnUse"><stop offset="0" stop-color="#a0182c"/><stop offset="0.34" stop-color="#a4182a"/><stop offset="0.69" stop-color="#b01822"/><stop offset="1" stop-color="#c21718"/></linearGradient><linearGradient id="linear-gradient-9" x1="44.36" y1="65.11" x2="44.36" y2="8.7" gradientUnits="userSpaceOnUse"><stop offset="0" stop-color="#a81916"/><stop offset="0" stop-color="#a61917"/><stop offset="0.03" stop-color="#951720"/><stop offset="0.07" stop-color="#8a1626"/><stop offset="0.11" stop-color="#871628"/><stop offset="1" stop-color="#ec631c"/></linearGradient><linearGradient id="linear-gradient-10" x1="44.21" y1="42.97" x2="44.21" y2="28.32" xlink:href="#linear-gradient"/><linearGradient id="linear-gradient-11" x1="65.38" y1="37.57" x2="65.38" y2="72.9" gradientUnits="userSpaceOnUse"><stop offset="0" stop-color="#881626"/><stop offset="1" stop-color="#59230e"/></linearGradient><linearGradient id="linear-gradient-12" x1="23.34" y1="37.57" x2="23.34" y2="72.9" xlink:href="#linear-gradient-11"/><linearGradient id="linear-gradient-13" x1="65.38" y1="61.69" x2="65.38" y2="38.36" xlink:href="#linear-gradient-2"/><linearGradient id="linear-gradient-14" x1="65.38" y1="40.65" x2="65.38" y2="38.36" xlink:href="#linear-gradient"/><linearGradient id="linear-gradient-15" x1="23.34" y1="61.69" x2="23.34" y2="38.36" xlink:href="#linear-gradient-2"/><linearGradient id="linear-gradient-16" x1="23.34" y1="40.65" x2="23.34" y2="38.36" xlink:href="#linear-gradient"/><linearGradient id="linear-gradient-17" x1="44.21" y1="39.58" x2="44.21" y2="7.81" gradientUnits="userSpaceOnUse"><stop offset="0" stop-color="#a81916"/><stop offset="0.23" stop-color="#ac1d16"/><stop offset="0.46" stop-color="#b72917"/><stop offset="0.7" stop-color="#ca3e19"/><stop offset="0.94" stop-color="#e45a1b"/><stop offset="1" stop-color="#ec631c"/></linearGradient><linearGradient id="linear-gradient-18" x1="23.19" y1="46.57" x2="23.19" y2="37.92" xlink:href="#linear-gradient"/><linearGradient id="linear-gradient-19" x1="23.19" y1="39.58" x2="23.19" y2="32.75" xlink:href="#linear-gradient"/><linearGradient id="linear-gradient-20" x1="23.19" y1="33.27" x2="23.19" y2="39.59" xlink:href="#linear-gradient-8"/><linearGradient id="linear-gradient-21" x1="23.19" y1="46" x2="23.19" y2="38.49" gradientUnits="userSpaceOnUse"><stop offset="0" stop-color="#f49523"/><stop offset="1" stop-color="#ffd008"/></linearGradient><linearGradient id="linear-gradient-22" x1="23.19" y1="43.33" x2="23.19" y2="39.11" gradientUnits="userSpaceOnUse"><stop offset="0" stop-color="#dc8113"/><stop offset="1" stop-color="#dbb205"/></linearGradient><linearGradient id="linear-gradient-23" x1="23.19" y1="42.71" x2="23.19" y2="38.49" xlink:href="#linear-gradient-21"/><linearGradient id="linear-gradient-24" x1="65.23" y1="46.57" x2="65.23" y2="37.92" xlink:href="#linear-gradient"/><linearGradient id="linear-gradient-25" x1="65.23" y1="39.58" x2="65.23" y2="32.75" xlink:href="#linear-gradient"/><linearGradient id="linear-gradient-26" x1="65.23" y1="33.27" x2="65.23" y2="39.59" xlink:href="#linear-gradient-8"/><linearGradient id="linear-gradient-27" x1="65.23" y1="46" x2="65.23" y2="38.49" xlink:href="#linear-gradient-21"/><linearGradient id="linear-gradient-28" x1="65.23" y1="43.33" x2="65.23" y2="39.11" xlink:href="#linear-gradient-22"/><linearGradient id="linear-gradient-29" x1="65.23" y1="42.71" x2="65.23" y2="38.49" xlink:href="#linear-gradient-21"/><linearGradient id="linear-gradient-30" x1="44.38" y1="-0.15" x2="44.38" y2="4.31" gradientUnits="userSpaceOnUse"><stop offset="0" stop-color="#72290e"/><stop offset="0.03" stop-color="#8c3c15"/><stop offset="0.07" stop-color="#a24b1a"/><stop offset="0.11" stop-color="#af551e"/><stop offset="0.14" stop-color="#b3581f"/><stop offset="0.29" stop-color="#a24c1b"/><stop offset="0.56" stop-color="#883914"/><stop offset="0.81" stop-color="#782d0f"/><stop offset="1" stop-color="#72290e"/></linearGradient><linearGradient id="linear-gradient-31" x1="44.38" y1="4.32" x2="44.38" y2="-0.14" xlink:href="#linear-gradient-17"/></defs><g id="Layer_2" data-name="Layer 2"><g id="Layer_2-2" data-name="Layer 2"><path class="cls-1" d="M87.12,57.17a2.77,2.77,0,1,1-5.52,0v-15a2.77,2.77,0,1,1,5.52,0Z"/><path class="cls-2" d="M81.09,57.17v-15a3.38,3.38,0,0,1,3.27-3.44h0a3.37,3.37,0,0,1,3.27,3.44h0v15a3.37,3.37,0,0,1-3.27,3.44h0a3.38,3.38,0,0,1-3.27-3.44ZM82.81,40.4a2.67,2.67,0,0,0-.7,1.81h0v15a2.67,2.67,0,0,0,.7,1.81h0a2.09,2.09,0,0,0,1.55.71h0A2.09,2.09,0,0,0,85.92,59h0a2.62,2.62,0,0,0,.69-1.81h0v-15a2.62,2.62,0,0,0-.69-1.81h0a2.09,2.09,0,0,0-1.56-.71h0a2.09,2.09,0,0,0-1.55.71Z"/><path class="cls-3" d="M87.39,47.5V42.38a2.81,2.81,0,0,0-2.88-2.7h0a2.82,2.82,0,0,0-2.89,2.7h0a.49.49,0,0,1-.51.46h0a.49.49,0,0,1-.51-.46h0a3.79,3.79,0,0,1,3.91-3.62h0a3.78,3.78,0,0,1,3.9,3.62h0V47.5a.48.48,0,0,1-.51.46h0a.48.48,0,0,1-.51-.46Z"/><path class="cls-4" d="M1.29,57.17a2.88,2.88,0,0,0,2.76,3,2.88,2.88,0,0,0,2.76-3v-15a2.88,2.88,0,0,0-2.76-3,2.88,2.88,0,0,0-2.76,3Z"/><path class="cls-5" d="M7.32,57.17a3.37,3.37,0,0,1-3.27,3.44h0A3.37,3.37,0,0,1,.78,57.17v-15h0a3.37,3.37,0,0,1,3.27-3.44h0a3.37,3.37,0,0,1,3.27,3.44v15ZM5.61,40.4a2.09,2.09,0,0,0-1.56-.71h0a2.09,2.09,0,0,0-1.55.71h0a2.63,2.63,0,0,0-.7,1.81v15h0A2.63,2.63,0,0,0,2.5,59h0a2.09,2.09,0,0,0,1.55.71h0A2.09,2.09,0,0,0,5.61,59h0a2.67,2.67,0,0,0,.69-1.81v-15h0a2.67,2.67,0,0,0-.69-1.81Z"/><path class="cls-6" d="M1,47.5V42.38a2.82,2.82,0,0,1,2.89-2.7h0a2.81,2.81,0,0,1,2.88,2.7h0a.49.49,0,0,0,.51.46h0a.48.48,0,0,0,.51-.46h0a3.78,3.78,0,0,0-3.9-3.62h0A3.79,3.79,0,0,0,0,42.38H0V47.5A.48.48,0,0,0,.51,48h0A.48.48,0,0,0,1,47.5Z"/><path class="cls-7" d="M30.4,11.44l1.25-5.86A2.68,2.68,0,0,1,32.75,4a3.31,3.31,0,0,1,1.93-.66H53.74A3.35,3.35,0,0,1,55.67,4a2.73,2.73,0,0,1,1.1,1.57L58,11.44h2.27L59,5.21a4.67,4.67,0,0,0-1.87-2.72,5.69,5.69,0,0,0-3.37-1.11h-19a5.74,5.74,0,0,0-3.37,1.11,4.72,4.72,0,0,0-1.87,2.72l-1.32,6.23Z"/><path class="cls-8" d="M29.78,11.44l1.3-6.28a2.92,2.92,0,0,1,1.15-1.68,3.49,3.49,0,0,1,2-.71H54.16a3.49,3.49,0,0,1,2,.71,2.88,2.88,0,0,1,1.15,1.68l1.31,6.28H61L59.62,4.77a5,5,0,0,0-1.95-2.91A5.88,5.88,0,0,0,54.15.67H34.26a5.88,5.88,0,0,0-3.52,1.19,5,5,0,0,0-1.95,2.91l-1.38,6.67Z"/><path class="cls-9" d="M84.51,61.48a3.91,3.91,0,0,1-4.11,3.63H8.33a3.91,3.91,0,0,1-4.11-3.63V12.33A3.9,3.9,0,0,1,8.33,8.7H80.4a3.9,3.9,0,0,1,4.11,3.63Z"/><path class="cls-10" d="M4.06,28.32V41a2.28,2.28,0,0,0,1.09,1,12.31,12.31,0,0,0,4.5,1H78.77a12.26,12.26,0,0,0,4.49-1,3,3,0,0,0,1.09-1.53V28.32Z"/><path class="cls-11" d="M50.27,37.57V58.79c0,1.8,2,3.27,4.55,3.27H76c2.5,0,4.55-1.47,4.55-3.27V37.57Z"/><path class="cls-12" d="M8.23,37.57V59.88c0,1.2,1.36,2.18,3,2.18H35.42c1.67,0,3-1,3-2.18V37.57Z"/><path class="cls-13" d="M51,38.36V58.57c0,1.72,2,3.12,4.34,3.12H75.44c2.39,0,4.34-1.4,4.34-3.12V38.36Z"/><path class="cls-14" d="M51,40.65H78.77a9.72,9.72,0,0,0,1-.07V38.36H51Z"/><path class="cls-15" d="M76.64,60.69a4.7,4.7,0,0,1-.67.18c-.14,0-.22.13-.18.23a.26.26,0,0,0,.25.13h.07q.39-.09.75-.21c.13-.05.18-.16.12-.25A.3.3,0,0,0,76.64,60.69Z"/><path class="cls-15" d="M72.23,61h-.76c-.14,0-.26.09-.26.19s.12.18.26.18h.76c.14,0,.26-.08.26-.18S72.37,61,72.23,61Z"/><path class="cls-15" d="M73.76,61H73c-.15,0-.26.09-.26.19s.11.18.26.18h.76c.14,0,.25-.08.25-.18A.23.23,0,0,0,73.76,61Z"/><path class="cls-15" d="M77.78,60.07h0a3.24,3.24,0,0,1-.53.35.15.15,0,0,0,0,.26.32.32,0,0,0,.2.07.26.26,0,0,0,.15,0,5.3,5.3,0,0,0,.61-.39.16.16,0,0,0,0-.26A.33.33,0,0,0,77.78,60.07Z"/><path class="cls-15" d="M79.06,39c-.15,0-.26.09-.26.19v.55c0,.1.11.18.26.18s.25-.08.25-.18v-.55A.23.23,0,0,0,79.06,39Z"/><path class="cls-15" d="M79.06,40.08c-.15,0-.26.08-.26.19v.55c0,.1.11.18.26.18s.25-.08.25-.18v-.55C79.31,40.16,79.2,40.08,79.06,40.08Z"/><path class="cls-15" d="M79.06,41.18c-.15,0-.26.08-.26.19v.54c0,.11.11.19.26.19s.25-.08.25-.19v-.54C79.31,41.26,79.2,41.18,79.06,41.18Z"/><path class="cls-15" d="M64.59,61h-.77a.23.23,0,0,0-.25.19c0,.1.11.18.25.18h.77c.14,0,.25-.08.25-.18A.23.23,0,0,0,64.59,61Z"/><path class="cls-15" d="M63.06,61H62.3c-.15,0-.26.09-.26.19s.11.18.26.18h.76c.14,0,.25-.08.25-.18A.23.23,0,0,0,63.06,61Z"/><path class="cls-15" d="M79.06,42.28c-.15,0-.26.08-.26.18V43c0,.1.11.19.26.19a.23.23,0,0,0,.25-.19v-.55C79.31,42.36,79.2,42.28,79.06,42.28Z"/><path class="cls-15" d="M69.17,61h-.76c-.14,0-.26.09-.26.19s.12.18.26.18h.76c.14,0,.26-.08.26-.18S69.31,61,69.17,61Z"/><path class="cls-15" d="M66.12,61h-.77a.23.23,0,0,0-.25.19c0,.1.11.18.25.18h.77c.14,0,.25-.08.25-.18A.23.23,0,0,0,66.12,61Z"/><path class="cls-15" d="M70.7,61h-.76c-.14,0-.26.09-.26.19s.12.18.26.18h.76c.14,0,.26-.08.26-.18S70.84,61,70.7,61Z"/><path class="cls-15" d="M67.64,61h-.76a.23.23,0,0,0-.25.19c0,.1.11.18.25.18h.76c.15,0,.26-.08.26-.18S67.79,61,67.64,61Z"/><path class="cls-15" d="M79.06,52.17c-.15,0-.26.08-.26.19v.55c0,.1.11.18.26.18s.25-.08.25-.18v-.55C79.31,52.25,79.2,52.17,79.06,52.17Z"/><path class="cls-15" d="M79.06,53.27c-.15,0-.26.08-.26.19V54c0,.11.11.19.26.19s.25-.08.25-.19v-.54C79.31,53.35,79.2,53.27,79.06,53.27Z"/><path class="cls-15" d="M79.06,54.37c-.15,0-.26.08-.26.18v.55c0,.1.11.19.26.19a.23.23,0,0,0,.25-.19v-.55C79.31,54.45,79.2,54.37,79.06,54.37Z"/><path class="cls-15" d="M79.06,43.38c-.15,0-.26.08-.26.18v.55c0,.1.11.19.26.19a.23.23,0,0,0,.25-.19v-.55C79.31,43.46,79.2,43.38,79.06,43.38Z"/><path class="cls-15" d="M79.06,55.47c-.15,0-.26.08-.26.18v.55c0,.1.11.19.26.19a.23.23,0,0,0,.25-.19v-.55C79.31,55.55,79.2,55.47,79.06,55.47Z"/><path class="cls-15" d="M79.06,51.07c-.15,0-.26.08-.26.19v.55c0,.1.11.18.26.18s.25-.08.25-.18v-.55C79.31,51.15,79.2,51.07,79.06,51.07Z"/><path class="cls-15" d="M79.06,56.57c-.15,0-.26.08-.26.18v.55c0,.1.11.18.26.18s.25-.08.25-.18v-.55C79.31,56.65,79.2,56.57,79.06,56.57Z"/><path class="cls-15" d="M79.06,57.67c-.15,0-.26.08-.26.18v.35a1.79,1.79,0,0,1-.07.51c0,.1.07.19.21.21h0a.24.24,0,0,0,.25-.15,2.25,2.25,0,0,0,.08-.58v-.35C79.31,57.75,79.2,57.67,79.06,57.67Z"/><path class="cls-15" d="M61.53,61h-.76c-.15,0-.26.09-.26.19s.11.18.26.18h.76c.14,0,.26-.08.26-.18S61.67,61,61.53,61Z"/><path class="cls-15" d="M79.06,46.68c-.15,0-.26.08-.26.18v.55c0,.1.11.18.26.18s.25-.08.25-.18v-.55C79.31,46.76,79.2,46.68,79.06,46.68Z"/><path class="cls-15" d="M79.06,50c-.15,0-.26.09-.26.19v.55c0,.1.11.18.26.18s.25-.08.25-.18v-.55A.23.23,0,0,0,79.06,50Z"/><path class="cls-15" d="M79.06,44.48c-.15,0-.26.08-.26.18v.55c0,.1.11.18.26.18s.25-.08.25-.18v-.55C79.31,44.56,79.2,44.48,79.06,44.48Z"/><path class="cls-15" d="M79.06,45.58c-.15,0-.26.08-.26.18v.55c0,.1.11.18.26.18s.25-.08.25-.18v-.55C79.31,45.66,79.2,45.58,79.06,45.58Z"/><path class="cls-15" d="M79.06,48.88c-.15,0-.26.08-.26.18v.55c0,.1.11.18.26.18s.25-.08.25-.18v-.55C79.31,49,79.2,48.88,79.06,48.88Z"/><path class="cls-15" d="M79.06,47.78c-.15,0-.26.08-.26.18v.55c0,.1.11.18.26.18s.25-.08.25-.18V48C79.31,47.86,79.2,47.78,79.06,47.78Z"/><path class="cls-15" d="M75.27,61h-.75a.23.23,0,0,0-.25.19c0,.1.11.18.25.18h.79c.14,0,.24-.1.23-.2S75.41,61,75.27,61Z"/><path class="cls-15" d="M51.7,56.14c.15,0,.26-.08.26-.18v-.55c0-.1-.11-.18-.26-.18s-.25.08-.25.18V56C51.45,56.06,51.56,56.14,51.7,56.14Z"/><path class="cls-15" d="M52.21,59.17a1.91,1.91,0,0,1-.19-.5.28.28,0,0,0-.3-.15c-.14,0-.23.12-.21.22a2.41,2.41,0,0,0,.22.56.27.27,0,0,0,.24.12h.09C52.19,59.37,52.25,59.26,52.21,59.17Z"/><path class="cls-15" d="M51.7,57.24c.15,0,.26-.08.26-.18v-.55c0-.1-.11-.18-.26-.18s-.25.08-.25.18v.55C51.45,57.16,51.56,57.24,51.7,57.24Z"/><path class="cls-15" d="M51.7,55c.15,0,.26-.08.26-.18v-.55c0-.1-.11-.18-.26-.18s-.25.08-.25.18v.55C51.45,55,51.56,55,51.7,55Z"/><path class="cls-15" d="M60,61h-.76c-.14,0-.26.09-.26.19s.12.18.26.18H60c.14,0,.26-.08.26-.18S60.14,61,60,61Z"/><path class="cls-15" d="M51.7,54c.15,0,.26-.09.26-.19v-.55c0-.1-.11-.18-.26-.18s-.25.08-.25.18v.55A.23.23,0,0,0,51.7,54Z"/><path class="cls-15" d="M51.7,52.85c.15,0,.26-.09.26-.19v-.55c0-.1-.11-.18-.26-.18s-.25.08-.25.18v.55A.23.23,0,0,0,51.7,52.85Z"/><path class="cls-15" d="M51.7,51.75c.15,0,.26-.09.26-.19V51c0-.1-.11-.18-.26-.18s-.25.08-.25.18v.55A.23.23,0,0,0,51.7,51.75Z"/><path class="cls-15" d="M55.44,61a5.36,5.36,0,0,1-.7-.1.28.28,0,0,0-.32.13c0,.09,0,.19.18.22a5,5,0,0,0,.79.12h0a.23.23,0,0,0,.25-.17C55.68,61.06,55.58,61,55.44,61Z"/><path class="cls-15" d="M78.87,59.1a.29.29,0,0,0-.33.1,2.43,2.43,0,0,1-.33.46.16.16,0,0,0,.08.26l.14,0a.29.29,0,0,0,.21-.08,2.92,2.92,0,0,0,.37-.52C79.06,59.24,79,59.14,78.87,59.1Z"/><path class="cls-15" d="M51.7,38.56c.15,0,.26-.08.26-.18v0h-.51v0C51.45,38.48,51.56,38.56,51.7,38.56Z"/><path class="cls-15" d="M78.8,38.36v.26c0,.1.11.18.26.18s.25-.08.25-.18v-.26Z"/><path class="cls-15" d="M53,60.05a2.86,2.86,0,0,1-.43-.42.33.33,0,0,0-.35-.06c-.12,0-.16.17-.09.25a3.12,3.12,0,0,0,.49.47.31.31,0,0,0,.19.06.26.26,0,0,0,.17-.05.15.15,0,0,0,0-.25Z"/><path class="cls-15" d="M51.7,58.34c.15,0,.26-.08.26-.18v-.55c0-.1-.11-.18-.26-.18s-.25.08-.25.18v.55C51.45,58.26,51.56,58.34,51.7,58.34Z"/><path class="cls-15" d="M51.7,50.65c.15,0,.26-.08.26-.19v-.55c0-.1-.11-.18-.26-.18s-.25.08-.25.18v.55C51.45,50.57,51.56,50.65,51.7,50.65Z"/><path class="cls-15" d="M51.7,40.76c.15,0,.26-.09.26-.19V40c0-.1-.11-.18-.26-.18s-.25.08-.25.18v.55A.23.23,0,0,0,51.7,40.76Z"/><path class="cls-15" d="M51.7,39.66c.15,0,.26-.08.26-.18v-.55c0-.11-.11-.19-.26-.19s-.25.08-.25.19v.55C51.45,39.58,51.56,39.66,51.7,39.66Z"/><path class="cls-15" d="M51.7,41.86c.15,0,.26-.09.26-.19v-.55c0-.1-.11-.18-.26-.18s-.25.08-.25.18v.55A.23.23,0,0,0,51.7,41.86Z"/><path class="cls-15" d="M54.08,60.67a4.88,4.88,0,0,1-.61-.27.32.32,0,0,0-.36,0,.16.16,0,0,0,0,.26,6.08,6.08,0,0,0,.68.31L54,61a.31.31,0,0,0,.23-.1C54.25,60.83,54.2,60.72,54.08,60.67Z"/><path class="cls-15" d="M56.94,61h-.76c-.14,0-.26.09-.26.19s.12.18.26.18h.76c.15,0,.26-.08.26-.18S57.09,61,56.94,61Z"/><path class="cls-15" d="M58.47,61h-.76c-.14,0-.26.09-.26.19s.12.18.26.18h.76c.14,0,.26-.08.26-.18S58.61,61,58.47,61Z"/><path class="cls-15" d="M51.7,43c.15,0,.26-.08.26-.18v-.55c0-.1-.11-.18-.26-.18s-.25.08-.25.18v.55C51.45,42.87,51.56,43,51.7,43Z"/><path class="cls-15" d="M51.7,46.25c.15,0,.26-.08.26-.18v-.55c0-.1-.11-.18-.26-.18s-.25.08-.25.18v.55C51.45,46.17,51.56,46.25,51.7,46.25Z"/><path class="cls-15" d="M51.7,47.35c.15,0,.26-.08.26-.18v-.55c0-.1-.11-.18-.26-.18s-.25.08-.25.18v.55C51.45,47.27,51.56,47.35,51.7,47.35Z"/><path class="cls-15" d="M51.7,48.45c.15,0,.26-.08.26-.18v-.55c0-.1-.11-.19-.26-.19a.23.23,0,0,0-.25.19v.55C51.45,48.37,51.56,48.45,51.7,48.45Z"/><path class="cls-15" d="M51.7,45.15c.15,0,.26-.08.26-.18v-.55c0-.1-.11-.18-.26-.18s-.25.08-.25.18V45C51.45,45.07,51.56,45.15,51.7,45.15Z"/><path class="cls-15" d="M51.7,49.55c.15,0,.26-.08.26-.18v-.55c0-.11-.11-.19-.26-.19s-.25.08-.25.19v.55C51.45,49.47,51.56,49.55,51.7,49.55Z"/><path class="cls-15" d="M51.7,44.05c.15,0,.26-.08.26-.18v-.55c0-.1-.11-.18-.26-.18s-.25.08-.25.18v.55C51.45,44,51.56,44.05,51.7,44.05Z"/><path class="cls-16" d="M9,38.36V59.61c0,1.14,1.3,2.08,2.89,2.08h23c1.59,0,2.89-.94,2.89-2.08V38.36Z"/><path class="cls-17" d="M9,40.61c.24,0,.48,0,.7,0H37.74V38.36H9Z"/><path class="cls-15" d="M34,61h-.77a.23.23,0,0,0-.25.19c0,.1.11.18.25.18H34c.14,0,.25-.08.25-.18A.23.23,0,0,0,34,61Z"/><path class="cls-15" d="M32.47,61H31.7a.23.23,0,0,0-.25.19c0,.1.11.18.25.18h.77c.14,0,.25-.08.25-.18A.23.23,0,0,0,32.47,61Z"/><path class="cls-15" d="M30.94,61h-.76c-.15,0-.26.09-.26.19s.11.18.26.18h.76c.14,0,.25-.08.25-.18A.23.23,0,0,0,30.94,61Z"/><path class="cls-15" d="M37,39.37c-.14,0-.26.09-.26.19v.55c0,.1.12.18.26.18s.25-.08.25-.18v-.55A.23.23,0,0,0,37,39.37Z"/><path class="cls-15" d="M37,40.47c-.14,0-.26.08-.26.19v.54c0,.11.12.19.26.19s.25-.08.25-.19v-.54C37.27,40.55,37.16,40.47,37,40.47Z"/><path class="cls-15" d="M37,42.67c-.14,0-.26.08-.26.18v.55c0,.1.12.19.26.19a.23.23,0,0,0,.25-.19v-.55C37.27,42.75,37.16,42.67,37,42.67Z"/><path class="cls-15" d="M37,41.57c-.14,0-.26.08-.26.18v.55c0,.11.12.19.26.19s.25-.08.25-.19v-.55C37.27,41.65,37.16,41.57,37,41.57Z"/><path class="cls-15" d="M24.83,61h-.77a.23.23,0,0,0-.25.19c0,.1.11.18.25.18h.77c.14,0,.25-.08.25-.18A.23.23,0,0,0,24.83,61Z"/><path class="cls-15" d="M37,43.77c-.14,0-.26.08-.26.18v.55c0,.1.12.19.26.19a.23.23,0,0,0,.25-.19V44C37.27,43.85,37.16,43.77,37,43.77Z"/><path class="cls-15" d="M23.3,61h-.77a.23.23,0,0,0-.25.19c0,.1.11.18.25.18h.77c.14,0,.25-.08.25-.18A.23.23,0,0,0,23.3,61Z"/><path class="cls-15" d="M21.77,61H21a.23.23,0,0,0-.25.19c0,.1.11.18.25.18h.77c.14,0,.25-.08.25-.18A.23.23,0,0,0,21.77,61Z"/><path class="cls-15" d="M26.36,61h-.77c-.14,0-.26.09-.26.19s.12.18.26.18h.77c.14,0,.25-.08.25-.18A.23.23,0,0,0,26.36,61Z"/><path class="cls-15" d="M27.88,61h-.76c-.14,0-.26.09-.26.19s.12.18.26.18h.76c.14,0,.26-.08.26-.18S28,61,27.88,61Z"/><path class="cls-15" d="M29.41,61h-.76c-.14,0-.26.09-.26.19s.12.18.26.18h.76c.14,0,.26-.08.26-.18S29.55,61,29.41,61Z"/><path class="cls-15" d="M37,52.56c-.14,0-.26.08-.26.18v.55c0,.11.12.19.26.19s.25-.08.25-.19v-.55C37.27,52.64,37.16,52.56,37,52.56Z"/><path class="cls-15" d="M37,55.86c-.14,0-.26.08-.26.18v.55c0,.1.12.18.26.18s.25-.08.25-.18V56C37.27,55.94,37.16,55.86,37,55.86Z"/><path class="cls-15" d="M37,54.76c-.14,0-.26.08-.26.18v.55c0,.1.12.19.26.19a.23.23,0,0,0,.25-.19v-.55C37.27,54.84,37.16,54.76,37,54.76Z"/><path class="cls-15" d="M20.24,61h-.76c-.15,0-.26.09-.26.19s.11.18.26.18h.76c.14,0,.26-.08.26-.18S20.38,61,20.24,61Z"/><path class="cls-15" d="M37,53.66c-.14,0-.26.08-.26.18v.55c0,.1.12.19.26.19a.23.23,0,0,0,.25-.19v-.55C37.27,53.74,37.16,53.66,37,53.66Z"/><path class="cls-15" d="M37.23,38.36H36.8a.18.18,0,0,0,0,.1V39c0,.1.12.18.26.18s.25-.08.25-.18v-.55A.13.13,0,0,0,37.23,38.36Z"/><path class="cls-15" d="M37,58.06c-.14,0-.26.08-.26.18v.55c0,.1.12.18.26.18s.25-.08.25-.18v-.55C37.27,58.14,37.16,58.06,37,58.06Z"/><path class="cls-15" d="M37,57c-.14,0-.26.08-.26.18v.55c0,.1.12.18.26.18s.25-.08.25-.18v-.55C37.27,57,37.16,57,37,57Z"/><path class="cls-15" d="M37,50.36c-.14,0-.26.09-.26.19v.55c0,.1.12.18.26.18s.25-.08.25-.18v-.55A.23.23,0,0,0,37,50.36Z"/><path class="cls-15" d="M37,51.46c-.14,0-.26.08-.26.19v.54c0,.11.12.19.26.19s.25-.08.25-.19v-.54C37.27,51.54,37.16,51.46,37,51.46Z"/><path class="cls-15" d="M37,46c-.14,0-.26.08-.26.18v.55c0,.1.12.18.26.18s.25-.08.25-.18v-.55C37.27,46.05,37.16,46,37,46Z"/><path class="cls-15" d="M37,48.16c-.14,0-.26.09-.26.19v.55c0,.1.12.18.26.18s.25-.08.25-.18v-.55A.23.23,0,0,0,37,48.16Z"/><path class="cls-15" d="M37,47.07c-.14,0-.26.08-.26.18v.55c0,.1.12.18.26.18s.25-.08.25-.18v-.55C37.27,47.15,37.16,47.07,37,47.07Z"/><path class="cls-15" d="M37,44.87c-.14,0-.26.08-.26.18v.55c0,.1.12.18.26.18s.25-.08.25-.18v-.55C37.27,45,37.16,44.87,37,44.87Z"/><path class="cls-15" d="M37,49.26c-.14,0-.26.09-.26.19V50c0,.1.12.18.26.18s.25-.08.25-.18v-.55A.23.23,0,0,0,37,49.26Z"/><path class="cls-15" d="M9.67,56c.14,0,.25-.08.25-.18v-.55c0-.1-.11-.18-.25-.18s-.26.08-.26.18v.55C9.41,55.92,9.53,56,9.67,56Z"/><path class="cls-15" d="M9.67,40.62c.14,0,.25-.08.25-.18v-.55c0-.11-.11-.19-.25-.19s-.26.08-.26.19v.55C9.41,40.54,9.53,40.62,9.67,40.62Z"/><path class="cls-15" d="M9.67,41.72c.14,0,.25-.08.25-.19V41c0-.1-.11-.18-.25-.18s-.26.08-.26.18v.55C9.41,41.64,9.53,41.72,9.67,41.72Z"/><path class="cls-15" d="M9.67,46.11c.14,0,.25-.08.25-.18v-.55c0-.1-.11-.18-.25-.18s-.26.08-.26.18v.55C9.41,46,9.53,46.11,9.67,46.11Z"/><path class="cls-15" d="M18.71,61H18c-.14,0-.26.09-.26.19s.12.18.26.18h.76c.14,0,.26-.08.26-.18S18.85,61,18.71,61Z"/><path class="cls-15" d="M9.67,42.82a.23.23,0,0,0,.25-.19v-.55c0-.1-.11-.18-.25-.18s-.26.08-.26.18v.55C9.41,42.73,9.53,42.82,9.67,42.82Z"/><path class="cls-15" d="M9.67,45c.14,0,.25-.08.25-.18v-.55c0-.1-.11-.18-.25-.18s-.26.08-.26.18v.55C9.41,44.93,9.53,45,9.67,45Z"/><path class="cls-15" d="M9.67,43.92a.23.23,0,0,0,.25-.19v-.55c0-.1-.11-.18-.25-.18s-.26.08-.26.18v.55C9.41,43.83,9.53,43.92,9.67,43.92Z"/><path class="cls-15" d="M9.85,38.36H9.49a.26.26,0,0,0,.18.06A.28.28,0,0,0,9.85,38.36Z"/><path class="cls-15" d="M35.37,60.79a3.53,3.53,0,0,1-.66.16c-.13,0-.23.11-.2.21a.24.24,0,0,0,.25.15h0a4.06,4.06,0,0,0,.8-.19c.12,0,.17-.16.11-.25A.29.29,0,0,0,35.37,60.79Z"/><path class="cls-15" d="M36.74,60.07a.31.31,0,0,0-.35.06,2.38,2.38,0,0,1-.45.38.15.15,0,0,0,0,.26.31.31,0,0,0,.19.06.34.34,0,0,0,.17,0,2.43,2.43,0,0,0,.54-.46A.16.16,0,0,0,36.74,60.07Z"/><path class="cls-15" d="M37,59c-.14,0-.26.08-.26.18a1.43,1.43,0,0,1-.09.5c0,.09,0,.19.17.22h.07a.27.27,0,0,0,.25-.13,1.73,1.73,0,0,0,.11-.6C37.27,59.08,37.16,59,37,59Z"/><path class="cls-15" d="M12.6,61h-.19a3,3,0,0,1-.52,0,.27.27,0,0,0-.3.15c0,.09.06.19.19.21a4.46,4.46,0,0,0,.63.05h.19c.14,0,.25-.08.25-.18A.23.23,0,0,0,12.6,61Z"/><path class="cls-15" d="M10.26,60.08h0a1.33,1.33,0,0,1-.26-.46.27.27,0,0,0-.31-.13c-.14,0-.22.12-.19.22a1.93,1.93,0,0,0,.32.55.27.27,0,0,0,.22.09l.12,0C10.29,60.28,10.33,60.17,10.26,60.08Z"/><path class="cls-15" d="M9.92,59.12v-.55c0-.1-.11-.18-.25-.18s-.26.08-.26.18v.55c0,.1.12.18.26.18S9.92,59.22,9.92,59.12Z"/><path class="cls-15" d="M9.67,39.52c.14,0,.25-.08.25-.18v-.55c0-.11-.11-.19-.25-.19s-.26.08-.26.19v.55C9.41,39.44,9.53,39.52,9.67,39.52Z"/><path class="cls-15" d="M9.67,57.1c.14,0,.25-.08.25-.18v-.55c0-.1-.11-.18-.25-.18s-.26.08-.26.18v.55C9.41,57,9.53,57.1,9.67,57.1Z"/><path class="cls-15" d="M9.67,58.2c.14,0,.25-.08.25-.18v-.55c0-.1-.11-.18-.25-.18s-.26.08-.26.18V58C9.41,58.12,9.53,58.2,9.67,58.2Z"/><path class="cls-15" d="M11.24,60.76a3.29,3.29,0,0,1-.56-.29.33.33,0,0,0-.36,0,.15.15,0,0,0,0,.26,3.57,3.57,0,0,0,.67.36l.12,0a.31.31,0,0,0,.23-.1C11.41,60.92,11.37,60.81,11.24,60.76Z"/><path class="cls-15" d="M17.18,61h-.76c-.14,0-.26.09-.26.19s.12.18.26.18h.76c.14,0,.26-.08.26-.18S17.32,61,17.18,61Z"/><path class="cls-15" d="M9.67,54.91a.23.23,0,0,0,.25-.19v-.55c0-.1-.11-.18-.25-.18s-.26.08-.26.18v.55C9.41,54.82,9.53,54.91,9.67,54.91Z"/><path class="cls-15" d="M15.65,61h-.76c-.14,0-.26.09-.26.19s.12.18.26.18h.76c.14,0,.26-.08.26-.18S15.79,61,15.65,61Z"/><path class="cls-15" d="M9.67,47.21c.14,0,.25-.08.25-.18v-.55c0-.1-.11-.18-.25-.18s-.26.08-.26.18V47C9.41,47.13,9.53,47.21,9.67,47.21Z"/><path class="cls-15" d="M14.13,61h-.77a.23.23,0,0,0-.25.19c0,.1.11.18.25.18h.77c.14,0,.25-.08.25-.18A.23.23,0,0,0,14.13,61Z"/><path class="cls-15" d="M9.67,49.41c.14,0,.25-.08.25-.18v-.55a.23.23,0,0,0-.25-.19c-.14,0-.26.09-.26.19v.55C9.41,49.33,9.53,49.41,9.67,49.41Z"/><path class="cls-15" d="M9.67,48.31c.14,0,.25-.08.25-.18v-.55c0-.1-.11-.18-.25-.18s-.26.08-.26.18v.55C9.41,48.23,9.53,48.31,9.67,48.31Z"/><path class="cls-15" d="M9.67,50.51c.14,0,.25-.08.25-.18v-.55c0-.11-.11-.19-.25-.19s-.26.08-.26.19v.55C9.41,50.43,9.53,50.51,9.67,50.51Z"/><path class="cls-15" d="M9.67,53.81a.23.23,0,0,0,.25-.19v-.55c0-.1-.11-.18-.25-.18s-.26.08-.26.18v.55C9.41,53.72,9.53,53.81,9.67,53.81Z"/><path class="cls-15" d="M9.67,52.71c.14,0,.25-.08.25-.19V52c0-.1-.11-.18-.25-.18s-.26.08-.26.18v.55C9.41,52.63,9.53,52.71,9.67,52.71Z"/><path class="cls-15" d="M9.67,51.61c.14,0,.25-.08.25-.18v-.55c0-.11-.11-.19-.25-.19s-.26.08-.26.19v.55C9.41,51.53,9.53,51.61,9.67,51.61Z"/><path class="cls-15" d="M78.49,64a.19.19,0,0,1,.21-.18h.61a.2.2,0,0,1,.21.18h0a.19.19,0,0,1-.2.18H78.7a.19.19,0,0,1-.21-.18Z"/><path class="cls-15" d="M77.46,64.15a.19.19,0,0,1-.2-.18h0a.19.19,0,0,1,.2-.18h.62a.2.2,0,0,1,.21.18h0a.2.2,0,0,1-.21.18h-.62Z"/><path class="cls-15" d="M76.23,64.15A.19.19,0,0,1,76,64h0a.19.19,0,0,1,.2-.18h.62a.19.19,0,0,1,.2.18h0a.19.19,0,0,1-.2.18h-.62Z"/><path class="cls-15" d="M75,64.15a.19.19,0,0,1-.21-.18h0a.19.19,0,0,1,.21-.18h.61a.19.19,0,0,1,.21.18h0a.19.19,0,0,1-.21.18H75Z"/><path class="cls-15" d="M73.76,64.15a.19.19,0,0,1-.2-.18h0a.19.19,0,0,1,.2-.18h.62a.2.2,0,0,1,.21.18h0a.2.2,0,0,1-.21.18h-.62Z"/><path class="cls-15" d="M72.53,64.15a.19.19,0,0,1-.2-.18h0a.19.19,0,0,1,.2-.18h.62a.19.19,0,0,1,.2.18h0a.19.19,0,0,1-.2.18h-.62Z"/><path class="cls-15" d="M71.3,64.15a.19.19,0,0,1-.21-.18h0a.19.19,0,0,1,.21-.18h.61a.19.19,0,0,1,.21.18h0a.19.19,0,0,1-.21.18H71.3Z"/><path class="cls-15" d="M70.07,64.15a.19.19,0,0,1-.21-.18h0a.19.19,0,0,1,.21-.18h.61a.2.2,0,0,1,.21.18h0a.2.2,0,0,1-.21.18h-.61Z"/><path class="cls-15" d="M68.83,64.15a.19.19,0,0,1-.2-.18h0a.19.19,0,0,1,.2-.18h.62a.19.19,0,0,1,.2.18h0a.19.19,0,0,1-.2.18h-.62Z"/><path class="cls-15" d="M67.6,64.15a.19.19,0,0,1-.21-.18h0a.19.19,0,0,1,.21-.18h.61a.19.19,0,0,1,.21.18h0a.19.19,0,0,1-.21.18H67.6Z"/><path class="cls-15" d="M66.37,64.15a.19.19,0,0,1-.21-.18h0a.19.19,0,0,1,.21-.18H67a.2.2,0,0,1,.21.18h0a.2.2,0,0,1-.21.18h-.61Z"/><path class="cls-15" d="M65.13,64.15a.19.19,0,0,1-.2-.18h0a.19.19,0,0,1,.2-.18h.62A.19.19,0,0,1,66,64h0a.19.19,0,0,1-.2.18h-.62Z"/><path class="cls-15" d="M63.9,64.15a.2.2,0,0,1-.21-.18h0a.2.2,0,0,1,.21-.18h.62a.19.19,0,0,1,.2.18h0a.19.19,0,0,1-.2.18H63.9Z"/><path class="cls-15" d="M62.67,64.15a.19.19,0,0,1-.21-.18h0a.19.19,0,0,1,.21-.18h.61a.19.19,0,0,1,.21.18h0a.19.19,0,0,1-.21.18h-.61Z"/><path class="cls-15" d="M61.43,64.15a.19.19,0,0,1-.2-.18h0a.19.19,0,0,1,.2-.18h.62a.19.19,0,0,1,.2.18h0a.19.19,0,0,1-.2.18h-.62Z"/><path class="cls-15" d="M60.2,64.15A.2.2,0,0,1,60,64h0a.2.2,0,0,1,.21-.18h.62A.19.19,0,0,1,61,64h0a.19.19,0,0,1-.2.18H60.2Z"/><path class="cls-15" d="M59,64.15a.19.19,0,0,1-.21-.18h0a.19.19,0,0,1,.21-.18h.61a.19.19,0,0,1,.21.18h0a.19.19,0,0,1-.21.18H59Z"/><path class="cls-15" d="M57.73,64.15a.19.19,0,0,1-.2-.18h0a.19.19,0,0,1,.2-.18h.62a.2.2,0,0,1,.21.18h0a.2.2,0,0,1-.21.18h-.62Z"/><path class="cls-15" d="M56.5,64.15a.2.2,0,0,1-.21-.18h0a.2.2,0,0,1,.21-.18h.62a.19.19,0,0,1,.2.18h0a.19.19,0,0,1-.2.18H56.5Z"/><path class="cls-15" d="M55.27,64.15a.19.19,0,0,1-.21-.18h0a.19.19,0,0,1,.21-.18h.61a.19.19,0,0,1,.21.18h0a.19.19,0,0,1-.21.18h-.61Z"/><path class="cls-15" d="M54,64.15a.19.19,0,0,1-.2-.18h0a.19.19,0,0,1,.2-.18h.62a.2.2,0,0,1,.21.18h0a.2.2,0,0,1-.21.18H54Z"/><path class="cls-15" d="M52.8,64.15a.19.19,0,0,1-.2-.18h0a.19.19,0,0,1,.2-.18h.62a.19.19,0,0,1,.2.18h0a.19.19,0,0,1-.2.18H52.8Z"/><path class="cls-15" d="M51.57,64.15a.19.19,0,0,1-.21-.18h0a.19.19,0,0,1,.21-.18h.61a.19.19,0,0,1,.21.18h0a.19.19,0,0,1-.21.18h-.61Z"/><path class="cls-15" d="M50.33,64.15a.19.19,0,0,1-.2-.18h0a.19.19,0,0,1,.2-.18H51a.2.2,0,0,1,.21.18h0a.2.2,0,0,1-.21.18h-.62Z"/><path class="cls-15" d="M49.1,64.15a.19.19,0,0,1-.2-.18h0a.19.19,0,0,1,.2-.18h.62a.19.19,0,0,1,.2.18h0a.19.19,0,0,1-.2.18H49.1Z"/><path class="cls-15" d="M47.87,64.15a.2.2,0,0,1-.21-.18h0a.2.2,0,0,1,.21-.18h.62a.19.19,0,0,1,.2.18h0a.19.19,0,0,1-.2.18h-.62Z"/><path class="cls-15" d="M46.63,64.15a.19.19,0,0,1-.2-.18h0a.19.19,0,0,1,.2-.18h.62a.19.19,0,0,1,.21.18h0a.19.19,0,0,1-.21.18h-.62Z"/><path class="cls-15" d="M45.4,64.15a.19.19,0,0,1-.2-.18h0a.19.19,0,0,1,.2-.18H46a.19.19,0,0,1,.2.18h0a.19.19,0,0,1-.2.18H45.4Z"/><path class="cls-15" d="M44.17,64.15A.2.2,0,0,1,44,64h0a.2.2,0,0,1,.21-.18h.62A.19.19,0,0,1,45,64h0a.19.19,0,0,1-.2.18h-.62Z"/><path class="cls-15" d="M42.94,64.15a.19.19,0,0,1-.21-.18h0a.19.19,0,0,1,.21-.18h.61a.19.19,0,0,1,.21.18h0a.19.19,0,0,1-.21.18h-.61Z"/><path class="cls-15" d="M41.7,64.15a.19.19,0,0,1-.2-.18h0a.19.19,0,0,1,.2-.18h.62a.2.2,0,0,1,.21.18h0a.2.2,0,0,1-.21.18H41.7Z"/><path class="cls-15" d="M40.47,64.15a.19.19,0,0,1-.2-.18h0a.19.19,0,0,1,.2-.18h.62a.19.19,0,0,1,.2.18h0a.19.19,0,0,1-.2.18h-.62Z"/><path class="cls-15" d="M39.24,64.15A.19.19,0,0,1,39,64h0a.19.19,0,0,1,.21-.18h.61a.19.19,0,0,1,.21.18h0a.19.19,0,0,1-.21.18h-.61Z"/><path class="cls-15" d="M38,64.15a.19.19,0,0,1-.2-.18h0a.19.19,0,0,1,.2-.18h.62a.2.2,0,0,1,.21.18h0a.2.2,0,0,1-.21.18H38Z"/><path class="cls-15" d="M36.77,64.15a.19.19,0,0,1-.2-.18h0a.19.19,0,0,1,.2-.18h.62a.19.19,0,0,1,.2.18h0a.19.19,0,0,1-.2.18h-.62Z"/><path class="cls-15" d="M35.54,64.15a.19.19,0,0,1-.21-.18h0a.19.19,0,0,1,.21-.18h.61a.19.19,0,0,1,.21.18h0a.19.19,0,0,1-.21.18h-.61Z"/><path class="cls-15" d="M34.31,64.15A.19.19,0,0,1,34.1,64h0a.19.19,0,0,1,.21-.18h.61a.2.2,0,0,1,.21.18h0a.2.2,0,0,1-.21.18h-.61Z"/><path class="cls-15" d="M33.07,64.15a.19.19,0,0,1-.2-.18h0a.19.19,0,0,1,.2-.18h.62a.19.19,0,0,1,.2.18h0a.19.19,0,0,1-.2.18h-.62Z"/><path class="cls-15" d="M31.84,64.15a.19.19,0,0,1-.21-.18h0a.19.19,0,0,1,.21-.18h.61a.19.19,0,0,1,.21.18h0a.19.19,0,0,1-.21.18h-.61Z"/><path class="cls-15" d="M30.61,64.15A.19.19,0,0,1,30.4,64h0a.19.19,0,0,1,.21-.18h.61a.2.2,0,0,1,.21.18h0a.2.2,0,0,1-.21.18h-.61Z"/><path class="cls-15" d="M29.37,64.15a.19.19,0,0,1-.2-.18h0a.19.19,0,0,1,.2-.18H30a.19.19,0,0,1,.2.18h0a.19.19,0,0,1-.2.18h-.62Z"/><path class="cls-15" d="M28.14,64.15a.19.19,0,0,1-.21-.18h0a.19.19,0,0,1,.21-.18h.62A.19.19,0,0,1,29,64h0a.19.19,0,0,1-.2.18h-.62Z"/><path class="cls-15" d="M26.91,64.15A.19.19,0,0,1,26.7,64h0a.19.19,0,0,1,.21-.18h.61a.19.19,0,0,1,.21.18h0a.19.19,0,0,1-.21.18h-.61Z"/><path class="cls-15" d="M25.67,64.15a.19.19,0,0,1-.2-.18h0a.19.19,0,0,1,.2-.18h.62a.19.19,0,0,1,.2.18h0a.19.19,0,0,1-.2.18h-.62Z"/><path class="cls-15" d="M24.44,64.15a.2.2,0,0,1-.21-.18h0a.2.2,0,0,1,.21-.18h.62a.19.19,0,0,1,.2.18h0a.19.19,0,0,1-.2.18h-.62Z"/><path class="cls-15" d="M23.21,64.15A.19.19,0,0,1,23,64h0a.19.19,0,0,1,.21-.18h.61A.19.19,0,0,1,24,64h0a.19.19,0,0,1-.21.18h-.61Z"/><path class="cls-15" d="M22,64.15a.19.19,0,0,1-.2-.18h0a.19.19,0,0,1,.2-.18h.62a.19.19,0,0,1,.2.18h0a.19.19,0,0,1-.2.18H22Z"/><path class="cls-15" d="M20.74,64.15a.2.2,0,0,1-.21-.18h0a.2.2,0,0,1,.21-.18h.62a.19.19,0,0,1,.2.18h0a.19.19,0,0,1-.2.18h-.62Z"/><path class="cls-15" d="M19.51,64.15A.19.19,0,0,1,19.3,64h0a.19.19,0,0,1,.21-.18h.61a.19.19,0,0,1,.21.18h0a.19.19,0,0,1-.21.18h-.61Z"/><path class="cls-15" d="M18.27,64.15a.19.19,0,0,1-.2-.18h0a.19.19,0,0,1,.2-.18h.62a.2.2,0,0,1,.21.18h0a.2.2,0,0,1-.21.18h-.62Z"/><path class="cls-15" d="M17,64.15a.2.2,0,0,1-.21-.18h0a.2.2,0,0,1,.21-.18h.62a.19.19,0,0,1,.2.18h0a.19.19,0,0,1-.2.18H17Z"/><path class="cls-15" d="M15.81,64.15A.19.19,0,0,1,15.6,64h0a.19.19,0,0,1,.21-.18h.61a.19.19,0,0,1,.21.18h0a.19.19,0,0,1-.21.18h-.61Z"/><path class="cls-15" d="M14.57,64.15a.19.19,0,0,1-.2-.18h0a.19.19,0,0,1,.2-.18h.62a.2.2,0,0,1,.21.18h0a.2.2,0,0,1-.21.18h-.62Z"/><path class="cls-15" d="M13.34,64.15a.19.19,0,0,1-.2-.18h0a.19.19,0,0,1,.2-.18H14a.19.19,0,0,1,.2.18h0a.19.19,0,0,1-.2.18h-.62Z"/><path class="cls-15" d="M12.11,64.15A.19.19,0,0,1,11.9,64h0a.19.19,0,0,1,.21-.18h.61a.19.19,0,0,1,.21.18h0a.19.19,0,0,1-.21.18h-.61Z"/><path class="cls-15" d="M10.88,64.15a.19.19,0,0,1-.21-.18h0a.19.19,0,0,1,.21-.18h.61a.2.2,0,0,1,.21.18h0a.2.2,0,0,1-.21.18h-.61Z"/><path class="cls-15" d="M9.64,64.15a.19.19,0,0,1-.2-.18h0a.19.19,0,0,1,.2-.18h.62a.19.19,0,0,1,.2.18h0a.19.19,0,0,1-.2.18H9.64Z"/><path class="cls-15" d="M9,64.15a4.62,4.62,0,0,1-.65-.07h0a.19.19,0,0,1-.16-.21h0a.21.21,0,0,1,.24-.15h0a3.83,3.83,0,0,0,.58.07H9a.19.19,0,0,1,.2.19h0a.2.2,0,0,1-.2.17H9Z"/><path class="cls-15" d="M79.72,64a.18.18,0,0,1,.17-.21h0a3.53,3.53,0,0,0,.56-.14h0a.21.21,0,0,1,.26.12h0a.17.17,0,0,1-.12.23h0a4.13,4.13,0,0,1-.63.14h0a.21.21,0,0,1-.21-.15Z"/><path class="cls-15" d="M7.75,63.92a3.32,3.32,0,0,1-.59-.24h0a.18.18,0,0,1-.08-.25h0a.23.23,0,0,1,.28-.06h0a4.87,4.87,0,0,0,.53.21h0a.18.18,0,0,1,.12.24H8a.19.19,0,0,1-.19.11H7.75Z"/><path class="cls-15" d="M80.9,63.64A.17.17,0,0,1,81,63.4h0l.49-.28h0a.23.23,0,0,1,.29,0h0a.18.18,0,0,1,0,.26h0a6,6,0,0,1-.55.31h0l-.1,0h0a.22.22,0,0,1-.18-.1Z"/><path class="cls-15" d="M6.62,63.36A2.89,2.89,0,0,1,6.15,63h0a.16.16,0,0,1,0-.26h0a.23.23,0,0,1,.29,0h0a3,3,0,0,0,.43.35h0a.16.16,0,0,1,0,.25h0a.2.2,0,0,1-.16.07h0a.22.22,0,0,1-.13,0Z"/><path class="cls-15" d="M81.92,63a.16.16,0,0,1,0-.25h0a4.61,4.61,0,0,0,.37-.4h0a.23.23,0,0,1,.29,0h0a.17.17,0,0,1,0,.25h0a4.37,4.37,0,0,1-.42.44h0a.2.2,0,0,1-.15.06h0a.2.2,0,0,1-.14-.06Z"/><path class="cls-15" d="M5.74,62.53A3.17,3.17,0,0,1,5.42,62h0a.17.17,0,0,1,.09-.24h0a.22.22,0,0,1,.28.08h0a2.66,2.66,0,0,0,.29.45h0a.17.17,0,0,1,0,.25H6a.27.27,0,0,1-.12,0h0a.21.21,0,0,1-.17-.08Z"/><path class="cls-15" d="M82.69,62.18a.17.17,0,0,1-.1-.24h0a2.65,2.65,0,0,0,.23-.48h0a.22.22,0,0,1,.26-.12h0a.19.19,0,0,1,.13.23h0a3.65,3.65,0,0,1-.25.53h0a.19.19,0,0,1-.18.1h0a.15.15,0,0,1-.09,0Z"/><path class="cls-15" d="M5.18,61.5A3.39,3.39,0,0,1,5.05,61h0a.18.18,0,0,1,.17-.21h0a.2.2,0,0,1,.23.16h0a2.83,2.83,0,0,0,.13.5h0a.18.18,0,0,1-.14.23H5.38a.21.21,0,0,1-.2-.13Z"/><path class="cls-15" d="M83.12,61.17A.19.19,0,0,1,83,61h0a2.94,2.94,0,0,0,0-.51h0v-.54a.2.2,0,0,1,.2-.19h0a.2.2,0,0,1,.21.19h0v.54h0a3.43,3.43,0,0,1,0,.56h0a.21.21,0,0,1-.21.16h0Z"/><path class="cls-15" d="M5,60.38v-.55a.19.19,0,0,1,.2-.18h0a.19.19,0,0,1,.21.18h0v.55a.19.19,0,0,1-.21.18h0a.19.19,0,0,1-.2-.18Z"/><path class="cls-15" d="M83,59.34V58.8a.2.2,0,0,1,.2-.19h0a.2.2,0,0,1,.21.19h0v.54a.19.19,0,0,1-.21.18h0a.19.19,0,0,1-.2-.18Z"/><path class="cls-15" d="M5,59.29v-.55a.19.19,0,0,1,.2-.18h0a.19.19,0,0,1,.21.18h0v.55a.19.19,0,0,1-.21.18h0a.19.19,0,0,1-.2-.18Z"/><path class="cls-15" d="M83,58.25v-.54a.19.19,0,0,1,.2-.18h0a.19.19,0,0,1,.21.18h0v.54a.19.19,0,0,1-.21.18h0a.19.19,0,0,1-.2-.18Z"/><path class="cls-15" d="M5,58.2v-.55a.19.19,0,0,1,.2-.18h0a.19.19,0,0,1,.21.18h0v.55a.19.19,0,0,1-.21.18h0A.19.19,0,0,1,5,58.2Z"/><path class="cls-15" d="M83,57.16v-.54a.19.19,0,0,1,.2-.18h0a.19.19,0,0,1,.21.18h0v.54a.19.19,0,0,1-.21.18h0a.19.19,0,0,1-.2-.18Z"/><path class="cls-15" d="M5,57.11v-.55a.19.19,0,0,1,.2-.18h0a.19.19,0,0,1,.21.18h0v.55a.19.19,0,0,1-.21.18h0a.19.19,0,0,1-.2-.18Z"/><path class="cls-15" d="M83,56.07v-.54a.19.19,0,0,1,.2-.18h0a.19.19,0,0,1,.21.18h0v.54a.19.19,0,0,1-.21.18h0a.19.19,0,0,1-.2-.18Z"/><path class="cls-15" d="M5,56v-.54a.2.2,0,0,1,.2-.19h0a.2.2,0,0,1,.21.19h0V56a.19.19,0,0,1-.21.18h0A.19.19,0,0,1,5,56Z"/><path class="cls-15" d="M83,55v-.54a.19.19,0,0,1,.2-.18h0a.19.19,0,0,1,.21.18h0V55a.19.19,0,0,1-.21.18h0A.19.19,0,0,1,83,55Z"/><path class="cls-15" d="M5,54.93v-.54a.2.2,0,0,1,.2-.19h0a.2.2,0,0,1,.21.19h0v.54a.19.19,0,0,1-.21.18h0a.19.19,0,0,1-.2-.18Z"/><path class="cls-15" d="M83,53.89v-.54a.19.19,0,0,1,.2-.18h0a.19.19,0,0,1,.21.18h0v.54a.2.2,0,0,1-.21.19h0a.2.2,0,0,1-.2-.19Z"/><path class="cls-15" d="M5,53.84V53.3a.2.2,0,0,1,.2-.19h0a.2.2,0,0,1,.21.19h0v.54a.19.19,0,0,1-.21.18h0a.19.19,0,0,1-.2-.18Z"/><path class="cls-15" d="M83,52.8v-.54a.19.19,0,0,1,.2-.18h0a.19.19,0,0,1,.21.18h0v.54a.2.2,0,0,1-.21.19h0a.2.2,0,0,1-.2-.19Z"/><path class="cls-15" d="M5,52.75v-.54a.19.19,0,0,1,.2-.18h0a.19.19,0,0,1,.21.18h0v.54a.19.19,0,0,1-.21.18h0a.19.19,0,0,1-.2-.18Z"/><path class="cls-15" d="M83,51.72v-.55a.19.19,0,0,1,.2-.18h0a.19.19,0,0,1,.21.18h0v.55a.2.2,0,0,1-.21.18h0a.2.2,0,0,1-.2-.18Z"/><path class="cls-15" d="M5,51.66v-.54a.19.19,0,0,1,.2-.18h0a.19.19,0,0,1,.21.18h0v.54a.19.19,0,0,1-.21.18h0a.19.19,0,0,1-.2-.18Z"/><path class="cls-15" d="M83,50.63v-.55a.19.19,0,0,1,.2-.18h0a.19.19,0,0,1,.21.18h0v.55a.19.19,0,0,1-.21.18h0a.19.19,0,0,1-.2-.18Z"/><path class="cls-15" d="M5,50.57V50a.19.19,0,0,1,.2-.18h0a.19.19,0,0,1,.21.18h0v.54a.19.19,0,0,1-.21.18h0a.19.19,0,0,1-.2-.18Z"/><path class="cls-15" d="M83,49.54V49a.19.19,0,0,1,.2-.18h0a.19.19,0,0,1,.21.18h0v.55a.19.19,0,0,1-.21.18h0a.19.19,0,0,1-.2-.18Z"/><path class="cls-15" d="M5,49.48v-.54a.19.19,0,0,1,.2-.18h0a.19.19,0,0,1,.21.18h0v.54a.19.19,0,0,1-.21.18h0a.19.19,0,0,1-.2-.18Z"/><path class="cls-15" d="M83,48.45V47.9a.19.19,0,0,1,.2-.18h0a.19.19,0,0,1,.21.18h0v.55a.19.19,0,0,1-.21.18h0a.19.19,0,0,1-.2-.18Z"/><path class="cls-15" d="M5,48.39v-.54a.19.19,0,0,1,.2-.18h0a.19.19,0,0,1,.21.18h0v.54a.2.2,0,0,1-.21.19h0a.2.2,0,0,1-.2-.19Z"/><path class="cls-15" d="M83,47.36v-.55a.19.19,0,0,1,.2-.18h0a.19.19,0,0,1,.21.18h0v.55a.19.19,0,0,1-.21.18h0a.19.19,0,0,1-.2-.18Z"/><path class="cls-15" d="M5,47.3v-.54a.19.19,0,0,1,.2-.18h0a.19.19,0,0,1,.21.18h0v.54a.2.2,0,0,1-.21.19h0A.2.2,0,0,1,5,47.3Z"/><path class="cls-15" d="M83,46.27v-.55a.19.19,0,0,1,.2-.18h0a.19.19,0,0,1,.21.18h0v.55a.19.19,0,0,1-.21.18h0a.19.19,0,0,1-.2-.18Z"/><path class="cls-15" d="M5,46.21v-.54a.19.19,0,0,1,.2-.18h0a.19.19,0,0,1,.21.18h0v.54a.2.2,0,0,1-.21.19h0a.2.2,0,0,1-.2-.19Z"/><path class="cls-15" d="M83,45.18v-.55a.19.19,0,0,1,.2-.18h0a.19.19,0,0,1,.21.18h0v.55a.19.19,0,0,1-.21.18h0a.19.19,0,0,1-.2-.18Z"/><path class="cls-15" d="M5,45.13v-.55a.19.19,0,0,1,.2-.18h0a.19.19,0,0,1,.21.18h0v.55a.19.19,0,0,1-.21.18h0a.19.19,0,0,1-.2-.18Z"/><path class="cls-15" d="M83,44.09v-.55a.19.19,0,0,1,.2-.18h0a.19.19,0,0,1,.21.18h0v.55a.19.19,0,0,1-.21.18h0a.19.19,0,0,1-.2-.18Z"/><path class="cls-15" d="M5,44v-.55a.19.19,0,0,1,.2-.18h0a.19.19,0,0,1,.21.18h0V44a.19.19,0,0,1-.21.18h0A.19.19,0,0,1,5,44Z"/><path class="cls-15" d="M83,43v-.55a.19.19,0,0,1,.2-.18h0a.19.19,0,0,1,.21.18h0V43a.19.19,0,0,1-.21.18h0A.19.19,0,0,1,83,43Z"/><path class="cls-15" d="M5,43V42.4a.19.19,0,0,1,.2-.18h0a.19.19,0,0,1,.21.18h0V43a.19.19,0,0,1-.21.18h0A.19.19,0,0,1,5,43Z"/><path class="cls-15" d="M83,41.91v-.54a.19.19,0,0,1,.2-.19h0a.2.2,0,0,1,.21.19h0v.54a.19.19,0,0,1-.21.18h0a.19.19,0,0,1-.2-.18Z"/><path class="cls-15" d="M5,41.86v-.55a.19.19,0,0,1,.2-.18h0a.19.19,0,0,1,.21.18h0v.55a.19.19,0,0,1-.21.18h0a.19.19,0,0,1-.2-.18Z"/><path class="cls-15" d="M83,40.82v-.54a.2.2,0,0,1,.2-.19h0a.2.2,0,0,1,.21.19h0v.54a.19.19,0,0,1-.21.18h0a.19.19,0,0,1-.2-.18Z"/><path class="cls-15" d="M5,40.77v-.55a.19.19,0,0,1,.2-.18h0a.19.19,0,0,1,.21.18h0v.55a.19.19,0,0,1-.21.18h0a.19.19,0,0,1-.2-.18Z"/><path class="cls-15" d="M83,39.73v-.54a.2.2,0,0,1,.2-.19h0a.2.2,0,0,1,.21.19h0v.54a.19.19,0,0,1-.21.18h0a.19.19,0,0,1-.2-.18Z"/><path class="cls-15" d="M5,39.68v-.55a.19.19,0,0,1,.2-.18h0a.19.19,0,0,1,.21.18h0v.55a.19.19,0,0,1-.21.18h0a.19.19,0,0,1-.2-.18Z"/><path class="cls-15" d="M83,38.64V38.1a.19.19,0,0,1,.2-.18h0a.19.19,0,0,1,.21.18h0v.54a.19.19,0,0,1-.21.18h0a.19.19,0,0,1-.2-.18Z"/><path class="cls-15" d="M5,38.59V38a.19.19,0,0,1,.2-.18h0a.19.19,0,0,1,.21.18h0v.55a.19.19,0,0,1-.21.18h0a.19.19,0,0,1-.2-.18Z"/><path class="cls-15" d="M83,37.55V37a.19.19,0,0,1,.2-.18h0a.19.19,0,0,1,.21.18h0v.54a.19.19,0,0,1-.21.18h0a.19.19,0,0,1-.2-.18Z"/><path class="cls-15" d="M5,37.5V37a.19.19,0,0,1,.2-.19h0a.2.2,0,0,1,.21.19h0v.54a.19.19,0,0,1-.21.18h0A.19.19,0,0,1,5,37.5Z"/><path class="cls-15" d="M83,36.46v-.54a.19.19,0,0,1,.2-.18h0a.19.19,0,0,1,.21.18h0v.54a.19.19,0,0,1-.21.18h0a.19.19,0,0,1-.2-.18Z"/><path class="cls-15" d="M5,36.41v-.54a.2.2,0,0,1,.2-.19h0a.2.2,0,0,1,.21.19h0v.54a.19.19,0,0,1-.21.18h0a.19.19,0,0,1-.2-.18Z"/><path class="cls-15" d="M83,35.37v-.54a.19.19,0,0,1,.2-.18h0a.19.19,0,0,1,.21.18h0v.54a.2.2,0,0,1-.21.19h0a.2.2,0,0,1-.2-.19Z"/><path class="cls-15" d="M5,35.32v-.54a.2.2,0,0,1,.2-.19h0a.2.2,0,0,1,.21.19h0v.54a.19.19,0,0,1-.21.18h0a.19.19,0,0,1-.2-.18Z"/><path class="cls-15" d="M83,34.28v-.54a.19.19,0,0,1,.2-.18h0a.19.19,0,0,1,.21.18h0v.54a.2.2,0,0,1-.21.19h0a.2.2,0,0,1-.2-.19Z"/><path class="cls-15" d="M5,34.23v-.54a.2.2,0,0,1,.2-.19h0a.2.2,0,0,1,.21.19h0v.54a.19.19,0,0,1-.21.18h0a.19.19,0,0,1-.2-.18Z"/><path class="cls-15" d="M83,33.19v-.54a.19.19,0,0,1,.2-.18h0a.19.19,0,0,1,.21.18h0v.54a.2.2,0,0,1-.21.19h0a.19.19,0,0,1-.2-.19Z"/><path class="cls-15" d="M5,33.14V32.6a.19.19,0,0,1,.2-.18h0a.19.19,0,0,1,.21.18h0v.54a.19.19,0,0,1-.21.18h0a.19.19,0,0,1-.2-.18Z"/><path class="cls-15" d="M83,32.11v-.55a.19.19,0,0,1,.2-.18h0a.19.19,0,0,1,.21.18h0v.55a.19.19,0,0,1-.21.18h0a.19.19,0,0,1-.2-.18Z"/><path class="cls-15" d="M5,32.05v-.54a.19.19,0,0,1,.2-.18h0a.19.19,0,0,1,.21.18h0v.54a.19.19,0,0,1-.21.18h0a.19.19,0,0,1-.2-.18Z"/><path class="cls-15" d="M83,31v-.55a.19.19,0,0,1,.2-.18h0a.19.19,0,0,1,.21.18h0V31a.19.19,0,0,1-.21.18h0A.19.19,0,0,1,83,31Z"/><path class="cls-15" d="M5,31v-.54a.19.19,0,0,1,.2-.18h0a.19.19,0,0,1,.21.18h0V31a.2.2,0,0,1-.21.19h0A.2.2,0,0,1,5,31Z"/><path class="cls-15" d="M83,29.93v-.55a.19.19,0,0,1,.2-.18h0a.19.19,0,0,1,.21.18h0v.55a.19.19,0,0,1-.21.18h0a.19.19,0,0,1-.2-.18Z"/><path class="cls-15" d="M5,29.87v-.54a.19.19,0,0,1,.2-.18h0a.19.19,0,0,1,.21.18h0v.54a.2.2,0,0,1-.21.19h0a.2.2,0,0,1-.2-.19Z"/><path class="cls-15" d="M83,28.84v-.55a.19.19,0,0,1,.2-.18h0a.19.19,0,0,1,.21.18h0v.55a.19.19,0,0,1-.21.18h0a.19.19,0,0,1-.2-.18Z"/><path class="cls-15" d="M5,28.79v-.55a.19.19,0,0,1,.2-.18h0a.19.19,0,0,1,.21.18h0v.55a.2.2,0,0,1-.21.18h0a.2.2,0,0,1-.2-.18Z"/><path class="cls-15" d="M83,27.75V27.2a.19.19,0,0,1,.2-.18h0a.19.19,0,0,1,.21.18h0v.55a.19.19,0,0,1-.21.18h0a.19.19,0,0,1-.2-.18Z"/><path class="cls-15" d="M5,27.69v-.54a.19.19,0,0,1,.2-.18h0a.19.19,0,0,1,.21.18h0v.54a.2.2,0,0,1-.21.19h0a.19.19,0,0,1-.2-.19Z"/><path class="cls-15" d="M83,26.66v-.55a.19.19,0,0,1,.2-.18h0a.19.19,0,0,1,.21.18h0v.55a.19.19,0,0,1-.21.18h0a.19.19,0,0,1-.2-.18Z"/><path class="cls-15" d="M5,26.61v-.55a.19.19,0,0,1,.2-.18h0a.19.19,0,0,1,.21.18h0v.55a.19.19,0,0,1-.21.18h0a.19.19,0,0,1-.2-.18Z"/><path class="cls-15" d="M83,25.57V25a.19.19,0,0,1,.2-.18h0a.19.19,0,0,1,.21.18h0v.55a.19.19,0,0,1-.21.18h0a.19.19,0,0,1-.2-.18Z"/><path class="cls-15" d="M5,25.52V25a.19.19,0,0,1,.2-.18h0a.19.19,0,0,1,.21.18h0v.55a.19.19,0,0,1-.21.18h0a.19.19,0,0,1-.2-.18Z"/><path class="cls-15" d="M83,24.48v-.55a.19.19,0,0,1,.2-.18h0a.19.19,0,0,1,.21.18h0v.55a.19.19,0,0,1-.21.18h0a.19.19,0,0,1-.2-.18Z"/><path class="cls-15" d="M5,24.43v-.55a.19.19,0,0,1,.2-.18h0a.19.19,0,0,1,.21.18h0v.55a.19.19,0,0,1-.21.18h0a.19.19,0,0,1-.2-.18Z"/><path class="cls-15" d="M83,23.39v-.54a.19.19,0,0,1,.2-.19h0a.2.2,0,0,1,.21.19h0v.54a.19.19,0,0,1-.21.18h0a.19.19,0,0,1-.2-.18Z"/><path class="cls-15" d="M5,23.34v-.55a.19.19,0,0,1,.2-.18h0a.19.19,0,0,1,.21.18h0v.55a.19.19,0,0,1-.21.18h0a.19.19,0,0,1-.2-.18Z"/><path class="cls-15" d="M83,22.3v-.54a.19.19,0,0,1,.2-.18h0a.19.19,0,0,1,.21.18h0v.54a.19.19,0,0,1-.21.18h0a.19.19,0,0,1-.2-.18Z"/><path class="cls-15" d="M5,22.25V21.7a.19.19,0,0,1,.2-.18h0a.19.19,0,0,1,.21.18h0v.55a.19.19,0,0,1-.21.18h0a.19.19,0,0,1-.2-.18Z"/><path class="cls-15" d="M83,21.21v-.54a.19.19,0,0,1,.2-.18h0a.19.19,0,0,1,.21.18h0v.54a.19.19,0,0,1-.21.18h0a.19.19,0,0,1-.2-.18Z"/><path class="cls-15" d="M5,21.16v-.55a.19.19,0,0,1,.2-.18h0a.19.19,0,0,1,.21.18h0v.55a.19.19,0,0,1-.21.18h0a.19.19,0,0,1-.2-.18Z"/><path class="cls-15" d="M83,20.12v-.54a.19.19,0,0,1,.2-.18h0a.19.19,0,0,1,.21.18h0v.54a.19.19,0,0,1-.21.18h0a.19.19,0,0,1-.2-.18Z"/><path class="cls-15" d="M5,20.07v-.55a.19.19,0,0,1,.2-.18h0a.19.19,0,0,1,.21.18h0v.55a.19.19,0,0,1-.21.18h0a.19.19,0,0,1-.2-.18Z"/><path class="cls-15" d="M83,19v-.54a.19.19,0,0,1,.2-.18h0a.19.19,0,0,1,.21.18h0V19a.19.19,0,0,1-.21.18h0A.19.19,0,0,1,83,19Z"/><path class="cls-15" d="M5,19v-.54a.19.19,0,0,1,.2-.19h0a.2.2,0,0,1,.21.19h0V19a.19.19,0,0,1-.21.18h0A.19.19,0,0,1,5,19Z"/><path class="cls-15" d="M83,17.94V17.4a.19.19,0,0,1,.2-.18h0a.19.19,0,0,1,.21.18h0v.54a.19.19,0,0,1-.21.18h0a.19.19,0,0,1-.2-.18Z"/><path class="cls-15" d="M5,17.89v-.54a.2.2,0,0,1,.2-.19h0a.2.2,0,0,1,.21.19h0v.54a.19.19,0,0,1-.21.18h0a.19.19,0,0,1-.2-.18Z"/><path class="cls-15" d="M83,16.85v-.54a.19.19,0,0,1,.2-.18h0a.19.19,0,0,1,.21.18h0v.54a.2.2,0,0,1-.21.19h0a.2.2,0,0,1-.2-.19Z"/><path class="cls-15" d="M5,16.8v-.54a.2.2,0,0,1,.2-.19h0a.2.2,0,0,1,.21.19h0v.54a.19.19,0,0,1-.21.18h0A.19.19,0,0,1,5,16.8Z"/><path class="cls-15" d="M83,15.76v-.54a.19.19,0,0,1,.2-.18h0a.19.19,0,0,1,.21.18h0v.54a.2.2,0,0,1-.21.19h0a.2.2,0,0,1-.2-.19Z"/><path class="cls-15" d="M5,15.71v-.54a.19.19,0,0,1,.2-.18h0a.19.19,0,0,1,.21.18h0v.54a.19.19,0,0,1-.21.18h0a.19.19,0,0,1-.2-.18Z"/><path class="cls-15" d="M83,14.68v-.55a.19.19,0,0,1,.2-.18h0a.19.19,0,0,1,.21.18h0v.55a.2.2,0,0,1-.21.18h0a.2.2,0,0,1-.2-.18Z"/><path class="cls-15" d="M5,14.62v-.54a.19.19,0,0,1,.2-.18h0a.19.19,0,0,1,.21.18h0v.54a.19.19,0,0,1-.21.18h0a.19.19,0,0,1-.2-.18Z"/><path class="cls-15" d="M83,13.59V13a.19.19,0,0,1,.2-.18h0a.19.19,0,0,1,.21.18h0v.55a.19.19,0,0,1-.21.18h0a.19.19,0,0,1-.2-.18Z"/><path class="cls-15" d="M5,13.53V13a.19.19,0,0,1,.2-.18h0a.19.19,0,0,1,.21.18h0v.54a.19.19,0,0,1-.21.18h0a.19.19,0,0,1-.2-.18Z"/><path class="cls-15" d="M83,12.51a2.72,2.72,0,0,0-.08-.51h0a.18.18,0,0,1,.16-.22h0a.2.2,0,0,1,.24.14h0a2.61,2.61,0,0,1,.09.57h0a.19.19,0,0,1-.19.19h0a.2.2,0,0,1-.2-.17Z"/><path class="cls-15" d="M5.21,12.62A.18.18,0,0,1,5,12.43H5a3.78,3.78,0,0,1,.1-.57h0a.21.21,0,0,1,.25-.13h0a.19.19,0,0,1,.15.22h0a2.09,2.09,0,0,0-.09.51h0a.2.2,0,0,1-.21.16h0Z"/><path class="cls-15" d="M82.74,11.5a4.09,4.09,0,0,0-.25-.46h0a.17.17,0,0,1,.07-.25h0a.22.22,0,0,1,.28.07h0a3.15,3.15,0,0,1,.28.51h0a.18.18,0,0,1-.11.24h-.08a.21.21,0,0,1-.19-.12Z"/><path class="cls-15" d="M5.43,11.56a.18.18,0,0,1-.12-.24h0a4.21,4.21,0,0,1,.29-.51h0a.22.22,0,0,1,.29-.06h0A.17.17,0,0,1,6,11H6a2.59,2.59,0,0,0-.26.46h0a.23.23,0,0,1-.2.11H5.43Z"/><path class="cls-15" d="M82.15,10.61a2.83,2.83,0,0,0-.4-.37h0a.17.17,0,0,1,0-.26h0A.23.23,0,0,1,82,10h0a4.47,4.47,0,0,1,.45.42h0a.16.16,0,0,1,0,.25h0a.17.17,0,0,1-.12,0h0a.22.22,0,0,1-.17-.07Z"/><path class="cls-15" d="M6,10.6a.17.17,0,0,1,0-.26H6a4.38,4.38,0,0,1,.45-.41h0a.22.22,0,0,1,.29,0h0a.16.16,0,0,1,0,.25h0a4.73,4.73,0,0,0-.4.37h0a.18.18,0,0,1-.15.07h0a.18.18,0,0,1-.13,0Z"/><path class="cls-15" d="M81.29,9.92a4,4,0,0,0-.51-.25h0a.18.18,0,0,1-.1-.24h0A.23.23,0,0,1,81,9.34h0a4.18,4.18,0,0,1,.56.28h0a.17.17,0,0,1,.06.25h0a.23.23,0,0,1-.17.08h0a.27.27,0,0,1-.12,0Z"/><path class="cls-15" d="M6.88,9.84A.17.17,0,0,1,7,9.59H7a3.77,3.77,0,0,1,.57-.28h0a.21.21,0,0,1,.27.1h0a.18.18,0,0,1-.11.24h0a4,4,0,0,0-.51.24h0a.23.23,0,0,1-.11,0h0a.23.23,0,0,1-.18-.08Z"/><path class="cls-15" d="M80.24,9.49a3.7,3.7,0,0,0-.58-.1h0a.18.18,0,0,1-.17-.21h0A.2.2,0,0,1,79.71,9h0a4.5,4.5,0,0,1,.64.11h0a.18.18,0,0,1,.14.22h0a.22.22,0,0,1-.2.14h-.05Z"/><path class="cls-15" d="M8,9.35a.19.19,0,0,1,.15-.23h0A6.37,6.37,0,0,1,8.76,9h0A.2.2,0,0,1,9,9.18H9a.19.19,0,0,1-.18.2h0a3.7,3.7,0,0,0-.58.1H8.18A.21.21,0,0,1,8,9.35Z"/><path class="cls-15" d="M78.46,9.36a.19.19,0,0,1-.21-.18h0A.19.19,0,0,1,78.46,9h.61a.19.19,0,0,1,.21.18h0a.19.19,0,0,1-.21.18h-.61Z"/><path class="cls-15" d="M77.22,9.36a.19.19,0,0,1-.2-.18h0a.19.19,0,0,1,.2-.18h.62a.2.2,0,0,1,.21.18h0a.2.2,0,0,1-.21.18h-.62Z"/><path class="cls-15" d="M76,9.36a.19.19,0,0,1-.2-.18h0A.19.19,0,0,1,76,9h.62a.19.19,0,0,1,.2.18h0a.19.19,0,0,1-.2.18H76Z"/><path class="cls-15" d="M74.76,9.36a.19.19,0,0,1-.21-.18h0A.19.19,0,0,1,74.76,9h.61a.19.19,0,0,1,.21.18h0a.19.19,0,0,1-.21.18h-.61Z"/><path class="cls-15" d="M73.52,9.36a.19.19,0,0,1-.2-.18h0a.19.19,0,0,1,.2-.18h.62a.2.2,0,0,1,.21.18h0a.2.2,0,0,1-.21.18h-.62Z"/><path class="cls-15" d="M72.29,9.36a.2.2,0,0,1-.21-.18h0A.2.2,0,0,1,72.29,9h.62a.19.19,0,0,1,.2.18h0a.19.19,0,0,1-.2.18h-.62Z"/><path class="cls-15" d="M71.06,9.36a.19.19,0,0,1-.21-.18h0A.19.19,0,0,1,71.06,9h.61a.19.19,0,0,1,.21.18h0a.19.19,0,0,1-.21.18h-.61Z"/><path class="cls-15" d="M69.82,9.36a.19.19,0,0,1-.2-.18h0a.19.19,0,0,1,.2-.18h.62a.2.2,0,0,1,.21.18h0a.2.2,0,0,1-.21.18h-.62Z"/><path class="cls-15" d="M68.59,9.36a.19.19,0,0,1-.2-.18h0a.19.19,0,0,1,.2-.18h.62a.19.19,0,0,1,.2.18h0a.19.19,0,0,1-.2.18h-.62Z"/><path class="cls-15" d="M67.36,9.36a.19.19,0,0,1-.21-.18h0A.19.19,0,0,1,67.36,9H68a.19.19,0,0,1,.2.18h0a.19.19,0,0,1-.2.18h-.62Z"/><path class="cls-15" d="M66.12,9.36a.19.19,0,0,1-.2-.18h0a.19.19,0,0,1,.2-.18h.62a.19.19,0,0,1,.21.18h0a.19.19,0,0,1-.21.18h-.62Z"/><path class="cls-15" d="M64.89,9.36a.19.19,0,0,1-.2-.18h0a.19.19,0,0,1,.2-.18h.62a.19.19,0,0,1,.2.18h0a.19.19,0,0,1-.2.18h-.62Z"/><path class="cls-15" d="M63.66,9.36a.19.19,0,0,1-.21-.18h0A.19.19,0,0,1,63.66,9h.62a.19.19,0,0,1,.2.18h0a.19.19,0,0,1-.2.18h-.62Z"/><path class="cls-15" d="M62.43,9.36a.19.19,0,0,1-.21-.18h0A.19.19,0,0,1,62.43,9H63a.19.19,0,0,1,.21.18h0a.19.19,0,0,1-.21.18h-.61Z"/><path class="cls-15" d="M61.19,9.36a.19.19,0,0,1-.2-.18h0a.19.19,0,0,1,.2-.18h.62a.19.19,0,0,1,.2.18h0a.19.19,0,0,1-.2.18h-.62Z"/><path class="cls-15" d="M60,9.36a.2.2,0,0,1-.21-.18h0A.2.2,0,0,1,60,9h.62a.19.19,0,0,1,.2.18h0a.19.19,0,0,1-.2.18H60Z"/><path class="cls-15" d="M58.73,9.36a.19.19,0,0,1-.21-.18h0A.19.19,0,0,1,58.73,9h.61a.19.19,0,0,1,.21.18h0a.19.19,0,0,1-.21.18h-.61Z"/><path class="cls-15" d="M57.49,9.36a.19.19,0,0,1-.2-.18h0a.19.19,0,0,1,.2-.18h.62a.19.19,0,0,1,.2.18h0a.19.19,0,0,1-.2.18h-.62Z"/><path class="cls-15" d="M56.26,9.36a.2.2,0,0,1-.21-.18h0A.2.2,0,0,1,56.26,9h.62a.19.19,0,0,1,.2.18h0a.19.19,0,0,1-.2.18h-.62Z"/><path class="cls-15" d="M55,9.36a.19.19,0,0,1-.21-.18h0A.19.19,0,0,1,55,9h.61a.19.19,0,0,1,.21.18h0a.19.19,0,0,1-.21.18H55Z"/><path class="cls-15" d="M53.79,9.36a.19.19,0,0,1-.2-.18h0a.19.19,0,0,1,.2-.18h.62a.2.2,0,0,1,.21.18h0a.2.2,0,0,1-.21.18h-.62Z"/><path class="cls-15" d="M52.56,9.36a.19.19,0,0,1-.2-.18h0a.19.19,0,0,1,.2-.18h.62a.19.19,0,0,1,.2.18h0a.19.19,0,0,1-.2.18h-.62Z"/><path class="cls-15" d="M51.33,9.36a.19.19,0,0,1-.21-.18h0A.19.19,0,0,1,51.33,9h.61a.19.19,0,0,1,.21.18h0a.19.19,0,0,1-.21.18h-.61Z"/><path class="cls-15" d="M50.09,9.36a.19.19,0,0,1-.2-.18h0a.19.19,0,0,1,.2-.18h.62a.19.19,0,0,1,.2.18h0a.19.19,0,0,1-.2.18h-.62Z"/><path class="cls-15" d="M48.86,9.36a.19.19,0,0,1-.2-.18h0a.19.19,0,0,1,.2-.18h.62a.19.19,0,0,1,.2.18h0a.19.19,0,0,1-.2.18h-.62Z"/><path class="cls-15" d="M47.63,9.36a.19.19,0,0,1-.21-.18h0A.19.19,0,0,1,47.63,9h.62a.19.19,0,0,1,.2.18h0a.19.19,0,0,1-.2.18h-.62Z"/><path class="cls-15" d="M46.39,9.36a.19.19,0,0,1-.2-.18h0a.19.19,0,0,1,.2-.18H47a.2.2,0,0,1,.21.18h0a.2.2,0,0,1-.21.18h-.62Z"/><path class="cls-15" d="M45.16,9.36a.19.19,0,0,1-.2-.18h0a.19.19,0,0,1,.2-.18h.62a.19.19,0,0,1,.2.18h0a.19.19,0,0,1-.2.18h-.62Z"/><path class="cls-15" d="M43.93,9.36a.19.19,0,0,1-.21-.18h0A.19.19,0,0,1,43.93,9h.62a.19.19,0,0,1,.2.18h0a.19.19,0,0,1-.2.18h-.62Z"/><path class="cls-15" d="M42.7,9.36a.19.19,0,0,1-.21-.18h0A.19.19,0,0,1,42.7,9h.61a.19.19,0,0,1,.21.18h0a.19.19,0,0,1-.21.18H42.7Z"/><path class="cls-15" d="M41.46,9.36a.19.19,0,0,1-.2-.18h0a.19.19,0,0,1,.2-.18h.62a.2.2,0,0,1,.21.18h0a.2.2,0,0,1-.21.18h-.62Z"/><path class="cls-15" d="M40.23,9.36A.2.2,0,0,1,40,9.18h0A.2.2,0,0,1,40.23,9h.62a.19.19,0,0,1,.2.18h0a.19.19,0,0,1-.2.18h-.62Z"/><path class="cls-15" d="M39,9.36a.19.19,0,0,1-.21-.18h0A.19.19,0,0,1,39,9h.61a.19.19,0,0,1,.21.18h0a.19.19,0,0,1-.21.18H39Z"/><path class="cls-15" d="M37.76,9.36a.19.19,0,0,1-.2-.18h0a.19.19,0,0,1,.2-.18h.62a.2.2,0,0,1,.21.18h0a.2.2,0,0,1-.21.18h-.62Z"/><path class="cls-15" d="M36.53,9.36a.2.2,0,0,1-.21-.18h0A.2.2,0,0,1,36.53,9h.62a.19.19,0,0,1,.2.18h0a.19.19,0,0,1-.2.18h-.62Z"/><path class="cls-15" d="M35.3,9.36a.19.19,0,0,1-.21-.18h0A.19.19,0,0,1,35.3,9h.61a.19.19,0,0,1,.21.18h0a.19.19,0,0,1-.21.18H35.3Z"/><path class="cls-15" d="M34.06,9.36a.19.19,0,0,1-.2-.18h0a.19.19,0,0,1,.2-.18h.62a.2.2,0,0,1,.21.18h0a.2.2,0,0,1-.21.18h-.62Z"/><path class="cls-15" d="M32.83,9.36a.2.2,0,0,1-.21-.18h0A.2.2,0,0,1,32.83,9h.62a.19.19,0,0,1,.2.18h0a.19.19,0,0,1-.2.18h-.62Z"/><path class="cls-15" d="M31.6,9.36a.19.19,0,0,1-.21-.18h0A.19.19,0,0,1,31.6,9h.61a.19.19,0,0,1,.21.18h0a.19.19,0,0,1-.21.18H31.6Z"/><path class="cls-15" d="M30.36,9.36a.19.19,0,0,1-.2-.18h0a.19.19,0,0,1,.2-.18H31a.19.19,0,0,1,.21.18h0a.19.19,0,0,1-.21.18h-.62Z"/><path class="cls-15" d="M29.13,9.36a.19.19,0,0,1-.2-.18h0a.19.19,0,0,1,.2-.18h.62a.19.19,0,0,1,.2.18h0a.19.19,0,0,1-.2.18h-.62Z"/><path class="cls-15" d="M27.9,9.36a.19.19,0,0,1-.21-.18h0A.19.19,0,0,1,27.9,9h.62a.19.19,0,0,1,.2.18h0a.19.19,0,0,1-.2.18H27.9Z"/><path class="cls-15" d="M26.67,9.36a.19.19,0,0,1-.21-.18h0A.19.19,0,0,1,26.67,9h.61a.19.19,0,0,1,.21.18h0a.19.19,0,0,1-.21.18h-.61Z"/><path class="cls-15" d="M25.43,9.36a.19.19,0,0,1-.2-.18h0a.19.19,0,0,1,.2-.18h.62a.19.19,0,0,1,.2.18h0a.19.19,0,0,1-.2.18h-.62Z"/><path class="cls-15" d="M24.2,9.36A.2.2,0,0,1,24,9.18h0A.2.2,0,0,1,24.2,9h.62a.19.19,0,0,1,.2.18h0a.19.19,0,0,1-.2.18H24.2Z"/><path class="cls-15" d="M23,9.36a.19.19,0,0,1-.21-.18h0A.19.19,0,0,1,23,9h.61a.19.19,0,0,1,.21.18h0a.19.19,0,0,1-.21.18H23Z"/><path class="cls-15" d="M21.73,9.36a.19.19,0,0,1-.2-.18h0a.19.19,0,0,1,.2-.18h.62a.19.19,0,0,1,.2.18h0a.19.19,0,0,1-.2.18h-.62Z"/><path class="cls-15" d="M20.5,9.36a.2.2,0,0,1-.21-.18h0A.2.2,0,0,1,20.5,9h.62a.19.19,0,0,1,.2.18h0a.19.19,0,0,1-.2.18H20.5Z"/><path class="cls-15" d="M19.27,9.36a.19.19,0,0,1-.21-.18h0A.19.19,0,0,1,19.27,9h.61a.19.19,0,0,1,.21.18h0a.19.19,0,0,1-.21.18h-.61Z"/><path class="cls-15" d="M18,9.36a.19.19,0,0,1-.2-.18h0A.19.19,0,0,1,18,9h.62a.19.19,0,0,1,.2.18h0a.19.19,0,0,1-.2.18H18Z"/><path class="cls-15" d="M16.8,9.36a.2.2,0,0,1-.21-.18h0A.2.2,0,0,1,16.8,9h.62a.19.19,0,0,1,.2.18h0a.19.19,0,0,1-.2.18H16.8Z"/><path class="cls-15" d="M15.57,9.36a.19.19,0,0,1-.21-.18h0A.19.19,0,0,1,15.57,9h.61a.19.19,0,0,1,.21.18h0a.19.19,0,0,1-.21.18h-.61Z"/><path class="cls-15" d="M14.33,9.36a.19.19,0,0,1-.2-.18h0a.19.19,0,0,1,.2-.18H15a.2.2,0,0,1,.21.18h0a.2.2,0,0,1-.21.18h-.62Z"/><path class="cls-15" d="M13.1,9.36a.2.2,0,0,1-.21-.18h0A.2.2,0,0,1,13.1,9h.62a.19.19,0,0,1,.2.18h0a.19.19,0,0,1-.2.18H13.1Z"/><path class="cls-15" d="M11.87,9.36a.19.19,0,0,1-.21-.18h0A.19.19,0,0,1,11.87,9h.61a.19.19,0,0,1,.21.18h0a.19.19,0,0,1-.21.18h-.61Z"/><path class="cls-15" d="M10.63,9.36a.19.19,0,0,1-.2-.18h0a.19.19,0,0,1,.2-.18h.62a.19.19,0,0,1,.21.18h0a.19.19,0,0,1-.21.18h-.62Z"/><path class="cls-15" d="M9.4,9.36a.19.19,0,0,1-.2-.18h0A.19.19,0,0,1,9.4,9H10a.19.19,0,0,1,.2.18h0a.19.19,0,0,1-.2.18H9.4Z"/><path class="cls-18" d="M5.43,7.81A2.27,2.27,0,0,0,3,9.92V33.19a12,12,0,0,0,.87,4.08s.08.82,1.24,1.35a12.89,12.89,0,0,0,4.5,1H78.77a12.84,12.84,0,0,0,4.49-1c1.16-.53,2.11-4.27,2.11-5.43V9.92A2.27,2.27,0,0,0,83,7.81Z"/><path class="cls-15" d="M77.24,38.8a.19.19,0,0,1-.21-.18h0a.19.19,0,0,1,.21-.18h.61a.19.19,0,0,1,.21.17h0a.2.2,0,0,1-.2.19h-.62Z"/><path class="cls-15" d="M76,38.8a.19.19,0,0,1-.2-.18h0a.19.19,0,0,1,.2-.18h.62a.19.19,0,0,1,.21.18h0a.19.19,0,0,1-.21.18H76Z"/><path class="cls-15" d="M74.77,38.8a.19.19,0,0,1-.2-.18h0a.19.19,0,0,1,.2-.18h.62a.19.19,0,0,1,.2.18h0a.19.19,0,0,1-.2.18h-.62Z"/><path class="cls-15" d="M73.54,38.8a.19.19,0,0,1-.21-.18h0a.19.19,0,0,1,.21-.18h.62a.19.19,0,0,1,.2.18h0a.19.19,0,0,1-.2.18h-.62Z"/><path class="cls-15" d="M72.3,38.8a.19.19,0,0,1-.2-.18h0a.19.19,0,0,1,.2-.18h.62a.19.19,0,0,1,.21.18h0a.19.19,0,0,1-.21.18H72.3Z"/><path class="cls-15" d="M71.07,38.8a.19.19,0,0,1-.2-.18h0a.19.19,0,0,1,.2-.18h.62a.19.19,0,0,1,.2.18h0a.19.19,0,0,1-.2.18h-.62Z"/><path class="cls-15" d="M69.84,38.8a.2.2,0,0,1-.21-.18h0a.2.2,0,0,1,.21-.18h.62a.19.19,0,0,1,.2.18h0a.19.19,0,0,1-.2.18h-.62Z"/><path class="cls-15" d="M68.61,38.8a.19.19,0,0,1-.21-.18h0a.19.19,0,0,1,.21-.18h.61a.19.19,0,0,1,.21.18h0a.19.19,0,0,1-.21.18h-.61Z"/><path class="cls-15" d="M67.37,38.8a.19.19,0,0,1-.2-.18h0a.19.19,0,0,1,.2-.18H68a.2.2,0,0,1,.21.18h0a.2.2,0,0,1-.21.18h-.62Z"/><path class="cls-15" d="M66.14,38.8a.2.2,0,0,1-.21-.18h0a.2.2,0,0,1,.21-.18h.62a.19.19,0,0,1,.2.18h0a.19.19,0,0,1-.2.18h-.62Z"/><path class="cls-15" d="M64.91,38.8a.19.19,0,0,1-.21-.18h0a.19.19,0,0,1,.21-.18h.61a.19.19,0,0,1,.21.18h0a.19.19,0,0,1-.21.18h-.61Z"/><path class="cls-15" d="M63.67,38.8a.19.19,0,0,1-.2-.18h0a.19.19,0,0,1,.2-.18h.62a.2.2,0,0,1,.21.18h0a.2.2,0,0,1-.21.18h-.62Z"/><path class="cls-15" d="M62.44,38.8a.2.2,0,0,1-.21-.18h0a.2.2,0,0,1,.21-.18h.62a.19.19,0,0,1,.2.18h0a.19.19,0,0,1-.2.18h-.62Z"/><path class="cls-15" d="M61.21,38.8a.19.19,0,0,1-.21-.18h0a.19.19,0,0,1,.21-.18h.61a.19.19,0,0,1,.21.18h0a.19.19,0,0,1-.21.18h-.61Z"/><path class="cls-15" d="M60,38.8a.19.19,0,0,1-.2-.18h0a.19.19,0,0,1,.2-.18h.62a.2.2,0,0,1,.21.18h0a.2.2,0,0,1-.21.18H60Z"/><path class="cls-15" d="M58.74,38.8a.19.19,0,0,1-.2-.18h0a.19.19,0,0,1,.2-.18h.62a.19.19,0,0,1,.2.18h0a.19.19,0,0,1-.2.18h-.62Z"/><path class="cls-15" d="M57.51,38.8a.19.19,0,0,1-.21-.18h0a.19.19,0,0,1,.21-.18h.61a.19.19,0,0,1,.21.18h0a.19.19,0,0,1-.21.18h-.61Z"/><path class="cls-15" d="M56.27,38.8a.19.19,0,0,1-.2-.18h0a.19.19,0,0,1,.2-.18h.62a.2.2,0,0,1,.21.18h0a.2.2,0,0,1-.21.18h-.62Z"/><path class="cls-15" d="M55,38.8a.19.19,0,0,1-.2-.18h0a.19.19,0,0,1,.2-.18h.62a.19.19,0,0,1,.2.18h0a.19.19,0,0,1-.2.18H55Z"/><path class="cls-15" d="M53.81,38.8a.19.19,0,0,1-.21-.18h0a.19.19,0,0,1,.21-.18h.61a.19.19,0,0,1,.21.18h0a.19.19,0,0,1-.21.18h-.61Z"/><path class="cls-15" d="M52.57,38.8a.19.19,0,0,1-.2-.18h0a.19.19,0,0,1,.2-.18h.62a.19.19,0,0,1,.21.18h0a.19.19,0,0,1-.21.18h-.62Z"/><path class="cls-15" d="M51.34,38.8a.19.19,0,0,1-.2-.18h0a.19.19,0,0,1,.2-.18H52a.19.19,0,0,1,.2.18h0a.19.19,0,0,1-.2.18h-.62Z"/><path class="cls-15" d="M50.11,38.8a.19.19,0,0,1-.21-.18h0a.19.19,0,0,1,.21-.18h.62a.19.19,0,0,1,.2.18h0a.19.19,0,0,1-.2.18h-.62Z"/><path class="cls-15" d="M48.87,38.8a.19.19,0,0,1-.2-.18h0a.19.19,0,0,1,.2-.18h.62a.19.19,0,0,1,.21.18h0a.19.19,0,0,1-.21.18h-.62Z"/><path class="cls-15" d="M47.64,38.8a.19.19,0,0,1-.2-.18h0a.19.19,0,0,1,.2-.18h.62a.19.19,0,0,1,.2.18h0a.19.19,0,0,1-.2.18h-.62Z"/><path class="cls-15" d="M46.41,38.8a.2.2,0,0,1-.21-.18h0a.2.2,0,0,1,.21-.18H47a.19.19,0,0,1,.2.18h0a.19.19,0,0,1-.2.18h-.62Z"/><path class="cls-15" d="M45.18,38.8a.19.19,0,0,1-.21-.18h0a.19.19,0,0,1,.21-.18h.61a.19.19,0,0,1,.21.18h0a.19.19,0,0,1-.21.18h-.61Z"/><path class="cls-15" d="M43.94,38.8a.19.19,0,0,1-.2-.18h0a.19.19,0,0,1,.2-.18h.62a.2.2,0,0,1,.21.18h0a.2.2,0,0,1-.21.18h-.62Z"/><path class="cls-15" d="M42.71,38.8a.2.2,0,0,1-.21-.18h0a.2.2,0,0,1,.21-.18h.62a.19.19,0,0,1,.2.18h0a.19.19,0,0,1-.2.18h-.62Z"/><path class="cls-15" d="M41.48,38.8a.19.19,0,0,1-.21-.18h0a.19.19,0,0,1,.21-.18h.61a.19.19,0,0,1,.21.18h0a.19.19,0,0,1-.21.18h-.61Z"/><path class="cls-15" d="M40.24,38.8a.19.19,0,0,1-.2-.18h0a.19.19,0,0,1,.2-.18h.62a.2.2,0,0,1,.21.18h0a.2.2,0,0,1-.21.18h-.62Z"/><path class="cls-15" d="M39,38.8a.19.19,0,0,1-.2-.18h0a.19.19,0,0,1,.2-.18h.62a.19.19,0,0,1,.2.18h0a.19.19,0,0,1-.2.18H39Z"/><path class="cls-15" d="M37.78,38.8a.19.19,0,0,1-.21-.18h0a.19.19,0,0,1,.21-.18h.61a.19.19,0,0,1,.21.18h0a.19.19,0,0,1-.21.18h-.61Z"/><path class="cls-15" d="M36.54,38.8a.19.19,0,0,1-.2-.18h0a.19.19,0,0,1,.2-.18h.62a.2.2,0,0,1,.21.18h0a.2.2,0,0,1-.21.18h-.62Z"/><path class="cls-15" d="M35.31,38.8a.19.19,0,0,1-.2-.18h0a.19.19,0,0,1,.2-.18h.62a.19.19,0,0,1,.2.18h0a.19.19,0,0,1-.2.18h-.62Z"/><path class="cls-15" d="M34.08,38.8a.19.19,0,0,1-.21-.18h0a.19.19,0,0,1,.21-.18h.61a.19.19,0,0,1,.21.18h0a.19.19,0,0,1-.21.18h-.61Z"/><path class="cls-15" d="M32.85,38.8a.19.19,0,0,1-.21-.18h0a.19.19,0,0,1,.21-.18h.61a.2.2,0,0,1,.21.18h0a.2.2,0,0,1-.21.18h-.61Z"/><path class="cls-15" d="M31.61,38.8a.19.19,0,0,1-.2-.18h0a.19.19,0,0,1,.2-.18h.62a.19.19,0,0,1,.2.18h0a.19.19,0,0,1-.2.18h-.62Z"/><path class="cls-15" d="M30.38,38.8a.19.19,0,0,1-.21-.18h0a.19.19,0,0,1,.21-.18H31a.19.19,0,0,1,.2.18h0a.19.19,0,0,1-.2.18h-.62Z"/><path class="cls-15" d="M29.15,38.8a.19.19,0,0,1-.21-.18h0a.19.19,0,0,1,.21-.18h.61a.19.19,0,0,1,.21.18h0a.19.19,0,0,1-.21.18h-.61Z"/><path class="cls-15" d="M27.91,38.8a.19.19,0,0,1-.2-.18h0a.19.19,0,0,1,.2-.18h.62a.19.19,0,0,1,.2.18h0a.19.19,0,0,1-.2.18h-.62Z"/><path class="cls-15" d="M26.68,38.8a.2.2,0,0,1-.21-.18h0a.2.2,0,0,1,.21-.18h.62a.19.19,0,0,1,.2.18h0a.19.19,0,0,1-.2.18h-.62Z"/><path class="cls-15" d="M25.45,38.8a.19.19,0,0,1-.21-.18h0a.19.19,0,0,1,.21-.18h.61a.19.19,0,0,1,.21.18h0a.19.19,0,0,1-.21.18h-.61Z"/><path class="cls-15" d="M24.21,38.8a.19.19,0,0,1-.2-.18h0a.19.19,0,0,1,.2-.18h.62a.2.2,0,0,1,.21.18h0a.2.2,0,0,1-.21.18h-.62Z"/><path class="cls-15" d="M23,38.8a.2.2,0,0,1-.21-.18h0a.2.2,0,0,1,.21-.18h.62a.19.19,0,0,1,.2.18h0a.19.19,0,0,1-.2.18H23Z"/><path class="cls-15" d="M21.75,38.8a.19.19,0,0,1-.21-.18h0a.19.19,0,0,1,.21-.18h.61a.19.19,0,0,1,.21.18h0a.19.19,0,0,1-.21.18h-.61Z"/><path class="cls-15" d="M20.51,38.8a.19.19,0,0,1-.2-.18h0a.19.19,0,0,1,.2-.18h.62a.2.2,0,0,1,.21.18h0a.2.2,0,0,1-.21.18h-.62Z"/><path class="cls-15" d="M19.28,38.8a.2.2,0,0,1-.21-.18h0a.2.2,0,0,1,.21-.18h.62a.19.19,0,0,1,.2.18h0a.19.19,0,0,1-.2.18h-.62Z"/><path class="cls-15" d="M18.05,38.8a.19.19,0,0,1-.21-.18h0a.19.19,0,0,1,.21-.18h.61a.19.19,0,0,1,.21.18h0a.19.19,0,0,1-.21.18h-.61Z"/><path class="cls-15" d="M16.81,38.8a.19.19,0,0,1-.2-.18h0a.19.19,0,0,1,.2-.18h.62a.2.2,0,0,1,.21.18h0a.2.2,0,0,1-.21.18h-.62Z"/><path class="cls-15" d="M15.58,38.8a.19.19,0,0,1-.2-.18h0a.19.19,0,0,1,.2-.18h.62a.19.19,0,0,1,.2.18h0a.19.19,0,0,1-.2.18h-.62Z"/><path class="cls-15" d="M14.35,38.8a.19.19,0,0,1-.21-.18h0a.19.19,0,0,1,.21-.18H15a.19.19,0,0,1,.21.18h0a.19.19,0,0,1-.21.18h-.61Z"/><path class="cls-15" d="M13.11,38.8a.19.19,0,0,1-.2-.18h0a.19.19,0,0,1,.2-.18h.62a.2.2,0,0,1,.21.18h0a.2.2,0,0,1-.21.18h-.62Z"/><path class="cls-15" d="M11.88,38.8a.19.19,0,0,1-.2-.18h0a.19.19,0,0,1,.2-.18h.62a.19.19,0,0,1,.2.18h0a.19.19,0,0,1-.2.18h-.62Z"/><path class="cls-15" d="M10.69,38.8h0a.19.19,0,0,1-.21-.18h0a.2.2,0,0,1,.21-.18h.61a.19.19,0,0,1,.21.18h0a.19.19,0,0,1-.21.18h-.57Z"/><path class="cls-15" d="M10,38.77l-.62-.07h0a.19.19,0,0,1-.17-.21h0a.2.2,0,0,1,.23-.15h0l.6.07h0a.2.2,0,0,1,.19.2h0a.2.2,0,0,1-.21.16h0Z"/><path class="cls-15" d="M78.27,38.6a.18.18,0,0,1,.18-.2h0l.6-.07h0a.2.2,0,0,1,.23.15h0a.19.19,0,0,1-.16.21h0l-.63.07h0a.2.2,0,0,1-.2-.16Z"/><path class="cls-15" d="M8.77,38.6l-.61-.13h0A.18.18,0,0,1,8,38.25H8a.2.2,0,0,1,.25-.13h0l.59.12h0a.19.19,0,0,1,.16.22H9a.21.21,0,0,1-.21.14h0Z"/><path class="cls-15" d="M79.49,38.44a.18.18,0,0,1,.15-.22h0c.2,0,.4-.08.59-.12h0a.2.2,0,0,1,.25.13h0a.18.18,0,0,1-.14.22h0l-.61.13h0a.19.19,0,0,1-.2-.14Z"/><path class="cls-15" d="M7.56,38.31A5.08,5.08,0,0,1,7,38.13H7a.17.17,0,0,1-.12-.23h0a.21.21,0,0,1,.26-.11h0l.57.18h0a.18.18,0,0,1,.14.23h0a.22.22,0,0,1-.2.12H7.56Z"/><path class="cls-15" d="M80.68,38.17a.17.17,0,0,1,.13-.22h0l.57-.18h0a.21.21,0,0,1,.27.1h0a.17.17,0,0,1-.12.23h0l-.59.19h-.06a.21.21,0,0,1-.2-.13Z"/><path class="cls-15" d="M6.38,37.91l-.14-.06h0a2.73,2.73,0,0,1-.42-.23h0a.17.17,0,0,1,0-.26h0a.21.21,0,0,1,.28,0h0a4.13,4.13,0,0,0,.37.2h0l.13,0h0a.19.19,0,0,1,.1.25h0a.23.23,0,0,1-.19.1h0l-.09,0Z"/><path class="cls-15" d="M81.84,37.8a.18.18,0,0,1,.09-.25h0l.06,0h0a1.25,1.25,0,0,0,.34-.27h0a.22.22,0,0,1,.28,0h0a.17.17,0,0,1,0,.26h0a1.48,1.48,0,0,1-.47.37h0l-.07,0h0l-.09,0h0a.21.21,0,0,1-.18-.1Z"/><path class="cls-15" d="M5.34,37.21A1.93,1.93,0,0,1,5,36.68H5a.17.17,0,0,1,.12-.23h0a.21.21,0,0,1,.26.11h0a1.69,1.69,0,0,0,.27.42h0a.17.17,0,0,1,0,.26h0a.22.22,0,0,1-.13,0h0a.24.24,0,0,1-.16-.07Z"/><path class="cls-15" d="M82.72,37.07a.17.17,0,0,1-.08-.25h0a5.27,5.27,0,0,0,.25-.48h0a.22.22,0,0,1,.27-.09h0a.17.17,0,0,1,.11.23h0c-.09.18-.18.36-.27.51h0a.22.22,0,0,1-.18.1h0l-.1,0Z"/><path class="cls-15" d="M4.82,36.16c-.06-.17-.12-.34-.18-.53h0a.17.17,0,0,1,.14-.22h0a.21.21,0,0,1,.25.12H5q.09.27.18.51h0a.17.17,0,0,1-.12.23H5a.2.2,0,0,1-.2-.12Z"/><path class="cls-15" d="M83.23,36.08a.19.19,0,0,1-.12-.24h0c.06-.16.13-.33.18-.51h0a.22.22,0,0,1,.26-.12h0a.18.18,0,0,1,.14.23h0c-.06.18-.13.35-.19.52h0a.23.23,0,0,1-.2.13h-.07Z"/><path class="cls-15" d="M4.48,35.09c0-.17-.09-.35-.13-.53h0a.19.19,0,0,1,.17-.22h0a.21.21,0,0,1,.24.15h0l.12.52h0a.18.18,0,0,1-.15.22H4.68a.2.2,0,0,1-.2-.14Z"/><path class="cls-15" d="M83.61,35a.19.19,0,0,1-.15-.23h0l.15-.52h0a.2.2,0,0,1,.24-.14h0a.2.2,0,0,1,.16.22h0l-.15.54h0a.21.21,0,0,1-.2.13h0Z"/><path class="cls-15" d="M4.24,34c0-.18-.06-.37-.08-.55h0a.2.2,0,0,1,.18-.2h0a.21.21,0,0,1,.23.16h0c0,.18,0,.36.08.54h0a.18.18,0,0,1-.17.2h0A.22.22,0,0,1,4.24,34Z"/><path class="cls-15" d="M83.9,34a.19.19,0,0,1-.17-.22h0c0-.18.08-.36.1-.53h0a.21.21,0,0,1,.24-.15h0a.18.18,0,0,1,.17.21h0c0,.17-.06.35-.1.54h0a.21.21,0,0,1-.21.15h0Z"/><path class="cls-15" d="M4.1,32.91c0-.17,0-.33,0-.49h0v-.06a.2.2,0,0,1,.21-.19h0a.2.2,0,0,1,.2.19h0v.06c0,.15,0,.3,0,.47h0a.18.18,0,0,1-.19.19h0a.2.2,0,0,1-.21-.17Z"/><path class="cls-15" d="M84.1,32.9a.19.19,0,0,1-.19-.2h0c0-.1,0-.2,0-.28h0v-.25a.19.19,0,0,1,.21-.18h0a.19.19,0,0,1,.2.18h0v.25c0,.09,0,.2,0,.31h0a.2.2,0,0,1-.21.17h0Z"/><path class="cls-15" d="M4.08,31.81v-.54a.19.19,0,0,1,.21-.18h0a.19.19,0,0,1,.2.18h0v.54a.19.19,0,0,1-.2.18h0a.19.19,0,0,1-.21-.18Z"/><path class="cls-15" d="M83.92,31.63v-.55a.19.19,0,0,1,.21-.18h0a.19.19,0,0,1,.2.18h0v.55a.19.19,0,0,1-.2.18h0a.19.19,0,0,1-.21-.18Z"/><path class="cls-15" d="M4.08,30.72v-.54A.19.19,0,0,1,4.29,30h0a.19.19,0,0,1,.2.18h0v.54a.19.19,0,0,1-.2.18h0a.19.19,0,0,1-.21-.18Z"/><path class="cls-15" d="M83.92,30.54V30a.19.19,0,0,1,.21-.18h0a.19.19,0,0,1,.2.18h0v.55a.19.19,0,0,1-.2.18h0a.19.19,0,0,1-.21-.18Z"/><path class="cls-15" d="M4.08,29.63v-.54a.19.19,0,0,1,.21-.18h0a.19.19,0,0,1,.2.18h0v.54a.19.19,0,0,1-.2.18h0a.19.19,0,0,1-.21-.18Z"/><path class="cls-15" d="M83.92,29.45v-.54a.2.2,0,0,1,.21-.19h0a.19.19,0,0,1,.2.19h0v.54a.19.19,0,0,1-.2.18h0a.19.19,0,0,1-.21-.18Z"/><path class="cls-15" d="M4.08,28.54V28a.19.19,0,0,1,.21-.18h0a.19.19,0,0,1,.2.18h0v.54a.2.2,0,0,1-.2.19h0a.2.2,0,0,1-.21-.19Z"/><path class="cls-15" d="M83.92,28.36v-.54a.2.2,0,0,1,.21-.19h0a.2.2,0,0,1,.2.19h0v.54a.19.19,0,0,1-.2.18h0a.19.19,0,0,1-.21-.18Z"/><path class="cls-15" d="M4.08,27.45v-.54a.19.19,0,0,1,.21-.18h0a.19.19,0,0,1,.2.18h0v.54a.2.2,0,0,1-.2.19h0a.2.2,0,0,1-.21-.19Z"/><path class="cls-15" d="M83.92,27.27v-.54a.2.2,0,0,1,.21-.19h0a.2.2,0,0,1,.2.19h0v.54a.19.19,0,0,1-.2.18h0a.19.19,0,0,1-.21-.18Z"/><path class="cls-15" d="M4.08,26.36v-.54a.19.19,0,0,1,.21-.18h0a.19.19,0,0,1,.2.18h0v.54a.2.2,0,0,1-.2.19h0a.2.2,0,0,1-.21-.19Z"/><path class="cls-15" d="M83.92,26.18v-.54a.2.2,0,0,1,.21-.19h0a.2.2,0,0,1,.2.19h0v.54a.19.19,0,0,1-.2.18h0a.19.19,0,0,1-.21-.18Z"/><path class="cls-15" d="M4.08,25.28v-.55a.19.19,0,0,1,.21-.18h0a.19.19,0,0,1,.2.18h0v.55a.19.19,0,0,1-.2.18h0a.19.19,0,0,1-.21-.18Z"/><path class="cls-15" d="M83.92,25.09v-.54a.19.19,0,0,1,.21-.18h0a.19.19,0,0,1,.2.18h0v.54a.19.19,0,0,1-.2.18h0a.19.19,0,0,1-.21-.18Z"/><path class="cls-15" d="M4.08,24.19v-.55a.19.19,0,0,1,.21-.18h0a.19.19,0,0,1,.2.18h0v.55a.19.19,0,0,1-.2.18h0a.19.19,0,0,1-.21-.18Z"/><path class="cls-15" d="M83.92,24v-.54a.19.19,0,0,1,.21-.18h0a.19.19,0,0,1,.2.18h0V24a.19.19,0,0,1-.2.18h0a.19.19,0,0,1-.21-.18Z"/><path class="cls-15" d="M4.08,23.1v-.55a.19.19,0,0,1,.21-.18h0a.19.19,0,0,1,.2.18h0v.55a.19.19,0,0,1-.2.18h0a.19.19,0,0,1-.21-.18Z"/><path class="cls-15" d="M83.92,22.91v-.54a.19.19,0,0,1,.21-.18h0a.19.19,0,0,1,.2.18h0v.54a.19.19,0,0,1-.2.18h0a.19.19,0,0,1-.21-.18Z"/><path class="cls-15" d="M4.08,22v-.55a.19.19,0,0,1,.21-.18h0a.19.19,0,0,1,.2.18h0V22a.19.19,0,0,1-.2.18h0A.19.19,0,0,1,4.08,22Z"/><path class="cls-15" d="M83.92,21.82v-.54a.19.19,0,0,1,.21-.18h0a.19.19,0,0,1,.2.18h0v.54a.2.2,0,0,1-.2.19h0a.2.2,0,0,1-.21-.19Z"/><path class="cls-15" d="M4.08,20.92v-.55a.19.19,0,0,1,.21-.18h0a.19.19,0,0,1,.2.18h0v.55a.19.19,0,0,1-.2.18h0a.19.19,0,0,1-.21-.18Z"/><path class="cls-15" d="M83.92,20.73v-.54a.19.19,0,0,1,.21-.18h0a.19.19,0,0,1,.2.18h0v.54a.2.2,0,0,1-.2.19h0a.2.2,0,0,1-.21-.19Z"/><path class="cls-15" d="M4.08,19.83v-.55a.19.19,0,0,1,.21-.18h0a.19.19,0,0,1,.2.18h0v.55a.19.19,0,0,1-.2.18h0a.19.19,0,0,1-.21-.18Z"/><path class="cls-15" d="M83.92,19.64V19.1a.19.19,0,0,1,.21-.18h0a.19.19,0,0,1,.2.18h0v.54a.19.19,0,0,1-.2.19h0a.2.2,0,0,1-.21-.19Z"/><path class="cls-15" d="M4.08,18.74v-.55A.19.19,0,0,1,4.29,18h0a.19.19,0,0,1,.2.18h0v.55a.19.19,0,0,1-.2.18h0a.19.19,0,0,1-.21-.18Z"/><path class="cls-15" d="M83.92,18.56V18a.19.19,0,0,1,.21-.18h0a.19.19,0,0,1,.2.18h0v.55a.19.19,0,0,1-.2.18h0a.19.19,0,0,1-.21-.18Z"/><path class="cls-15" d="M4.08,17.65v-.54a.2.2,0,0,1,.21-.19h0a.2.2,0,0,1,.2.19h0v.54a.19.19,0,0,1-.2.18h0a.19.19,0,0,1-.21-.18Z"/><path class="cls-15" d="M83.92,17.47v-.55a.19.19,0,0,1,.21-.18h0a.19.19,0,0,1,.2.18h0v.55a.19.19,0,0,1-.2.18h0a.19.19,0,0,1-.21-.18Z"/><path class="cls-15" d="M4.08,16.56V16a.2.2,0,0,1,.21-.19h0a.2.2,0,0,1,.2.19h0v.54a.19.19,0,0,1-.2.18h0a.19.19,0,0,1-.21-.18Z"/><path class="cls-15" d="M83.92,16.38v-.55a.19.19,0,0,1,.21-.18h0a.19.19,0,0,1,.2.18h0v.55a.19.19,0,0,1-.2.18h0a.19.19,0,0,1-.21-.18Z"/><path class="cls-15" d="M4.08,15.47v-.54a.2.2,0,0,1,.21-.19h0a.2.2,0,0,1,.2.19h0v.54a.19.19,0,0,1-.2.18h0a.19.19,0,0,1-.21-.18Z"/><path class="cls-15" d="M83.92,15.29v-.55a.19.19,0,0,1,.21-.18h0a.19.19,0,0,1,.2.18h0v.55a.19.19,0,0,1-.2.18h0a.19.19,0,0,1-.21-.18Z"/><path class="cls-15" d="M4.08,14.38v-.54a.19.19,0,0,1,.21-.18h0a.19.19,0,0,1,.2.18h0v.54a.19.19,0,0,1-.2.18h0a.19.19,0,0,1-.21-.18Z"/><path class="cls-15" d="M83.92,14.2v-.55a.19.19,0,0,1,.21-.18h0a.19.19,0,0,1,.2.18h0v.55a.19.19,0,0,1-.2.18h0a.19.19,0,0,1-.21-.18Z"/><path class="cls-15" d="M4.08,13.29v-.54a.19.19,0,0,1,.21-.18h0a.19.19,0,0,1,.2.18h0v.54a.19.19,0,0,1-.2.18h0a.19.19,0,0,1-.21-.18Z"/><path class="cls-15" d="M83.92,13.11v-.55a.19.19,0,0,1,.21-.18h0a.19.19,0,0,1,.2.18h0v.55a.19.19,0,0,1-.2.18h0a.19.19,0,0,1-.21-.18Z"/><path class="cls-15" d="M4.08,12.2v-.54a.19.19,0,0,1,.21-.18h0a.19.19,0,0,1,.2.18h0v.54a.19.19,0,0,1-.2.18h0a.19.19,0,0,1-.21-.18Z"/><path class="cls-15" d="M83.92,12v-.55a.19.19,0,0,1,.21-.18h0a.19.19,0,0,1,.2.18h0V12a.19.19,0,0,1-.2.18h0a.19.19,0,0,1-.21-.18Z"/><path class="cls-15" d="M4.08,11.11v-.54a.19.19,0,0,1,.21-.18h0a.19.19,0,0,1,.2.18h0v.54a.19.19,0,0,1-.2.18h0a.19.19,0,0,1-.21-.18Z"/><path class="cls-15" d="M83.92,10.93v-.54a.2.2,0,0,1,.21-.19h0a.2.2,0,0,1,.2.19h0v.54a.19.19,0,0,1-.2.18h0a.19.19,0,0,1-.21-.18Z"/><path class="cls-15" d="M4.08,10V9.48a.19.19,0,0,1,.21-.18h0a.19.19,0,0,1,.2.18h0V10a.2.2,0,0,1-.2.19h0A.2.2,0,0,1,4.08,10Z"/><path class="cls-15" d="M83.92,9.84V9.3a.2.2,0,0,1,.21-.19h0a.2.2,0,0,1,.2.19h0v.54a.19.19,0,0,1-.2.18h0a.19.19,0,0,1-.21-.18Z"/><path class="cls-15" d="M4.08,8.94V8.39a.19.19,0,0,1,.21-.18h0a.19.19,0,0,1,.2.18h0v.55a.19.19,0,0,1-.2.18h0a.19.19,0,0,1-.21-.18Z"/><path class="cls-15" d="M83.92,8.75V8.39a.19.19,0,0,1,.21-.18h0a.19.19,0,0,1,.2.18h0v.36a.19.19,0,0,1-.2.18h0a.19.19,0,0,1-.21-.18Z"/><path class="cls-19" d="M28.09,44.2a2.55,2.55,0,0,1-2.69,2.37H21a2.55,2.55,0,0,1-2.69-2.37V40.29A2.55,2.55,0,0,1,21,37.92H25.4a2.55,2.55,0,0,1,2.69,2.37Z"/><path class="cls-20" d="M26.5,33a26.19,26.19,0,0,0-6.62,0c-2.25.29-3.67,1.88-3.22,3.12s.74,2.34,1.13,3.5h10.8c.39-1.16.75-2.33,1.13-3.5S28.75,33.25,26.5,33Z"/><path class="cls-21" d="M26.26,33.45a26.27,26.27,0,0,0-6.14,0c-2.09.25-3.41,1.61-3,2.68s.74,2.16,1.13,3.24c.07.21.41.21.41.21h9s.34.07.44-.21c.4-1.08.75-2.16,1.13-3.24S28.35,33.7,26.26,33.45Z"/><path class="cls-15" d="M27.37,39.34a.18.18,0,0,1-.13-.23h0l.18-.52h0a.21.21,0,0,1,.26-.12h0a.18.18,0,0,1,.14.23h0c-.07.17-.13.35-.19.52h0a.21.21,0,0,1-.2.13h-.06Z"/><path class="cls-15" d="M18.75,39.22l-.13-.36h0a.19.19,0,0,1,.13-.23h0a.22.22,0,0,1,.26.12h0c0,.12.09.24.13.36h0a.17.17,0,0,1-.13.23h-.07a.21.21,0,0,1-.19-.13Z"/><path class="cls-15" d="M18.44,38.34l-.18-.52h0a.17.17,0,0,1,.13-.23h0a.22.22,0,0,1,.26.12h0l.18.52h0a.18.18,0,0,1-.14.23h-.06a.2.2,0,0,1-.19-.13Z"/><path class="cls-15" d="M27.74,38.3a.17.17,0,0,1-.13-.23h0c.06-.17.12-.35.17-.52h0a.21.21,0,0,1,.26-.12h0a.18.18,0,0,1,.14.23h0l-.18.52h0a.21.21,0,0,1-.2.13h-.06Z"/><path class="cls-15" d="M18.08,37.3l-.18-.52h0a.18.18,0,0,1,.13-.23h0a.21.21,0,0,1,.26.12h0l.18.52h0a.18.18,0,0,1-.14.23h-.06a.2.2,0,0,1-.19-.13Z"/><path class="cls-15" d="M28.1,37.26A.18.18,0,0,1,28,37h0l.18-.52h0a.21.21,0,0,1,.26-.12h0a.18.18,0,0,1,.14.22h0l-.18.52h0a.21.21,0,0,1-.2.13H28.1Z"/><path class="cls-15" d="M17.72,36.23a1.5,1.5,0,0,1,0-.2h0a1.25,1.25,0,0,1,.08-.42h0a.2.2,0,0,1,.25-.12h0a.18.18,0,0,1,.14.22h0a.91.91,0,0,0-.06.32h0a.68.68,0,0,0,0,.14h0a.2.2,0,0,1-.17.21h0a.2.2,0,0,1-.2-.15Z"/><path class="cls-15" d="M28.47,36.21a.19.19,0,0,1-.21-.18h0a1.06,1.06,0,0,0-.11-.45h0a.17.17,0,0,1,.11-.24h0a.22.22,0,0,1,.27.09h0a1.42,1.42,0,0,1,.14.6h0a.19.19,0,0,1-.2.18Z"/><path class="cls-15" d="M18.13,35.33a.18.18,0,0,1-.05-.26h0a3.07,3.07,0,0,1,.45-.43h0a.23.23,0,0,1,.29,0h0a.17.17,0,0,1,0,.26h0a2.2,2.2,0,0,0-.38.36h0a.23.23,0,0,1-.17.08h0a.27.27,0,0,1-.12,0Z"/><path class="cls-15" d="M27.85,35.16a2,2,0,0,0-.41-.34h0a.18.18,0,0,1-.05-.26h0a.23.23,0,0,1,.29,0h0a2.44,2.44,0,0,1,.49.4h0a.16.16,0,0,1,0,.25h0a.21.21,0,0,1-.13,0h0a.24.24,0,0,1-.16-.07Z"/><path class="cls-15" d="M19,34.56a.18.18,0,0,1,.08-.25h0a5.19,5.19,0,0,1,.59-.24h0a.23.23,0,0,1,.27.11h0a.17.17,0,0,1-.13.23h0a4.2,4.2,0,0,0-.53.22h0l-.1,0h0a.21.21,0,0,1-.18-.09Z"/><path class="cls-15" d="M26.94,34.55a5.63,5.63,0,0,0-.54-.19h0a.17.17,0,0,1-.14-.22h0a.21.21,0,0,1,.26-.12h0a3.53,3.53,0,0,1,.6.21h0a.17.17,0,0,1,.1.24h0a.23.23,0,0,1-.19.1h0l-.09,0Z"/><path class="cls-15" d="M20.13,34.14a.18.18,0,0,1,.16-.22h0l.23,0h0l.4,0h0a.19.19,0,0,1,.22.16h0a.18.18,0,0,1-.18.2h0l-.39,0h0l-.2,0h0a.2.2,0,0,1-.2-.14Z"/><path class="cls-15" d="M25.83,34.25h0l-.57-.06h0A.19.19,0,0,1,25,34h0a.2.2,0,0,1,.23-.16h0l.59.06h0a.19.19,0,0,1,.17.21h0a.2.2,0,0,1-.2.16h0Z"/><path class="cls-15" d="M21.35,34a.19.19,0,0,1,.19-.2h0l.62,0h0a.19.19,0,0,1,.21.17h0a.19.19,0,0,1-.19.19h0l-.61,0h0a.2.2,0,0,1-.2-.17Z"/><path class="cls-15" d="M24.62,34.14l-.61,0h0a.19.19,0,0,1-.2-.19h0a.2.2,0,0,1,.22-.17h0l.62,0h0a.19.19,0,0,1,.19.2h0a.2.2,0,0,1-.21.16h0Z"/><path class="cls-15" d="M22.58,33.92a.19.19,0,0,1,.2-.18h.62a.21.21,0,0,1,.21.19h0a.21.21,0,0,1-.21.18h-.62a.19.19,0,0,1-.2-.18Z"/><path class="cls-22" d="M27.44,43.94A2.22,2.22,0,0,1,25.11,46H21.27a2.22,2.22,0,0,1-2.33-2.06V40.55a2.22,2.22,0,0,1,2.33-2.06h3.84a2.22,2.22,0,0,1,2.33,2.06Z"/><path class="cls-23" d="M23.19,45.77c-1.29,0-2.85,0-3.41-.84a1.91,1.91,0,0,1-.41-1.27c.08,0,0,.57.63,1.1s1.78.52,3.19.5,2.6.13,3.19-.5.54-1.13.63-1.1a2,2,0,0,1-.41,1.27C26,45.76,24.48,45.81,23.19,45.77Z"/><path class="cls-24" d="M27.44,41.79a1.67,1.67,0,0,1-1.75,1.54h-5a1.67,1.67,0,0,1-1.75-1.54V40.65a1.66,1.66,0,0,1,1.75-1.54h5a1.66,1.66,0,0,1,1.75,1.54Z"/><path class="cls-25" d="M27.44,41.17a1.66,1.66,0,0,1-1.75,1.54h-5a1.66,1.66,0,0,1-1.75-1.54V40a1.67,1.67,0,0,1,1.75-1.55h5A1.67,1.67,0,0,1,27.44,40Z"/><path class="cls-23" d="M23.19,41.85c1.41,0,2.6.13,3.19-.5s.54-1.13.63-1.1c-.1,0,.18.55-.41,1.26s-2.12.88-3.41.84-2.85,0-3.41-.84a1.89,1.89,0,0,1-.41-1.26c.08,0,0,.57.63,1.1S21.78,41.87,23.19,41.85Z"/><path class="cls-26" d="M70.12,44.2a2.55,2.55,0,0,1-2.68,2.37H63a2.55,2.55,0,0,1-2.68-2.37V40.29A2.55,2.55,0,0,1,63,37.92h4.43a2.55,2.55,0,0,1,2.68,2.37Z"/><path class="cls-27" d="M68.54,33a26.27,26.27,0,0,0-6.63,0c-2.24.29-3.66,1.88-3.22,3.12s.75,2.34,1.14,3.5h10.8c.39-1.16.75-2.33,1.13-3.5S70.79,33.25,68.54,33Z"/><path class="cls-28" d="M68.3,33.45a26.27,26.27,0,0,0-6.14,0c-2.09.25-3.41,1.61-3,2.68s.73,2.16,1.12,3.24c.08.21.41.21.41.21h9s.34.07.44-.21c.39-1.08.75-2.16,1.13-3.24S70.39,33.7,68.3,33.45Z"/><path class="cls-15" d="M69.4,39.34a.19.19,0,0,1-.13-.23h0c.07-.18.13-.35.19-.52h0a.21.21,0,0,1,.26-.12h0a.17.17,0,0,1,.13.23h0c-.06.17-.12.35-.19.52h0a.21.21,0,0,1-.19.13H69.4Z"/><path class="cls-15" d="M60.79,39.22c0-.12-.09-.24-.13-.36h0a.17.17,0,0,1,.13-.23h0a.22.22,0,0,1,.26.12h0c0,.12.08.24.13.36h0a.19.19,0,0,1-.14.23H61a.19.19,0,0,1-.19-.13Z"/><path class="cls-15" d="M60.47,38.34l-.18-.52h0a.18.18,0,0,1,.14-.23h0a.22.22,0,0,1,.26.12h0l.18.52h0a.18.18,0,0,1-.14.23h-.06a.21.21,0,0,1-.2-.13Z"/><path class="cls-15" d="M69.78,38.3a.18.18,0,0,1-.14-.23h0l.18-.52h0a.21.21,0,0,1,.26-.12h0a.17.17,0,0,1,.13.23h0c0,.17-.11.34-.17.52h0a.21.21,0,0,1-.2.13h-.06Z"/><path class="cls-15" d="M60.12,37.3c-.07-.18-.12-.35-.18-.52h0a.17.17,0,0,1,.13-.23h0a.21.21,0,0,1,.26.12h0l.18.52h0a.18.18,0,0,1-.14.23h-.06a.19.19,0,0,1-.19-.13Z"/><path class="cls-15" d="M70.14,37.26A.18.18,0,0,1,70,37h0l.18-.52h0a.21.21,0,0,1,.26-.12h0a.18.18,0,0,1,.13.22h0l-.18.52h0a.2.2,0,0,1-.19.13h-.06Z"/><path class="cls-15" d="M59.76,36.23a1.5,1.5,0,0,1,0-.2h0a1.54,1.54,0,0,1,.07-.42h0a.21.21,0,0,1,.26-.12h0a.18.18,0,0,1,.14.22h0a.91.91,0,0,0-.06.32h0s0,.09,0,.14h0a.18.18,0,0,1-.17.21h0a.19.19,0,0,1-.2-.15Z"/><path class="cls-15" d="M70.5,36.21a.19.19,0,0,1-.2-.18h0a1.06,1.06,0,0,0-.11-.45h0a.17.17,0,0,1,.1-.24h0a.21.21,0,0,1,.27.09h0a1.3,1.3,0,0,1,.15.6h0a.19.19,0,0,1-.21.18Z"/><path class="cls-15" d="M60.17,35.33a.18.18,0,0,1-.05-.26h0a2.64,2.64,0,0,1,.45-.43h0a.23.23,0,0,1,.29,0h0a.18.18,0,0,1,0,.26h0a2.73,2.73,0,0,0-.39.36h0a.21.21,0,0,1-.16.08h0a.24.24,0,0,1-.12,0Z"/><path class="cls-15" d="M69.89,35.16a2.4,2.4,0,0,0-.42-.34h0a.17.17,0,0,1,0-.26h0a.23.23,0,0,1,.29,0h0a2.68,2.68,0,0,1,.48.4h0a.16.16,0,0,1,0,.25h0a.24.24,0,0,1-.13,0h0a.24.24,0,0,1-.16-.07Z"/><path class="cls-15" d="M61,34.56a.17.17,0,0,1,.08-.25h0a4.54,4.54,0,0,1,.59-.24h0a.21.21,0,0,1,.26.11h0a.17.17,0,0,1-.12.23h0a3.67,3.67,0,0,0-.53.22h0l-.1,0h0a.21.21,0,0,1-.18-.09Z"/><path class="cls-15" d="M69,34.55c-.17-.07-.35-.13-.54-.19h0a.17.17,0,0,1-.14-.22h0a.21.21,0,0,1,.26-.12h0a3.86,3.86,0,0,1,.6.21h0a.17.17,0,0,1,.09.24h0a.21.21,0,0,1-.18.1h0l-.09,0Z"/><path class="cls-15" d="M62.16,34.14a.2.2,0,0,1,.17-.22h0l.23,0h0l.39,0h0a.2.2,0,0,1,.23.16h0a.19.19,0,0,1-.18.2h0l-.39,0h0l-.2,0h0a.21.21,0,0,1-.21-.14Z"/><path class="cls-15" d="M67.87,34.25h0l-.58-.06h0a.19.19,0,0,1-.18-.2h0a.19.19,0,0,1,.22-.16h0l.6.06h0a.19.19,0,0,1,.18.21h0a.2.2,0,0,1-.2.16h0Z"/><path class="cls-15" d="M63.38,34a.2.2,0,0,1,.19-.2h0l.63,0h0a.2.2,0,0,1,.22.17h0a.19.19,0,0,1-.19.19h0l-.61,0h0a.21.21,0,0,1-.21-.17Z"/><path class="cls-15" d="M66.66,34.14l-.62,0h0a.18.18,0,0,1-.19-.19h0a.19.19,0,0,1,.21-.17h0l.62,0h0a.19.19,0,0,1,.19.2h0a.18.18,0,0,1-.2.16h0Z"/><path class="cls-15" d="M64.62,33.92a.18.18,0,0,1,.2-.18h.62a.21.21,0,0,1,.2.19h0a.19.19,0,0,1-.2.18h-.62a.19.19,0,0,1-.2-.18Z"/><path class="cls-29" d="M69.47,43.94A2.22,2.22,0,0,1,67.14,46H63.31A2.22,2.22,0,0,1,61,43.94V40.55a2.22,2.22,0,0,1,2.33-2.06h3.83a2.22,2.22,0,0,1,2.33,2.06Z"/><path class="cls-23" d="M65.23,45.77c-1.29,0-2.85,0-3.41-.84a1.84,1.84,0,0,1-.41-1.27c.08,0,0,.57.63,1.1s1.77.52,3.19.5,2.6.13,3.19-.5.54-1.13.63-1.1a2,2,0,0,1-.41,1.27C68.07,45.76,66.51,45.81,65.23,45.77Z"/><path class="cls-30" d="M69.47,41.79a1.66,1.66,0,0,1-1.74,1.54h-5A1.66,1.66,0,0,1,61,41.79V40.65a1.65,1.65,0,0,1,1.75-1.54h5a1.65,1.65,0,0,1,1.74,1.54Z"/><path class="cls-31" d="M69.47,41.17a1.65,1.65,0,0,1-1.74,1.54h-5A1.65,1.65,0,0,1,61,41.17V40a1.66,1.66,0,0,1,1.75-1.55h5A1.66,1.66,0,0,1,69.47,40Z"/><path class="cls-23" d="M65.23,41.85c1.41,0,2.6.13,3.19-.5s.54-1.13.63-1.1c-.1,0,.18.55-.41,1.26s-2.13.88-3.41.84-2.85,0-3.41-.84a1.82,1.82,0,0,1-.41-1.26c.08,0,0,.57.63,1.1S63.81,41.87,65.23,41.85Z"/><path class="cls-32" d="M55.37,3.73c0,.24-.3.45-.67.45H34.05c-.37,0-.67-.21-.67-.45V.45c0-.25.3-.45.67-.45H54.7c.37,0,.67.2.67.45Z"/><path class="cls-33" d="M55.37,3.66a.56.56,0,0,1-.58.52H34a.57.57,0,0,1-.59-.52V.51A.56.56,0,0,1,34,0H54.79a.55.55,0,0,1,.58.51Z"/><path class="cls-15" d="M46.94,3.38h-.62a.18.18,0,1,0,0,.36h.62a.18.18,0,1,0,0-.36Z"/><path class="cls-15" d="M48.17,3.38h-.62a.18.18,0,1,0,0,.36h.62a.18.18,0,1,0,0-.36Z"/><path class="cls-15" d="M45.7,3.38h-.61a.18.18,0,1,0,0,.36h.61a.18.18,0,1,0,0-.36Z"/><path class="cls-15" d="M43.24,3.38h-.62a.18.18,0,1,0,0,.36h.62a.18.18,0,1,0,0-.36Z"/><path class="cls-15" d="M44.47,3.38h-.62a.18.18,0,1,0,0,.36h.62a.2.2,0,0,0,.21-.18A.2.2,0,0,0,44.47,3.38Z"/><path class="cls-15" d="M49.4,3.38h-.61a.18.18,0,1,0,0,.36h.61a.18.18,0,1,0,0-.36Z"/><path class="cls-15" d="M54.29,3.37h-.57a.2.2,0,0,0-.21.18.2.2,0,0,0,.21.18h.49l.17,0a.19.19,0,0,0,.16-.21A.22.22,0,0,0,54.29,3.37Z"/><path class="cls-15" d="M50.64,3.38H50a.2.2,0,0,0-.21.18.2.2,0,0,0,.21.18h.62a.18.18,0,1,0,0-.36Z"/><path class="cls-15" d="M42,3.38h-.61a.18.18,0,1,0,0,.36H42a.18.18,0,1,0,0-.36Z"/><path class="cls-15" d="M54.79,1.38a.19.19,0,0,0-.2.18v.55a.19.19,0,0,0,.2.18A.2.2,0,0,0,55,2.11V1.56A.2.2,0,0,0,54.79,1.38Z"/><path class="cls-15" d="M53.1,3.38h-.61a.18.18,0,1,0,0,.36h.61a.18.18,0,1,0,0-.36Z"/><path class="cls-15" d="M51.87,3.38h-.62a.18.18,0,1,0,0,.36h.62a.2.2,0,0,0,.21-.18A.2.2,0,0,0,51.87,3.38Z"/><path class="cls-15" d="M54.79.11A.25.25,0,0,0,55,0a.51.51,0,0,0-.17,0H54.6A.24.24,0,0,0,54.79.11Z"/><path class="cls-15" d="M34,1.91a.2.2,0,0,0,.21-.18V1.18a.21.21,0,0,0-.42,0v.55A.2.2,0,0,0,34,1.91Z"/><path class="cls-15" d="M34.17,2.82V2.27a.21.21,0,0,0-.42,0v.55a.21.21,0,0,0,.42,0Z"/><path class="cls-15" d="M34.61,3.38h-.07a.41.41,0,0,1-.3-.14.23.23,0,0,0-.29,0,.17.17,0,0,0-.05.25.84.84,0,0,0,.64.29h.07a.18.18,0,1,0,0-.36Z"/><path class="cls-15" d="M54.79,2.47a.19.19,0,0,0-.2.18h0V3a.3.3,0,0,1,0,.1.18.18,0,0,0,.14.23h.06A.2.2,0,0,0,55,3.25.52.52,0,0,0,55,3V2.65A.2.2,0,0,0,54.79,2.47Z"/><path class="cls-15" d="M54.79.29a.19.19,0,0,0-.2.18V1a.19.19,0,0,0,.2.18A.2.2,0,0,0,55,1V.47A.2.2,0,0,0,54.79.29Z"/><path class="cls-15" d="M40.77,3.38h-.61a.18.18,0,1,0,0,.36h.61A.2.2,0,0,0,41,3.56.2.2,0,0,0,40.77,3.38Z"/><path class="cls-15" d="M39.54,3.38h-.62a.18.18,0,1,0,0,.36h.62a.18.18,0,1,0,0-.36Z"/><path class="cls-15" d="M34,.82a.2.2,0,0,0,.21-.18V.09a.18.18,0,0,0,0-.09H34a.64.64,0,0,0-.2,0,.14.14,0,0,0,0,.06V.64A.2.2,0,0,0,34,.82Z"/><path class="cls-15" d="M38.31,3.38h-.62a.18.18,0,1,0,0,.36h.62a.18.18,0,1,0,0-.36Z"/><path class="cls-15" d="M35.84,3.38h-.62a.18.18,0,1,0,0,.36h.62a.18.18,0,1,0,0-.36Z"/><path class="cls-15" d="M37.07,3.38h-.62a.18.18,0,1,0,0,.36h.62a.2.2,0,0,0,.21-.18A.2.2,0,0,0,37.07,3.38Z"/></g></g></svg>