<svg xmlns="http://www.w3.org/2000/svg" xmlns:xlink="http://www.w3.org/1999/xlink" viewBox="0 0 84.25 83.86"><defs><style>.cls-1{isolation:isolate;}.cls-2{fill-opacity:0.05;}.cls-3{fill:url(#linear-gradient);}.cls-4{fill:url(#linear-gradient-2);}.cls-5{fill:url(#linear-gradient-3);}.cls-6{fill:#a6d6dd;}.cls-7{fill:#fe8900;}.cls-8{fill:#febf00;}.cls-9{fill:#c5c6ca;}.cls-10{fill:#444;}.cls-11{fill:#a1a1a1;}.cls-12{fill:#34393a;}.cls-13{fill:#606868;}.cls-14{fill:#bbc1c6;}.cls-15{fill:#e6ad35;}.cls-16{fill:#22221d;}.cls-17{opacity:0.8;}.cls-17,.cls-19{mix-blend-mode:screen;}.cls-18{fill:#fff;}.cls-19{fill:#fea500;opacity:0.6;}</style><linearGradient id="linear-gradient" x1="-580.16" y1="-191.26" x2="-580.16" y2="-219.01" gradientTransform="matrix(2.83, 0, 0, -2.83, 1683.86, -542.14)" gradientUnits="userSpaceOnUse"><stop offset="0" stop-color="#16cd88"/><stop offset="0.35" stop-color="#18d98c"/><stop offset="0.68" stop-color="#8bf2c7"/><stop offset="1" stop-color="#14b780"/></linearGradient><linearGradient id="linear-gradient-2" x1="-580.16" y1="-218.36" x2="-580.16" y2="-191.91" gradientTransform="matrix(2.83, 0, 0, -2.83, 1683.86, -542.14)" gradientUnits="userSpaceOnUse"><stop offset="0" stop-color="#b9f7d9"/><stop offset="1" stop-color="#19e591"/></linearGradient><linearGradient id="linear-gradient-3" x1="-580.16" y1="-218.36" x2="-580.16" y2="-204.49" gradientTransform="matrix(2.83, 0, 0, -2.83, 1683.86, -542.14)" gradientUnits="userSpaceOnUse"><stop offset="0" stop-color="#14b780"/><stop offset="1" stop-color="#46eaa9"/></linearGradient></defs><g class="cls-1"><g id="Layer_2" data-name="Layer 2"><g id="Layer_1-2" data-name="Layer 1"><path id="_441798568" data-name=" 441798568" class="cls-2" d="M16.63.9H68.89A15.4,15.4,0,0,1,84.25,16.25V68.51A15.39,15.39,0,0,1,68.89,83.86H16.63A15.39,15.39,0,0,1,1.28,68.51V16.25A15.39,15.39,0,0,1,16.63.9Z"/><path id="_441799744" data-name=" 441799744" class="cls-2" d="M16.92,1.37H68.61A15.21,15.21,0,0,1,83.78,16.54V68.22A15.22,15.22,0,0,1,68.61,83.4H16.92A15.22,15.22,0,0,1,1.74,68.22V16.54A15.21,15.21,0,0,1,16.92,1.37Z"/><path id="_441800128" data-name=" 441800128" class="cls-2" d="M17.22,1.83H68.31a15,15,0,0,1,15,15V67.93a15,15,0,0,1-15,15H17.22a15,15,0,0,1-15-15V16.84A15,15,0,0,1,17.22,1.83Z"/><path id="_444216040" data-name=" 444216040" class="cls-2" d="M17.51,2.3H68A14.88,14.88,0,0,1,82.85,17.13v50.5A14.88,14.88,0,0,1,68,82.46H17.51A14.87,14.87,0,0,1,2.68,67.63V17.13A14.87,14.87,0,0,1,17.51,2.3Z"/><path id="_444216112" data-name=" 444216112" class="cls-2" d="M17.8,2.76H67.72A14.7,14.7,0,0,1,82.38,17.42V67.34A14.7,14.7,0,0,1,67.72,82H17.8A14.71,14.71,0,0,1,3.14,67.34V17.42A14.71,14.71,0,0,1,17.8,2.76Z"/><path id="_444216184" data-name=" 444216184" class="cls-2" d="M18.1,3.23H67.43A14.52,14.52,0,0,1,81.91,17.72V67.05A14.53,14.53,0,0,1,67.43,81.53H18.1A14.53,14.53,0,0,1,3.61,67.05V17.72A14.53,14.53,0,0,1,18.1,3.23Z"/><path id="_444216256" data-name=" 444216256" class="cls-2" d="M18.39,3.7H67.13A14.35,14.35,0,0,1,81.45,18V66.75A14.36,14.36,0,0,1,67.13,81.07H18.39A14.35,14.35,0,0,1,4.08,66.75V18A14.35,14.35,0,0,1,18.39,3.7Z"/><path id="_444216328" data-name=" 444216328" class="cls-2" d="M18.68,4.16H66.84A14.19,14.19,0,0,1,81,18.3V66.46A14.19,14.19,0,0,1,66.84,80.6H18.68A14.18,14.18,0,0,1,4.54,66.46V18.3A14.18,14.18,0,0,1,18.68,4.16Z"/><path id="_444216400" data-name=" 444216400" class="cls-2" d="M19,4.63H66.55a14,14,0,0,1,14,14V66.16a14,14,0,0,1-14,14H19a14,14,0,0,1-14-14V18.59A14,14,0,0,1,19,4.63Z"/><path id="_444216472" data-name=" 444216472" class="cls-2" d="M19.27,5.09h47a13.84,13.84,0,0,1,13.8,13.8v47a13.84,13.84,0,0,1-13.8,13.8h-47a13.84,13.84,0,0,1-13.8-13.8v-47a13.84,13.84,0,0,1,13.8-13.8Z"/><path id="_444216544" data-name=" 444216544" class="cls-2" d="M19.57,5.56H66A13.66,13.66,0,0,1,79.58,19.18v46.4A13.66,13.66,0,0,1,66,79.2H19.57A13.66,13.66,0,0,1,5.94,65.58V19.18A13.66,13.66,0,0,1,19.57,5.56Z"/><path id="_441798328" data-name=" 441798328" class="cls-2" d="M19.86,6h45.8A13.49,13.49,0,0,1,79.12,19.48V65.29A13.49,13.49,0,0,1,65.66,78.74H19.86A13.49,13.49,0,0,1,6.4,65.29V19.48A13.49,13.49,0,0,1,19.86,6Z"/><path id="_441788800" data-name=" 441788800" class="cls-3" d="M14.56,0H64.13A14.6,14.6,0,0,1,78.68,14.56V64.13A14.59,14.59,0,0,1,64.13,78.68H14.56A14.59,14.59,0,0,1,0,64.13V14.56A14.6,14.6,0,0,1,14.56,0Z"/><path id="_441788704" data-name=" 441788704" class="cls-4" d="M15,1.86H63.71A13.16,13.16,0,0,1,76.82,15V63.7A13.16,13.16,0,0,1,63.71,76.83H15A13.17,13.17,0,0,1,1.86,63.7V15A13.17,13.17,0,0,1,15,1.86Z"/><path id="_441788608" data-name=" 441788608" class="cls-5" d="M76.82,42.81V63.7A13.16,13.16,0,0,1,63.71,76.83H15A13.17,13.17,0,0,1,1.86,63.7V42.81a130,130,0,0,1,37.48-5.29A130,130,0,0,1,76.82,42.81Z"/><path class="cls-6" d="M58.7,42.62S56.55,38,57.55,33.68c.93-4.05,1.86-11.23-2.39-13.92a7.2,7.2,0,0,0-5.69-1.16l-.07-.22a7.33,7.33,0,0,1,5.89,1.18c4.37,2.77,3.43,10.07,2.49,14.17-1,4.27,1.11,8.75,1.13,8.8Z"/><path class="cls-7" d="M60.85,38l-4.68.52c-.06,0-1.36.07-1.68-.69s-1.8-7.41-1.9-7.85a1.08,1.08,0,0,1-.07-.73.42.42,0,0,1,.24-.23l4.61-1.83h0l6.8-.77a.2.2,0,0,1,.11,0,1.16,1.16,0,0,1,.43.71c0,.36,0,8.93,0,9.3a.06.06,0,0,1,0,0,1.93,1.93,0,0,1-1.55,1.24C62.82,37.81,62.05,37.9,60.85,38Zm-4.7.22,4.66-.51,2.3-.28a1.67,1.67,0,0,0,1.3-1c0-2.5.07-9,0-9.23a.81.81,0,0,0-.27-.47l-6.72.75-4.59,1.83a.09.09,0,0,0-.06.06.86.86,0,0,0,.06.52v0c0,.08,1.61,7.16,1.89,7.81.19.47,1.06.53,1.38.51Z"/><path class="cls-7" d="M58.54,38.2h-.06c-.44-.14-.74-.63-1-2.83s-.87-7.5-.87-7.56a.15.15,0,0,1,.13-.16h0a.16.16,0,0,1,.17.13s.58,5.3.87,7.55.56,2.5.82,2.58a.15.15,0,0,1,.1.19A.15.15,0,0,1,58.54,38.2Z"/><path class="cls-7" d="M62,37.66l-.11-.1a2.64,2.64,0,0,0,.4-1c.18-.74-.56-9.5-.57-9.59h.15c0,.36.76,8.87.57,9.63A2.49,2.49,0,0,1,62,37.66Z"/><polygon class="cls-7" points="63.11 37.52 62.98 37.45 63.38 36.59 63.16 26.79 63.31 26.78 63.53 36.62 63.11 37.52"/><polygon class="cls-7" points="61.18 37.71 61.02 37.7 61.13 36.82 60.44 27.12 60.6 27.11 61.28 36.82 61.28 36.83 61.18 37.71"/><polygon class="cls-7" points="60.32 37.94 60.17 37.96 60.05 36.92 59.1 27.25 59.25 27.23 60.2 36.9 60.32 37.94"/><path class="cls-7" d="M59.13,38a.06.06,0,0,1-.08-.06L57.84,27.48a.06.06,0,0,1,.06-.08.07.07,0,0,1,.09.06L59.2,37.92A.08.08,0,0,1,59.13,38Z"/><polygon class="cls-7" points="57.21 38.17 56.72 37.2 55.08 28.27 55.23 28.25 56.87 37.16 57.35 38.1 57.21 38.17"/><polygon class="cls-7" points="56.24 38.29 55.74 37.51 53.83 28.89 53.97 28.86 55.88 37.47 56.37 38.2 56.24 38.29"/><polygon class="cls-7" points="52.94 30.83 52.89 30.69 58.09 28.98 64.49 28.26 64.5 28.41 58.11 29.13 52.94 30.83"/><polygon class="cls-7" points="53.49 32.54 53.44 32.39 57.11 31.24 64.53 30.4 64.55 30.55 57.14 31.39 53.49 32.54"/><polygon class="cls-7" points="53.91 34.3 53.87 34.16 57.33 33.16 64.46 32.35 64.47 32.5 57.36 33.31 53.91 34.3"/><polygon class="cls-7" points="54.28 36.17 54.24 36.02 57.59 35.08 57.6 35.08 64.46 34.58 64.47 34.73 57.62 35.22 54.28 36.17"/><path class="cls-7" d="M54.83,37.93a.16.16,0,0,1-.16-.11.15.15,0,0,1,.11-.19l3-.77h0l6.57-.53a.16.16,0,0,1,.17.14.15.15,0,0,1-.14.16l-6.56.53-3,.76Z"/><path class="cls-8" d="M12.74,40.43l1.35,1s8.54-1.1,12.12,8l1.46.21S24.32,38.72,12.74,40.43Z"/><path class="cls-8" d="M63.75,40.59s-11.79-2.14-15,9.32h1.09s3.38-9.43,13.42-8.56Z"/><path class="cls-9" d="M32.86,52.72a.57.57,0,0,1-.25-.06.52.52,0,0,1-.22-.71L35.56,46a.55.55,0,0,1,.72-.22.52.52,0,0,1,.22.71l-3.17,5.92A.52.52,0,0,1,32.86,52.72Z"/><path class="cls-10" d="M34,45.12l-.41,1,4.37,1.48.39-1.07Zm3.66,2.08L34.17,46l.12-.36,3.47,1.16Z"/><path class="cls-11" d="M36.87,46.36a.85.85,0,0,1-1.69,0,.85.85,0,0,1,1.69,0Z"/><path class="cls-12" d="M61.37,41.3A11.79,11.79,0,1,0,73.31,53.08,11.86,11.86,0,0,0,61.37,41.3Zm0,21a9.26,9.26,0,1,1,9.38-9.26A9.32,9.32,0,0,1,61.37,62.34Z"/><path class="cls-9" d="M61.37,42.54A10.55,10.55,0,1,0,72.05,53.08,10.61,10.61,0,0,0,61.37,42.54Zm0,20.43a9.89,9.89,0,1,1,10-9.89A10,10,0,0,1,61.37,63Z"/><path class="cls-9" d="M65.1,62.25s-.82-2.52-1.73-5c-1.69-4.54-2.2-4.86-2.32-4.85-.62,0-2.56,6-3.65,9.72l-.17,0s.72-2.46,1.53-4.86c1.65-4.93,2.1-5,2.27-5s.64-.06,2.51,5c.91,2.45,1.73,5,1.73,5Z"/><path class="cls-9" d="M60.42,53.56c-2.72,0-8.71-1.48-9-1.55l0-.17c.09,0,8.83,2.17,10,1.37a.2.2,0,0,0,.1-.14c.16-1-4.45-6-6.25-7.86l.13-.12c.27.27,6.51,6.66,6.3,8a.4.4,0,0,1-.19.26A2.33,2.33,0,0,1,60.42,53.56Z"/><path class="cls-9" d="M61.7,53.41c-1,0-1.05-.19-1.1-.29-.4-1,5.75-7.44,6.45-8.17l.13.12c-2.73,2.85-6.68,7.33-6.41,8,.06.16.72.44,5.36-.32,2.57-.42,5.12-1,5.15-1l0,.17s-2.59.55-5.17,1A29.78,29.78,0,0,1,61.7,53.41Z"/><path class="cls-9" d="M61.22,53.56h0a.57.57,0,0,1-.4-.18c-1.27-1.3-1-9.71-1-10.07H60c0,.08-.26,8.69,1,9.94a.36.36,0,0,0,.27.13h0a.43.43,0,0,0,.31-.15c1.29-1.31,1-9.9,1-10h.17c0,.35.26,8.75-1.08,10.11A.6.6,0,0,1,61.22,53.56Z"/><path class="cls-9" d="M59.77,62.88h-.18s0-2.67.27-5.27c.46-5.35,1.18-5.35,1.42-5.35a.46.46,0,0,1,.31.14c1.18,1.17,1.18,10.1,1.18,10.48h-.18c0-.09,0-9.24-1.13-10.36a.26.26,0,0,0-.18-.09C60.32,52.43,59.84,58.84,59.77,62.88Z"/><path class="cls-9" d="M55.41,61.23l-.13-.12c2.69-3,6.59-7.64,6.32-8.42s-6.37.5-10.17,1.46l0-.17s2.5-.64,5-1.12c4.59-.89,5.27-.55,5.38-.22C62.15,53.76,56.1,60.47,55.41,61.23Z"/><path class="cls-9" d="M53.67,59.41l-.1-.15c2.78-1.74,8.06-5.36,8.16-6.59a.23.23,0,0,0-.09-.22c-.53-.46-6.09,2.51-9.48,4.48l-.09-.15s2.23-1.3,4.51-2.49c4.65-2.43,5-2.1,5.18-2a.44.44,0,0,1,.15.38C61.78,54.31,54,59.2,53.67,59.41Z"/><path class="cls-9" d="M61.27,53.68c-2.21,0-8.84-4.25-9.14-4.45l.1-.14c.07,0,6.88,4.42,9,4.42a1.14,1.14,0,0,0,.28,0,.41.41,0,0,0,.27-.2c.06-.12,0-.74-3.89-3.53-2.08-1.51-4.24-2.92-4.26-2.93l.09-.15S55.93,48.1,58,49.61c4.27,3.09,4,3.57,4,3.75a.58.58,0,0,1-.38.29A1.42,1.42,0,0,1,61.27,53.68Z"/><path class="cls-9" d="M61.43,53.49a1.33,1.33,0,0,1-.42-.06.62.62,0,0,1-.42-.4c-.08-.2-.29-.8,4.07-3.67C66.78,48,69,46.68,69,46.67l.09.15c-3.51,2-8.64,5.33-8.35,6.15a.47.47,0,0,0,.32.29c1.8.61,9.35-4.15,9.42-4.2l.1.14C70.3,49.39,63.81,53.49,61.43,53.49Z"/><path class="cls-9" d="M67.06,61.23c-.27-.3-6.69-7.3-6.22-8.67.07-.22.31-.91,5.46.31,2.51.59,5,1.36,5,1.37l-.06.16c-4-1.22-9.95-2.7-10.26-1.78s4.34,6.48,6.18,8.49Z"/><path class="cls-9" d="M68.86,59.65s-2.23-1.45-4.3-3c-4.27-3.23-3.85-3.87-3.71-4.08s.4-.62,5.14,1.87C68.3,55.62,70.57,57,70.59,57l-.09.15s-2.29-1.34-4.59-2.55c-4.27-2.23-4.84-2-4.91-1.92-.57.86,4.45,4.58,8,6.87Z"/><path class="cls-9" d="M61.48,53.5h0c-.83-.14-3.43-8-3.94-9.6l.17-.06c1.17,3.62,3.24,9.39,3.8,9.48.07,0,.5-.15,2-4.69.79-2.39,1.48-4.82,1.49-4.85l.17,0s-.7,2.46-1.49,4.86C62.15,53.18,61.68,53.5,61.48,53.5Z"/><path class="cls-10" d="M68,49a.1.1,0,0,1-.1,0,.12.12,0,0,1,0-.16L69.17,48a.13.13,0,0,1,.17,0,.11.11,0,0,1,0,.16L68,49A.1.1,0,0,1,68,49Z"/><path class="cls-10" d="M68,49.13a.26.26,0,0,1-.2-.1.24.24,0,0,1,.07-.33l.29-.19a.24.24,0,0,1,.33.07.23.23,0,0,1-.07.32l-.29.19A.22.22,0,0,1,68,49.13Z"/><path class="cls-12" d="M25.5,47.92A12,12,0,0,0,9.55,42.49,11.71,11.71,0,0,0,4,58.24a12,12,0,0,0,16,5.44A11.71,11.71,0,0,0,25.5,47.92ZM6.34,57.14a9.21,9.21,0,0,1,4.33-12.38A9.42,9.42,0,0,1,23.2,49a9.21,9.21,0,0,1-4.32,12.38A9.43,9.43,0,0,1,6.34,57.14Z"/><path class="cls-9" d="M24.37,48.47A10.73,10.73,0,0,0,10.1,43.61,10.48,10.48,0,0,0,5.17,57.7a10.74,10.74,0,0,0,14.28,4.86A10.48,10.48,0,0,0,24.37,48.47ZM5.78,57.41A9.82,9.82,0,0,1,10.39,44.2a10.06,10.06,0,0,1,13.38,4.56A9.83,9.83,0,0,1,19.15,62,10.06,10.06,0,0,1,5.78,57.41Z"/><path class="cls-9" d="M8.07,60.41S10,58.58,11.83,56.7c3.39-3.49,3.46-4.08,3.4-4.19-.32-.52-6.58.35-10.44,1l0-.17s2.54-.44,5.09-.78c5.21-.69,5.44-.3,5.53-.16s.32.54-3.43,4.4c-1.83,1.89-3.74,3.7-3.76,3.72Z"/><path class="cls-9" d="M13.93,52.45c-1.19-2.41-2.47-8.38-2.54-8.68l.18,0c0,.09,1.88,8.79,3.14,9.51a.23.23,0,0,0,.17,0c1-.32,3.54-6.6,4.43-9l.16.06c-.13.35-3.21,8.69-4.54,9.09a.36.36,0,0,1-.31,0A2.17,2.17,0,0,1,13.93,52.45Z"/><path class="cls-9" d="M14.62,53.52c-.42-.87-.28-1-.21-1.1.69-.78,9.28,1.85,10.26,2.15l-.05.17C20.82,53.56,15,52,14.54,52.54c-.11.12-.08.83,2.64,4.61,1.51,2.1,3.12,4.13,3.13,4.16l-.14.1s-1.63-2-3.14-4.16A30.9,30.9,0,0,1,14.62,53.52Z"/><path class="cls-9" d="M14.27,53.16h0a.53.53,0,0,1,0-.43c.62-1.7,8.39-5.16,8.72-5.31l.07.16c-.08,0-8,3.58-8.63,5.21a.36.36,0,0,0,0,.29h0a.42.42,0,0,0,.27.21c1.76.57,9.47-3.41,9.55-3.45l.08.16c-.32.16-7.85,4-9.68,3.46A.62.62,0,0,1,14.27,53.16Z"/><path class="cls-9" d="M5.15,56l-.07-.16S7.53,54.67,10,53.73c5.07-1.94,5.38-1.3,5.49-1.09a.44.44,0,0,1,0,.34c-.54,1.56-8.68,5.47-9,5.63l-.07-.15c.08,0,8.41-4.05,8.93-5.54a.28.28,0,0,0,0-.2C14.91,51.87,8.86,54.25,5.15,56Z"/><path class="cls-9" d="M4.75,51.36l0-.17c3.87,1.09,9.84,2.5,10.43,1.93S12,47.67,9.46,44.73l.13-.12s1.67,2,3.21,4c2.81,3.69,2.81,4.44,2.56,4.68C14.5,54.08,5.75,51.64,4.75,51.36Z"/><path class="cls-9" d="M5.64,49l.09-.15c2.81,1.7,8.41,4.81,9.57,4.35a.23.23,0,0,0,.17-.17c.19-.67-5-4.32-8.23-6.45l.1-.15s2.16,1.41,4.24,2.91c4.25,3.06,4.11,3.55,4.06,3.73a.43.43,0,0,1-.27.3C13.84,54,6,49.22,5.64,49Z"/><path class="cls-9" d="M14.18,53.26c-1-2,0-9.72.05-10.06l.18,0c0,.09-1,8.05-.08,10a1,1,0,0,0,.16.23.38.38,0,0,0,.29.15c.14,0,.66-.36,1.51-5,.47-2.5.8-5,.81-5.07l.17,0s-.34,2.56-.8,5.07c-.95,5.15-1.48,5.15-1.69,5.15a.57.57,0,0,1-.43-.21A2,2,0,0,1,14.18,53.26Z"/><path class="cls-9" d="M14.43,53.32a1.48,1.48,0,0,1-.13-.41.61.61,0,0,1,.18-.54c.15-.16.61-.61,5.13,2,2.2,1.27,4.33,2.68,4.35,2.69l-.1.15c-3.38-2.24-8.64-5.34-9.26-4.72a.46.46,0,0,0-.12.4c.23,1.87,7.88,6.49,8,6.53l-.09.15C22,59.39,15.48,55.43,14.43,53.32Z"/><path class="cls-9" d="M9.85,61.7c.15-.37,3.72-9.13,5.17-9.32.23,0,1-.12,2.11,5,.56,2.49.95,5,.95,5.06l-.17,0c-.62-4-1.9-10-2.87-9.89s-4,6.69-5,9.21Z"/><path class="cls-9" d="M12.08,62.61s.34-2.61.87-5.15c1.07-5.2,1.84-5.11,2.09-5.08s.74.09.55,5.38c-.09,2.58-.31,5.18-.31,5.21l-.18,0s.23-2.62.32-5.19c.16-4.76-.27-5.19-.4-5.2-1-.13-2.23,6-2.77,10.08Z"/><path class="cls-9" d="M14.44,53.36l0,0c-.23-.79,5.81-6.55,7-7.69l.12.12c-2.78,2.63-7.12,7-7,7.53,0,.06.37.38,5.15-.29,2.52-.34,5-.79,5.07-.8l0,.17s-2.56.46-5.08.81C15,53.81,14.53,53.54,14.44,53.36Z"/><path class="cls-10" d="M7.36,56.28a.13.13,0,0,1,.09.07.1.1,0,0,1,0,.15L6,57.17a.13.13,0,0,1-.16-.05A.12.12,0,0,1,5.91,57l1.38-.67Z"/><path class="cls-10" d="M7.38,56.17a.23.23,0,0,1,.18.13.24.24,0,0,1-.11.31l-.32.15a.24.24,0,0,1-.31-.11.22.22,0,0,1,.11-.31l.31-.15A.23.23,0,0,1,7.38,56.17Z"/><path class="cls-10" d="M17.38,53.15l0-.35-.22-.07a2.43,2.43,0,0,0-.08-.47l.18-.14-.12-.33-.23,0a3.42,3.42,0,0,0-.26-.4l.11-.2L16.53,51l-.2.11a1.56,1.56,0,0,0-.4-.27l0-.23-.33-.14-.14.18a2.21,2.21,0,0,0-.37-.08l-.07-.23h-.36l-.06.21-.28,0-.13-.2-.34.08v.26a2,2,0,0,0-.36.18l-.19-.13-.29.21.09.21a2.11,2.11,0,0,0-.31.36l-.23,0-.18.31.17.16a1.7,1.7,0,0,0-.15.45l-.23,0,0,.35.21.09v0a2.14,2.14,0,0,0,.05.45l-.2.13.1.33h.23a2.82,2.82,0,0,0,.23.42l-.12.19.22.27.21-.09a2.79,2.79,0,0,0,.38.3l0,.22.31.17.16-.17a2.42,2.42,0,0,0,.46.13l.06.22.35,0,.08-.22a1.84,1.84,0,0,0,.47-.06l.14.19.34-.11v-.23a3.38,3.38,0,0,0,.41-.24l.2.12.27-.24-.11-.2a2.55,2.55,0,0,0,.29-.38l.23,0,.15-.32-.17-.15a2.37,2.37,0,0,0,.11-.46Z"/><path class="cls-10" d="M17.43,57.16V57l-.11,0a1.43,1.43,0,0,0,0-.22l.09-.08-.06-.16H17.2a1.22,1.22,0,0,0-.12-.19l.05-.11L17,56.08l-.1.05a1.37,1.37,0,0,0-.2-.13l0-.12-.17-.06-.07.09-.18,0,0-.12H16.1l0,.11-.17,0-.07-.11-.17,0V56l-.14.07-.1-.07-.14.11,0,.11-.15.17-.12,0-.08.15.08.08a1.42,1.42,0,0,0-.07.22l-.12,0,0,.17L15,57h0a1.64,1.64,0,0,0,0,.22l-.1.06.05.17H15a1.28,1.28,0,0,0,.11.2l-.06.1.11.14.11-.05a.86.86,0,0,0,.18.14l0,.12.15.08.09-.09.22.07,0,.11h.17l0-.11.24,0,.07.1.16-.06V58.1l.2-.12.1.06.13-.11L17,57.82l.14-.18h.12l.07-.16-.09-.07a.86.86,0,0,0,.06-.23Zm-1.29.31A.44.44,0,0,1,15.7,57a.44.44,0,0,1,.88,0A.44.44,0,0,1,16.14,57.47Z"/><path class="cls-10" d="M14.55,58.51v-.16l-.14,0q0-.11,0-.18l.11-.1-.05-.15-.15,0a.86.86,0,0,0-.1-.16l.07-.13-.11-.11-.13.06-.16-.1,0-.15-.15-.06-.1.11-.14,0h0l0-.14H13.3l0,.13h-.07l-.08-.12-.16,0v.14l-.17.08-.12-.08-.13.1.05.13-.12.14-.14,0-.08.14.1.1-.06.18-.14,0,0,.16.13,0c0,.06,0,.13,0,.18l-.12.09,0,.15h.14l.09.16-.08.13.1.12.14-.06.14.12,0,.14.14.08.11-.11.17,0,0,.14.16,0,.05-.14.19,0,.08.11.16,0v-.14l.16-.1.13.08.12-.11-.06-.13a.83.83,0,0,0,.11-.15l.15,0,.07-.14-.12-.1a1.21,1.21,0,0,0,.05-.18Zm-1.21.24a.36.36,0,1,1,.37-.36A.37.37,0,0,1,13.34,58.75Z"/><polygon class="cls-8" points="51.3 31.76 54.34 40.49 52.82 41.04 49.88 32.23 51.3 31.76"/><path class="cls-9" d="M51.92,27.65h0a.58.58,0,0,1-.58-.59c0-.07.09-7.58,0-9.09-.06-1-1.48-1-1.5-1a.59.59,0,0,1,0-1.17h0c.87,0,2.54.51,2.64,2.16s0,8.85,0,9.16A.59.59,0,0,1,51.92,27.65Z"/><polygon class="cls-9" points="49.73 27.83 48.6 28.21 49.91 31.94 51.09 31.59 49.73 27.83"/><polygon class="cls-11" points="53.05 27.72 51.8 26.51 50.12 28.29 48.49 28.88 48.88 30.04 50.53 29.52 51.43 28.56 51.89 28.93 53.05 27.72"/><polygon class="cls-11" points="49.44 31.76 53.08 30.83 53.3 31.57 49.7 32.49 49.44 31.76"/><path class="cls-13" d="M24.46,58.38a.34.34,0,0,0-.1,0,.71.71,0,0,1-.44,0h-.06a.2.2,0,0,0-.18.21.19.19,0,0,0,.21.18l.09,0a.64.64,0,0,1,.42,0,.15.15,0,0,0,.09,0,.2.2,0,0,0,.18-.21A.19.19,0,0,0,24.46,58.38Z"/><path class="cls-13" d="M25.66,58.28l-.11,0a.61.61,0,0,1-.43,0h-.07a.19.19,0,0,0-.17.21.19.19,0,0,0,.21.18l.09,0a.64.64,0,0,1,.42,0,.14.14,0,0,0,.09,0,.19.19,0,0,0,.18-.21A.19.19,0,0,0,25.66,58.28Z"/><path class="cls-13" d="M26.86,58.17l-.11,0a.68.68,0,0,1-.43,0h-.07a.19.19,0,0,0-.18.21.2.2,0,0,0,.22.17l.09,0a.64.64,0,0,1,.42,0h.09a.19.19,0,0,0,.18-.21A.2.2,0,0,0,26.86,58.17Z"/><path class="cls-13" d="M28.05,58.07a.34.34,0,0,0-.1,0,.68.68,0,0,1-.43,0h-.07a.2.2,0,0,0,0,.39l.09,0a.68.68,0,0,1,.43,0,.13.13,0,0,0,.09,0,.2.2,0,0,0,.18-.21A.2.2,0,0,0,28.05,58.07Z"/><path class="cls-13" d="M29.25,58l-.1,0a.61.61,0,0,1-.43,0h-.07a.2.2,0,1,0,0,.39l.09,0a.64.64,0,0,1,.42,0,.16.16,0,0,0,.1,0,.19.19,0,1,0,0-.38Z"/><path class="cls-13" d="M30.45,57.86l-.1,0a.71.71,0,0,1-.44,0,.11.11,0,0,0-.06,0,.19.19,0,1,0,0,.38l.09,0a.64.64,0,0,1,.42,0h.09a.2.2,0,1,0,0-.39Z"/><path class="cls-13" d="M31.65,57.76a.43.43,0,0,0-.11,0,.68.68,0,0,1-.43,0H31a.21.21,0,0,0-.18.21.2.2,0,0,0,.22.18l.09,0a.64.64,0,0,1,.42,0,.15.15,0,0,0,.09,0,.2.2,0,0,0,.18-.21A.19.19,0,0,0,31.65,57.76Z"/><path class="cls-13" d="M32.83,57.58l-.09.05a.65.65,0,0,1-.43.07h-.07a.19.19,0,0,0-.15.23.2.2,0,0,0,.23.15l.09,0a.62.62,0,0,1,.41-.09h.09a.2.2,0,0,0,.16-.23A.21.21,0,0,0,32.83,57.58Z"/><path class="cls-13" d="M33.94,57.25a.45.45,0,0,0-.09.06.66.66,0,0,1-.41.14h-.07a.2.2,0,0,0-.11.26.19.19,0,0,0,.25.11l.08,0a.65.65,0,0,1,.4-.15h.09a.19.19,0,0,0,.11-.25A.19.19,0,0,0,33.94,57.25Z"/><path class="cls-13" d="M35,56.66l-.08.07a.67.67,0,0,1-.39.19l-.07,0a.2.2,0,0,0-.08.26.2.2,0,0,0,.27.09l.07-.06a.63.63,0,0,1,.37-.2l.09,0a.2.2,0,0,0-.18-.35Z"/><path class="cls-13" d="M35.94,56l-.06.09a.63.63,0,0,1-.33.27l-.06,0a.19.19,0,1,0,.26.29s0,0,.06-.07a.58.58,0,0,1,.31-.28l.08,0a.19.19,0,0,0,0-.27A.2.2,0,0,0,35.94,56Z"/><path class="cls-13" d="M36.65,55.05a.93.93,0,0,0,0,.1.63.63,0,0,1-.26.34l0,0a.19.19,0,0,0,0,.27.21.21,0,0,0,.28-.05.26.26,0,0,0,0-.08.61.61,0,0,1,.24-.35l.07-.06a.19.19,0,0,0,0-.27A.21.21,0,0,0,36.65,55.05Z"/><path class="cls-13" d="M37.09,54a.54.54,0,0,0,0,.11.6.6,0,0,1-.16.39l0,.06a.19.19,0,0,0,.12.25.19.19,0,0,0,.25-.11s0-.07,0-.09a.62.62,0,0,1,.14-.4.18.18,0,0,0,.05-.07.2.2,0,0,0-.11-.26A.22.22,0,0,0,37.09,54Z"/><path class="cls-13" d="M37.3,52.87s0,.11,0,.11a.66.66,0,0,1-.06.42.2.2,0,0,0,0,.06.2.2,0,1,0,.39,0,.28.28,0,0,0,0-.09.62.62,0,0,1,0-.42.12.12,0,0,0,0-.09.19.19,0,0,0-.17-.21A.19.19,0,0,0,37.3,52.87Z"/><path class="cls-13" d="M37.22,51.72a.64.64,0,0,0,0,.1.61.61,0,0,1,0,.43v.07a.19.19,0,0,0,.22.17.2.2,0,0,0,.17-.22.32.32,0,0,0,0-.09.63.63,0,0,1-.06-.41.15.15,0,0,0,0-.09.2.2,0,0,0-.4,0Z"/><path class="cls-13" d="M36.83,50.56l.06.09a.62.62,0,0,1,.13.41.23.23,0,0,0,0,.07.21.21,0,0,0,.25.12A.19.19,0,0,0,37.4,51s0-.06,0-.08a.59.59,0,0,1-.14-.39.38.38,0,0,0,0-.1.21.21,0,0,0-.25-.12A.2.2,0,0,0,36.83,50.56Z"/><path class="cls-13" d="M36.15,49.66l.09.06a.68.68,0,0,1,.28.33l0,.06a.21.21,0,0,0,.28,0,.19.19,0,0,0,0-.27l-.08-.06a.76.76,0,0,1-.29-.31.12.12,0,0,0,0-.08.2.2,0,0,0-.28,0A.19.19,0,0,0,36.15,49.66Z"/><path class="cls-13" d="M35.23,48.83l.1.05a.63.63,0,0,1,.31.29l0,0a.19.19,0,1,0,.26-.29l-.08,0a.66.66,0,0,1-.32-.28.18.18,0,0,0,0-.07.19.19,0,0,0-.28,0A.19.19,0,0,0,35.23,48.83Z"/><path class="cls-13" d="M34.18,48.27l.11,0a.66.66,0,0,1,.38.21l0,0a.2.2,0,0,0,.27-.08.19.19,0,0,0-.09-.26l-.09,0a.58.58,0,0,1-.37-.19l-.08-.06a.19.19,0,0,0-.26.09A.2.2,0,0,0,34.18,48.27Z"/><path class="cls-13" d="M33,48.05a.31.31,0,0,0,.11,0,.65.65,0,0,1,.43.07l.06,0a.19.19,0,1,0,0-.38H33.6a.62.62,0,0,1-.42,0,.12.12,0,0,0-.09,0,.2.2,0,0,0-.22.17A.19.19,0,0,0,33,48.05Z"/><path class="cls-13" d="M31.78,48l.11,0a.65.65,0,0,1,.43,0h.07a.2.2,0,1,0,0-.39l-.09,0a.69.69,0,0,1-.43,0l-.09,0a.21.21,0,0,0-.19.2A.19.19,0,0,0,31.78,48Z"/><path class="cls-12" d="M25.06,58.33l-.1,0a.67.67,0,0,1-.44,0h-.06a.2.2,0,1,0,0,.39l.09,0a.64.64,0,0,1,.42,0l.09,0a.2.2,0,0,0,.18-.21A.19.19,0,0,0,25.06,58.33Z"/><path class="cls-12" d="M26.26,58.23l-.11,0a.61.61,0,0,1-.43,0h-.07a.19.19,0,1,0,0,.38l.09,0a.64.64,0,0,1,.42,0,.14.14,0,0,0,.09,0,.19.19,0,1,0,0-.38Z"/><path class="cls-12" d="M27.46,58.12a.32.32,0,0,0-.11,0,.68.68,0,0,1-.43,0h-.07a.2.2,0,1,0,0,.39l.08,0a.6.6,0,0,1,.43,0h.09a.19.19,0,0,0,.18-.21A.2.2,0,0,0,27.46,58.12Z"/><path class="cls-12" d="M28.65,58l-.1,0a.65.65,0,0,1-.43,0h-.07a.2.2,0,1,0,0,.39l.09,0a.68.68,0,0,1,.43,0l.09,0a.2.2,0,0,0,.18-.21A.2.2,0,0,0,28.65,58Z"/><path class="cls-12" d="M29.85,57.92l-.1,0a.64.64,0,0,1-.44,0h-.06a.19.19,0,0,0-.18.21.19.19,0,0,0,.21.17l.09,0a.64.64,0,0,1,.42,0,.16.16,0,0,0,.1,0,.19.19,0,1,0,0-.38Z"/><path class="cls-12" d="M31.05,57.81a.34.34,0,0,0-.1,0,.71.71,0,0,1-.44,0h-.07a.2.2,0,0,0-.17.22.19.19,0,0,0,.21.17l.09,0a.57.57,0,0,1,.42,0h.09a.2.2,0,0,0,0-.39Z"/><path class="cls-12" d="M32.25,57.71l-.11,0a.65.65,0,0,1-.43,0h-.07a.19.19,0,0,0-.18.21.2.2,0,0,0,.22.18l.09,0a.64.64,0,0,1,.42,0l.09,0a.2.2,0,1,0,0-.39Z"/><path class="cls-14" d="M24.54,58.57a.06.06,0,0,1-.06.07.07.07,0,0,1-.07-.06s0-.07.06-.07A.06.06,0,0,1,24.54,58.57Z"/><path class="cls-14" d="M25.15,58.52s0,.07-.06.07a.09.09,0,0,1-.08-.06.07.07,0,0,1,.07-.07S25.14,58.48,25.15,58.52Z"/><path class="cls-14" d="M25.75,58.46a.08.08,0,0,1-.06.08.07.07,0,0,1-.07-.06s0-.07.06-.08A.07.07,0,0,1,25.75,58.46Z"/><path class="cls-14" d="M26.34,58.41s0,.07-.06.08a.07.07,0,0,1-.07-.07.07.07,0,0,1,.06-.07A.07.07,0,0,1,26.34,58.41Z"/><path class="cls-14" d="M26.94,58.36s0,.07-.06.07a.06.06,0,0,1-.07-.06.06.06,0,0,1,.06-.07S26.94,58.33,26.94,58.36Z"/><path class="cls-14" d="M27.54,58.31a.06.06,0,0,1-.06.07.07.07,0,0,1-.07-.06s0-.07.06-.07S27.54,58.27,27.54,58.31Z"/><path class="cls-14" d="M28.14,58.26a.07.07,0,0,1-.06.07s-.07,0-.07-.06a.07.07,0,1,1,.13,0Z"/><path class="cls-14" d="M28.74,58.21a.07.07,0,0,1-.06.07.07.07,0,0,1-.07-.06.06.06,0,0,1,.06-.07A.06.06,0,0,1,28.74,58.21Z"/><path class="cls-14" d="M29.34,58.15a.08.08,0,0,1-.06.08.07.07,0,0,1-.07-.06s0-.07.06-.08S29.34,58.12,29.34,58.15Z"/><path class="cls-14" d="M29.94,58.1a.07.07,0,0,1-.06.07s-.07,0-.08-.06a.08.08,0,0,1,.07-.07S29.94,58.07,29.94,58.1Z"/><path class="cls-14" d="M30.53,58.05a.07.07,0,0,1-.13,0,.06.06,0,0,1,.06-.07A.07.07,0,0,1,30.53,58.05Z"/><path class="cls-14" d="M31.13,58s0,.07-.06.07A.06.06,0,0,1,31,58a.06.06,0,0,1,.06-.07S31.13,58,31.13,58Z"/><path class="cls-14" d="M31.73,58s0,.07-.06.07-.07,0-.07-.06a.06.06,0,0,1,.06-.07A.06.06,0,0,1,31.73,58Z"/><path class="cls-14" d="M32.34,57.9a.07.07,0,0,1-.06.07.07.07,0,0,1-.07-.06.07.07,0,1,1,.13,0Z"/><path class="cls-13" d="M16.07,59.1l-.1,0a.64.64,0,0,1-.44,0h-.06a.19.19,0,1,0,0,.38l.09,0a.64.64,0,0,1,.42,0h.1a.2.2,0,0,0,0-.39Z"/><path class="cls-13" d="M17.27,59a.43.43,0,0,0-.11,0,.68.68,0,0,1-.43,0h-.07a.2.2,0,0,0-.17.21.19.19,0,0,0,.21.18l.09,0a.61.61,0,0,1,.42-.05.15.15,0,0,0,.09,0,.2.2,0,0,0,.18-.21A.19.19,0,0,0,17.27,59Z"/><path class="cls-13" d="M18.47,58.9l-.11,0a.65.65,0,0,1-.43,0h-.07a.19.19,0,0,0-.18.21.2.2,0,0,0,.22.18l.09,0a.64.64,0,0,1,.42,0,.14.14,0,0,0,.09,0,.19.19,0,0,0,.18-.21A.2.2,0,0,0,18.47,58.9Z"/><path class="cls-13" d="M19.66,58.79l-.1,0a.68.68,0,0,1-.43,0h-.07a.19.19,0,0,0-.18.21.2.2,0,0,0,.21.17l.09,0a.68.68,0,0,1,.43,0h.09a.19.19,0,0,0,.18-.21A.2.2,0,0,0,19.66,58.79Z"/><path class="cls-13" d="M20.86,58.69a.34.34,0,0,0-.1,0,.68.68,0,0,1-.43,0h-.07a.2.2,0,0,0-.18.21.19.19,0,0,0,.21.18l.09,0a.64.64,0,0,1,.42,0,.16.16,0,0,0,.1,0,.21.21,0,0,0,.18-.21A.2.2,0,0,0,20.86,58.69Z"/><path class="cls-13" d="M22.06,58.59l-.1,0a.64.64,0,0,1-.44,0h-.06a.2.2,0,1,0,0,.39l.09,0A.64.64,0,0,1,22,59a.14.14,0,0,0,.09,0,.19.19,0,0,0,.18-.21A.19.19,0,0,0,22.06,58.59Z"/><path class="cls-13" d="M23.26,58.48l-.11,0a.68.68,0,0,1-.43,0h-.07a.21.21,0,0,0-.18.21.2.2,0,0,0,.22.17l.09,0a.64.64,0,0,1,.42,0h.09a.2.2,0,0,0,0-.39Z"/><path class="cls-12" d="M16.67,59.05l-.1,0a.71.71,0,0,1-.44,0h-.06a.2.2,0,0,0-.18.22.19.19,0,0,0,.21.17l.09,0a.64.64,0,0,1,.42,0h.09a.2.2,0,0,0,0-.39Z"/><path class="cls-12" d="M17.87,59l-.11,0a.65.65,0,0,1-.43,0h-.07a.19.19,0,0,0-.18.21.2.2,0,0,0,.22.18l.09,0a.64.64,0,0,1,.42,0l.09,0a.2.2,0,0,0,.18-.21A.19.19,0,0,0,17.87,59Z"/><path class="cls-12" d="M19.07,58.85a.39.39,0,0,0-.11,0,.61.61,0,0,1-.43,0h-.07a.19.19,0,0,0-.18.21.21.21,0,0,0,.22.18l.08,0a.67.67,0,0,1,.43,0,.14.14,0,0,0,.09,0,.19.19,0,0,0,.18-.21A.2.2,0,0,0,19.07,58.85Z"/><path class="cls-12" d="M20.26,58.74l-.1,0a.68.68,0,0,1-.43,0h-.07a.2.2,0,0,0-.18.22.19.19,0,0,0,.21.17l.09,0a.68.68,0,0,1,.43,0h.09a.19.19,0,0,0,.18-.21A.2.2,0,0,0,20.26,58.74Z"/><path class="cls-12" d="M21.46,58.64l-.1,0a.68.68,0,0,1-.44,0h-.06a.2.2,0,1,0,0,.39l.09,0a.64.64,0,0,1,.42,0l.1,0a.2.2,0,0,0,.17-.21A.19.19,0,0,0,21.46,58.64Z"/><path class="cls-12" d="M22.66,58.54l-.1,0a.64.64,0,0,1-.44,0h-.07a.19.19,0,0,0-.17.21.2.2,0,0,0,.21.18l.09,0a.64.64,0,0,1,.42,0,.14.14,0,0,0,.09,0,.19.19,0,1,0,0-.38Z"/><path class="cls-12" d="M23.86,58.43l-.11,0a.68.68,0,0,1-.43,0h-.07a.2.2,0,1,0,0,.39l.09,0a.64.64,0,0,1,.42,0h.09a.2.2,0,0,0,0-.39Z"/><path class="cls-14" d="M15.55,59.34a.08.08,0,0,1-.06.08.07.07,0,0,1-.07-.06s0-.07.06-.08S15.55,59.31,15.55,59.34Z"/><path class="cls-14" d="M16.16,59.29a.07.07,0,0,1-.07.07A.06.06,0,0,1,16,59.3a.09.09,0,0,1,.06-.07A.09.09,0,0,1,16.16,59.29Z"/><path class="cls-14" d="M16.76,59.24a.07.07,0,0,1-.06.07s-.07,0-.08-.06a.08.08,0,0,1,.07-.07A.07.07,0,0,1,16.76,59.24Z"/><path class="cls-14" d="M17.36,59.19a.07.07,0,0,1-.06.07s-.07,0-.07-.06a.07.07,0,1,1,.13,0Z"/><path class="cls-14" d="M18,59.14a.06.06,0,0,1-.06.07s-.07,0-.07-.06,0-.07.06-.07A.06.06,0,0,1,18,59.14Z"/><path class="cls-14" d="M18.55,59.09a.07.07,0,0,1-.06.07.07.07,0,0,1-.07-.06s0-.07.06-.08A.08.08,0,0,1,18.55,59.09Z"/><path class="cls-14" d="M19.15,59s0,.07-.06.08-.07,0-.07-.06a.08.08,0,0,1,.06-.08A.07.07,0,0,1,19.15,59Z"/><path class="cls-14" d="M19.75,59s0,.07-.06.07a.06.06,0,0,1-.07-.06.06.06,0,0,1,.06-.07A.07.07,0,0,1,19.75,59Z"/><path class="cls-14" d="M20.35,58.93s0,.07-.06.07a.06.06,0,0,1-.07-.06.06.06,0,0,1,.06-.07A.07.07,0,0,1,20.35,58.93Z"/><path class="cls-14" d="M21,58.88a.07.07,0,0,1-.06.07s-.07,0-.07-.06a.06.06,0,0,1,.06-.07A.06.06,0,0,1,21,58.88Z"/><path class="cls-14" d="M21.55,58.83s0,.07-.06.07a.09.09,0,0,1-.08-.06.07.07,0,0,1,.07-.07A.06.06,0,0,1,21.55,58.83Z"/><path class="cls-14" d="M22.14,58.78s0,.06-.06.07a.07.07,0,0,1-.07-.06.07.07,0,1,1,.13,0Z"/><path class="cls-14" d="M22.74,58.72a.08.08,0,0,1-.06.08.07.07,0,0,1-.07-.06s0-.07.06-.08A.07.07,0,0,1,22.74,58.72Z"/><path class="cls-14" d="M23.34,58.67s0,.07-.06.07a.06.06,0,0,1-.07-.06.06.06,0,0,1,.06-.07S23.34,58.64,23.34,58.67Z"/><path class="cls-14" d="M24,58.62s0,.07-.06.07-.07,0-.07-.06a.06.06,0,0,1,.06-.07S24,58.58,24,58.62Z"/><path class="cls-13" d="M24,48.79a.34.34,0,0,0-.1,0,.68.68,0,0,1-.43,0h-.07a.21.21,0,0,0-.17.22.21.21,0,0,0,.23.17l.08,0a.63.63,0,0,1,.42-.07.16.16,0,0,0,.1,0,.19.19,0,0,0,.16-.22A.18.18,0,0,0,24,48.79Z"/><path class="cls-13" d="M25.18,48.61l-.1,0a.65.65,0,0,1-.43.05h-.07a.2.2,0,0,0-.17.22.21.21,0,0,0,.23.17l.08,0a.66.66,0,0,1,.42-.06h.1a.2.2,0,0,0,.16-.22A.19.19,0,0,0,25.18,48.61Z"/><path class="cls-13" d="M26.37,48.44a.34.34,0,0,0-.1,0,.65.65,0,0,1-.43.05h-.07a.19.19,0,0,0-.17.22.2.2,0,0,0,.23.16l.08,0a.66.66,0,0,1,.42-.06h.1a.19.19,0,1,0-.06-.38Z"/><path class="cls-13" d="M27.56,48.27a.34.34,0,0,0-.1,0,.65.65,0,0,1-.43,0H27a.21.21,0,0,0-.17.23.2.2,0,0,0,.22.16l.09,0a.63.63,0,0,1,.42-.07.14.14,0,0,0,.09,0,.19.19,0,0,0,.17-.22A.18.18,0,0,0,27.56,48.27Z"/><path class="cls-13" d="M28.75,48.09l-.1,0a.68.68,0,0,1-.43,0h-.07a.2.2,0,0,0,.05.39l.09,0a.63.63,0,0,1,.42-.07h.09a.2.2,0,0,0,.17-.22A.21.21,0,0,0,28.75,48.09Z"/><path class="cls-13" d="M29.94,47.92l-.1,0a.68.68,0,0,1-.44,0h-.06a.19.19,0,0,0-.17.22.19.19,0,0,0,.22.16l.09,0a.66.66,0,0,1,.42-.06H30a.2.2,0,0,0,.17-.22A.21.21,0,0,0,29.94,47.92Z"/><path class="cls-13" d="M31.13,47.75a.43.43,0,0,0-.11,0,.65.65,0,0,1-.43.05.11.11,0,0,0-.06,0,.19.19,0,0,0-.17.22.2.2,0,0,0,.22.16l.09,0a.63.63,0,0,1,.42-.07.14.14,0,0,0,.09,0,.19.19,0,0,0,.17-.22A.2.2,0,0,0,31.13,47.75Z"/><path class="cls-12" d="M24.58,48.7a.34.34,0,0,0-.1,0,.65.65,0,0,1-.43,0H24a.19.19,0,0,0,.06.38l.09,0a.66.66,0,0,1,.42-.06.14.14,0,0,0,.09,0,.19.19,0,0,0,.17-.22A.2.2,0,0,0,24.58,48.7Z"/><path class="cls-12" d="M25.77,48.53a.34.34,0,0,0-.1,0,.65.65,0,0,1-.43,0h-.07a.2.2,0,0,0-.16.22.19.19,0,0,0,.22.17l.09,0a.63.63,0,0,1,.42-.07.14.14,0,0,0,.09,0,.19.19,0,1,0-.06-.38Z"/><path class="cls-12" d="M27,48.35l-.1,0a.65.65,0,0,1-.43,0h-.07a.19.19,0,0,0-.16.22.19.19,0,0,0,.22.17l.09,0a.66.66,0,0,1,.42-.06H27a.21.21,0,0,0,.17-.22A.21.21,0,0,0,27,48.35Z"/><path class="cls-12" d="M28.15,48.18a.34.34,0,0,0-.1,0,.65.65,0,0,1-.43.05.15.15,0,0,0-.07,0,.18.18,0,0,0-.16.22.19.19,0,0,0,.22.16l.09,0a.66.66,0,0,1,.42-.06h.09a.21.21,0,0,0,.17-.23A.2.2,0,0,0,28.15,48.18Z"/><path class="cls-12" d="M29.34,48a.34.34,0,0,0-.1,0,.65.65,0,0,1-.43.05h-.07a.2.2,0,0,0,.06.39l.09,0a.63.63,0,0,1,.42-.07.14.14,0,0,0,.09,0,.19.19,0,0,0,.17-.22A.2.2,0,0,0,29.34,48Z"/><path class="cls-12" d="M30.53,47.83l-.1.05a.68.68,0,0,1-.43,0h-.07a.19.19,0,0,0-.16.22.19.19,0,0,0,.22.17l.09,0a.63.63,0,0,1,.42-.07h.09a.19.19,0,0,0,.16-.22A.19.19,0,0,0,30.53,47.83Z"/><path class="cls-14" d="M24.08,49A.06.06,0,0,1,24,49,.07.07,0,0,1,24,49a.08.08,0,0,1,.06-.08A.07.07,0,0,1,24.08,49Z"/><path class="cls-14" d="M24.68,48.88a.07.07,0,0,1-.05.08.08.08,0,0,1-.08-.06.06.06,0,0,1,.06-.07A.06.06,0,0,1,24.68,48.88Z"/><path class="cls-14" d="M25.28,48.79a.07.07,0,0,1-.05.08.06.06,0,0,1-.08-.06.06.06,0,0,1,.06-.07A.06.06,0,0,1,25.28,48.79Z"/><path class="cls-14" d="M25.87,48.71a.06.06,0,0,1-.06.07.06.06,0,0,1-.07-.05.07.07,0,0,1,.05-.08A.08.08,0,0,1,25.87,48.71Z"/><path class="cls-14" d="M26.46,48.62a.07.07,0,0,1-.05.08.08.08,0,0,1-.08-.06.06.06,0,0,1,.06-.07A.06.06,0,0,1,26.46,48.62Z"/><path class="cls-14" d="M27.06,48.54a.06.06,0,0,1,0,.07.07.07,0,1,1,0-.13A.06.06,0,0,1,27.06,48.54Z"/><path class="cls-14" d="M27.66,48.45s0,.07-.06.07a.07.07,0,0,1-.08-.05.07.07,0,1,1,.14,0Z"/><path class="cls-14" d="M28.25,48.36s0,.07-.06.08a.07.07,0,0,1-.07-.06.06.06,0,0,1,.05-.07A.07.07,0,0,1,28.25,48.36Z"/><path class="cls-14" d="M28.85,48.28a.07.07,0,0,1-.06.07.07.07,0,0,1-.08-.05.08.08,0,0,1,.06-.08S28.84,48.24,28.85,48.28Z"/><path class="cls-14" d="M29.44,48.19s0,.07-.06.08a.07.07,0,0,1-.07-.06.07.07,0,0,1,.05-.08S29.44,48.15,29.44,48.19Z"/><path class="cls-14" d="M30,48.1s0,.07-.06.08a.07.07,0,0,1-.07-.06.06.06,0,0,1,.05-.07A.07.07,0,0,1,30,48.1Z"/><path class="cls-14" d="M30.63,48a.07.07,0,0,1-.06.07.07.07,0,0,1-.08-.05.07.07,0,1,1,.14,0Z"/><path class="cls-12" d="M31.72,47.66l-.1,0a.65.65,0,0,1-.43,0h-.07a.19.19,0,1,0,.06.38l.09,0a.66.66,0,0,1,.42-.06h.09a.19.19,0,0,0,.16-.22A.19.19,0,0,0,31.72,47.66Z"/><path class="cls-14" d="M31.22,47.93s0,.07-.06.08a.07.07,0,0,1-.07-.06.07.07,0,0,1,.05-.08A.08.08,0,0,1,31.22,47.93Z"/><path class="cls-14" d="M31.83,47.84a.07.07,0,0,1-.14,0,.07.07,0,0,1,.06-.07A.07.07,0,0,1,31.83,47.84Z"/><path class="cls-12" d="M33,47.66l-.11,0a.65.65,0,0,1-.43,0h-.06a.19.19,0,1,0,0,.38.14.14,0,0,0,.09,0,.68.68,0,0,1,.43,0,.12.12,0,0,0,.09,0,.2.2,0,0,0,0-.39Z"/><path class="cls-14" d="M32.5,47.83a.07.07,0,0,1-.07.07.08.08,0,0,1-.07-.07.07.07,0,0,1,.14,0Z"/><path class="cls-14" d="M33.11,47.86s0,.06-.07.06-.06,0-.06-.07a.07.07,0,1,1,.13,0Z"/><path class="cls-12" d="M34.32,47.91h-.11a.64.64,0,0,1-.41-.12l-.07,0a.21.21,0,0,0-.24.14.2.2,0,0,0,.15.24h.09a.62.62,0,0,1,.41.09.26.26,0,0,0,.09,0,.19.19,0,0,0,.23-.15A.18.18,0,0,0,34.32,47.91Z"/><path class="cls-14" d="M33.75,48a.06.06,0,0,1-.08.05.07.07,0,0,1-.05-.08.07.07,0,0,1,.09,0A.06.06,0,0,1,33.75,48Z"/><path class="cls-14" d="M34.35,48.12a.07.07,0,0,1-.08,0,.06.06,0,0,1-.05-.08.08.08,0,0,1,.08,0A.07.07,0,0,1,34.35,48.12Z"/><path class="cls-12" d="M35.43,48.49a.33.33,0,0,0-.1,0,.66.66,0,0,1-.38-.21l-.05,0a.2.2,0,1,0-.19.35l.09,0a.72.72,0,0,1,.38.2.17.17,0,0,0,.06.06.2.2,0,0,0,.27-.08A.19.19,0,0,0,35.43,48.49Z"/><path class="cls-14" d="M34.87,48.41a.08.08,0,0,1-.09,0,.07.07,0,0,1,.06-.12A.08.08,0,0,1,34.87,48.41Z"/><path class="cls-14" d="M35.41,48.7a.07.07,0,0,1-.09,0s0,0,0-.09a.07.07,0,0,1,.09,0S35.42,48.66,35.41,48.7Z"/><path class="cls-12" d="M36.36,49.32l-.09,0A.62.62,0,0,1,36,49l0,0a.19.19,0,0,0-.28,0,.18.18,0,0,0,0,.27l.08,0a.61.61,0,0,1,.31.28.16.16,0,0,0,.06.08.2.2,0,0,0,.27,0A.19.19,0,0,0,36.36,49.32Z"/><path class="cls-14" d="M35.84,49.11a.09.09,0,0,1-.1,0,.06.06,0,0,1,0-.09.06.06,0,0,1,.09,0A.08.08,0,0,1,35.84,49.11Z"/><path class="cls-14" d="M36.29,49.52a.09.09,0,0,1-.1,0,.06.06,0,0,1,0-.09.06.06,0,0,1,.09,0A.08.08,0,0,1,36.29,49.52Z"/><path class="cls-12" d="M37.19,50.35l-.08-.07a.66.66,0,0,1-.22-.37l0-.06a.2.2,0,0,0-.33.22l.06.06a.64.64,0,0,1,.24.35.16.16,0,0,0,0,.09.19.19,0,0,0,.27,0A.2.2,0,0,0,37.19,50.35Z"/><path class="cls-14" d="M36.73,50a.07.07,0,1,1,0-.09A.07.07,0,0,1,36.73,50Z"/><path class="cls-14" d="M37.07,50.53a.07.07,0,0,1-.08-.12.08.08,0,0,1,.1,0A.08.08,0,0,1,37.07,50.53Z"/><path class="cls-12" d="M37.61,51.56a.45.45,0,0,0-.06-.09.62.62,0,0,1-.13-.41.23.23,0,0,0,0-.07.21.21,0,0,0-.25-.12.2.2,0,0,0-.12.25s0,.06,0,.08a.59.59,0,0,1,.14.39.28.28,0,0,0,0,.09.2.2,0,0,0,.38-.12Z"/><path class="cls-14" d="M37.25,51.12a.08.08,0,0,1-.09,0,.06.06,0,0,1,0-.08.06.06,0,0,1,.09,0A.07.07,0,0,1,37.25,51.12Z"/><path class="cls-14" d="M37.44,51.69a.05.05,0,0,1-.08,0,.07.07,0,0,1,0-.08.07.07,0,0,1,.09,0A.07.07,0,0,1,37.44,51.69Z"/><path class="cls-12" d="M37.71,52.79a.41.41,0,0,0,0-.1.61.61,0,0,1,0-.43.35.35,0,0,0,0-.06.2.2,0,0,0-.22-.18.2.2,0,0,0-.18.21l0,.09a.61.61,0,0,1,0,.41.16.16,0,0,0,0,.1.2.2,0,0,0,.39,0Z"/><path class="cls-14" d="M37.48,52.28s-.07,0-.08-.06,0-.07.06-.07a.08.08,0,0,1,.08.06A.07.07,0,0,1,37.48,52.28Z"/><path class="cls-14" d="M37.52,52.89s-.07,0-.07-.06a.07.07,0,0,1,.14,0A.08.08,0,0,1,37.52,52.89Z"/><path class="cls-12" d="M37.51,54a.31.31,0,0,0,0-.11.63.63,0,0,1,.09-.42.2.2,0,0,0,0-.06.2.2,0,0,0-.16-.23.2.2,0,0,0-.22.16.14.14,0,0,0,0,.09.66.66,0,0,1-.07.42.2.2,0,1,0,.35.15Z"/><path class="cls-14" d="M37.41,53.46a.07.07,0,0,1-.06-.07.07.07,0,0,1,.14,0A.07.07,0,0,1,37.41,53.46Z"/><path class="cls-14" d="M37.3,54.06a.07.07,0,0,1,0-.08.06.06,0,0,1,.08,0,.07.07,0,0,1,.05.08A.06.06,0,0,1,37.3,54.06Z"/><path class="cls-12" d="M37,55.25s0-.1,0-.1a.67.67,0,0,1,.19-.39l0,0a.19.19,0,0,0-.1-.26.2.2,0,0,0-.26.1.29.29,0,0,0,0,.09.61.61,0,0,1-.17.38l-.06.08a.2.2,0,0,0,.36.15Z"/><path class="cls-14" d="M37,54.69a.06.06,0,0,1,0-.09s.05,0,.09,0a.07.07,0,0,1,0,.09A.06.06,0,0,1,37,54.69Z"/><path class="cls-14" d="M36.76,55.24a.06.06,0,0,1,0-.08s.05,0,.09,0a.07.07,0,0,1,0,.09A.06.06,0,0,1,36.76,55.24Z"/><path class="cls-12" d="M36.2,56.23a.45.45,0,0,0,0-.1.63.63,0,0,1,.28-.32l0-.05a.19.19,0,0,0,0-.27.2.2,0,0,0-.28,0l0,.08a.76.76,0,0,1-.26.34l-.08.05a.19.19,0,0,0,0,.27A.18.18,0,0,0,36.2,56.23Z"/><path class="cls-14" d="M36.38,55.7a.08.08,0,0,1,0-.1.07.07,0,0,1,.09,0,.08.08,0,0,1,0,.1A.08.08,0,0,1,36.38,55.7Z"/><path class="cls-14" d="M36,56.17a.06.06,0,1,1,.08-.1.06.06,0,0,1,0,.09A.06.06,0,0,1,36,56.17Z"/><path class="cls-12" d="M35.21,57a.38.38,0,0,0,.07-.08.69.69,0,0,1,.35-.25l.06,0a.19.19,0,0,0,0-.27.2.2,0,0,0-.34,0,.61.61,0,0,1-.33.26.16.16,0,0,0-.09,0,.22.22,0,0,0,0,.28A.2.2,0,0,0,35.21,57Z"/><path class="cls-14" d="M35.52,56.52a.07.07,0,0,1,0-.1.07.07,0,0,1,.09,0,.06.06,0,0,1,0,.09A.06.06,0,0,1,35.52,56.52Z"/><path class="cls-14" d="M35,56.89a.08.08,0,0,1,0-.1.09.09,0,0,1,.1,0,.08.08,0,0,1,0,.1A.07.07,0,0,1,35,56.89Z"/><path class="cls-12" d="M34.07,57.58a.32.32,0,0,0,.08-.06.68.68,0,0,1,.41-.16h.06a.19.19,0,0,0,.11-.26.2.2,0,0,0-.26-.1l-.08,0a.64.64,0,0,1-.39.17h-.09a.2.2,0,0,0-.1.26A.2.2,0,0,0,34.07,57.58Z"/><path class="cls-14" d="M34.48,57.2s0-.08,0-.09a.07.07,0,0,1,.09,0,.08.08,0,0,1,0,.09A.07.07,0,0,1,34.48,57.2Z"/><path class="cls-14" d="M33.92,57.43a.06.06,0,0,1,0-.08.06.06,0,0,1,.09,0,.07.07,0,0,1,0,.09S33.93,57.47,33.92,57.43Z"/><path class="cls-12" d="M32.88,58s.09-.05.09-.05a.65.65,0,0,1,.43-.07h.07a.2.2,0,0,0,.15-.23.21.21,0,0,0-.24-.15l-.08,0a.65.65,0,0,1-.42.09h-.09a.19.19,0,0,0-.15.23A.2.2,0,0,0,32.88,58Z"/><path class="cls-14" d="M33.36,57.66a.06.06,0,0,1,0-.08.07.07,0,0,1,.08.05.07.07,0,0,1-.05.08A.06.06,0,0,1,33.36,57.66Z"/><path class="cls-14" d="M32.76,57.79a.06.06,0,0,1,.05-.08.07.07,0,0,1,.08,0,.07.07,0,1,1-.13,0Z"/><path class="cls-13" d="M15.68,49.87a.34.34,0,0,0-.1,0,.72.72,0,0,1-.44,0h-.06a.19.19,0,1,0,.05.38l.09,0a.55.55,0,0,1,.42,0h.09A.21.21,0,0,0,15.9,50,.2.2,0,0,0,15.68,49.87Z"/><path class="cls-13" d="M14.4,50l-.1.05a.67.67,0,0,1-.42.08h-.07a.2.2,0,0,0-.15.24.19.19,0,0,0,.24.14l.08,0a.6.6,0,0,1,.41-.1h.1a.21.21,0,0,0,.15-.23A.2.2,0,0,0,14.4,50Z"/><path class="cls-13" d="M13.18,50.44a.36.36,0,0,0-.07.09.69.69,0,0,1-.35.25l-.06,0a.19.19,0,0,0,0,.27.2.2,0,0,0,.28,0l.06-.07a.61.61,0,0,1,.33-.26l.09,0a.2.2,0,0,0-.24-.31Z"/><path class="cls-13" d="M12.15,51.34a.54.54,0,0,0,0,.11.63.63,0,0,1-.18.39.3.3,0,0,0,0,.06.2.2,0,0,0,.11.25.19.19,0,0,0,.25-.11.29.29,0,0,0,0-.09.64.64,0,0,1,.15-.39.13.13,0,0,0,.06-.07.2.2,0,1,0-.37-.15Z"/><path class="cls-13" d="M11.76,52.6a.32.32,0,0,0,0,.11.65.65,0,0,1,0,.43.11.11,0,0,0,0,.06.19.19,0,0,0,.21.18.2.2,0,0,0,.18-.21.26.26,0,0,0,0-.08.67.67,0,0,1,0-.42.14.14,0,0,0,0-.09.19.19,0,0,0-.21-.18A.19.19,0,0,0,11.76,52.6Z"/><path class="cls-13" d="M11.91,53.92,12,54a.63.63,0,0,1,.18.39.41.41,0,0,0,0,.07.22.22,0,0,0,.27.09.2.2,0,0,0,.08-.26.56.56,0,0,0,0-.08.58.58,0,0,1-.19-.37.16.16,0,0,0,0-.09.19.19,0,0,0-.26-.09A.19.19,0,0,0,11.91,53.92Z"/><path class="cls-13" d="M12.7,55a.34.34,0,0,0,.1,0,.68.68,0,0,1,.34.27l0,.05a.2.2,0,0,0,.27,0,.18.18,0,0,0,0-.27.15.15,0,0,0-.08,0,.65.65,0,0,1-.35-.25.13.13,0,0,0-.06-.07.19.19,0,0,0-.27,0A.18.18,0,0,0,12.7,55Z"/><path class="cls-13" d="M13.79,55.78a.31.31,0,0,0,.11,0,.67.67,0,0,1,.42.1l.07,0a.2.2,0,0,0,.23-.15.2.2,0,0,0-.16-.23h-.09a.66.66,0,0,1-.42-.07.13.13,0,0,0-.09,0,.2.2,0,0,0-.23.15A.2.2,0,0,0,13.79,55.78Z"/><path class="cls-13" d="M15.12,55.87l.1,0a.69.69,0,0,1,.43-.06.16.16,0,0,0,.07,0,.19.19,0,0,0,.16-.22.2.2,0,0,0-.23-.16l-.08,0a.68.68,0,0,1-.42.08h-.09a.2.2,0,0,0-.16.23A.19.19,0,0,0,15.12,55.87Z"/><path class="cls-13" d="M16.24,55.67h.11a.63.63,0,0,1,.41.14l.06,0a.19.19,0,1,0,.12-.37h-.09a.66.66,0,0,1-.41-.12l-.08-.05a.2.2,0,0,0-.25.13A.2.2,0,0,0,16.24,55.67Z"/><path class="cls-13" d="M17.19,56.16a.45.45,0,0,0,.06.09.6.6,0,0,1,.15.4l0,.06a.19.19,0,0,0,.25.11.2.2,0,0,0,.11-.26l-.05-.07a.68.68,0,0,1-.17-.39.14.14,0,0,0,0-.09.2.2,0,0,0-.26-.11A.19.19,0,0,0,17.19,56.16Z"/><path class="cls-13" d="M17.43,57.25a.39.39,0,0,0,0,.11.64.64,0,0,1-.11.42l0,.06a.2.2,0,0,0,.15.23.2.2,0,0,0,.24-.15v-.09a.65.65,0,0,1,.09-.41.2.2,0,0,0,0-.08.19.19,0,0,0-.15-.23A.18.18,0,0,0,17.43,57.25Z"/><path class="cls-13" d="M15,59.66a.32.32,0,0,0,.11,0,.59.59,0,0,1,.42-.06h.07a.2.2,0,0,0,.16-.23.21.21,0,0,0-.23-.16l-.08,0a.63.63,0,0,1-.42.07h-.09a.19.19,0,0,0,.06.38Z"/><path class="cls-13" d="M16.92,58.1a.4.4,0,0,0-.09.07.69.69,0,0,1-.41.13l-.07,0a.19.19,0,1,0,.14.36l.08,0a.65.65,0,0,1,.39-.15h.1a.19.19,0,0,0,.11-.25A.21.21,0,0,0,16.92,58.1Z"/><path class="cls-13" d="M14.88,57.68l-.09-.06a.62.62,0,0,1-.28-.33l0,0a.2.2,0,0,0-.28,0,.19.19,0,0,0,0,.27l.08.06a.62.62,0,0,1,.28.31.2.2,0,0,0,0,.08.2.2,0,1,0,.3-.26Z"/><path class="cls-13" d="M13.67,56.79a.39.39,0,0,0-.11,0,.64.64,0,0,1-.43,0h-.07a.2.2,0,1,0,0,.39l.09,0a.68.68,0,0,1,.43,0,.15.15,0,0,0,.09,0,.18.18,0,0,0,.19-.19A.2.2,0,0,0,13.67,56.79Z"/><path class="cls-13" d="M12.27,57.11a.49.49,0,0,0,0,.1.68.68,0,0,1-.27.34l0,.05a.18.18,0,0,0,0,.27.22.22,0,0,0,.28,0,.32.32,0,0,0,0-.09.65.65,0,0,1,.25-.34.13.13,0,0,0,.07-.06.2.2,0,0,0,0-.27A.21.21,0,0,0,12.27,57.11Z"/><path class="cls-13" d="M11.7,58.47l.05.1a.62.62,0,0,1,.07.42.18.18,0,0,0,0,.06.2.2,0,0,0,.23.16.21.21,0,0,0,.15-.23.15.15,0,0,0,0-.09.65.65,0,0,1-.08-.41.27.27,0,0,0,0-.09.2.2,0,0,0-.39.08Z"/><path class="cls-13" d="M12.39,59.75h.11a.62.62,0,0,1,.4.14l.06,0a.19.19,0,0,0,.25-.12.2.2,0,0,0-.13-.25H13a.69.69,0,0,1-.41-.12l-.08-.05a.2.2,0,0,0-.11.38Z"/><path class="cls-13" d="M13.77,59.89a.34.34,0,0,0,.1,0,.69.69,0,0,1,.43-.06h.07a.2.2,0,0,0,.16-.23.2.2,0,0,0-.23-.15l-.09,0a.68.68,0,0,1-.42.08.13.13,0,0,0-.09,0,.19.19,0,1,0,.07.38Z"/><path class="cls-13" d="M15.84,58.22h-.11a.65.65,0,0,1-.41-.16s0,0-.05,0a.2.2,0,0,0-.26.11.21.21,0,0,0,.12.25h.09a.69.69,0,0,1,.4.14.24.24,0,0,0,.08.06.2.2,0,0,0,.25-.12A.19.19,0,0,0,15.84,58.22Z"/><path class="cls-13" d="M16.87,49.71l-.1,0a.65.65,0,0,1-.43,0h-.07a.2.2,0,0,0,.05.39l.09,0a.66.66,0,0,1,.42-.06h.09a.19.19,0,0,0,.17-.22A.2.2,0,0,0,16.87,49.71Z"/><path class="cls-13" d="M18.06,49.56a.34.34,0,0,0-.1,0,.68.68,0,0,1-.43,0h-.07a.19.19,0,1,0,.05.38l.09,0a.66.66,0,0,1,.42-.06.14.14,0,0,0,.09,0,.18.18,0,0,0,.17-.21A.19.19,0,0,0,18.06,49.56Z"/><path class="cls-13" d="M19.25,49.4l-.1,0a.61.61,0,0,1-.43,0h-.07a.2.2,0,0,0,.05.39l.09,0a.66.66,0,0,1,.42-.06h.1a.2.2,0,1,0-.06-.39Z"/><path class="cls-13" d="M20.45,49.25a.43.43,0,0,0-.11,0,.69.69,0,0,1-.43,0h-.07a.18.18,0,0,0-.16.21.19.19,0,0,0,.22.17l.08,0a.69.69,0,0,1,.43-.06.13.13,0,0,0,.09,0,.19.19,0,0,0,.17-.22A.2.2,0,0,0,20.45,49.25Z"/><path class="cls-13" d="M21.64,49.09l-.1,0a.61.61,0,0,1-.43,0H21a.19.19,0,0,0-.17.22.19.19,0,0,0,.22.17l.09,0a.59.59,0,0,1,.42-.06h.09a.2.2,0,0,0,.17-.22A.19.19,0,0,0,21.64,49.09Z"/><path class="cls-13" d="M22.83,48.94a.34.34,0,0,0-.1,0,.68.68,0,0,1-.43,0h-.07a.21.21,0,0,0-.17.22.19.19,0,0,0,.22.17l.09,0a.66.66,0,0,1,.42-.06.14.14,0,0,0,.09,0,.19.19,0,1,0-.05-.38Z"/><path class="cls-12" d="M17.47,49.64a.43.43,0,0,0-.11,0,.69.69,0,0,1-.43,0h-.07a.2.2,0,0,0-.16.22.19.19,0,0,0,.22.17l.08,0a.69.69,0,0,1,.43-.06.13.13,0,0,0,.09,0,.19.19,0,0,0,.17-.22A.2.2,0,0,0,17.47,49.64Z"/><path class="cls-12" d="M18.66,49.48a.34.34,0,0,0-.1,0,.64.64,0,0,1-.44,0h-.06a.19.19,0,1,0,.05.38l.09,0a.59.59,0,0,1,.42-.06h.09a.21.21,0,0,0,.17-.22A.2.2,0,0,0,18.66,49.48Z"/><path class="cls-12" d="M19.85,49.32l-.1,0a.68.68,0,0,1-.43,0h-.07a.21.21,0,0,0-.17.22.19.19,0,0,0,.22.17l.09,0a.66.66,0,0,1,.42-.06h.09a.19.19,0,0,0,.17-.22A.2.2,0,0,0,19.85,49.32Z"/><path class="cls-12" d="M21,49.17a.34.34,0,0,0-.1,0,.68.68,0,0,1-.43,0h-.07a.19.19,0,1,0,0,.38l.09,0a.66.66,0,0,1,.42-.06.15.15,0,0,0,.09,0,.2.2,0,0,0,.17-.22A.19.19,0,0,0,21,49.17Z"/><path class="cls-12" d="M22.23,49l-.1,0a.65.65,0,0,1-.43.05h-.07a.2.2,0,0,0,.05.39l.09,0a.66.66,0,0,1,.42-.06h.1a.2.2,0,0,0,.17-.22A.21.21,0,0,0,22.23,49Z"/><path class="cls-12" d="M23.43,48.86a.43.43,0,0,0-.11,0,.69.69,0,0,1-.43,0h-.07a.19.19,0,0,0,.06.38l.08,0a.69.69,0,0,1,.43-.06.13.13,0,0,0,.09,0,.19.19,0,0,0,.17-.21A.2.2,0,0,0,23.43,48.86Z"/><path class="cls-14" d="M15.17,50.13a.08.08,0,0,1-.06.08s-.07,0-.07-.06a.05.05,0,0,1,.05-.07A.07.07,0,0,1,15.17,50.13Z"/><path class="cls-12" d="M16.27,49.79l-.1,0a.61.61,0,0,1-.43,0h-.07a.19.19,0,0,0-.17.22.21.21,0,0,0,.22.17l.09,0a.59.59,0,0,1,.42-.06h.1a.2.2,0,1,0-.06-.39Z"/><path class="cls-14" d="M15.77,50.05s0,.07-.06.08a.07.07,0,0,1-.07-.06.05.05,0,0,1,0-.07A.06.06,0,0,1,15.77,50.05Z"/><path class="cls-14" d="M16.37,50a.06.06,0,0,1-.06.07.07.07,0,0,1-.07-.06.07.07,0,1,1,.13,0Z"/><path class="cls-14" d="M17,49.9a.07.07,0,1,1-.07-.06A.07.07,0,0,1,17,49.9Z"/><path class="cls-14" d="M17.56,49.82s0,.07-.06.07a.06.06,0,0,1-.07,0,.07.07,0,0,1,.05-.08A.08.08,0,0,1,17.56,49.82Z"/><path class="cls-14" d="M18.15,49.74a.07.07,0,0,1,0,.08.08.08,0,0,1-.08-.06s0-.07.06-.07A.05.05,0,0,1,18.15,49.74Z"/><path class="cls-14" d="M18.75,49.66a.07.07,0,0,1-.05.08.08.08,0,0,1-.08-.06.07.07,0,0,1,.06-.07A.05.05,0,0,1,18.75,49.66Z"/><path class="cls-14" d="M19.35,49.59a.07.07,0,0,1-.06.07.06.06,0,0,1-.07-.06.06.06,0,0,1,.05-.07S19.34,49.55,19.35,49.59Z"/><path class="cls-14" d="M20,49.51a.07.07,0,0,1-.06.07.07.07,0,0,1-.08,0,.07.07,0,1,1,.14,0Z"/><path class="cls-14" d="M20.54,49.43s0,.07-.06.08-.07,0-.07-.06,0-.07.06-.08A.07.07,0,0,1,20.54,49.43Z"/><path class="cls-14" d="M21.14,49.35a.07.07,0,0,1-.14,0,.07.07,0,0,1,.06-.07A.07.07,0,0,1,21.14,49.35Z"/><path class="cls-14" d="M21.73,49.28a.07.07,0,0,1-.06.07.06.06,0,0,1-.07-.06.06.06,0,0,1,0-.07S21.72,49.24,21.73,49.28Z"/><path class="cls-14" d="M22.33,49.2s0,.07-.06.07a.07.07,0,0,1-.08-.05.07.07,0,1,1,.14,0Z"/><path class="cls-14" d="M22.92,49.12a.06.06,0,0,1-.06.07.06.06,0,0,1-.07,0s0-.07.06-.08A.07.07,0,0,1,22.92,49.12Z"/><path class="cls-14" d="M23.53,49a.08.08,0,0,1-.06.08s-.07,0-.07-.06a.07.07,0,0,1,.05-.08A.08.08,0,0,1,23.53,49Z"/><path class="cls-12" d="M15,50l-.1,0a.65.65,0,0,1-.43,0h-.07a.19.19,0,0,0-.16.22.18.18,0,0,0,.22.16l.09,0a.66.66,0,0,1,.42-.06h.09a.21.21,0,0,0,.17-.22A.21.21,0,0,0,15,50Z"/><path class="cls-14" d="M14.53,50.23a.07.07,0,0,1,0,.08.08.08,0,0,1-.08-.06s0-.07.06-.07A.05.05,0,0,1,14.53,50.23Z"/><path class="cls-14" d="M15.13,50.14a.07.07,0,0,1-.05.08.08.08,0,0,1-.08-.06.06.06,0,0,1,.06-.07A.06.06,0,0,1,15.13,50.14Z"/><path class="cls-12" d="M13.79,50.2l-.09.06a.62.62,0,0,1-.41.13h-.07a.2.2,0,0,0,.14.37l.08-.05a.65.65,0,0,1,.4-.15.1.1,0,0,0,.09,0,.19.19,0,0,0,.12-.24A.2.2,0,0,0,13.79,50.2Z"/><path class="cls-14" d="M13.36,50.56s0,.08,0,.09a.09.09,0,0,1-.09,0,.08.08,0,0,1,0-.09A.08.08,0,0,1,13.36,50.56Z"/><path class="cls-14" d="M13.93,50.36a.07.07,0,0,1,0,.08s-.07,0-.09,0a.07.07,0,0,1,0-.08S13.92,50.32,13.93,50.36Z"/><path class="cls-12" d="M12.66,50.84a.68.68,0,0,0-.06.09.69.69,0,0,1-.32.29l0,0a.18.18,0,0,0,0,.27.19.19,0,0,0,.28,0l.05-.07a.59.59,0,0,1,.3-.3l.08,0a.19.19,0,0,0,0-.27A.19.19,0,0,0,12.66,50.84Z"/><path class="cls-14" d="M12.42,51.34a.08.08,0,0,1,0,.1.07.07,0,1,1,0-.1Z"/><path class="cls-14" d="M12.85,50.92a.07.07,0,0,1,0,.1.07.07,0,1,1,0-.1Z"/><path class="cls-12" d="M11.92,52a.39.39,0,0,0,0,.11.63.63,0,0,1-.11.41.2.2,0,0,0,0,.06.18.18,0,0,0,.15.23.19.19,0,0,0,.23-.14.14.14,0,0,0,0-.09.62.62,0,0,1,.09-.41.26.26,0,0,0,.05-.09.21.21,0,0,0-.15-.23A.2.2,0,0,0,11.92,52Z"/><path class="cls-14" d="M12,52.52s.05,0,.05.08a.07.07,0,0,1-.08,0,.07.07,0,0,1-.06-.07A.07.07,0,0,1,12,52.52Z"/><path class="cls-14" d="M12.13,51.93a.07.07,0,0,1,0,.08.07.07,0,1,1-.13,0A.07.07,0,0,1,12.13,51.93Z"/><path class="cls-12" d="M11.8,53.26l0,.1a.62.62,0,0,1,.05.42v.07a.19.19,0,0,0,.22.16.2.2,0,0,0,.17-.22s0-.07,0-.09a.6.6,0,0,1-.07-.41.14.14,0,0,0,0-.09A.18.18,0,0,0,12,53,.19.19,0,0,0,11.8,53.26Z"/><path class="cls-14" d="M12.08,53.75a.07.07,0,0,1,.08,0,.08.08,0,0,1-.06.08.06.06,0,0,1-.07-.06A.06.06,0,0,1,12.08,53.75Z"/><path class="cls-14" d="M12,53.16a.06.06,0,0,1,.07.05.06.06,0,0,1-.05.08.08.08,0,0,1-.08-.06A.07.07,0,0,1,12,53.16Z"/><path class="cls-12" d="M12.24,54.53a.36.36,0,0,0,.09.07.63.63,0,0,1,.27.33l0,.06a.2.2,0,0,0,.3-.26l-.07,0a.61.61,0,0,1-.28-.32.22.22,0,0,0-.05-.08.19.19,0,0,0-.27,0A.18.18,0,0,0,12.24,54.53Z"/><path class="cls-14" d="M12.73,54.81a.07.07,0,0,1,.1,0,.08.08,0,0,1,0,.1.07.07,0,0,1-.09-.1Z"/><path class="cls-14" d="M12.34,54.35a.07.07,0,0,1,.09.1.08.08,0,0,1-.1,0A.08.08,0,0,1,12.34,54.35Z"/><path class="cls-12" d="M13.19,55.4l.1,0a.59.59,0,0,1,.35.25l0,0a.2.2,0,0,0,.28,0,.2.2,0,0,0-.06-.27l-.08,0a.68.68,0,0,1-.36-.23.13.13,0,0,0-.06-.07.19.19,0,0,0-.22.32Z"/><path class="cls-14" d="M13.74,55.53a.07.07,0,0,1,.1,0,.06.06,0,0,1,0,.09.07.07,0,0,1-.09,0A.08.08,0,0,1,13.74,55.53Z"/><path class="cls-14" d="M13.24,55.2a.07.07,0,0,1,.09,0,.06.06,0,0,1,0,.09.07.07,0,0,1-.11-.07Z"/><path class="cls-12" d="M14.46,55.89l.11,0a.64.64,0,0,1,.43,0h.07a.18.18,0,0,0,.19-.19.2.2,0,0,0-.19-.2l-.1,0a.65.65,0,0,1-.42,0l-.09,0a.2.2,0,1,0,0,.39Z"/><path class="cls-14" d="M15,55.69a.07.07,0,1,1,.07.07A.07.07,0,0,1,15,55.69Z"/><path class="cls-14" d="M14.39,55.69a.06.06,0,0,1,.06-.06.07.07,0,0,1,0,.13A.07.07,0,0,1,14.39,55.69Z"/><path class="cls-12" d="M15.71,55.77l.1,0a.65.65,0,0,1,.43,0h.07a.19.19,0,1,0-.06-.38l-.09,0a.66.66,0,0,1-.42.06h-.09a.21.21,0,0,0-.17.22A.21.21,0,0,0,15.71,55.77Z"/><path class="cls-14" d="M16.21,55.5s0-.07.06-.08a.07.07,0,0,1,.07.06s0,.07-.06.08A.07.07,0,0,1,16.21,55.5Z"/><path class="cls-14" d="M15.61,55.58s0-.06.06-.07a.06.06,0,0,1,.07.06.06.06,0,0,1-.05.07A.06.06,0,0,1,15.61,55.58Z"/><path class="cls-12" d="M16.77,55.81l.1,0a.63.63,0,0,1,.31.29l.05.05a.19.19,0,0,0,.27,0,.19.19,0,0,0,0-.28l-.08,0a.66.66,0,0,1-.33-.28.18.18,0,0,0,0-.07.19.19,0,0,0-.28,0A.19.19,0,0,0,16.77,55.81Z"/><path class="cls-14" d="M17.3,56a.08.08,0,0,1,.1,0,.08.08,0,0,1,0,.1.06.06,0,0,1-.09,0A.06.06,0,0,1,17.3,56Z"/><path class="cls-14" d="M16.85,55.62a.06.06,0,0,1,.09,0,.06.06,0,0,1,0,.09.08.08,0,0,1-.1,0A.06.06,0,0,1,16.85,55.62Z"/><path class="cls-12" d="M17.4,56.64l0,.1a.65.65,0,0,1,0,.43.35.35,0,0,0,0,.06.21.21,0,0,0,.21.19.19.19,0,0,0,.18-.21.29.29,0,0,0,0-.09.59.59,0,0,1,0-.42.29.29,0,0,0,0-.09.2.2,0,0,0-.21-.18A.21.21,0,0,0,17.4,56.64Z"/><path class="cls-14" d="M17.63,57.15a.07.07,0,0,1,.07.06.06.06,0,0,1-.06.07.07.07,0,0,1-.07-.06A.07.07,0,0,1,17.63,57.15Z"/><path class="cls-14" d="M17.59,56.55a.09.09,0,0,1,.08.06.08.08,0,0,1-.07.08.08.08,0,0,1-.07-.07A.09.09,0,0,1,17.59,56.55Z"/><path class="cls-12" d="M17.36,57.73l-.06.09a.68.68,0,0,1-.34.27l-.06,0a.19.19,0,0,0,0,.28.19.19,0,0,0,.27,0l.06-.07a.61.61,0,0,1,.32-.28l.08,0a.19.19,0,0,0,0-.28A.2.2,0,0,0,17.36,57.73Z"/><path class="cls-14" d="M17.08,58.22a.08.08,0,0,1,0,.1.06.06,0,0,1-.09,0,.06.06,0,0,1,0-.09S17.06,58.2,17.08,58.22Z"/><path class="cls-14" d="M17.54,57.84s0,.07,0,.09a.06.06,0,0,1-.09,0,.06.06,0,0,1,0-.09S17.52,57.81,17.54,57.84Z"/><path class="cls-12" d="M16.42,58.31h-.11a.65.65,0,0,1-.43-.07l-.07,0a.2.2,0,1,0-.05.39h.09a.67.67,0,0,1,.42,0l.09,0a.19.19,0,0,0,.22-.17A.2.2,0,0,0,16.42,58.31Z"/><path class="cls-14" d="M15.86,58.43s0,.07-.08.06a.06.06,0,0,1,0-.07.06.06,0,0,1,.07-.06A.07.07,0,0,1,15.86,58.43Z"/><path class="cls-14" d="M16.46,58.52a.07.07,0,0,1-.08,0,.06.06,0,0,1-.05-.07s0-.06.07-.06A.08.08,0,0,1,16.46,58.52Z"/><path class="cls-12" d="M15.32,58l-.1,0a.67.67,0,0,1-.32-.29l0-.05a.2.2,0,0,0-.28,0,.19.19,0,0,0,0,.27l.08,0a.58.58,0,0,1,.33.27l.05.07a.2.2,0,0,0,.26-.3Z"/><path class="cls-14" d="M14.78,57.85a.06.06,0,0,1-.09,0,.08.08,0,0,1,0-.1.08.08,0,0,1,.1,0A.06.06,0,0,1,14.78,57.85Z"/><path class="cls-14" d="M15.24,58.24a.06.06,0,0,1-.09,0,.07.07,0,0,1,.09-.11A.08.08,0,0,1,15.24,58.24Z"/><path class="cls-12" d="M14.35,57.15a.34.34,0,0,0-.1,0,.64.64,0,0,1-.36-.24l-.05,0a.2.2,0,0,0-.27.06.2.2,0,0,0,.06.27.36.36,0,0,0,.09,0,.64.64,0,0,1,.36.22.12.12,0,0,0,.06.06.19.19,0,0,0,.27-.06A.18.18,0,0,0,14.35,57.15Z"/><path class="cls-14" d="M13.8,57a.08.08,0,0,1-.1,0,.07.07,0,0,1,0-.09.07.07,0,0,1,.1,0A.07.07,0,0,1,13.8,57Z"/><path class="cls-14" d="M14.31,57.35a.07.07,0,0,1-.09,0,.06.06,0,0,1,0-.09.08.08,0,0,1,.1,0A.07.07,0,0,1,14.31,57.35Z"/><path class="cls-12" d="M13,56.82a.45.45,0,0,0-.09.06.62.62,0,0,1-.41.13l-.07,0a.19.19,0,0,0,.14.36l.08,0a.65.65,0,0,1,.39-.15h.1a.19.19,0,1,0-.14-.36Z"/><path class="cls-14" d="M12.52,57.18a.08.08,0,0,1,0,.09.08.08,0,0,1-.09,0,.09.09,0,0,1,0-.09A.08.08,0,0,1,12.52,57.18Z"/><path class="cls-14" d="M13.09,57A.07.07,0,1,1,13,57a.07.07,0,0,1,0-.09A.09.09,0,0,1,13.09,57Z"/><path class="cls-12" d="M11.85,57.75v.11a.64.64,0,0,1-.12.41.1.1,0,0,0,0,.06.19.19,0,0,0,.14.24.21.21,0,0,0,.24-.14s0-.07,0-.09a.62.62,0,0,1,.11-.41.12.12,0,0,0,0-.08.19.19,0,0,0-.14-.24A.19.19,0,0,0,11.85,57.75Z"/><path class="cls-14" d="M11.91,58.31a.07.07,0,0,1,0,.13.09.09,0,0,1,0-.08A.07.07,0,0,1,11.91,58.31Z"/><path class="cls-14" d="M12.06,57.73a.07.07,0,1,1-.08.05A.07.07,0,0,1,12.06,57.73Z"/><path class="cls-12" d="M11.9,59.22l.08.06a.68.68,0,0,1,.27.34l0,.06a.2.2,0,0,0,.28,0,.19.19,0,0,0,0-.27l-.08-.06a.62.62,0,0,1-.27-.32.2.2,0,0,0,0-.08.21.21,0,0,0-.28,0A.2.2,0,0,0,11.9,59.22Z"/><path class="cls-14" d="M12.39,59.5a.06.06,0,0,1,.09,0,.06.06,0,0,1,0,.09s-.07,0-.09,0A.06.06,0,0,1,12.39,59.5Z"/><path class="cls-14" d="M12,59a.08.08,0,0,1,.1,0,.06.06,0,0,1,0,.09.08.08,0,0,1-.1,0A.06.06,0,0,1,12,59Z"/><path class="cls-12" d="M13.13,60l.1,0a.68.68,0,0,1,.43,0h.07a.19.19,0,0,0,.18-.21.2.2,0,0,0-.21-.18l-.09,0a.59.59,0,0,1-.42,0H13.1a.19.19,0,0,0-.18.21A.2.2,0,0,0,13.13,60Z"/><path class="cls-14" d="M13.64,59.73a.08.08,0,0,1,.07-.07s.07,0,.07.06a.07.07,0,0,1-.06.07S13.65,59.77,13.64,59.73Z"/><path class="cls-14" d="M13,59.78a.07.07,0,0,1,.06-.07s.07,0,.08.06a.08.08,0,0,1-.07.07S13,59.81,13,59.78Z"/><path class="cls-12" d="M14.39,59.76a.34.34,0,0,0,.1,0,.65.65,0,0,1,.43,0H15a.2.2,0,1,0-.05-.39l-.09,0a.53.53,0,0,1-.42.06.14.14,0,0,0-.09,0,.19.19,0,1,0,.05.38Z"/><path class="cls-14" d="M14.89,59.49a.07.07,0,0,1,.06-.07.06.06,0,0,1,.07,0,.07.07,0,0,1,0,.08A.08.08,0,0,1,14.89,59.49Z"/><path class="cls-14" d="M14.29,59.58a.07.07,0,1,1,.08.06A.09.09,0,0,1,14.29,59.58Z"/><path class="cls-12" d="M15.71,59.36a.2.2,0,0,1-.2.2.2.2,0,1,1,0-.4A.2.2,0,0,1,15.71,59.36Z"/><path class="cls-14" d="M15.58,59.36a.07.07,0,0,1-.14,0,.07.07,0,0,1,.14,0Z"/><path class="cls-8" d="M50.5,33a67.35,67.35,0,0,0-10.34,1.43C36.34,35.4,25,38.8,19.42,45S14,53.15,14.87,52.69s3.82-5.2,7.13-8,8.49-5.6,11.33-5.78,9.78.22,13.8,2l1.36-1.3a37.06,37.06,0,0,0-13.29-2s8.92-2.86,15.89-2.22Z"/><polygon class="cls-15" points="27.87 36.75 33.06 51.77 31.83 52.28 26.57 37.16 27.87 36.75"/><path class="cls-8" d="M52.11,37.57a29.82,29.82,0,0,0-5.69,3.64,57.44,57.44,0,0,0-4.31,5.46c-1.53,2-4.79,5-8.45,5.08-3.34.11-16.1.31-18.34.35a1,1,0,0,0-.53-.16,1,1,0,1,0,0,1.9,1.05,1.05,0,0,0,.44-.1c1.92,0,14.78.07,18.32-.41,3.83-.53,7.57-2,10.1-5.88,2.86-4.4,5.83-7,8.85-8.13Z"/><path class="cls-11" d="M37.17,53.17c.14-.05.14-.14,0-.2h0a1,1,0,0,1-.25-.14v-.06l.24-.12.06,0c.13-.07.12-.16,0-.2h0a.65.65,0,0,1-.26-.11v0l.23-.15,0,0c.12-.08.1-.17,0-.2h0a.86.86,0,0,1-.28-.08.68.68,0,0,1,.18-.26l.05,0c.11-.1.08-.19-.07-.19h0l-.28,0a1.13,1.13,0,0,1,.17-.23l0-.05c.09-.11,0-.19-.1-.18h0a.74.74,0,0,1-.28,0l0,0,.15-.22,0-.05c.08-.12,0-.2-.12-.17h0a.61.61,0,0,1-.29,0l0,0,.13-.24,0,0c.06-.13,0-.2-.14-.16l0,0a1.1,1.1,0,0,1-.28.06l0-.05a.88.88,0,0,0,.1-.24l0-.06c0-.14,0-.2-.15-.14l0,0a.86.86,0,0,1-.28.09s-.05,0,0,0a1,1,0,0,0,.07-.25v-.06c0-.15,0-.2-.16-.12l0,0a.7.7,0,0,1-.25.13l0,0s0-.12,0-.27v-.06c0-.15-.07-.19-.18-.1l0,0a.75.75,0,0,1-.23.15l-.05,0v-.33c0-.15-.09-.18-.19-.07l0,0a1.09,1.09,0,0,1-.21.19.78.78,0,0,1-.1-.29v-.06c0-.14-.12-.17-.2-.05l0,0a.78.78,0,0,1-.2.21h-.05l-.07-.26,0-.06c0-.14-.13-.15-.2,0l0,0-.13.23H33s-.05-.11-.1-.25l0,0c-.06-.14-.15-.14-.2,0l0,0c0,.14-.1.25-.1.25h-.1a.76.76,0,0,0-.12-.23l0-.06c-.07-.13-.16-.11-.2,0v0l-.07.26H32a1,1,0,0,0-.15-.21l0-.06c-.09-.11-.18-.09-.2.06v0a.59.59,0,0,1-.07.27l-.06,0a1.24,1.24,0,0,0-.18-.2l0,0c-.1-.11-.19-.08-.19.07v0a1,1,0,0,1,0,.28l-.06,0s-.09-.08-.2-.18l0,0c-.12-.1-.2-.05-.18.09v0a.58.58,0,0,1,0,.28l-.05,0-.22-.15-.06,0c-.12-.08-.2,0-.16.11v0c0,.14.06.26.06.26l0,0-.06,0-.23-.12-.06,0c-.14-.07-.21,0-.15.13v0c.05.14.08.26.06.28l0,0a.87.87,0,0,0-.25-.1l-.06,0c-.14,0-.2,0-.13.16l0,0,.13.23,0,0-.05.06A.82.82,0,0,0,29,50l-.06,0c-.15,0-.2,0-.11.17l0,0a.79.79,0,0,1,.13.26s0,0,0,0a.92.92,0,0,0-.26,0H28.6c-.15,0-.19.07-.09.18l0,0,.18.2,0,0,0,0h-.34c-.15,0-.18.09-.06.19l0,0a.82.82,0,0,1,.2.2.39.39,0,0,0,0,.06,1.16,1.16,0,0,0-.27,0h-.06c-.15,0-.17.11,0,.2l0,0,.22.15v0a.22.22,0,0,1,0,.06l-.26.07L28,52c-.14,0-.15.13,0,.2h0l.24.12v0a.32.32,0,0,0,0,.07,1,1,0,0,0-.25.09l-.05,0c-.14.06-.14.16,0,.21h0l.25.08v0s0,.08,0,.08a1.13,1.13,0,0,0-.24.12l-.05,0c-.13.07-.11.16,0,.2h0a.94.94,0,0,1,.27.1.22.22,0,0,0,0,.06,1,1,0,0,0-.22.15l-.05,0c-.12.09-.09.18.06.2h0l.27,0v0l0,.06-.19.19-.05,0c-.1.11-.07.19.08.19h0c.15,0,.28,0,.28,0l0,.05s-.08.08-.17.2l0,.05c-.09.12-.05.2.1.18h0l.26,0,0,0,0,.05-.14.23,0,.05c-.08.13,0,.2.12.16h0l.26-.07,0,0,0,0a.9.9,0,0,0-.12.23l0,.06c-.06.14,0,.2.14.15l0,0a1.07,1.07,0,0,0,.25-.11s0,0,0,0l.06,0a1,1,0,0,0-.09.25l0,.06c0,.14,0,.2.16.12h0l.23-.14,0,0,.05,0a1.78,1.78,0,0,0-.05.25v.06c0,.15.05.2.17.11l0,0,.22-.16,0,0,.05,0s0,.11,0,.26v.06c0,.15.08.19.19.09l0,0c.11-.1.21-.18.23-.17l.05,0s0,.12,0,.27V57c0,.15.11.18.2.06l0,0c.1-.12.19-.21.21-.2l.05,0s0,.11,0,.26v.06c0,.14.13.16.21,0l0,0a1.24,1.24,0,0,1,.17-.22h.06a2.42,2.42,0,0,0,.08.25l0,.06c.05.14.14.15.21,0v0l.12-.24h.1a1.27,1.27,0,0,0,.1.24l0,.05c.07.14.16.13.2,0l0,0c0-.14.08-.26.08-.26h.1a1.08,1.08,0,0,0,.13.22l0,.05c.08.13.17.11.2,0v0a.86.86,0,0,1,.08-.27,1.14,1.14,0,0,1,.23.2l0,0c.09.11.18.08.19-.07v0a1.17,1.17,0,0,1,0-.28H34l.19.18.05,0c.11.1.19.06.19-.09v0a.65.65,0,0,1,0-.28,1.1,1.1,0,0,1,.27.13l0,0c.12.09.2,0,.17-.11v0a.57.57,0,0,1,0-.28l0,0,.23.13.06,0c.13.07.2,0,.15-.13v0a.9.9,0,0,1,0-.28l0,0a1.1,1.1,0,0,0,.24.11l.06,0c.14,0,.2,0,.14-.15v0a.77.77,0,0,1-.09-.27l0,0a1,1,0,0,0,.26.07l.06,0c.14,0,.2,0,.12-.16l0,0a.91.91,0,0,1-.12-.26l0,0,.26,0h.07c.14,0,.19-.07.1-.18l0,0a.91.91,0,0,1-.16-.23.65.65,0,0,1,.3,0h.07c.14,0,.18-.08.07-.19l0,0a.67.67,0,0,1-.18-.21.62.62,0,0,1,.29-.09h.06c.15,0,.17-.11.06-.2l0,0a1.09,1.09,0,0,1-.21-.19.86.86,0,0,1,.28-.12h.06c.15,0,.16-.13,0-.2l0,0a.82.82,0,0,1-.23-.17.18.18,0,0,0,0-.06l.25-.08Zm-.85-.46c0,.2,0,.3,0,.3a.47.47,0,0,1-.28.36H36a.64.64,0,0,1-.49,0l-1.67-.91a.49.49,0,0,1-.23-.39l.07-2.18a.41.41,0,0,1,.26-.36l.06,0a.49.49,0,0,1,.45.09S36.32,51.26,36.32,52.71Zm-6.73,1.83a.77.77,0,0,1-.07-.13,1.67,1.67,0,0,1,.39-.36l1.14-.67a1.29,1.29,0,0,1,.5-.17s0,0,.08.11a.77.77,0,0,1,.07.13,1.67,1.67,0,0,1-.39.36l-1.14.68a1.64,1.64,0,0,1-.5.17Zm2.71-4.89a1.56,1.56,0,0,1,.11-.51h.29a1.56,1.56,0,0,1,.11.51V51a1.56,1.56,0,0,1-.11.51s0,0-.14,0h-.15A1.56,1.56,0,0,1,32.3,51Zm1.61,4.23a1.45,1.45,0,0,1-.38-.36s0,0,.06-.12.09-.12.09-.12a1.56,1.56,0,0,1,.5.17l1.13.68a1.44,1.44,0,0,1,.39.35.77.77,0,0,1-.07.13c-.07.12-.08.12-.08.12a1.74,1.74,0,0,1-.5-.17Zm-3.24-4.27a.57.57,0,0,1,.47-.12l.22,0a.35.35,0,0,1,.26.33V52a.53.53,0,0,1-.23.41l-1.63,1a.47.47,0,0,1-.46,0l-.21-.13a.58.58,0,0,1-.25-.41v-.14C28.84,51.28,30.67,49.61,30.67,49.61Zm1.91,6.8a5.54,5.54,0,0,1-2-.63.38.38,0,0,1-.19-.38.7.7,0,0,1,.27-.39l1.64-1a.5.5,0,0,1,.46,0l1.8,1a.52.52,0,0,1,.24.4v0a.5.5,0,0,1-.24.39A5.53,5.53,0,0,1,32.58,56.41Z"/><polygon class="cls-9" points="24.28 30.2 26.66 36.82 27.73 36.42 25.31 29.87 24.28 30.2"/><path class="cls-9" d="M61.77,52.48h0l0,0c-.39-.46-3.36-4-4.08-5a12.33,12.33,0,0,1-2.32-3.93,16.41,16.41,0,0,0-1.17-2.7l-1.1.47s1.48,4.33,3,6.14c1.31,1.59,4,4.94,4.61,5.75a.65.65,0,0,0,.15.18h0a.62.62,0,0,0,.44.17.66.66,0,0,0,.67-.66A.62.62,0,0,0,61.77,52.48Z"/><path class="cls-10" d="M61.7,52.89a.43.43,0,1,1-.42-.42A.42.42,0,0,1,61.7,52.89Z"/><path class="cls-16" d="M31.21,28.11a1.57,1.57,0,0,0-1.36-1.25c-1.15-.12-4.55.47-5.94.44A29.17,29.17,0,0,0,20,27.24c-.5.14-1.27,1.37-.44,1.63a11.74,11.74,0,0,1,2.39.76,3.16,3.16,0,0,0,2.28.79c1.12-.12,2.24-.91,3.34-1.26S31.21,28.11,31.21,28.11Z"/><polygon class="cls-16" points="22.35 31.33 20.71 28.94 20.91 28.81 22.46 31.08 27.28 30.45 28.93 28.39 29.12 28.54 27.41 30.67 22.35 31.33"/><path class="cls-16" d="M14.64,53h-.05a.31.31,0,0,1-.23-.2l-5-14.34A.29.29,0,0,1,9.55,38a.31.31,0,0,1,.38.18l4.82,13.86,9-10.32-5-3.2a.29.29,0,0,1-.08-.4.29.29,0,0,1,.41-.09l5.24,3.39a.28.28,0,0,1,.13.2.32.32,0,0,1-.07.23l-9.59,11A.29.29,0,0,1,14.64,53Z"/><path class="cls-16" d="M21.11,38.45H7.28a.29.29,0,0,1,0-.58H20.82v-1.5a.3.3,0,0,1,.59,0v1.79A.29.29,0,0,1,21.11,38.45Z"/><path class="cls-16" d="M19.65,37.67H8.23a.17.17,0,0,1-.18-.17.18.18,0,0,1,.18-.18H19.65a.18.18,0,0,1,.18.18A.17.17,0,0,1,19.65,37.67Z"/><polygon class="cls-16" points="52.78 41.73 52.5 40.96 54.48 40.18 54.76 40.94 52.78 41.73"/><polygon class="cls-16" points="26.18 37.01 28.13 36.27 28.42 37.01 26.43 37.73 26.18 37.01"/><g class="cls-17"><path class="cls-15" d="M39.84,35.6a.25.25,0,0,1-.23-.17.23.23,0,0,1,.17-.28c.23-.07,5.67-1.53,8.56-1.44a.23.23,0,0,1,.23.24.23.23,0,0,1-.24.22c-2.83-.09-8.37,1.41-8.43,1.42Z"/></g><path class="cls-6" d="M37.4,52.58l0-.22A11.67,11.67,0,0,0,40.49,51a8.73,8.73,0,0,0,3-3.13,42.28,42.28,0,0,1,5.17-6.23,14.47,14.47,0,0,1,1.44-1.09A14.7,14.7,0,0,0,55.3,35c3.08-5.94.19-13.78-1.06-16a2.44,2.44,0,0,0-1.52-1.26,4.94,4.94,0,0,0-3.22.54l-.12-.2a5.14,5.14,0,0,1,3.4-.57,2.72,2.72,0,0,1,1.67,1.38c1.27,2.3,4.19,10.24,1.06,16.26a14.79,14.79,0,0,1-5.28,5.63,13.85,13.85,0,0,0-1.41,1.07A42.77,42.77,0,0,0,43.69,48a9,9,0,0,1-3.07,3.2A10.76,10.76,0,0,1,37.4,52.58Z"/><polygon class="cls-18" points="57.79 42.95 59.6 42.31 59.88 42.99 58.05 43.66 57.79 42.95"/><path class="cls-11" d="M59.28,42.94l-.84-2.56a.41.41,0,0,0-.51-.25.39.39,0,0,0-.25.49l.84,2.56Z"/><path class="cls-16" d="M47.51,14.62a.93.93,0,0,0-.78.61H42.4a.94.94,0,1,0,0,1.87h4.31a1,1,0,0,0,.8.63c.54,0,1-.69,1-1.55S48.05,14.62,47.51,14.62Z"/><path class="cls-16" d="M48.06,15.63H50a1.08,1.08,0,0,1,.54.94A3.41,3.41,0,0,1,49,19.11a2.18,2.18,0,0,1-1.86,0c-.47-.3-.44-.35-1.45,0s-1.59.78-1.8.4.68-.67,1.6-1.05,1.39-.35,1.7-.14a1.66,1.66,0,0,0,1.28.06c.39-.15.24-1.28.24-1.28h-.65Z"/><polygon class="cls-9" points="41.83 50.37 40.04 48.33 39.27 49.01 41.05 51.09 41.83 50.37"/><polygon class="cls-9" points="47.99 42.97 46.13 40.94 45.3 41.7 47.25 43.71 47.99 42.97"/><path class="cls-7" d="M32.62,47.45a5.49,5.49,0,0,0-1.08.11L18.47,49.48a3.36,3.36,0,0,0-.71,1.45l10.17-.68a5.26,5.26,0,0,0-.6,2.43v.21h2.93s0-.09,0-.14a2.27,2.27,0,0,1,4.54,0s0,.09,0,.14h3.14v-.21A5.27,5.27,0,0,0,32.62,47.45Z"/><path class="cls-19" d="M29.56,52.19h0a.18.18,0,0,1-.13-.21,3.24,3.24,0,0,1,6.21-.14H37a4.63,4.63,0,0,0-4.45-3.49l-13.7,1.75a.18.18,0,1,1,0-.35L32.48,48h0a5,5,0,0,1,4.86,4,.15.15,0,0,1,0,.14.17.17,0,0,1-.13.07H35.46a.18.18,0,0,1-.18-.13,2.87,2.87,0,0,0-5.55,0A.17.17,0,0,1,29.56,52.19Z"/><path class="cls-9" d="M32.25,51.74a1,1,0,0,0-.74,1.16.89.89,0,0,0,.19.39L30.15,59l1.1.28L33,53.53a1,1,0,0,0,.48-1.06A1,1,0,0,0,32.25,51.74Zm.34,1.49a.56.56,0,1,1-.25-1.09.57.57,0,0,1,.68.42A.56.56,0,0,1,32.59,53.23Z"/><path class="cls-10" d="M28.44,58.75,28.25,60l4.64.51L33,59.25Zm4,1.23-3.5-.32,0-.42,3.54.34Z"/><path class="cls-11" d="M30.43,58.73a.9.9,0,1,0,1.1.68A.91.91,0,0,0,30.43,58.73Zm.32,1.36a.49.49,0,0,1-.6-.37.5.5,0,0,1,.38-.59.5.5,0,0,1,.6.37A.49.49,0,0,1,30.75,60.09Z"/><path class="cls-7" d="M63,38a.18.18,0,0,1-.13.21l-6.22.71a.18.18,0,0,1-.17-.18h0c0-.11,0-.2.13-.21l6.21-.7c.09,0,.16.07.18.17Z"/><path class="cls-7" d="M61,52.92c0,.1.18.17.37.15h0c.2,0,.35-.13.33-.23L59.94,38.5c0-.1-.18-.17-.38-.14h0c-.19,0-.34.12-.33.22Z"/></g></g></g></svg>