<svg xmlns="http://www.w3.org/2000/svg" xmlns:xlink="http://www.w3.org/1999/xlink" viewBox="0 0 84.24 83.63"><defs><style>.cls-1{fill-opacity:0.05;}.cls-2{fill:url(#linear-gradient);}.cls-3{fill:url(#linear-gradient-2);}.cls-4{fill:url(#linear-gradient-3);}.cls-5{fill:#84694e;}.cls-6{fill:#0d0f11;}.cls-7{fill:#95bab3;}.cls-8{fill:#89afa7;}.cls-9{fill:#809e98;}.cls-10{fill:#2b2e34;}.cls-11{fill:#aed3cc;}.cls-12{fill:#7a9691;}.cls-13{fill:#c4c2c2;}.cls-14{fill:#486d66;}.cls-15{fill:#7ca099;}.cls-16{fill:#a86769;}.cls-17{fill:#6a7271;}.cls-18{fill:#23262a;}.cls-19{fill:#fff;}.cls-20{fill:#b0ada7;}</style><linearGradient id="linear-gradient" x1="-768.81" y1="47.82" x2="-768.81" y2="20.06" gradientTransform="matrix(2.83, 0, 0, -2.83, 2218.61, 135.54)" gradientUnits="userSpaceOnUse"><stop offset="0" stop-color="#e49100"/><stop offset="0.35" stop-color="#f19500"/><stop offset="0.68" stop-color="#ffcb7e"/><stop offset="1" stop-color="#cb8a00"/></linearGradient><linearGradient id="linear-gradient-2" x1="-768.81" y1="20.71" x2="-768.81" y2="47.16" gradientTransform="matrix(2.83, 0, 0, -2.83, 2218.61, 135.54)" gradientUnits="userSpaceOnUse"><stop offset="0" stop-color="#ffdbb1"/><stop offset="1" stop-color="#f90"/></linearGradient><linearGradient id="linear-gradient-3" x1="-768.81" y1="20.71" x2="-768.81" y2="34.58" gradientTransform="matrix(2.83, 0, 0, -2.83, 2218.61, 135.54)" gradientUnits="userSpaceOnUse"><stop offset="0" stop-color="#cb8a00"/><stop offset="1" stop-color="#ffb032"/></linearGradient></defs><g id="Layer_2" data-name="Layer 2"><g id="Layer_1-2" data-name="Layer 1"><path id="_441798952" data-name=" 441798952" class="cls-1" d="M16.63.67H68.89A15.39,15.39,0,0,1,84.24,16V68.28A15.4,15.4,0,0,1,68.89,83.63H16.63A15.39,15.39,0,0,1,1.28,68.28V16A15.39,15.39,0,0,1,16.63.67Z"/><path id="_442164368" data-name=" 442164368" class="cls-1" d="M16.92,1.13H68.6A15.22,15.22,0,0,1,83.77,16.31V68A15.21,15.21,0,0,1,68.6,83.16H16.92A15.21,15.21,0,0,1,1.74,68V16.31A15.22,15.22,0,0,1,16.92,1.13Z"/><path id="_444214696" data-name=" 444214696" class="cls-1" d="M17.21,1.6h51.1a15,15,0,0,1,15,15V67.69a15,15,0,0,1-15,15H17.21a15,15,0,0,1-15-15V16.6A15,15,0,0,1,17.21,1.6Z"/><path id="_444215080" data-name=" 444215080" class="cls-1" d="M17.51,2.07H68A14.87,14.87,0,0,1,82.84,16.9V67.4A14.87,14.87,0,0,1,68,82.23H17.51A14.88,14.88,0,0,1,2.67,67.4V16.9A14.88,14.88,0,0,1,17.51,2.07Z"/><path id="_444215152" data-name=" 444215152" class="cls-1" d="M17.8,2.53H67.72A14.7,14.7,0,0,1,82.38,17.19V67.11A14.71,14.71,0,0,1,67.72,81.77H17.8A14.71,14.71,0,0,1,3.14,67.11V17.19A14.7,14.7,0,0,1,17.8,2.53Z"/><path id="_444215224" data-name=" 444215224" class="cls-1" d="M18.09,3H67.42A14.53,14.53,0,0,1,81.91,17.49V66.81A14.53,14.53,0,0,1,67.42,81.3H18.09A14.53,14.53,0,0,1,3.6,66.81V17.49A14.53,14.53,0,0,1,18.09,3Z"/><path id="_444215296" data-name=" 444215296" class="cls-1" d="M18.39,3.46H67.13A14.35,14.35,0,0,1,81.44,17.78V66.52A14.35,14.35,0,0,1,67.13,80.83H18.39A14.35,14.35,0,0,1,4.07,66.52V17.78A14.36,14.36,0,0,1,18.39,3.46Z"/><path id="_444215368" data-name=" 444215368" class="cls-1" d="M18.68,3.93H66.84A14.18,14.18,0,0,1,81,18.07V66.22A14.19,14.19,0,0,1,66.84,80.37H18.68A14.19,14.19,0,0,1,4.54,66.22V18.07A14.18,14.18,0,0,1,18.68,3.93Z"/><path id="_444215440" data-name=" 444215440" class="cls-1" d="M19,4.4H66.55a14,14,0,0,1,14,14V65.93a14,14,0,0,1-14,14H19a14,14,0,0,1-14-14V18.36A14,14,0,0,1,19,4.4Z"/><path id="_444215512" data-name=" 444215512" class="cls-1" d="M19.27,4.86h47a13.84,13.84,0,0,1,13.8,13.8v47a13.84,13.84,0,0,1-13.8,13.8h-47a13.84,13.84,0,0,1-13.8-13.8v-47A13.84,13.84,0,0,1,19.27,4.86Z"/><path id="_444215584" data-name=" 444215584" class="cls-1" d="M19.57,5.33H66A13.65,13.65,0,0,1,79.58,19V65.34A13.66,13.66,0,0,1,66,79H19.57A13.66,13.66,0,0,1,5.94,65.34V19A13.65,13.65,0,0,1,19.57,5.33Z"/><path id="_441798712" data-name=" 441798712" class="cls-1" d="M19.85,5.79H65.67A13.49,13.49,0,0,1,79.11,19.25V65.06A13.48,13.48,0,0,1,65.67,78.5H19.85A13.48,13.48,0,0,1,6.4,65.06V19.25A13.49,13.49,0,0,1,19.85,5.79Z"/><path id="_441789424" data-name=" 441789424" class="cls-2" d="M14.55,0H64.12A14.6,14.6,0,0,1,78.68,14.56V64.12A14.6,14.6,0,0,1,64.12,78.68H14.55A14.6,14.6,0,0,1,0,64.12V14.56A14.6,14.6,0,0,1,14.55,0Z"/><path id="_441789328" data-name=" 441789328" class="cls-3" d="M15,1.86H63.7A13.16,13.16,0,0,1,76.82,15V63.7A13.17,13.17,0,0,1,63.7,76.83H15A13.16,13.16,0,0,1,1.86,63.7V15A13.15,13.15,0,0,1,15,1.86Z"/><path id="_441789232" data-name=" 441789232" class="cls-4" d="M76.82,42.8V63.7A13.17,13.17,0,0,1,63.7,76.82H15A13.16,13.16,0,0,1,1.86,63.7V42.8a130.34,130.34,0,0,1,37.48-5.29A130.34,130.34,0,0,1,76.82,42.8Z"/><path class="cls-5" d="M24.81,47.21s-10.7,1.09-5.24,1.85S33.87,47.75,24.81,47.21Z"/><path class="cls-5" d="M33.86,47.45s15.53-.67,25.91-.57,5.62,2.12,4.52,2.31.75.68,7.65.24,6.15,2.17-1.16,1.93-9.68-1.29-8.36-1.69-7.64-.13-9.17-.29,7.2.56,1.48,1.58-9.46-1.4-4.73-2.34-8.94-.83-13.54-.32S31.14,47.37,33.86,47.45Z"/><path class="cls-5" d="M18.8,50.37s-3.93-.21-2.18.55S21,50.26,18.8,50.37Z"/><path class="cls-5" d="M13.89,47.1s-18.13,1-7.65,2.29S21.42,47.86,13.89,47.1Z"/><path class="cls-5" d="M68.34,45.71s-2.62,1,.32,1.09S71.29,45.38,68.34,45.71Z"/><rect class="cls-6" x="19.07" y="37.61" width="47.32" height="5.39" transform="translate(85.46 80.61) rotate(180)"/><path class="cls-7" d="M43,44.72H53.37a.63.63,0,0,0,.56-.55c.11-.53.58-6,5.22-6S64.8,43.9,67,43.9H68.5a1,1,0,0,0,.55-.45c.17-.34-.94-2.41-1.16-3.4a13.32,13.32,0,0,0-3.79-6.12c-2.47-2.27-6.42-5.7-10.59-6.77s-13.69-.49-14.35-.26a9.93,9.93,0,0,0-4.51,3.2c-1.83,2.24-1.78,2.3-4.95,2.67s-7.34,1.61-9.23,3.42-3.26,7.2-2.34,7.2H19a7.67,7.67,0,0,0,1-1.84c.61-1.39,1.27-3.77,4.33-3.77a5.49,5.49,0,0,1,5.07,4c.22,1.28.64,2.89,1.44,2.89Z"/><path class="cls-8" d="M67,43.9c-2.23,0-3.23-5.75-7.87-5.75s-5.12,5.49-5.23,6a.62.62,0,0,1-.56.55H30.79c-.81,0-1.23-1.61-1.45-2.89a5.47,5.47,0,0,0-5.06-4c-3.06,0-3.73,2.38-4.34,3.77a7.24,7.24,0,0,1-1,1.84h-.83c-.64,0-.17-2.62.81-4.82a51.46,51.46,0,0,1,6.19-3.26c2.41-.91,8.26-.84,8.26-.84H54.41a13.08,13.08,0,0,1,8.53,2.8c.89.76,3.45,4.86,4.54,6.63Z"/><path class="cls-9" d="M37.25,28.84c1.4-.89,4.38-1.06,9.39-1.06,5.23,0,7.56.84,11.11,2.86s6.78,7.27,6.81,7.32v0l.72,4.77-.2-.27L64.41,38c-.18-.31-3.28-5.29-6.74-7.26S51.83,28,46.64,28c-4.86,0-7.94.17-9.3,1a14.43,14.43,0,0,0-3.53,4.53,7.24,7.24,0,0,0-.33,2.3v8.91h-.16v-8.9a7.11,7.11,0,0,1,.34-2.38A14.72,14.72,0,0,1,37.25,28.84Z"/><path class="cls-10" d="M48.35,33.76h7.88s1.32-.08,1.32-.91c0-1.72-1.94-2.73-3.3-3.23a15,15,0,0,0-4.93-1.09c-.63,0-1.67-.1-1.67.47v4S47.65,33.76,48.35,33.76Z"/><path class="cls-10" d="M43,33.76h2.53s.81-.06.81-.65V29.28a.69.69,0,0,0-.7-.76c-.75,0-4.39.05-5.7.25a4.67,4.67,0,0,0-3.64,2c-.84,1.42-1.78,3-.34,3Z"/><path class="cls-11" d="M56.93,28.52a32,32,0,0,1,5.67,4l-.28.29s-.28.23-.93-.31S58.07,29.75,56.93,28.52Z"/><rect class="cls-9" x="46.88" y="27.95" width="0.11" height="15.93"/><path class="cls-12" d="M42.94,44.72H32.43s0,0,0-.06l.42-1a.17.17,0,0,1,.16-.11H52.31a.15.15,0,0,1,.15.11l.42,1a.13.13,0,0,1,0,.06Z"/><path class="cls-13" d="M18.58,39.45h0c-.18,0-.32-.55-.32-1.23S18.4,37,18.58,37h0l2-.15V39.6Z"/><path class="cls-14" d="M24.33,37.59c-3.06,0-3.72,2.38-4.33,3.77a7.67,7.67,0,0,1-1,1.84h-.84c-.81,0,.17-4.25,1.73-6.47A10.23,10.23,0,0,1,25,35.65a7.68,7.68,0,0,1,6.9,4.42A17.23,17.23,0,0,1,33,44.72a16.47,16.47,0,0,1-2.18-.19c-.8,0-1.22-1.61-1.44-2.89A5.49,5.49,0,0,0,24.33,37.59Z"/><path class="cls-15" d="M24.24,37.78c-3.06,0-3.73,2.38-4.34,3.77a7.24,7.24,0,0,1-1,1.84H18c-.81,0,.18-4.25,1.73-6.47a10.18,10.18,0,0,1,5.16-1.09,7.69,7.69,0,0,1,6.9,4.42A16.27,16.27,0,0,1,33,44.72H30.74c-.8,0-1.22-1.61-1.44-2.89A5.47,5.47,0,0,0,24.24,37.78Z"/><path class="cls-16" d="M66.69,37.14h0c.21,0,.38.56.38,1.25s-.17,1.25-.38,1.25h0l-2.39.15V37Z"/><path class="cls-17" d="M53.49,39a7.57,7.57,0,0,1,6.38-3.57c3.48,0,4.7,1.08,5.63,2.29s1.51,2.85,2.19,3.21a4.12,4.12,0,0,0,.62.25A6.46,6.46,0,0,1,69,43.31a1,1,0,0,1-.56.45H67c-2.22,0-3.23-5.75-7.87-5.75S54,43.5,53.91,44a.6.6,0,0,1-.55.54H52.24C52.29,43.53,52.53,40.25,53.49,39Z"/><path class="cls-15" d="M53.49,39.12a7.52,7.52,0,0,1,6.37-3.49c3.49,0,4.71,1,5.64,2.21s1.51,2.84,2.19,3.21a4.12,4.12,0,0,0,.62.25A6.46,6.46,0,0,1,69,43.45a1,1,0,0,1-.56.45H67c-2.22,0-3.23-5.75-7.87-5.75s-5.12,5.49-5.23,6a.61.61,0,0,1-.55.55H52.24C52.29,43.67,52.53,40.38,53.49,39.12Z"/><path class="cls-17" d="M17,41.16H19.3A1.16,1.16,0,0,0,19,42a1.18,1.18,0,0,0,.3.8H17a.57.57,0,0,1-.55-.57v-.46A.56.56,0,0,1,17,41.16Z"/><rect class="cls-17" x="66.81" y="40.97" width="3.52" height="1.78" rx="0.82" transform="translate(137.14 83.72) rotate(180)"/><path class="cls-9" d="M41.46,37c0,.51.61.92,1.36.92s1.35-.41,1.35-.92-.6-.93-1.35-.93S41.46,36.5,41.46,37Z"/><rect class="cls-10" x="42.24" y="36.71" width="2.76" height="0.59" rx="0.27" transform="translate(87.23 74.02) rotate(-180)"/><path class="cls-18" d="M28.82,43a4.26,4.26,0,1,0-4.25,4.49A4.37,4.37,0,0,0,28.82,43Z"/><path class="cls-19" d="M27.11,43a2.54,2.54,0,1,0-2.54,2.68A2.62,2.62,0,0,0,27.11,43Z"/><path class="cls-20" d="M26.09,43a1.52,1.52,0,1,0-1.52,1.6A1.57,1.57,0,0,0,26.09,43Z"/><path class="cls-18" d="M63.39,43a4.26,4.26,0,1,0-4.25,4.49A4.37,4.37,0,0,0,63.39,43Z"/><path class="cls-19" d="M61.68,43a2.54,2.54,0,1,0-2.54,2.68A2.62,2.62,0,0,0,61.68,43Z"/><path class="cls-20" d="M60.66,43a1.52,1.52,0,1,0-1.52,1.6A1.57,1.57,0,0,0,60.66,43Z"/><path class="cls-7" d="M37.1,42a31.35,31.35,0,0,0,7.2-.33c3.34-.64.33,1.08-4.06,1.16S36,41.81,37.1,42Z"/><path class="cls-11" d="M38.9,27.79s-2.15.35-4.43,3.68-.24-1.13,2.46-3S39.6,27.57,38.9,27.79Z"/><path class="cls-11" d="M22.84,35.08s4-1.79,6.24-1.92a14.7,14.7,0,0,0,3.17-.49c.41,0,.5.31.39.75s-2.44.08-3.71.23-5.88,1.43-5.88,1.43"/><path class="cls-7" d="M53.81,42.57a8,8,0,0,1,3.46-5.14c2.87-1.64-.87-1.57-2.58.84S52.48,44.91,53.81,42.57Z"/><path class="cls-7" d="M30.69,42.79a8,8,0,0,0-3.46-5.14c-2.87-1.65.88-1.58,2.59.83S32,45.13,30.69,42.79Z"/><path class="cls-7" d="M62.32,36.64A4.7,4.7,0,0,1,65.08,39c.75,1.79,1-.4-.31-1.57S61.05,35.7,62.32,36.64Z"/></g></g></svg>