<svg xmlns="http://www.w3.org/2000/svg" xmlns:xlink="http://www.w3.org/1999/xlink" viewBox="0 0 84.24 83.86"><defs><style>.cls-1{isolation:isolate;}.cls-2{fill-opacity:0.05;}.cls-3{fill:url(#linear-gradient);}.cls-4{fill:url(#linear-gradient-2);}.cls-5{fill:url(#linear-gradient-3);}.cls-6{mix-blend-mode:multiply;fill:url(#radial-gradient);}.Graphic-Style-207{fill:url(#linear-gradient-4);}.Graphic-Style-206{fill:url(#linear-gradient-5);}.cls-7{fill:url(#linear-gradient-6);}.cls-8{fill:url(#radial-gradient-2);}.cls-9{fill:url(#linear-gradient-7);}.Graphic-Style-205{fill:url(#linear-gradient-8);}.Graphic-Style-204{fill:url(#linear-gradient-9);}.Graphic-Style-203{fill:#6d6d6d;}.cls-10{fill:url(#linear-gradient-10);}.Graphic-Style-202{fill:url(#linear-gradient-187);}.cls-11{fill:url(#linear-gradient-264);}.cls-12{fill:url(#linear-gradient-292);}.cls-13{fill:url(#linear-gradient-300);}.cls-14{fill:url(#linear-gradient-315);}</style><linearGradient id="linear-gradient" x1="-592.2" y1="39.89" x2="-592.2" y2="12.13" gradientTransform="matrix(2.83, 0, 0, -2.83, 1717.98, 113.08)" gradientUnits="userSpaceOnUse"><stop offset="0" stop-color="#6cc61d"/><stop offset="0.35" stop-color="#75d21f"/><stop offset="0.68" stop-color="#bfee8f"/><stop offset="1" stop-color="#5ab11a"/></linearGradient><linearGradient id="linear-gradient-2" x1="-592.2" y1="12.79" x2="-592.2" y2="39.23" gradientTransform="matrix(2.83, 0, 0, -2.83, 1717.98, 113.08)" gradientUnits="userSpaceOnUse"><stop offset="0" stop-color="#dcf5bb"/><stop offset="1" stop-color="#7edd21"/></linearGradient><linearGradient id="linear-gradient-3" x1="-592.2" y1="12.79" x2="-592.2" y2="26.66" gradientTransform="matrix(2.83, 0, 0, -2.83, 1717.98, 113.08)" gradientUnits="userSpaceOnUse"><stop offset="0" stop-color="#5ab11a"/><stop offset="1" stop-color="#96e44d"/></linearGradient><radialGradient id="radial-gradient" cx="-218.12" cy="-883.61" r="17.91" gradientTransform="translate(447.35 191.51) scale(1.87 0.15)" gradientUnits="userSpaceOnUse"><stop offset="0.37" stop-color="#737475"/><stop offset="0.77" stop-color="#d0d0d1"/><stop offset="0.99" stop-color="#fff"/></radialGradient><linearGradient id="linear-gradient-4" x1="39.55" y1="18.02" x2="39.55" y2="49.35" gradientUnits="userSpaceOnUse"><stop offset="0" stop-color="#969696"/><stop offset="0.53" stop-color="#454545"/><stop offset="0.66" stop-color="#424242"/><stop offset="0.77" stop-color="#373737"/><stop offset="0.87" stop-color="#252525"/><stop offset="0.97" stop-color="#0d0d0d"/><stop offset="1" stop-color="#030303"/></linearGradient><linearGradient id="linear-gradient-5" x1="39.55" y1="18.18" x2="39.55" y2="49.15" gradientUnits="userSpaceOnUse"><stop offset="0" stop-color="#dbdbdb"/><stop offset="0.53" stop-color="#545454"/><stop offset="0.65" stop-color="#515151"/><stop offset="0.75" stop-color="#464646"/><stop offset="0.84" stop-color="#343434"/><stop offset="0.93" stop-color="#1c1c1c"/><stop offset="1" stop-color="#030303"/></linearGradient><linearGradient id="linear-gradient-6" x1="39.55" y1="48.79" x2="39.55" y2="19.66" gradientUnits="userSpaceOnUse"><stop offset="0" stop-color="#3d3d3d"/><stop offset="1" stop-color="#1a1a1a"/></linearGradient><radialGradient id="radial-gradient-2" cx="-169.83" cy="-42.64" r="29.67" gradientTransform="translate(306.19 113.67) scale(1.54)" gradientUnits="userSpaceOnUse"><stop offset="0" stop-color="#7cff11"/><stop offset="0.76" stop-color="#1eaf0f"/><stop offset="1" stop-color="#00950e"/></radialGradient><linearGradient id="linear-gradient-7" x1="-2.35" y1="53.99" x2="81.8" y2="53.99" gradientUnits="userSpaceOnUse"><stop offset="0" stop-color="#383939"/><stop offset="0.2" stop-color="#9d9d9d"/><stop offset="0.4" stop-color="#d8d8d8"/><stop offset="0.49" stop-color="#c7c7c7"/><stop offset="0.6" stop-color="#d8d8d8"/><stop offset="0.8" stop-color="#9d9d9d"/><stop offset="1" stop-color="#383939"/></linearGradient><linearGradient id="linear-gradient-8" x1="39.8" y1="58.52" x2="39.8" y2="57.15" gradientUnits="userSpaceOnUse"><stop offset="0" stop-color="#b4b4b4"/><stop offset="1" stop-color="#565657"/></linearGradient><linearGradient id="linear-gradient-9" x1="39.55" y1="59.59" x2="39.55" y2="57.15" gradientUnits="userSpaceOnUse"><stop offset="0" stop-color="#424242"/><stop offset="0.14" stop-color="#b7b7b8"/><stop offset="1" stop-color="#e5e5e5"/></linearGradient><linearGradient id="linear-gradient-10" x1="45.58" y1="57.96" x2="45.58" y2="55.29" gradientTransform="translate(-5.36 -3.52)" gradientUnits="userSpaceOnUse"><stop offset="0"/><stop offset="1" stop-color="#393a39"/></linearGradient><linearGradient id="linear-gradient-187" x1="-373.31" y1="430.45" x2="-373.18" y2="430.24" gradientTransform="matrix(0.83, -0.53, 0.54, 0.73, 96.71, -458.25)" xlink:href="#linear-gradient-10"/><linearGradient id="linear-gradient-264" x1="61.47" y1="58.12" x2="62.88" y2="55.91" xlink:href="#linear-gradient-10"/><linearGradient id="linear-gradient-292" x1="55.24" y1="58.64" x2="56.33" y2="56.94" xlink:href="#linear-gradient-10"/><linearGradient id="linear-gradient-300" x1="54.62" y1="57.08" x2="55.91" y2="55.08" xlink:href="#linear-gradient-10"/><linearGradient id="linear-gradient-315" x1="54.57" y1="56.32" x2="55.6" y2="54.73" xlink:href="#linear-gradient-10"/></defs><g class="cls-1"><g id="Layer_2" data-name="Layer 2"><g id="Layer_1-2" data-name="Layer 1"><path id="_441795880" data-name=" 441795880" class="cls-2" d="M16.63.9H68.9A15.38,15.38,0,0,1,84.24,16.25V68.52A15.38,15.38,0,0,1,68.9,83.86H16.63A15.38,15.38,0,0,1,1.28,68.52V16.25A15.39,15.39,0,0,1,16.63.9Z"/><path id="_444221680" data-name=" 444221680" class="cls-2" d="M16.92,1.36H68.6A15.23,15.23,0,0,1,83.78,16.54V68.22A15.22,15.22,0,0,1,68.6,83.39H16.92A15.21,15.21,0,0,1,1.75,68.22V16.54A15.22,15.22,0,0,1,16.92,1.36Z"/><path id="_444221656" data-name=" 444221656" class="cls-2" d="M17.22,1.83H68.31a15,15,0,0,1,15,15v51.1a15,15,0,0,1-15,15H17.22a15,15,0,0,1-15-15V16.83A15,15,0,0,1,17.22,1.83Z"/><path id="_444222760" data-name=" 444222760" class="cls-2" d="M17.51,2.3H68A14.88,14.88,0,0,1,82.85,17.13V67.64A14.88,14.88,0,0,1,68,82.46H17.51A14.87,14.87,0,0,1,2.68,67.64V17.13A14.87,14.87,0,0,1,17.51,2.3Z"/><path id="_444222832" data-name=" 444222832" class="cls-2" d="M17.8,2.76H67.72A14.71,14.71,0,0,1,82.38,17.42V67.34A14.7,14.7,0,0,1,67.72,82H17.8A14.7,14.7,0,0,1,3.14,67.34V17.42A14.71,14.71,0,0,1,17.8,2.76Z"/><path id="_444222904" data-name=" 444222904" class="cls-2" d="M18.09,3.23H67.42A14.53,14.53,0,0,1,81.91,17.71V67.05A14.52,14.52,0,0,1,67.42,81.53H18.09A14.52,14.52,0,0,1,3.61,67.05V17.71A14.53,14.53,0,0,1,18.09,3.23Z"/><path id="_444222976" data-name=" 444222976" class="cls-2" d="M18.39,3.7H67.13A14.35,14.35,0,0,1,81.45,18V66.75A14.36,14.36,0,0,1,67.13,81.07H18.39A14.36,14.36,0,0,1,4.07,66.75V18A14.35,14.35,0,0,1,18.39,3.7Z"/><path id="_444223048" data-name=" 444223048" class="cls-2" d="M18.68,4.16H66.83A14.19,14.19,0,0,1,81,18.3V66.46A14.19,14.19,0,0,1,66.83,80.6H18.68A14.18,14.18,0,0,1,4.54,66.46V18.3A14.18,14.18,0,0,1,18.68,4.16Z"/><path id="_444223120" data-name=" 444223120" class="cls-2" d="M19,4.63H66.54a14,14,0,0,1,14,14V66.16a14,14,0,0,1-14,14H19a14,14,0,0,1-14-14V18.59A14,14,0,0,1,19,4.63Z"/><path id="_444223192" data-name=" 444223192" class="cls-2" d="M19.27,5.09h47a13.84,13.84,0,0,1,13.8,13.8v47a13.84,13.84,0,0,1-13.8,13.8h-47a13.84,13.84,0,0,1-13.8-13.8v-47A13.84,13.84,0,0,1,19.27,5.09Z"/><path id="_444223264" data-name=" 444223264" class="cls-2" d="M19.57,5.56H66A13.66,13.66,0,0,1,79.58,19.18v46.4A13.66,13.66,0,0,1,66,79.2H19.57A13.66,13.66,0,0,1,5.94,65.58V19.18A13.66,13.66,0,0,1,19.57,5.56Z"/><path id="_441795640" data-name=" 441795640" class="cls-2" d="M19.86,6H65.67A13.49,13.49,0,0,1,79.12,19.48v45.8A13.49,13.49,0,0,1,65.67,78.73H19.86A13.49,13.49,0,0,1,6.4,65.28V19.48A13.49,13.49,0,0,1,19.86,6Z"/><path id="_441788128" data-name=" 441788128" class="cls-3" d="M14.55,0H64.12A14.6,14.6,0,0,1,78.68,14.56V64.13A14.6,14.6,0,0,1,64.12,78.68H14.55A14.6,14.6,0,0,1,0,64.13V14.56A14.6,14.6,0,0,1,14.55,0Z"/><path id="_441788032" data-name=" 441788032" class="cls-4" d="M15,1.86H63.7A13.15,13.15,0,0,1,76.82,15V63.7A13.15,13.15,0,0,1,63.7,76.82H15A13.15,13.15,0,0,1,1.86,63.7V15A13.15,13.15,0,0,1,15,1.86Z"/><path id="_441787936" data-name=" 441787936" class="cls-5" d="M76.82,42.8V63.7A13.15,13.15,0,0,1,63.7,76.82H15A13.15,13.15,0,0,1,1.86,63.7V42.8a130,130,0,0,1,37.48-5.29A130,130,0,0,1,76.82,42.8Z"/><path class="cls-6" d="M72.44,58.52c0,1.49-15,2.7-33.54,2.7S5.36,60,5.36,58.52s15-2.69,33.54-2.69S72.44,57,72.44,58.52Z"/><path class="Graphic-Style-207" d="M62.46,50.55l-45.81,0V19.35A1.37,1.37,0,0,1,18.05,18H61a1.47,1.47,0,0,1,1.51,1.33Z"/><path class="Graphic-Style-206" d="M62.21,50.31l-45.32,0V19.5a1.36,1.36,0,0,1,1.4-1.32H60.81a1.36,1.36,0,0,1,1.4,1.32Z"/><path class="cls-7" d="M60.06,48.76H19a.52.52,0,0,1-.52-.53V20.29a.52.52,0,0,1,.52-.52h41a.52.52,0,0,1,.52.52V48.23a.52.52,0,0,1-.52.53Z"/><path class="cls-8" d="M60.06,48.44H19a.21.21,0,0,1-.21-.21V20.29a.22.22,0,0,1,.21-.21h41a.22.22,0,0,1,.21.21V48.23a.21.21,0,0,1-.21.21Z"/><polygon class="cls-9" points="67.88 57.47 11.21 57.47 16.62 50.51 62.47 50.51 67.88 57.47"/><path class="Graphic-Style-205" d="M37.27,58.5c1.5,0,3.13.06,4.93,0,.55,0,.44-1.2,1.52-1.33H35.89C36.87,57.51,37,58.39,37.27,58.5Z"/><path class="Graphic-Style-204" d="M67.25,57.15H43.46a1,1,0,0,0-.54.38l-.51.7a1.28,1.28,0,0,1-.86.28H37.88a1.3,1.3,0,0,1-.87-.28l-.5-.7a1,1,0,0,0-.54-.38H11.85A.86.86,0,0,0,11,58v.69a.86.86,0,0,0,.84.87h55.4a.86.86,0,0,0,.84-.87V58A.86.86,0,0,0,67.25,57.15Z"/><polygon class="Graphic-Style-203" points="18.09 51.51 15.82 54.72 63.52 54.69 61.12 51.47 18.09 51.51"/><polygon class="cls-10" points="21.34 52.15 20.04 52.16 20.21 51.89 21.5 51.89 21.34 52.15"/><polygon class="cls-10" points="24.86 52.15 23.55 52.15 23.69 51.89 24.98 51.88 24.86 52.15"/><polygon class="cls-10" points="26.57 52.15 25.26 52.15 25.38 51.88 26.68 51.88 26.57 52.15"/><polygon class="cls-10" points="28.28 52.14 26.97 52.14 27.09 51.88 28.39 51.88 28.28 52.14"/><polygon class="cls-10" points="30.01 52.14 28.69 52.14 28.77 51.88 30.1 51.87 30.01 52.14"/><polygon class="cls-10" points="21 52.75 19.68 52.75 19.84 52.47 21.16 52.47 21 52.75"/><polygon class="cls-10" points="22.83 52.74 21.51 52.74 21.67 52.47 22.98 52.47 22.83 52.74"/><polygon class="cls-10" points="24.58 52.74 23.24 52.74 23.38 52.47 24.71 52.47 24.58 52.74"/><polygon class="cls-10" points="26.32 52.74 24.98 52.74 25.11 52.46 26.44 52.46 26.32 52.74"/><polygon class="cls-10" points="28.17 52.73 26.83 52.74 26.95 52.46 28.28 52.46 28.17 52.73"/><polygon class="cls-10" points="29.93 52.73 28.59 52.74 28.68 52.46 30.01 52.45 29.93 52.73"/><polygon class="cls-10" points="31.7 52.73 30.34 52.73 30.43 52.45 31.77 52.45 31.7 52.73"/><polygon class="cls-10" points="33.46 52.73 32.1 52.73 32.17 52.45 33.52 52.45 33.46 52.73"/><polygon class="cls-10" points="35.33 52.72 33.98 52.73 34.02 52.45 35.37 52.45 35.33 52.72"/><polygon class="cls-10" points="37.11 52.72 35.75 52.72 35.78 52.45 37.13 52.45 37.11 52.72"/><polygon class="cls-10" points="38.89 52.72 37.53 52.72 37.54 52.44 38.9 52.44 38.89 52.72"/><rect class="cls-10" x="39.31" y="52.44" width="1.36" height="0.28"/><polygon class="cls-10" points="42.47 52.72 41.1 52.72 41.08 52.44 42.44 52.44 42.47 52.72"/><polygon class="cls-10" points="42.91 52.44 42.94 52.72 46 52.71 45.96 52.43 42.91 52.44"/><polygon class="cls-10" points="23.5 53.15 22.16 53.16 22.31 52.87 23.64 52.87 23.5 53.15"/><polygon class="cls-10" points="21.59 53.16 19.42 53.16 19.59 52.88 21.74 52.87 21.59 53.16"/><polygon class="cls-10" points="25.27 53.15 23.92 53.15 24.05 52.87 25.39 52.87 25.27 53.15"/><polygon class="cls-10" points="27.03 53.15 25.68 53.15 25.81 52.87 27.14 52.87 27.03 53.15"/><polygon class="cls-10" points="28.81 53.15 27.46 53.15 27.56 52.87 28.9 52.86 28.81 53.15"/><polygon class="cls-10" points="30.69 53.15 29.34 53.15 29.42 52.86 30.77 52.86 30.69 53.15"/><polygon class="cls-10" points="32.48 53.15 31.11 53.15 31.19 52.86 32.54 52.86 32.48 53.15"/><polygon class="cls-10" points="34.27 53.14 32.9 53.15 32.96 52.86 34.32 52.86 34.27 53.14"/><polygon class="cls-10" points="36.07 53.14 34.7 53.14 34.74 52.86 36.1 52.85 36.07 53.14"/><polygon class="cls-10" points="37.98 53.14 36.6 53.14 36.62 52.85 37.99 52.85 37.98 53.14"/><polygon class="cls-10" points="39.78 53.14 38.4 53.14 38.41 52.85 39.78 52.85 39.78 53.14"/><polygon class="cls-10" points="41.59 53.13 40.21 53.14 40.2 52.85 41.58 52.85 41.59 53.13"/><polygon class="cls-10" points="43.41 53.13 42.03 53.13 42 52.85 43.38 52.84 43.41 53.13"/><polygon class="cls-10" points="43.92 52.85 43.95 53.13 46.09 53.13 46.04 52.84 43.92 52.85"/><polygon class="cls-10" points="21.79 53.54 19.18 53.54 19.36 53.25 21.95 53.25 21.79 53.54"/><polygon class="cls-10" points="23.79 53.54 22.42 53.54 22.56 53.25 23.92 53.25 23.79 53.54"/><polygon class="cls-10" points="25.57 53.54 24.2 53.54 24.34 53.25 25.69 53.25 25.57 53.54"/><polygon class="cls-10" points="27.36 53.53 25.98 53.53 26.11 53.25 27.47 53.25 27.36 53.53"/><polygon class="cls-10" points="29.16 53.53 27.78 53.53 27.89 53.24 29.25 53.24 29.16 53.53"/><polygon class="cls-10" points="31.07 53.53 29.69 53.53 29.78 53.24 31.15 53.24 31.07 53.53"/><polygon class="cls-10" points="32.88 53.53 31.5 53.53 31.56 53.24 32.94 53.24 32.88 53.53"/><polygon class="cls-10" points="34.68 53.53 33.3 53.53 33.36 53.24 34.73 53.24 34.68 53.53"/><polygon class="cls-10" points="36.51 53.53 35.12 53.53 35.16 53.24 36.54 53.24 36.51 53.53"/><polygon class="cls-10" points="38.39 53.53 36.99 53.53 37.01 53.23 38.39 53.23 38.39 53.53"/><polygon class="cls-10" points="40.21 53.53 38.81 53.53 38.81 53.23 40.21 53.23 40.21 53.53"/><polygon class="cls-10" points="42.05 53.53 40.65 53.53 40.64 53.23 42.03 53.23 42.05 53.53"/><polygon class="cls-10" points="42.51 53.23 42.54 53.53 46.17 53.52 46.11 53.23 42.51 53.23"/><polygon class="cls-10" points="20.71 54.44 18.62 54.44 18.81 54.13 20.89 54.13 20.71 54.44"/><polygon class="cls-10" points="23.13 54.44 21.03 54.44 21.2 54.13 23.28 54.13 23.13 54.44"/><polygon class="cls-10" points="25.51 54.44 23.39 54.44 23.55 54.13 25.64 54.13 25.51 54.44"/><polygon class="cls-10" points="39.53 54.44 37.39 54.44 37.41 54.13 39.54 54.13 39.53 54.44"/><polygon class="cls-10" points="41.98 54.44 39.81 54.44 39.81 54.13 41.95 54.13 41.98 54.44"/><polygon class="cls-10" points="44.42 54.44 42.25 54.44 42.23 54.13 44.38 54.13 44.42 54.44"/><polygon class="cls-10" points="44.66 54.13 44.7 54.44 46.35 54.44 46.28 54.13 44.66 54.13"/><polygon class="cls-10" points="37.02 54.44 25.83 54.44 25.95 54.13 37.05 54.13 37.02 54.44"/><polygon class="cls-10" points="24.44 53.94 23.06 53.94 23.2 53.65 24.58 53.65 24.44 53.94"/><polygon class="cls-10" points="22.26 53.94 18.92 53.94 19.11 53.65 22.41 53.65 22.26 53.94"/><polygon class="cls-10" points="26.26 53.94 24.87 53.94 25 53.65 26.37 53.65 26.26 53.94"/><polygon class="cls-10" points="28.07 53.94 26.67 53.94 26.78 53.64 28.17 53.65 28.07 53.94"/><polygon class="cls-10" points="29.88 53.94 28.49 53.94 28.6 53.65 29.97 53.64 29.88 53.94"/><polygon class="cls-10" points="31.83 53.94 30.42 53.94 30.5 53.64 31.89 53.64 31.83 53.94"/><polygon class="cls-10" points="33.65 53.94 32.25 53.94 32.31 53.64 33.7 53.64 33.65 53.94"/><polygon class="cls-10" points="35.49 53.94 34.09 53.94 34.13 53.64 35.53 53.64 35.49 53.94"/><polygon class="cls-10" points="37.34 53.94 35.93 53.94 35.96 53.64 37.35 53.64 37.34 53.94"/><polygon class="cls-10" points="39.24 53.94 37.83 53.94 37.84 53.64 39.24 53.64 39.24 53.94"/><polygon class="cls-10" points="41.1 53.94 39.67 53.94 39.68 53.64 41.08 53.64 41.1 53.94"/><polygon class="cls-10" points="41.79 53.64 41.8 53.94 46.26 53.94 46.19 53.63 41.79 53.64"/><polygon class="cls-10" points="32.71 52.14 31.38 52.14 31.45 51.87 32.77 51.87 32.71 52.14"/><polygon class="cls-10" points="34.44 52.13 33.12 52.13 33.17 51.87 34.49 51.87 34.44 52.13"/><polygon class="cls-10" points="36.19 52.13 34.85 52.13 34.89 51.87 36.21 51.86 36.19 52.13"/><polygon class="cls-10" points="37.92 52.13 36.59 52.13 36.62 51.86 37.94 51.86 37.92 52.13"/><polygon class="cls-10" points="40.65 52.12 39.31 52.12 39.33 51.86 40.65 51.85 40.65 52.12"/><polygon class="cls-10" points="42.42 52.12 41.07 52.12 41.06 51.85 42.39 51.85 42.42 52.12"/><polygon class="cls-10" points="44.18 52.12 42.82 52.12 42.8 51.85 44.14 51.85 44.18 52.12"/><polygon class="cls-10" points="44.55 51.84 44.59 52.12 45.89 52.11 45.84 51.84 44.55 51.84"/><polygon class="cls-10" points="60.69 52.67 59.28 52.67 59.11 52.39 60.5 52.39 60.69 52.67"/><polygon class="cls-10" points="61.24 53.53 59.81 53.53 59.35 52.79 60.76 52.79 61.24 53.53"/><polygon class="cls-10" points="61.83 54.4 60.34 54.4 59.86 53.63 61.31 53.62 61.83 54.4"/><polygon class="cls-10" points="55.29 52.68 53.9 52.68 53.77 52.4 55.16 52.4 55.29 52.68"/><polygon class="cls-10" points="57.13 52.67 55.72 52.68 55.59 52.4 56.97 52.39 57.13 52.67"/><polygon class="cls-10" points="58.96 52.67 57.55 52.67 57.4 52.39 58.79 52.39 58.96 52.67"/><polygon class="cls-10" points="55.49 53.08 54.08 53.09 53.95 52.8 55.35 52.8 55.49 53.08"/><polygon class="cls-10" points="57.35 53.08 55.92 53.08 55.78 52.79 57.18 52.79 57.35 53.08"/><polygon class="cls-10" points="59.2 53.08 57.78 53.08 57.62 52.79 59.03 52.79 59.2 53.08"/><polygon class="cls-10" points="55.7 53.52 54.27 53.52 54.13 53.22 55.56 53.22 55.7 53.52"/><polygon class="cls-10" points="57.58 53.52 56.14 53.52 55.99 53.22 57.42 53.22 57.58 53.52"/><polygon class="cls-10" points="59.46 53.51 58.02 53.51 57.85 53.22 59.29 53.22 59.46 53.51"/><polygon class="cls-10" points="55.91 53.96 54.46 53.96 54.34 53.66 55.76 53.65 55.91 53.96"/><polygon class="cls-10" points="57.82 53.96 56.37 53.96 56.21 53.65 57.65 53.65 57.82 53.96"/><polygon class="cls-10" points="59.73 53.96 58.27 53.96 58.1 53.65 59.55 53.65 59.73 53.96"/><polygon class="cls-10" points="58.05 54.39 54.65 54.39 54.52 54.08 57.88 54.07 58.05 54.39"/><polygon class="cls-10" points="59.99 54.39 58.51 54.39 58.33 54.07 59.8 54.07 59.99 54.39"/><polygon class="cls-10" points="55.29 52.68 53.9 52.68 53.77 52.4 55.16 52.4 55.29 52.68"/><polygon class="cls-10" points="57.13 52.67 55.72 52.68 55.59 52.4 56.97 52.39 57.13 52.67"/><polygon class="cls-10" points="58.96 52.67 57.55 52.67 57.4 52.39 58.79 52.39 58.96 52.67"/><polygon class="cls-10" points="55.49 53.08 54.08 53.09 53.95 52.8 55.35 52.8 55.49 53.08"/><polygon class="cls-10" points="57.35 53.08 55.92 53.08 55.78 52.79 57.18 52.79 57.35 53.08"/><polygon class="cls-10" points="59.2 53.08 57.78 53.08 57.62 52.79 59.03 52.79 59.2 53.08"/><polygon class="cls-10" points="55.7 53.52 54.27 53.52 54.13 53.22 55.56 53.22 55.7 53.52"/><polygon class="cls-10" points="57.58 53.52 56.14 53.52 55.99 53.22 57.42 53.22 57.58 53.52"/><polygon class="cls-10" points="59.46 53.51 58.02 53.51 57.85 53.22 59.29 53.22 59.46 53.51"/><polygon class="cls-10" points="55.91 53.96 54.46 53.96 54.34 53.66 55.76 53.65 55.91 53.96"/><polygon class="cls-10" points="57.82 53.96 56.37 53.96 56.21 53.65 57.65 53.65 57.82 53.96"/><polygon class="cls-10" points="59.73 53.96 58.27 53.96 58.1 53.65 59.55 53.65 59.73 53.96"/><polygon class="cls-10" points="58.05 54.39 54.65 54.39 54.52 54.08 57.88 54.07 58.05 54.39"/><polygon class="cls-10" points="59.99 54.39 58.51 54.39 58.33 54.07 59.8 54.07 59.99 54.39"/><polygon class="cls-10" points="55.29 52.68 53.9 52.68 53.77 52.4 55.16 52.4 55.29 52.68"/><polygon class="cls-10" points="57.13 52.67 55.72 52.68 55.59 52.4 56.97 52.39 57.13 52.67"/><polygon class="cls-10" points="58.96 52.67 57.55 52.67 57.4 52.39 58.79 52.39 58.96 52.67"/><polygon class="cls-10" points="55.49 53.08 54.08 53.09 53.95 52.8 55.35 52.8 55.49 53.08"/><polygon class="cls-10" points="57.35 53.08 55.92 53.08 55.78 52.79 57.18 52.79 57.35 53.08"/><polygon class="cls-10" points="59.2 53.08 57.78 53.08 57.62 52.79 59.03 52.79 59.2 53.08"/><polygon class="cls-10" points="55.7 53.52 54.27 53.52 54.13 53.22 55.56 53.22 55.7 53.52"/><polygon class="cls-10" points="57.58 53.52 56.14 53.52 55.99 53.22 57.42 53.22 57.58 53.52"/><polygon class="cls-10" points="59.46 53.51 58.02 53.51 57.85 53.22 59.29 53.22 59.46 53.51"/><polygon class="cls-10" points="55.91 53.96 54.46 53.96 54.34 53.66 55.76 53.65 55.91 53.96"/><polygon class="cls-10" points="57.82 53.96 56.37 53.96 56.21 53.65 57.65 53.65 57.82 53.96"/><polygon class="cls-10" points="59.73 53.96 58.27 53.96 58.1 53.65 59.55 53.65 59.73 53.96"/><polygon class="cls-10" points="58.05 54.39 54.65 54.39 54.52 54.08 57.88 54.07 58.05 54.39"/><polygon class="cls-10" points="59.99 54.39 58.51 54.39 58.33 54.07 59.8 54.07 59.99 54.39"/><polygon class="cls-10" points="51.04 53.95 49.59 53.95 49.5 53.65 50.93 53.64 51.04 53.95"/><polygon class="cls-10" points="51.19 54.39 49.73 54.39 49.63 54.07 51.08 54.08 51.19 54.39"/><polygon class="cls-10" points="53.1 54.39 51.63 54.39 51.53 54.08 52.97 54.07 53.1 54.39"/><polygon class="cls-10" points="49.33 54.39 47.88 54.39 47.8 54.08 49.25 54.08 49.33 54.39"/><polygon class="cls-10" points="51.04 53.95 49.59 53.95 49.5 53.65 50.93 53.64 51.04 53.95"/><polygon class="cls-10" points="51.19 54.39 49.73 54.39 49.63 54.07 51.08 54.08 51.19 54.39"/><polygon class="cls-10" points="53.1 54.39 51.63 54.39 51.53 54.08 52.97 54.07 53.1 54.39"/><polygon class="cls-10" points="49.33 54.39 47.88 54.39 47.8 54.08 49.25 54.08 49.33 54.39"/><polygon class="cls-10" points="51.04 53.95 49.59 53.95 49.5 53.65 50.93 53.64 51.04 53.95"/><polygon class="cls-10" points="51.19 54.39 49.73 54.39 49.63 54.07 51.08 54.08 51.19 54.39"/><polygon class="cls-10" points="53.1 54.39 51.63 54.39 51.53 54.08 52.97 54.07 53.1 54.39"/><polygon class="cls-10" points="49.33 54.39 47.88 54.39 47.8 54.08 49.25 54.08 49.33 54.39"/><polygon class="cls-10" points="48.68 52.11 47.32 52.11 47.26 51.84 48.6 51.84 48.68 52.11"/><polygon class="cls-10" points="50.46 52.1 49.1 52.11 49.02 51.84 50.37 51.83 50.46 52.1"/><polygon class="cls-10" points="52.24 52.1 50.88 52.1 50.78 51.83 52.13 51.83 52.24 52.1"/><polygon class="cls-10" points="48.68 52.11 47.32 52.11 47.26 51.84 48.6 51.84 48.68 52.11"/><polygon class="cls-10" points="50.46 52.1 49.1 52.11 49.02 51.84 50.37 51.83 50.46 52.1"/><polygon class="cls-10" points="52.24 52.1 50.88 52.1 50.78 51.83 52.13 51.83 52.24 52.1"/><polygon class="cls-10" points="48.68 52.11 47.32 52.11 47.26 51.84 48.6 51.84 48.68 52.11"/><polygon class="cls-10" points="50.46 52.1 49.1 52.11 49.02 51.84 50.37 51.83 50.46 52.1"/><polygon class="cls-10" points="52.24 52.1 50.88 52.1 50.78 51.83 52.13 51.83 52.24 52.1"/><polygon class="cls-10" points="48.85 52.7 47.47 52.7 47.4 52.42 48.77 52.42 48.85 52.7"/><polygon class="cls-10" points="50.66 52.7 49.28 52.7 49.19 52.41 50.56 52.41 50.66 52.7"/><polygon class="cls-10" points="52.48 52.69 51.09 52.7 50.98 52.41 52.37 52.41 52.48 52.69"/><polygon class="cls-10" points="48.97 53.13 47.57 53.13 47.5 52.84 48.89 52.84 48.97 53.13"/><polygon class="cls-10" points="50.81 53.13 49.4 53.13 49.31 52.84 50.71 52.84 50.81 53.13"/><polygon class="cls-10" points="52.65 53.13 51.24 53.13 51.14 52.84 52.55 52.84 52.65 53.13"/><polygon class="cls-10" points="48.68 52.11 47.32 52.11 47.26 51.84 48.6 51.84 48.68 52.11"/><polygon class="cls-10" points="50.46 52.1 49.1 52.11 49.02 51.84 50.37 51.83 50.46 52.1"/><polygon class="cls-10" points="52.24 52.1 50.88 52.1 50.78 51.83 52.13 51.83 52.24 52.1"/><polygon class="cls-10" points="48.68 52.11 47.32 52.11 47.26 51.84 48.6 51.84 48.68 52.11"/><polygon class="cls-10" points="50.46 52.1 49.1 52.11 49.02 51.84 50.37 51.83 50.46 52.1"/><polygon class="cls-10" points="52.24 52.1 50.88 52.1 50.78 51.83 52.13 51.83 52.24 52.1"/><polygon class="cls-10" points="48.68 52.11 47.32 52.11 47.26 51.84 48.6 51.84 48.68 52.11"/><polygon class="cls-10" points="50.46 52.1 49.1 52.11 49.02 51.84 50.37 51.83 50.46 52.1"/><polygon class="cls-10" points="52.24 52.1 50.88 52.1 50.78 51.83 52.13 51.83 52.24 52.1"/><polygon class="cls-10" points="48.85 52.7 47.47 52.7 47.4 52.42 48.77 52.42 48.85 52.7"/><polygon class="cls-10" points="50.66 52.7 49.28 52.7 49.19 52.41 50.56 52.41 50.66 52.7"/><polygon class="cls-10" points="52.48 52.69 51.09 52.7 50.98 52.41 52.37 52.41 52.48 52.69"/><polygon class="cls-10" points="48.97 53.13 47.57 53.13 47.5 52.84 48.89 52.84 48.97 53.13"/><polygon class="cls-10" points="50.81 53.13 49.4 53.13 49.31 52.84 50.71 52.84 50.81 53.13"/><polygon class="cls-10" points="52.65 53.13 51.24 53.13 51.14 52.84 52.55 52.84 52.65 53.13"/><polygon class="cls-10" points="48.68 52.11 47.32 52.11 47.26 51.84 48.6 51.84 48.68 52.11"/><polygon class="cls-10" points="50.46 52.1 49.1 52.11 49.02 51.84 50.37 51.83 50.46 52.1"/><polygon class="cls-10" points="52.24 52.1 50.88 52.1 50.78 51.83 52.13 51.83 52.24 52.1"/><polygon class="cls-10" points="48.68 52.11 47.32 52.11 47.26 51.84 48.6 51.84 48.68 52.11"/><polygon class="cls-10" points="50.46 52.1 49.1 52.11 49.02 51.84 50.37 51.83 50.46 52.1"/><polygon class="cls-10" points="52.24 52.1 50.88 52.1 50.78 51.83 52.13 51.83 52.24 52.1"/><polygon class="cls-10" points="48.68 52.11 47.32 52.11 47.26 51.84 48.6 51.84 48.68 52.11"/><polygon class="cls-10" points="50.46 52.1 49.1 52.11 49.02 51.84 50.37 51.83 50.46 52.1"/><polygon class="cls-10" points="52.24 52.1 50.88 52.1 50.78 51.83 52.13 51.83 52.24 52.1"/><polygon class="cls-10" points="48.85 52.7 47.47 52.7 47.4 52.42 48.77 52.42 48.85 52.7"/><polygon class="cls-10" points="50.66 52.7 49.28 52.7 49.19 52.41 50.56 52.41 50.66 52.7"/><polygon class="cls-10" points="52.48 52.69 51.09 52.7 50.98 52.41 52.37 52.41 52.48 52.69"/><polygon class="cls-10" points="48.97 53.13 47.57 53.13 47.5 52.84 48.89 52.84 48.97 53.13"/><polygon class="cls-10" points="50.81 53.13 49.4 53.13 49.31 52.84 50.71 52.84 50.81 53.13"/><polygon class="cls-10" points="52.65 53.13 51.24 53.13 51.14 52.84 52.55 52.84 52.65 53.13"/><path class="cls-10" d="M60.43,52.11s-.11.07-.28.07H53.42c-.18,0-.34,0-.35-.07L53,51.85s.12-.07.29-.07h6.65a.76.76,0,0,1,.36.06Z"/><polygon class="Graphic-Style-202" points="21.34 52.15 20.04 52.16 20.21 51.89 21.5 51.89 21.34 52.15"/><polygon class="Graphic-Style-202" points="24.86 52.15 23.55 52.15 23.69 51.89 24.98 51.88 24.86 52.15"/><polygon class="Graphic-Style-202" points="26.57 52.15 25.26 52.15 25.38 51.88 26.68 51.88 26.57 52.15"/><polygon class="Graphic-Style-202" points="28.28 52.14 26.97 52.14 27.09 51.88 28.39 51.88 28.28 52.14"/><polygon class="Graphic-Style-202" points="30.01 52.14 28.69 52.14 28.77 51.88 30.1 51.87 30.01 52.14"/><polygon class="Graphic-Style-202" points="21 52.75 19.68 52.75 19.84 52.47 21.16 52.47 21 52.75"/><polygon class="Graphic-Style-202" points="22.83 52.74 21.51 52.74 21.67 52.47 22.98 52.47 22.83 52.74"/><polygon class="Graphic-Style-202" points="24.58 52.74 23.24 52.74 23.38 52.47 24.71 52.47 24.58 52.74"/><polygon class="Graphic-Style-202" points="26.32 52.74 24.98 52.74 25.11 52.46 26.44 52.46 26.32 52.74"/><polygon class="Graphic-Style-202" points="28.17 52.73 26.83 52.74 26.95 52.46 28.28 52.46 28.17 52.73"/><polygon class="Graphic-Style-202" points="29.93 52.73 28.59 52.74 28.68 52.46 30.01 52.45 29.93 52.73"/><polygon class="Graphic-Style-202" points="31.7 52.73 30.34 52.73 30.43 52.45 31.77 52.45 31.7 52.73"/><polygon class="Graphic-Style-202" points="33.46 52.73 32.1 52.73 32.17 52.45 33.52 52.45 33.46 52.73"/><polygon class="Graphic-Style-202" points="35.33 52.72 33.98 52.73 34.02 52.45 35.37 52.45 35.33 52.72"/><polygon class="Graphic-Style-202" points="37.11 52.72 35.75 52.72 35.78 52.45 37.13 52.45 37.11 52.72"/><polygon class="Graphic-Style-202" points="38.89 52.72 37.53 52.72 37.54 52.44 38.9 52.44 38.89 52.72"/><rect class="Graphic-Style-202" x="39.31" y="52.44" width="1.36" height="0.28"/><polygon class="Graphic-Style-202" points="42.47 52.72 41.1 52.72 41.08 52.44 42.44 52.44 42.47 52.72"/><polygon class="Graphic-Style-202" points="42.91 52.44 42.94 52.72 46 52.71 45.96 52.43 42.91 52.44"/><polygon class="Graphic-Style-202" points="23.5 53.15 22.16 53.16 22.31 52.87 23.64 52.87 23.5 53.15"/><polygon class="Graphic-Style-202" points="21.59 53.16 19.42 53.16 19.59 52.88 21.74 52.87 21.59 53.16"/><polygon class="Graphic-Style-202" points="25.27 53.15 23.92 53.15 24.05 52.87 25.39 52.87 25.27 53.15"/><polygon class="Graphic-Style-202" points="27.03 53.15 25.68 53.15 25.81 52.87 27.14 52.87 27.03 53.15"/><polygon class="Graphic-Style-202" points="28.81 53.15 27.46 53.15 27.56 52.87 28.9 52.86 28.81 53.15"/><polygon class="Graphic-Style-202" points="30.69 53.15 29.34 53.15 29.42 52.86 30.77 52.86 30.69 53.15"/><polygon class="Graphic-Style-202" points="32.48 53.15 31.11 53.15 31.19 52.86 32.54 52.86 32.48 53.15"/><polygon class="Graphic-Style-202" points="34.27 53.14 32.9 53.15 32.96 52.86 34.32 52.86 34.27 53.14"/><polygon class="Graphic-Style-202" points="36.07 53.14 34.7 53.14 34.74 52.86 36.1 52.85 36.07 53.14"/><polygon class="Graphic-Style-202" points="37.98 53.14 36.6 53.14 36.62 52.85 37.99 52.85 37.98 53.14"/><polygon class="Graphic-Style-202" points="39.78 53.14 38.4 53.14 38.41 52.85 39.78 52.85 39.78 53.14"/><polygon class="Graphic-Style-202" points="41.59 53.13 40.21 53.14 40.2 52.85 41.58 52.85 41.59 53.13"/><polygon class="Graphic-Style-202" points="43.41 53.13 42.03 53.13 42 52.85 43.38 52.84 43.41 53.13"/><polygon class="Graphic-Style-202" points="43.92 52.85 43.95 53.13 46.09 53.13 46.04 52.84 43.92 52.85"/><polygon class="Graphic-Style-202" points="21.79 53.54 19.18 53.54 19.36 53.25 21.95 53.25 21.79 53.54"/><polygon class="Graphic-Style-202" points="23.79 53.54 22.42 53.54 22.56 53.25 23.92 53.25 23.79 53.54"/><polygon class="Graphic-Style-202" points="25.57 53.54 24.2 53.54 24.34 53.25 25.69 53.25 25.57 53.54"/><polygon class="Graphic-Style-202" points="27.36 53.53 25.98 53.53 26.11 53.25 27.47 53.25 27.36 53.53"/><polygon class="Graphic-Style-202" points="29.16 53.53 27.78 53.53 27.89 53.24 29.25 53.24 29.16 53.53"/><polygon class="Graphic-Style-202" points="31.07 53.53 29.69 53.53 29.78 53.24 31.15 53.24 31.07 53.53"/><polygon class="Graphic-Style-202" points="32.88 53.53 31.5 53.53 31.56 53.24 32.94 53.24 32.88 53.53"/><polygon class="Graphic-Style-202" points="34.68 53.53 33.3 53.53 33.36 53.24 34.73 53.24 34.68 53.53"/><polygon class="Graphic-Style-202" points="36.51 53.53 35.12 53.53 35.16 53.24 36.54 53.24 36.51 53.53"/><polygon class="Graphic-Style-202" points="38.39 53.53 36.99 53.53 37.01 53.23 38.39 53.23 38.39 53.53"/><polygon class="Graphic-Style-202" points="40.21 53.53 38.81 53.53 38.81 53.23 40.21 53.23 40.21 53.53"/><polygon class="Graphic-Style-202" points="42.05 53.53 40.65 53.53 40.64 53.23 42.03 53.23 42.05 53.53"/><polygon class="Graphic-Style-202" points="42.51 53.23 42.54 53.53 46.17 53.52 46.11 53.23 42.51 53.23"/><polygon class="Graphic-Style-202" points="20.71 54.44 18.62 54.44 18.81 54.13 20.89 54.13 20.71 54.44"/><polygon class="Graphic-Style-202" points="23.13 54.44 21.03 54.44 21.2 54.13 23.28 54.13 23.13 54.44"/><polygon class="Graphic-Style-202" points="25.51 54.44 23.39 54.44 23.55 54.13 25.64 54.13 25.51 54.44"/><polygon class="Graphic-Style-202" points="39.53 54.44 37.39 54.44 37.41 54.13 39.54 54.13 39.53 54.44"/><polygon class="Graphic-Style-202" points="41.98 54.44 39.81 54.44 39.81 54.13 41.95 54.13 41.98 54.44"/><polygon class="Graphic-Style-202" points="44.42 54.44 42.25 54.44 42.23 54.13 44.38 54.13 44.42 54.44"/><polygon class="Graphic-Style-202" points="44.66 54.13 44.7 54.44 46.35 54.44 46.28 54.13 44.66 54.13"/><polygon class="Graphic-Style-202" points="37.02 54.44 25.83 54.44 25.95 54.13 37.05 54.13 37.02 54.44"/><polygon class="Graphic-Style-202" points="24.44 53.94 23.06 53.94 23.2 53.65 24.58 53.65 24.44 53.94"/><polygon class="Graphic-Style-202" points="22.26 53.94 18.92 53.94 19.11 53.65 22.41 53.65 22.26 53.94"/><polygon class="Graphic-Style-202" points="26.26 53.94 24.87 53.94 25 53.65 26.37 53.65 26.26 53.94"/><polygon class="Graphic-Style-202" points="28.07 53.94 26.67 53.94 26.78 53.64 28.17 53.65 28.07 53.94"/><polygon class="Graphic-Style-202" points="29.88 53.94 28.49 53.94 28.6 53.65 29.97 53.64 29.88 53.94"/><polygon class="Graphic-Style-202" points="31.83 53.94 30.42 53.94 30.5 53.64 31.89 53.64 31.83 53.94"/><polygon class="Graphic-Style-202" points="33.65 53.94 32.25 53.94 32.31 53.64 33.7 53.64 33.65 53.94"/><polygon class="Graphic-Style-202" points="35.49 53.94 34.09 53.94 34.13 53.64 35.53 53.64 35.49 53.94"/><polygon class="Graphic-Style-202" points="37.34 53.94 35.93 53.94 35.96 53.64 37.35 53.64 37.34 53.94"/><polygon class="Graphic-Style-202" points="39.24 53.94 37.83 53.94 37.84 53.64 39.24 53.64 39.24 53.94"/><polygon class="Graphic-Style-202" points="41.1 53.94 39.67 53.94 39.68 53.64 41.08 53.64 41.1 53.94"/><polygon class="Graphic-Style-202" points="41.79 53.64 41.8 53.94 46.26 53.94 46.19 53.63 41.79 53.64"/><polygon class="Graphic-Style-202" points="32.71 52.14 31.38 52.14 31.45 51.87 32.77 51.87 32.71 52.14"/><polygon class="Graphic-Style-202" points="34.44 52.13 33.12 52.13 33.17 51.87 34.49 51.87 34.44 52.13"/><polygon class="Graphic-Style-202" points="36.19 52.13 34.85 52.13 34.89 51.87 36.21 51.86 36.19 52.13"/><polygon class="Graphic-Style-202" points="37.92 52.13 36.59 52.13 36.62 51.86 37.94 51.86 37.92 52.13"/><polygon class="Graphic-Style-202" points="40.65 52.12 39.31 52.12 39.33 51.86 40.65 51.85 40.65 52.12"/><polygon class="Graphic-Style-202" points="42.42 52.12 41.07 52.12 41.06 51.85 42.39 51.85 42.42 52.12"/><polygon class="Graphic-Style-202" points="44.18 52.12 42.82 52.12 42.8 51.85 44.14 51.85 44.18 52.12"/><polygon class="Graphic-Style-202" points="44.55 51.84 44.59 52.12 45.89 52.11 45.84 51.84 44.55 51.84"/><polygon class="Graphic-Style-202" points="60.69 52.67 59.28 52.67 59.11 52.39 60.5 52.39 60.69 52.67"/><polygon class="Graphic-Style-202" points="61.24 53.53 59.81 53.53 59.35 52.79 60.76 52.79 61.24 53.53"/><polygon class="Graphic-Style-202" points="61.83 54.4 60.34 54.4 59.86 53.63 61.31 53.62 61.83 54.4"/><polygon class="cls-11" points="55.29 52.68 53.9 52.68 53.77 52.4 55.16 52.4 55.29 52.68"/><polygon class="cls-11" points="57.13 52.67 55.72 52.68 55.59 52.4 56.97 52.39 57.13 52.67"/><polygon class="cls-11" points="58.96 52.67 57.55 52.67 57.4 52.39 58.79 52.39 58.96 52.67"/><polygon class="cls-11" points="55.49 53.08 54.08 53.09 53.95 52.8 55.35 52.8 55.49 53.08"/><polygon class="cls-11" points="57.35 53.08 55.92 53.08 55.78 52.79 57.18 52.79 57.35 53.08"/><polygon class="cls-11" points="59.2 53.08 57.78 53.08 57.62 52.79 59.03 52.79 59.2 53.08"/><polygon class="cls-11" points="55.7 53.52 54.27 53.52 54.13 53.22 55.56 53.22 55.7 53.52"/><polygon class="cls-11" points="57.58 53.52 56.14 53.52 55.99 53.22 57.42 53.22 57.58 53.52"/><polygon class="cls-11" points="59.46 53.51 58.02 53.51 57.85 53.22 59.29 53.22 59.46 53.51"/><polygon class="cls-11" points="55.91 53.96 54.46 53.96 54.34 53.66 55.76 53.65 55.91 53.96"/><polygon class="cls-11" points="57.82 53.96 56.37 53.96 56.21 53.65 57.65 53.65 57.82 53.96"/><polygon class="cls-11" points="59.73 53.96 58.27 53.96 58.1 53.65 59.55 53.65 59.73 53.96"/><polygon class="cls-11" points="58.05 54.39 54.65 54.39 54.52 54.08 57.88 54.07 58.05 54.39"/><polygon class="cls-11" points="59.99 54.39 58.51 54.39 58.33 54.07 59.8 54.07 59.99 54.39"/><polygon class="Graphic-Style-202" points="55.29 52.68 53.9 52.68 53.77 52.4 55.16 52.4 55.29 52.68"/><polygon class="Graphic-Style-202" points="57.13 52.67 55.72 52.68 55.59 52.4 56.97 52.39 57.13 52.67"/><polygon class="Graphic-Style-202" points="58.96 52.67 57.55 52.67 57.4 52.39 58.79 52.39 58.96 52.67"/><polygon class="Graphic-Style-202" points="55.49 53.08 54.08 53.09 53.95 52.8 55.35 52.8 55.49 53.08"/><polygon class="Graphic-Style-202" points="57.35 53.08 55.92 53.08 55.78 52.79 57.18 52.79 57.35 53.08"/><polygon class="Graphic-Style-202" points="59.2 53.08 57.78 53.08 57.62 52.79 59.03 52.79 59.2 53.08"/><polygon class="Graphic-Style-202" points="55.7 53.52 54.27 53.52 54.13 53.22 55.56 53.22 55.7 53.52"/><polygon class="Graphic-Style-202" points="57.58 53.52 56.14 53.52 55.99 53.22 57.42 53.22 57.58 53.52"/><polygon class="Graphic-Style-202" points="59.46 53.51 58.02 53.51 57.85 53.22 59.29 53.22 59.46 53.51"/><polygon class="Graphic-Style-202" points="55.91 53.96 54.46 53.96 54.34 53.66 55.76 53.65 55.91 53.96"/><polygon class="Graphic-Style-202" points="57.82 53.96 56.37 53.96 56.21 53.65 57.65 53.65 57.82 53.96"/><polygon class="Graphic-Style-202" points="59.73 53.96 58.27 53.96 58.1 53.65 59.55 53.65 59.73 53.96"/><polygon class="Graphic-Style-202" points="58.05 54.39 54.65 54.39 54.52 54.08 57.88 54.07 58.05 54.39"/><polygon class="Graphic-Style-202" points="59.99 54.39 58.51 54.39 58.33 54.07 59.8 54.07 59.99 54.39"/><polygon class="cls-12" points="51.04 53.95 49.59 53.95 49.5 53.65 50.93 53.64 51.04 53.95"/><polygon class="cls-12" points="51.19 54.39 49.73 54.39 49.63 54.07 51.08 54.08 51.19 54.39"/><polygon class="cls-12" points="53.1 54.39 51.63 54.39 51.53 54.08 52.97 54.07 53.1 54.39"/><polygon class="cls-12" points="49.33 54.39 47.88 54.39 47.8 54.08 49.25 54.08 49.33 54.39"/><polygon class="Graphic-Style-202" points="51.04 53.95 49.59 53.95 49.5 53.65 50.93 53.64 51.04 53.95"/><polygon class="Graphic-Style-202" points="51.19 54.39 49.73 54.39 49.63 54.07 51.08 54.08 51.19 54.39"/><polygon class="Graphic-Style-202" points="53.1 54.39 51.63 54.39 51.53 54.08 52.97 54.07 53.1 54.39"/><polygon class="Graphic-Style-202" points="49.33 54.39 47.88 54.39 47.8 54.08 49.25 54.08 49.33 54.39"/><polygon class="cls-13" points="48.68 52.11 47.32 52.11 47.26 51.84 48.6 51.84 48.68 52.11"/><polygon class="cls-13" points="50.46 52.1 49.1 52.11 49.02 51.84 50.37 51.83 50.46 52.1"/><polygon class="cls-13" points="52.24 52.1 50.88 52.1 50.78 51.83 52.13 51.83 52.24 52.1"/><polygon class="cls-13" points="48.68 52.11 47.32 52.11 47.26 51.84 48.6 51.84 48.68 52.11"/><polygon class="cls-13" points="50.46 52.1 49.1 52.11 49.02 51.84 50.37 51.83 50.46 52.1"/><polygon class="cls-13" points="52.24 52.1 50.88 52.1 50.78 51.83 52.13 51.83 52.24 52.1"/><polygon class="cls-13" points="48.68 52.11 47.32 52.11 47.26 51.84 48.6 51.84 48.68 52.11"/><polygon class="cls-13" points="50.46 52.1 49.1 52.11 49.02 51.84 50.37 51.83 50.46 52.1"/><polygon class="cls-13" points="52.24 52.1 50.88 52.1 50.78 51.83 52.13 51.83 52.24 52.1"/><polygon class="cls-13" points="48.85 52.7 47.47 52.7 47.4 52.42 48.77 52.42 48.85 52.7"/><polygon class="cls-13" points="50.66 52.7 49.28 52.7 49.19 52.41 50.56 52.41 50.66 52.7"/><polygon class="cls-13" points="52.48 52.69 51.09 52.7 50.98 52.41 52.37 52.41 52.48 52.69"/><polygon class="cls-13" points="48.97 53.13 47.57 53.13 47.5 52.84 48.89 52.84 48.97 53.13"/><polygon class="cls-13" points="50.81 53.13 49.4 53.13 49.31 52.84 50.71 52.84 50.81 53.13"/><polygon class="cls-13" points="52.65 53.13 51.24 53.13 51.14 52.84 52.55 52.84 52.65 53.13"/><polygon class="cls-14" points="48.68 52.11 47.32 52.11 47.26 51.84 48.6 51.84 48.68 52.11"/><polygon class="cls-14" points="50.46 52.1 49.1 52.11 49.02 51.84 50.37 51.83 50.46 52.1"/><polygon class="cls-14" points="52.24 52.1 50.88 52.1 50.78 51.83 52.13 51.83 52.24 52.1"/><polygon class="Graphic-Style-202" points="48.68 52.11 47.32 52.11 47.26 51.84 48.6 51.84 48.68 52.11"/><polygon class="Graphic-Style-202" points="50.46 52.1 49.1 52.11 49.02 51.84 50.37 51.83 50.46 52.1"/><polygon class="Graphic-Style-202" points="52.24 52.1 50.88 52.1 50.78 51.83 52.13 51.83 52.24 52.1"/><polygon class="Graphic-Style-202" points="48.85 52.7 47.47 52.7 47.4 52.42 48.77 52.42 48.85 52.7"/><polygon class="Graphic-Style-202" points="50.66 52.7 49.28 52.7 49.19 52.41 50.56 52.41 50.66 52.7"/><polygon class="Graphic-Style-202" points="52.48 52.69 51.09 52.7 50.98 52.41 52.37 52.41 52.48 52.69"/><polygon class="Graphic-Style-202" points="48.97 53.13 47.57 53.13 47.5 52.84 48.89 52.84 48.97 53.13"/><polygon class="Graphic-Style-202" points="50.81 53.13 49.4 53.13 49.31 52.84 50.71 52.84 50.81 53.13"/><polygon class="Graphic-Style-202" points="52.65 53.13 51.24 53.13 51.14 52.84 52.55 52.84 52.65 53.13"/><path class="Graphic-Style-202" d="M60.43,52.11s-.11.07-.28.07H53.42c-.18,0-.34,0-.35-.07L53,51.85s.12-.07.29-.07h6.65a.76.76,0,0,1,.36.06Z"/></g></g></g></svg>