<?xml version="1.0" encoding="utf-8"?>
<!-- Generator: Adobe Illustrator 24.3.0, SVG Export Plug-In . SVG Version: 6.00 Build 0)  -->
<svg version="1.1" id="Layer_2" xmlns="http://www.w3.org/2000/svg" xmlns:xlink="http://www.w3.org/1999/xlink" x="0px" y="0px"
	 viewBox="0 0 507.4 266.8" style="enable-background:new 0 0 507.4 266.8;" xml:space="preserve">
<style type="text/css">
	.st0{fill:url(#SVGID_1_);}
	.st1{fill:url(#SVGID_2_);}
	.st2{fill:url(#SVGID_3_);}
	.st3{fill:#474F54;}
	.st4{fill:url(#SVGID_4_);}
	.st5{fill:url(#SVGID_5_);}
	.st6{fill:#FFBD01;}
	.st7{fill:url(#SVGID_6_);}
	.st8{fill:url(#SVGID_7_);}
	.st9{fill:url(#SVGID_8_);}
	.st10{fill:#6AAEF8;}
	.st11{fill:#CA0000;}
	.st12{fill:#FFFFFF;}
	.st13{fill:url(#SVGID_9_);}
	.st14{fill:#83817E;}
	.st15{fill:url(#SVGID_10_);}
	.st16{fill:url(#SVGID_11_);}
	.st17{fill:url(#SVGID_12_);}
	.st18{fill:url(#SVGID_13_);}
	.st19{fill:url(#SVGID_14_);}
	.st20{fill:url(#SVGID_15_);}
	.st21{fill:url(#SVGID_16_);}
	.st22{fill:url(#SVGID_17_);}
	.st23{fill:url(#SVGID_18_);}
	.st24{fill:url(#SVGID_19_);}
	.st25{fill:url(#SVGID_20_);}
	.st26{fill:url(#SVGID_21_);}
	.st27{fill:url(#SVGID_22_);}
	.st28{fill:url(#SVGID_23_);}
	.st29{fill:url(#SVGID_24_);}
	.st30{fill:url(#SVGID_25_);}
	.st31{fill:url(#SVGID_26_);}
	.st32{fill:#FF5E00;}
	.st33{fill:#FF6F01;}
	.st34{fill:url(#SVGID_27_);}
	.st35{fill:url(#SVGID_28_);}
	.st36{fill:url(#SVGID_29_);}
	.st37{fill:#FFA200;}
	.st38{fill:#AB3C00;}
	.st39{fill:url(#SVGID_30_);}
	.st40{fill:url(#SVGID_31_);}
	.st41{fill:url(#SVGID_32_);}
	.st42{fill:url(#SVGID_33_);}
	.st43{fill:url(#SVGID_34_);}
	.st44{fill:#C1272D;}
	.st45{fill:#0071BC;}
</style>
<g>
	<g>
		<g>
			<g>
				<linearGradient id="SVGID_1_" gradientUnits="userSpaceOnUse" x1="243.1804" y1="179.6576" x2="243.1804" y2="217.0783">
					<stop  offset="0" style="stop-color:#8C8C8C"/>
					<stop  offset="1" style="stop-color:#000000"/>
				</linearGradient>
				<path class="st0" d="M234.2,202.5l0.3-4.7c0,0,0.8,0.1,2.1,0.1l0,0c2.5,0.1,6.9-0.4,7.9-1.2l0,0c2.2-1.3,3-5,3-8.2l0,0
					c0-1.1-0.1-2.1-0.2-2.9l0,0c-0.1-0.7-0.1-1-0.2-1.1l0,0l4.6-0.9c0,0.1,0.4,2.1,0.4,4.8l0,0c0,3.7-0.6,9-5,12.1l0,0
					c-3.2,2-7.6,1.9-10.5,2l0,0C235.2,202.6,234.3,202.5,234.2,202.5L234.2,202.5z M247.1,184.5
					C247.1,184.5,247.1,184.5,247.1,184.5L247.1,184.5L247.1,184.5L247.1,184.5L247.1,184.5z"/>
			</g>
			<linearGradient id="SVGID_2_" gradientUnits="userSpaceOnUse" x1="222.7312" y1="158.1631" x2="222.7312" y2="208.649">
				<stop  offset="0" style="stop-color:#8C8C8C"/>
				<stop  offset="1" style="stop-color:#000000"/>
			</linearGradient>
			<rect x="208.9" y="193.5" class="st1" width="27.7" height="15.1"/>
			<linearGradient id="SVGID_3_" gradientUnits="userSpaceOnUse" x1="259.3718" y1="165.9681" x2="259.3718" y2="216.4439">
				<stop  offset="0" style="stop-color:#8C8C8C"/>
				<stop  offset="1" style="stop-color:#000000"/>
			</linearGradient>
			<rect x="245.5" y="201.3" class="st2" width="27.7" height="15.1"/>
			<rect x="289.6" y="189.4" width="28.8" height="23.4"/>
			<rect x="431.5" y="191.8" width="20.3" height="18.5"/>
			<rect x="307.5" y="233.3" class="st3" width="139.2" height="9.7"/>
			<linearGradient id="SVGID_4_" gradientUnits="userSpaceOnUse" x1="387.0324" y1="167.4183" x2="387.0324" y2="195.1049">
				<stop  offset="0" style="stop-color:#8C8C8C"/>
				<stop  offset="1" style="stop-color:#000000"/>
			</linearGradient>
			<rect x="273.6" y="186.8" class="st4" width="226.9" height="8.3"/>
			<rect x="205" y="208.5" width="260.4" height="25.7"/>
			<linearGradient id="SVGID_5_" gradientUnits="userSpaceOnUse" x1="87.5893" y1="258.4802" x2="87.5893" y2="240.7527">
				<stop  offset="0" style="stop-color:#8C8C8C"/>
				<stop  offset="1" style="stop-color:#000000"/>
			</linearGradient>
			<path class="st5" d="M133.9,243.5c1.6-4.8,2.5-10,2.5-15.3c0-26.9-21.8-48.8-48.8-48.8c-26.9,0-48.8,21.8-48.8,48.8
				c0,5.4,0.9,10.5,2.5,15.3H133.9z"/>
			<path class="st6" d="M206.6,243.5c1.7,0,5.2-2,5.2-5.5c0-14.4,0-64,0-104c0-48.4-4.7-87.1-4.7-89.1c0-4.1-5.8-5.1-8.5-5.1
				c-11,0-15.3,0-20.9,0c-20.6,0-40.1,12.7-56.2,34.5c-4,5.4-41.3,56.8-47.2,59.5c-18,5.9-42.7,16.1-50.7,19.5
				c-3.2,1.4-9.1,5-9.1,11.5c0,1.8,0,29.3,0,51.2c0,15,10.4,27.5,27.9,27.5c-1.6-4.7-2.4-9.8-2.4-15c0-26.4,21.4-47.7,47.7-47.7
				c26.4,0,47.7,21.4,47.7,47.7c0,5.2-0.9,10.3-2.4,15C156.1,243.5,181.1,243.5,206.6,243.5z"/>
			<linearGradient id="SVGID_6_" gradientUnits="userSpaceOnUse" x1="-6.0403" y1="180.0786" x2="35.7707" y2="180.0786">
				<stop  offset="0" style="stop-color:#EBF7F7"/>
				<stop  offset="1" style="stop-color:#9CBFFF"/>
			</linearGradient>
			<path class="st7" d="M22.6,194.2c-0.7,0.2-1.5,0.3-2.4,0.3c0,0-2.9,0-5.6,0c-3.7,0-4.1-28.7,0-28.7c2.1,0,5.8,0,8.6,0
				C25.2,165.7,25.3,193.4,22.6,194.2z"/>
			<linearGradient id="SVGID_7_" gradientUnits="userSpaceOnUse" x1="36.6827" y1="179.9543" x2="20.0924" y2="179.9543">
				<stop  offset="0" style="stop-color:#FFBF05"/>
				<stop  offset="0.2026" style="stop-color:#FFA80A"/>
				<stop  offset="0.5314" style="stop-color:#FF8811"/>
				<stop  offset="0.809" style="stop-color:#FF7515"/>
				<stop  offset="1" style="stop-color:#FF6E17"/>
			</linearGradient>
			<path class="st8" d="M28.2,186.8c-1.6,4.4-2.9,6.6-5.6,7.3c-2.2,0-2.2-28.5,0.5-28.5c1.8,0,3.6,0,3.6,0c4.9-0.2,6.8,3.9,5.3,8.8
				L28.2,186.8z"/>
			<g>
				<linearGradient id="SVGID_8_" gradientUnits="userSpaceOnUse" x1="23.6269" y1="145.3519" x2="23.6269" y2="194.4672">
					<stop  offset="0" style="stop-color:#FF9100"/>
					<stop  offset="7.767987e-02" style="stop-color:#F98E03"/>
					<stop  offset="0.4029" style="stop-color:#E3820F"/>
					<stop  offset="0.7157" style="stop-color:#D57A17"/>
					<stop  offset="1" style="stop-color:#D17819"/>
				</linearGradient>
				<path class="st9" d="M27.9,186.7c-1.5,4.3-2.8,6.4-5.3,7.1l-0.1,0c-0.7,0.2-1.5,0.3-2.4,0.3c0,0-2.9,0-5.6,0c0,0-0.1,0-0.2,0
					c0,0.2,0,0.4,0,0.7c0.1,0,0.1,0,0.2,0.1c2.7,0,5.6,0,5.6,0c0.9,0,1.7-0.1,2.4-0.3l0.1,0l0.1,0c2.9-0.8,4.3-3.2,5.8-7.6l3.7-12.3
					c0.4-1.1,0.5-2.2,0.5-3.3c0-3.4-2.1-6-5.8-6c-0.1,0-0.2,0-0.4,0c-0.3,0-1.9,0-3.4,0l0.1,0c-2.9,0-6.7,0-8.7,0
					c-0.1,0-0.1,0.1-0.2,0.1c0,0.2,0,0.4,0,0.7c0,0,0.1-0.1,0.1-0.1c0,0,0,0,0.1,0c2.1,0,5.8,0,8.5,0c1.9,0,3.6,0,3.6,0v-0.3l0,0.3
					c0.1,0,0.2,0,0.3,0c3.4,0,5.1,2.2,5.1,5.3c0,0.9-0.2,2-0.5,3.1L27.9,186.7z"/>
			</g>
			<path class="st10" d="M114,81.7c1.7-1.8,2.1-2.1,3-2.4c0,0,2.8-0.9,1.8,1.2c-1,2-22.2,44.7-23.6,47.4c-3.2,6.3-6.1,10.6-20.8,8
				c-1.3-0.2-3-1.5-0.3-5.6C78.2,123.9,103.6,92.7,114,81.7z"/>
			<path class="st11" d="M45,208.5c-2.2,5.8-6,21.2-2.1,35c0,0-20.8,0-22.4,0c-1.6,0-5.8-0.2-8.5-3.8C9.2,236,4.4,222,5.5,215.7
				c1-5.4,7.3-10,10-10c2.3,0,22.9,0.2,28.9,0.2C45.3,206,45.9,206.1,45,208.5z"/>
			<g>
				<path d="M87.6,249.1c-12.2,0-22-9.9-22-22c0-12.2,9.9-22,22-22c12.2,0,22,9.9,22,22C109.6,239.3,99.8,249.1,87.6,249.1z
					 M87.6,190.5c-20.2,0-36.6,16.4-36.6,36.6s16.4,36.6,36.6,36.6c20.2,0,36.6-16.4,36.6-36.6S107.8,190.5,87.6,190.5z"/>
				<path class="st12" d="M109.6,227.1c0,12.2-9.9,22-22,22c-12.2,0-22-9.9-22-22c0-12.2,9.9-22,22-22
					C99.8,205.1,109.6,214.9,109.6,227.1z"/>
				<path d="M95.2,227.1c0,4.2-3.4,7.6-7.6,7.6c-4.2,0-7.6-3.4-7.6-7.6c0-4.2,3.4-7.6,7.6-7.6C91.8,219.5,95.2,222.9,95.2,227.1z"/>
				<g>
					<linearGradient id="SVGID_9_" gradientUnits="userSpaceOnUse" x1="87.5891" y1="234.425" x2="87.5891" y2="221.1679">
						<stop  offset="0" style="stop-color:#EDEDED"/>
						<stop  offset="1" style="stop-color:#474747"/>
					</linearGradient>
					<path class="st13" d="M79.5,227.1c0-4.5,3.6-8.1,8.1-8.1l0,0c4.5,0,8.1,3.6,8.1,8.1l0,0c0,4.5-3.6,8.1-8.1,8.1l0,0
						C83.1,235.2,79.5,231.6,79.5,227.1L79.5,227.1z M80.5,227.1c0,3.9,3.2,7.1,7.1,7.1l0,0c3.9,0,7.1-3.2,7.1-7.1l0,0
						c0-3.9-3.2-7.1-7.1-7.1l0,0C83.7,220,80.5,223.2,80.5,227.1L80.5,227.1z"/>
				</g>
				<g>
					<path class="st14" d="M64.9,227.1c0-12.5,10.1-22.7,22.7-22.7l0,0c12.5,0,22.7,10.1,22.7,22.7l0,0c0,12.5-10.1,22.7-22.7,22.7
						l0,0C75.1,249.8,64.9,239.6,64.9,227.1L64.9,227.1z M66.2,227.1c0,11.8,9.6,21.4,21.4,21.4l0,0c11.8,0,21.4-9.6,21.4-21.4l0,0
						c0-11.8-9.6-21.4-21.4-21.4l0,0C75.8,205.7,66.2,215.3,66.2,227.1L66.2,227.1z"/>
				</g>
				<linearGradient id="SVGID_10_" gradientUnits="userSpaceOnUse" x1="62.2689" y1="187.1545" x2="64.032" y2="188.9176">
					<stop  offset="0" style="stop-color:#5D5D5F"/>
					<stop  offset="0.2391" style="stop-color:#5A5A5B"/>
					<stop  offset="0.455" style="stop-color:#4F4F50"/>
					<stop  offset="0.6619" style="stop-color:#3D3D3E"/>
					<stop  offset="0.8621" style="stop-color:#242424"/>
					<stop  offset="1" style="stop-color:#0E0E0E"/>
				</linearGradient>
				<path class="st15" d="M91.6,212.5c0,2.2-1.8,4-4,4c-2.2,0-4-1.8-4-4c0-2.2,1.8-4,4-4C89.8,208.5,91.6,210.3,91.6,212.5z"/>
				<linearGradient id="SVGID_11_" gradientUnits="userSpaceOnUse" x1="47.6594" y1="201.7286" x2="49.4239" y2="203.4931">
					<stop  offset="0" style="stop-color:#5D5D5F"/>
					<stop  offset="0.2391" style="stop-color:#5A5A5B"/>
					<stop  offset="0.455" style="stop-color:#4F4F50"/>
					<stop  offset="0.6619" style="stop-color:#3D3D3E"/>
					<stop  offset="0.8621" style="stop-color:#242424"/>
					<stop  offset="1" style="stop-color:#0E0E0E"/>
				</linearGradient>
				<path class="st16" d="M73,223.1c2.2,0,4,1.8,4,4c0,2.2-1.8,4-4,4c-2.2,0-4-1.8-4-4C69,224.9,70.8,223.1,73,223.1z"/>
				<linearGradient id="SVGID_12_" gradientUnits="userSpaceOnUse" x1="47.6402" y1="201.7671" x2="49.404" y2="203.531">
					<stop  offset="0" style="stop-color:#5D5D5F"/>
					<stop  offset="0.2391" style="stop-color:#5A5A5B"/>
					<stop  offset="0.455" style="stop-color:#4F4F50"/>
					<stop  offset="0.6619" style="stop-color:#3D3D3E"/>
					<stop  offset="0.8621" style="stop-color:#242424"/>
					<stop  offset="1" style="stop-color:#0E0E0E"/>
				</linearGradient>
				<path class="st17" d="M83.6,241.7c0-2.2,1.8-4,4-4c2.2,0,4,1.8,4,4c0,2.2-1.8,4-4,4C85.3,245.7,83.6,243.9,83.6,241.7z"/>
				<linearGradient id="SVGID_13_" gradientUnits="userSpaceOnUse" x1="62.2462" y1="187.1885" x2="64.0094" y2="188.9517">
					<stop  offset="0" style="stop-color:#5D5D5F"/>
					<stop  offset="0.2391" style="stop-color:#5A5A5B"/>
					<stop  offset="0.455" style="stop-color:#4F4F50"/>
					<stop  offset="0.6619" style="stop-color:#3D3D3E"/>
					<stop  offset="0.8621" style="stop-color:#242424"/>
					<stop  offset="1" style="stop-color:#0E0E0E"/>
				</linearGradient>
				<path class="st18" d="M102.2,231.1c-2.2,0-4-1.8-4-4c0-2.2,1.8-4,4-4c2.2,0,4,1.8,4,4C106.2,229.3,104.4,231.1,102.2,231.1z"/>
			</g>
			<linearGradient id="SVGID_14_" gradientUnits="userSpaceOnUse" x1="47.591" y1="171.3376" x2="47.591" y2="183.9855">
				<stop  offset="0" style="stop-color:#8C8C8C"/>
				<stop  offset="1" style="stop-color:#000000"/>
			</linearGradient>
			<path class="st19" d="M56.3,177.3c0,2.9-2.3,5.2-5.2,5.2H44c-2.9,0-5.2-2.3-5.2-5.2l0,0c0-2.9,2.3-5.2,5.2-5.2h7.2
				C54,172.2,56.3,174.5,56.3,177.3L56.3,177.3z"/>
			<linearGradient id="SVGID_15_" gradientUnits="userSpaceOnUse" x1="174.2019" y1="34.1282" x2="174.2019" y2="79.3506">
				<stop  offset="0" style="stop-color:#FFFFFF"/>
				<stop  offset="0.1326" style="stop-color:#FBF5E8"/>
				<stop  offset="0.4121" style="stop-color:#F1DBAC"/>
				<stop  offset="0.8117" style="stop-color:#E1B24C"/>
				<stop  offset="1" style="stop-color:#D99E1D"/>
			</linearGradient>
			<path class="st20" d="M183.1,47.3c4.7,0,5.6,0,9.8,0c3.1,0,7.7,0.6,11.3,4.2c-3.3-6.5-9.9-7.1-13.6-7.1c-4.2,0-5.5,0-8.4,0
				c-19.9,0-30.5,7.4-38.1,15.7C157.7,47.7,173.4,47.3,183.1,47.3z"/>
			<linearGradient id="SVGID_16_" gradientUnits="userSpaceOnUse" x1="47.3623" y1="171.0173" x2="47.3623" y2="180.636">
				<stop  offset="0" style="stop-color:#FFBF05"/>
				<stop  offset="0.2026" style="stop-color:#FFA80A"/>
				<stop  offset="0.5314" style="stop-color:#FF8811"/>
				<stop  offset="0.809" style="stop-color:#FF7515"/>
				<stop  offset="1" style="stop-color:#FF6E17"/>
			</linearGradient>
			<path class="st21" d="M56.1,176.2c0,2.9-2.3,5.2-5.2,5.2h-7.2c-2.9,0-5.2-2.3-5.2-5.2l0,0c0-2.9,2.3-5.2,5.2-5.2h7.2
				C53.8,171,56.1,173.3,56.1,176.2L56.1,176.2z"/>
			<path class="st10" d="M170.9,128.4c0,4.5-3.7,8.2-8.2,8.2h-54.1c-7.7,0-10.4-2.6-8.2-8.2c2.2-5.6,22.4-43.1,22.4-43.1
				c2-4.5,5.2-6.5,8.9-6.5c4.1,0,31,0,31,0c4.5,0,8.2,3.7,8.2,8.2V128.4z"/>
			<g>
				<linearGradient id="SVGID_17_" gradientUnits="userSpaceOnUse" x1="184.9394" y1="-26.1588" x2="184.9394" y2="216.0397">
					<stop  offset="0" style="stop-color:#FFED9E"/>
					<stop  offset="0.1408" style="stop-color:#EACC66"/>
					<stop  offset="0.8545" style="stop-color:#FF9100"/>
					<stop  offset="0.8658" style="stop-color:#F98E03"/>
					<stop  offset="0.9131" style="stop-color:#E3820F"/>
					<stop  offset="0.9586" style="stop-color:#D57A17"/>
					<stop  offset="1" style="stop-color:#D17819"/>
				</linearGradient>
				<path class="st22" d="M185.6,166.9h2.7c0.1-4.5,0.1-9.2,0.1-14c0-23.4-1.1-50.2-4.3-78l-2.7,0.3c3.2,27.7,4.2,54.3,4.2,77.6
					C185.7,157.7,185.6,162.4,185.6,166.9z"/>
				<linearGradient id="SVGID_18_" gradientUnits="userSpaceOnUse" x1="161.1213" y1="-26.1606" x2="161.1213" y2="216.0384">
					<stop  offset="0" style="stop-color:#FFED9E"/>
					<stop  offset="0.1408" style="stop-color:#EACC66"/>
					<stop  offset="0.8545" style="stop-color:#FF9100"/>
					<stop  offset="0.8658" style="stop-color:#F98E03"/>
					<stop  offset="0.9131" style="stop-color:#E3820F"/>
					<stop  offset="0.9586" style="stop-color:#D57A17"/>
					<stop  offset="1" style="stop-color:#D17819"/>
				</linearGradient>
				<path class="st23" d="M184.1,203c-1,14.8-2.1,24.9-2.5,28.2h-37c-0.2-11.5-2.5-20.7-6.1-28.2h-3c3.9,7.6,6.4,17.1,6.5,29.5v1.4
					H184l0.2-1.2c0,0,1.4-11.2,2.6-29.7H184.1z"/>
				<linearGradient id="SVGID_19_" gradientUnits="userSpaceOnUse" x1="96.2314" y1="-26.1628" x2="96.2314" y2="216.0415">
					<stop  offset="0" style="stop-color:#FFED9E"/>
					<stop  offset="0.1408" style="stop-color:#EACC66"/>
					<stop  offset="0.8545" style="stop-color:#FF9100"/>
					<stop  offset="0.8658" style="stop-color:#F98E03"/>
					<stop  offset="0.9131" style="stop-color:#E3820F"/>
					<stop  offset="0.9586" style="stop-color:#D57A17"/>
					<stop  offset="1" style="stop-color:#D17819"/>
				</linearGradient>
				<path class="st24" d="M95,166.9h3.1c-0.7-0.9-1-1.7-1-2.5c0-12.3,0-40.4,0-40.4l-2.8,5.5c0,0,0.1,22.7,0.1,34.9
					C94.4,165.3,94.6,166.1,95,166.9z"/>
			</g>
			<g>
				<linearGradient id="SVGID_20_" gradientUnits="userSpaceOnUse" x1="116.7253" y1="-26.1588" x2="116.7253" y2="216.0399">
					<stop  offset="0" style="stop-color:#FFED9E"/>
					<stop  offset="0.1408" style="stop-color:#EACC66"/>
					<stop  offset="0.8545" style="stop-color:#FF9100"/>
					<stop  offset="0.8658" style="stop-color:#F98E03"/>
					<stop  offset="0.9131" style="stop-color:#E3820F"/>
					<stop  offset="0.9586" style="stop-color:#D57A17"/>
					<stop  offset="1" style="stop-color:#D17819"/>
				</linearGradient>
				<path class="st25" d="M120.3,181.8c-6-4.5-12-7.6-16.4-10.3c-2.7-1.7-4.7-3.2-5.8-4.6H95c1.2,2.7,4,4.7,7.5,6.9
					c9.3,5.8,24.4,12.6,33,29.2h3C133.8,193.4,127,186.7,120.3,181.8z"/>
				<linearGradient id="SVGID_21_" gradientUnits="userSpaceOnUse" x1="186.177" y1="-26.1548" x2="186.177" y2="216.0393">
					<stop  offset="0" style="stop-color:#FFED9E"/>
					<stop  offset="0.1408" style="stop-color:#EACC66"/>
					<stop  offset="0.8545" style="stop-color:#FF9100"/>
					<stop  offset="0.8658" style="stop-color:#F98E03"/>
					<stop  offset="0.9131" style="stop-color:#E3820F"/>
					<stop  offset="0.9586" style="stop-color:#D57A17"/>
					<stop  offset="1" style="stop-color:#D17819"/>
				</linearGradient>
				<path class="st26" d="M188.3,166.9h-2.7c-0.2,13.8-0.8,26.1-1.5,36.1h2.7C187.5,192.9,188,180.7,188.3,166.9z"/>
			</g>
			<g>
				<linearGradient id="SVGID_22_" gradientUnits="userSpaceOnUse" x1="161.5393" y1="156.4648" x2="181.0046" y2="156.4648">
					<stop  offset="0" style="stop-color:#B3B3B3"/>
					<stop  offset="1" style="stop-color:#9C9C9C"/>
				</linearGradient>
				<path class="st27" d="M181,164.8c0,1.1-0.9,1.9-1.9,1.9h-15.6c-1.1,0-1.9-0.9-1.9-1.9v-16.8c0-1.1,0.9-1.9,1.9-1.9h15.6
					c1.1,0,1.9,0.9,1.9,1.9V164.8z"/>
				<linearGradient id="SVGID_23_" gradientUnits="userSpaceOnUse" x1="162.9651" y1="156.4632" x2="177.8" y2="156.4632">
					<stop  offset="0" style="stop-color:#F2F2F2"/>
					<stop  offset="0.337" style="stop-color:#999999"/>
					<stop  offset="0.6597" style="stop-color:#4B4B4B"/>
					<stop  offset="0.8874" style="stop-color:#1A1A1A"/>
					<stop  offset="1" style="stop-color:#080808"/>
				</linearGradient>
				<path class="st28" d="M163,162.7c0,1.1,0.9,2,1.9,2h11c1.1,0,1.9-0.9,1.9-2v-12.4c0-1.1-0.9-2-1.9-2h-11c-1.1,0-1.9,0.9-1.9,2
					V162.7z"/>
				<linearGradient id="SVGID_24_" gradientUnits="userSpaceOnUse" x1="173.114" y1="156.4632" x2="179.1272" y2="156.4632">
					<stop  offset="0" style="stop-color:#000000"/>
					<stop  offset="1" style="stop-color:#080808"/>
				</linearGradient>
				<path class="st29" d="M179.1,162.7c0,1.1-0.9,1.9-1.9,1.9h-2.1c-1.1,0-1.9-0.9-1.9-1.9v-12.4c0-1.1,0.9-1.9,1.9-1.9h2.1
					c1.1,0,1.9,0.9,1.9,1.9V162.7z"/>
			</g>
			<g>
				<path class="st6" d="M505.1,182c0,1.7-1.4,3.1-3.1,3.1H226c-1.7,0-3.1-1.4-3.1-3.1V6.6c0-1.7,1.4-3.1,3.1-3.1h276
					c1.7,0,3.1,1.4,3.1,3.1V182z"/>
			</g>
			<g>
				<linearGradient id="SVGID_25_" gradientUnits="userSpaceOnUse" x1="362.864" y1="46.7197" x2="362.864" y2="25.6617">
					<stop  offset="0" style="stop-color:#FFFFFF"/>
					<stop  offset="1" style="stop-color:#D4D4D4"/>
				</linearGradient>
				<polygon class="st30" points="222.1,81.4 222.1,76.7 503.6,76.7 503.6,81.4 222.1,81.4 				"/>
			</g>
			<g>
				<linearGradient id="SVGID_26_" gradientUnits="userSpaceOnUse" x1="418.4197" y1="160.4289" x2="418.4197" y2="189.273">
					<stop  offset="0" style="stop-color:#8C8C8C"/>
					<stop  offset="1" style="stop-color:#000000"/>
				</linearGradient>
				<polygon class="st31" points="426.9,249.6 426.9,217.8 405.2,185.9 409.1,183.3 431.6,216.4 431.6,249.6 426.9,249.6 				"/>
			</g>
			<g>
				<polygon class="st32" points="222.1,78.3 222.1,73.6 503.6,73.6 503.6,78.3 222.1,78.3 				"/>
			</g>
			<g>
				<g>
					<path class="st33" d="M226,187.5c-3,0-5.4-2.4-5.5-5.5l0,0V6.6c0-3,2.4-5.4,5.5-5.5l0,0h276c3,0,5.4,2.4,5.5,5.5l0,0V182
						c0,3-2.4,5.4-5.5,5.5l0,0H226L226,187.5z M225.3,6.6V182c0,0.4,0.4,0.8,0.8,0.8l0,0h276c0.4,0,0.8-0.4,0.8-0.8l0,0l0-175.4
						c0-0.4-0.4-0.8-0.8-0.8l0,0H226C225.6,5.8,225.3,6.2,225.3,6.6L225.3,6.6z"/>
				</g>
			</g>
			<linearGradient id="SVGID_27_" gradientUnits="userSpaceOnUse" x1="491.8904" y1="148.4752" x2="491.8904" y2="211.8807">
				<stop  offset="0" style="stop-color:#8C8C8C"/>
				<stop  offset="1" style="stop-color:#000000"/>
			</linearGradient>
			<rect x="488.4" y="192.9" class="st34" width="7" height="19"/>
			<g>
				<linearGradient id="SVGID_28_" gradientUnits="userSpaceOnUse" x1="499.6184" y1="209.5965" x2="499.6184" y2="198.2271">
					<stop  offset="0" style="stop-color:#FC4719"/>
					<stop  offset="1" style="stop-color:#FF7A0D"/>
				</linearGradient>
				<path class="st35" d="M499.8,196.6h-3.1v12.2h3.1c1.5,0,2.7-1.3,2.7-2.9v-6.3C502.6,197.9,501.3,196.6,499.8,196.6z"/>
				<linearGradient id="SVGID_29_" gradientUnits="userSpaceOnUse" x1="494.091" y1="198.4134" x2="494.091" y2="215.0515">
					<stop  offset="0" style="stop-color:#6E6E6E"/>
					<stop  offset="1" style="stop-color:#000000"/>
				</linearGradient>
				<path class="st36" d="M497,196.6h-3.1c-1.5,0-2.7,1.3-2.7,2.9v6.3c0,1.6,1.2,2.9,2.7,2.9h3.1V196.6z"/>
			</g>
			<rect x="219.8" y="217.7" class="st37" width="53.8" height="24.5"/>
			<g>
				<path class="st38" d="M218.2,243.8v-26.1v-1.6h56.9v27.6H218.2L218.2,243.8z M221.4,240.6H272v-21.4h-50.7V240.6L221.4,240.6z"
					/>
			</g>
			<g>
				<path d="M376.7,249.1c-12.2,0-22-9.9-22-22c0-12.2,9.9-22,22-22c12.2,0,22,9.9,22,22C398.7,239.3,388.8,249.1,376.7,249.1z
					 M376.7,190.5c-20.2,0-36.6,16.4-36.6,36.6s16.4,36.6,36.6,36.6c20.2,0,36.6-16.4,36.6-36.6S396.9,190.5,376.7,190.5z"/>
				<path class="st12" d="M398.7,227.1c0,12.2-9.9,22-22,22c-12.2,0-22-9.9-22-22c0-12.2,9.9-22,22-22
					C388.8,205.1,398.7,214.9,398.7,227.1z"/>
				<path d="M384.2,227.1c0,4.2-3.4,7.6-7.6,7.6c-4.2,0-7.6-3.4-7.6-7.6c0-4.2,3.4-7.6,7.6-7.6C380.8,219.5,384.2,222.9,384.2,227.1
					z"/>
				<g>
					<linearGradient id="SVGID_30_" gradientUnits="userSpaceOnUse" x1="376.6586" y1="234.425" x2="376.6586" y2="221.1679">
						<stop  offset="0" style="stop-color:#EDEDED"/>
						<stop  offset="1" style="stop-color:#474747"/>
					</linearGradient>
					<path class="st39" d="M368.6,227.1c0-4.5,3.6-8.1,8.1-8.1l0,0c4.5,0,8.1,3.6,8.1,8.1l0,0c0,4.5-3.6,8.1-8.1,8.1l0,0
						C372.2,235.2,368.6,231.6,368.6,227.1L368.6,227.1z M369.6,227.1c0,3.9,3.2,7.1,7.1,7.1l0,0c3.9,0,7.1-3.2,7.1-7.1l0,0
						c0-3.9-3.2-7.1-7.1-7.1l0,0C372.8,220,369.6,223.2,369.6,227.1L369.6,227.1z"/>
				</g>
				<g>
					<path class="st14" d="M354,227.1c0-12.5,10.1-22.7,22.7-22.7l0,0c12.5,0,22.7,10.1,22.7,22.7l0,0c0,12.5-10.1,22.7-22.7,22.7
						l0,0C364.1,249.8,354,239.6,354,227.1L354,227.1z M355.3,227.1c0,11.8,9.6,21.4,21.4,21.4l0,0c11.8,0,21.4-9.6,21.4-21.4l0,0
						c0-11.8-9.6-21.4-21.4-21.4l0,0C364.9,205.7,355.3,215.3,355.3,227.1L355.3,227.1z"/>
				</g>
				<linearGradient id="SVGID_31_" gradientUnits="userSpaceOnUse" x1="351.3382" y1="187.1544" x2="353.1013" y2="188.9175">
					<stop  offset="0" style="stop-color:#5D5D5F"/>
					<stop  offset="0.2391" style="stop-color:#5A5A5B"/>
					<stop  offset="0.455" style="stop-color:#4F4F50"/>
					<stop  offset="0.6619" style="stop-color:#3D3D3E"/>
					<stop  offset="0.8621" style="stop-color:#242424"/>
					<stop  offset="1" style="stop-color:#0E0E0E"/>
				</linearGradient>
				<path class="st40" d="M380.7,212.5c0,2.2-1.8,4-4,4c-2.2,0-4-1.8-4-4c0-2.2,1.8-4,4-4C378.9,208.5,380.7,210.3,380.7,212.5z"/>
				<linearGradient id="SVGID_32_" gradientUnits="userSpaceOnUse" x1="336.7289" y1="201.7286" x2="338.4933" y2="203.493">
					<stop  offset="0" style="stop-color:#5D5D5F"/>
					<stop  offset="0.2391" style="stop-color:#5A5A5B"/>
					<stop  offset="0.455" style="stop-color:#4F4F50"/>
					<stop  offset="0.6619" style="stop-color:#3D3D3E"/>
					<stop  offset="0.8621" style="stop-color:#242424"/>
					<stop  offset="1" style="stop-color:#0E0E0E"/>
				</linearGradient>
				<path class="st41" d="M362.1,223.1c2.2,0,4,1.8,4,4c0,2.2-1.8,4-4,4c-2.2,0-4-1.8-4-4C358.1,224.9,359.9,223.1,362.1,223.1z"/>
				<linearGradient id="SVGID_33_" gradientUnits="userSpaceOnUse" x1="336.7082" y1="201.7658" x2="338.4721" y2="203.5297">
					<stop  offset="0" style="stop-color:#5D5D5F"/>
					<stop  offset="0.2391" style="stop-color:#5A5A5B"/>
					<stop  offset="0.455" style="stop-color:#4F4F50"/>
					<stop  offset="0.6619" style="stop-color:#3D3D3E"/>
					<stop  offset="0.8621" style="stop-color:#242424"/>
					<stop  offset="1" style="stop-color:#0E0E0E"/>
				</linearGradient>
				<path class="st42" d="M372.6,241.7c0-2.2,1.8-4,4-4c2.2,0,4,1.8,4,4c0,2.2-1.8,4-4,4C374.4,245.7,372.6,243.9,372.6,241.7z"/>
				<linearGradient id="SVGID_34_" gradientUnits="userSpaceOnUse" x1="351.3151" y1="187.1877" x2="353.0783" y2="188.9509">
					<stop  offset="0" style="stop-color:#5D5D5F"/>
					<stop  offset="0.2391" style="stop-color:#5A5A5B"/>
					<stop  offset="0.455" style="stop-color:#4F4F50"/>
					<stop  offset="0.6619" style="stop-color:#3D3D3E"/>
					<stop  offset="0.8621" style="stop-color:#242424"/>
					<stop  offset="1" style="stop-color:#0E0E0E"/>
				</linearGradient>
				<path class="st43" d="M391.3,231.1c-2.2,0-4-1.8-4-4c0-2.2,1.8-4,4-4c2.2,0,4,1.8,4,4C395.3,229.3,393.5,231.1,391.3,231.1z"/>
			</g>
		</g>
		<g>
			<g>
				<path class="st44" d="M277.7,32.4h-10.1v6.5h8.4c0.8,0,1.4,0.2,1.8,0.5c0.4,0.4,0.6,0.8,0.6,1.4c0,0.6-0.2,1.1-0.6,1.4
					c-0.4,0.3-1,0.5-1.7,0.5h-8.4v8.3c0,1.1-0.2,1.8-0.7,2.4c-0.5,0.5-1.1,0.8-1.8,0.8c-0.8,0-1.4-0.3-1.9-0.8
					c-0.5-0.5-0.7-1.3-0.7-2.3V31.6c0-0.7,0.1-1.3,0.3-1.8c0.2-0.5,0.6-0.8,1-1c0.5-0.2,1.1-0.3,1.8-0.3h12.1c0.8,0,1.4,0.2,1.8,0.5
					c0.4,0.4,0.6,0.8,0.6,1.4c0,0.6-0.2,1.1-0.6,1.4C279.1,32.2,278.5,32.4,277.7,32.4z"/>
				<path class="st44" d="M290.8,42.9H289v8.1c0,1.1-0.2,1.9-0.7,2.4c-0.5,0.5-1.1,0.8-1.8,0.8c-0.8,0-1.5-0.3-1.9-0.8
					c-0.4-0.5-0.7-1.3-0.7-2.3V31.6c0-1.1,0.2-1.9,0.7-2.4c0.5-0.5,1.3-0.7,2.4-0.7h8.3c1.2,0,2.1,0,3,0.1c0.8,0.1,1.6,0.3,2.2,0.6
					c0.8,0.3,1.5,0.8,2.1,1.4c0.6,0.6,1.1,1.3,1.4,2.2c0.3,0.8,0.5,1.7,0.5,2.6c0,1.9-0.5,3.4-1.6,4.5c-1.1,1.1-2.7,1.9-4.8,2.4
					c0.9,0.5,1.8,1.2,2.6,2.1c0.8,0.9,1.6,1.9,2.2,3c0.7,1.1,1.2,2,1.5,2.9c0.4,0.9,0.5,1.4,0.5,1.8c0,0.3-0.1,0.7-0.3,1
					c-0.2,0.3-0.5,0.6-0.9,0.8c-0.4,0.2-0.8,0.3-1.3,0.3c-0.6,0-1.1-0.1-1.5-0.4c-0.4-0.3-0.7-0.6-1-1c-0.3-0.4-0.7-1-1.1-1.8
					l-2.1-3.4c-0.7-1.3-1.4-2.2-2-2.9c-0.6-0.7-1.2-1.1-1.8-1.3C292.5,43.1,291.7,42.9,290.8,42.9z M293.7,32.3H289v7h4.6
					c1.2,0,2.3-0.1,3.1-0.3c0.8-0.2,1.5-0.6,1.9-1.1c0.4-0.5,0.7-1.2,0.7-2.1c0-0.7-0.2-1.3-0.5-1.9c-0.4-0.5-0.9-0.9-1.5-1.2
					C296.7,32.4,295.5,32.3,293.7,32.3z"/>
				<path class="st44" d="M326,32.4h-11.6v6.2h10.6c0.8,0,1.4,0.2,1.8,0.5c0.4,0.4,0.6,0.8,0.6,1.4c0,0.6-0.2,1-0.6,1.4
					c-0.4,0.4-1,0.5-1.8,0.5h-10.6v7.2h12c0.8,0,1.4,0.2,1.8,0.6c0.4,0.4,0.6,0.9,0.6,1.5c0,0.6-0.2,1.1-0.6,1.5
					c-0.4,0.4-1,0.6-1.8,0.6h-13.9c-1.1,0-1.9-0.2-2.4-0.7c-0.5-0.5-0.7-1.3-0.7-2.4v-19c0-0.7,0.1-1.3,0.3-1.8c0.2-0.5,0.6-0.8,1-1
					c0.5-0.2,1.1-0.3,1.8-0.3H326c0.8,0,1.4,0.2,1.8,0.5c0.4,0.4,0.6,0.8,0.6,1.4c0,0.6-0.2,1.1-0.6,1.4
					C327.5,32.2,326.8,32.4,326,32.4z"/>
				<path class="st44" d="M349.6,32.4h-11.6v6.2h10.6c0.8,0,1.4,0.2,1.8,0.5c0.4,0.4,0.6,0.8,0.6,1.4c0,0.6-0.2,1-0.6,1.4
					c-0.4,0.4-1,0.5-1.8,0.5h-10.6v7.2h12c0.8,0,1.4,0.2,1.8,0.6c0.4,0.4,0.6,0.9,0.6,1.5c0,0.6-0.2,1.1-0.6,1.5
					c-0.4,0.4-1,0.6-1.8,0.6h-13.9c-1.1,0-1.9-0.2-2.4-0.7c-0.5-0.5-0.7-1.3-0.7-2.4v-19c0-0.7,0.1-1.3,0.3-1.8c0.2-0.5,0.6-0.8,1-1
					c0.5-0.2,1.1-0.3,1.8-0.3h13.5c0.8,0,1.4,0.2,1.8,0.5c0.4,0.4,0.6,0.8,0.6,1.4c0,0.6-0.2,1.1-0.6,1.4
					C351,32.2,350.4,32.4,349.6,32.4z"/>
			</g>
			<g>
				<path class="st45" d="M375.2,34.6v-1.4c0-1.6-0.1-2.9-0.2-3.8c-0.1-1-0.3-1.7-0.6-2.2c0.4-0.2,0.8-0.4,1.2-0.5
					c0.4-0.1,0.7-0.2,1-0.2c0.5,0,0.8,0.1,1,0.4c0.2,0.3,0.3,0.7,0.3,1.4c0,0.4-0.1,2-0.2,4.6c-0.1,2.6-0.2,5-0.2,7.2
					c0,2.7,0.1,4.6,0.2,5.8c0.2,1.2,0.4,2.1,0.8,2.7c-0.5,0.2-0.9,0.4-1.2,0.5c-0.4,0.1-0.7,0.2-1,0.2c-0.4,0-0.7-0.1-0.9-0.4
					c-0.2-0.2-0.3-0.6-0.3-1.2c0-0.2,0-0.3,0-0.5c0-0.1,0-0.2,0-0.3c-0.8,0.9-1.7,1.5-2.5,1.9c-0.9,0.4-1.9,0.6-2.9,0.6
					c-2.1,0-3.8-0.7-5.1-2.1c-1.3-1.4-2-3.1-2-5.3c0-2.5,0.8-4.5,2.4-6.1c1.6-1.6,3.7-2.4,6.2-2.4c0.6,0,1.2,0.1,1.9,0.2
					C373.7,34.1,374.4,34.3,375.2,34.6z M375,44.8c0-1,0-2.1,0.1-3.3c0-1.2,0-1.8,0-2c0-0.8,0-1.4,0-1.8c0-0.4,0-0.7,0-1.1
					c-0.7-0.3-1.4-0.5-2.1-0.7c-0.6-0.2-1.2-0.2-1.8-0.2c-1.8,0-3.3,0.6-4.3,1.7c-1.1,1.1-1.6,2.7-1.6,4.6c0,1.6,0.4,2.9,1.3,3.9
					c0.9,0.9,2.1,1.4,3.5,1.4c1,0,1.9-0.2,2.7-0.6C373.5,46.4,374.3,45.7,375,44.8z"/>
				<path class="st45" d="M392.9,46.1c0.2,0.3,0.4,0.5,0.5,0.8c0.1,0.2,0.2,0.5,0.2,0.7c0,0.6-0.4,1-1.3,1.4
					c-0.8,0.4-1.9,0.5-3.3,0.5c-2.5,0-4.4-0.7-5.8-2c-1.4-1.4-2.1-3.2-2.1-5.6c0-2.4,0.7-4.4,2.1-5.9c1.4-1.5,3.2-2.3,5.5-2.3
					c1.7,0,3.1,0.5,4.2,1.5c1.1,1,1.7,2.2,1.7,3.7c0,1.2-0.5,2-1.4,2.6c-0.9,0.5-2.5,0.8-4.7,0.8c-0.8,0-1.6,0-2.5-0.1
					c-0.8-0.1-1.6-0.1-2.4-0.3v0.2c0,1.6,0.5,2.9,1.4,3.9c1,0.9,2.3,1.4,3.9,1.4c0.8,0,1.5-0.1,2.1-0.3
					C391.7,46.8,392.3,46.5,392.9,46.1z M383.8,40c0.7,0.1,1.4,0.2,2.3,0.3c0.8,0.1,1.7,0.1,2.7,0.1c1.3,0,2.2-0.1,2.6-0.4
					c0.4-0.2,0.7-0.7,0.7-1.3c0-0.9-0.3-1.7-1-2.2c-0.7-0.6-1.5-0.8-2.7-0.8c-1.2,0-2.2,0.4-3,1.2C384.5,37.5,384,38.6,383.8,40z"/>
				<path class="st45" d="M401.6,48.7c-0.4,0.2-0.8,0.4-1.2,0.5c-0.4,0.1-0.7,0.2-1.1,0.2c-0.5,0-0.8-0.1-1-0.4
					c-0.2-0.3-0.3-0.8-0.3-1.6c0-1,0.1-2.9,0.2-5.6c0.1-2.8,0.2-5.1,0.2-6.9c0-2.2-0.1-3.9-0.2-5.1c-0.1-1.1-0.4-2-0.7-2.6
					c0.4-0.2,0.8-0.4,1.2-0.5c0.4-0.1,0.7-0.2,1.1-0.2c0.5,0,0.9,0.1,1.1,0.4c0.2,0.3,0.3,0.8,0.3,1.6c0,0.7-0.1,2.4-0.2,5.2
					c-0.1,2.8-0.2,5.3-0.2,7.5c0,2.3,0.1,4,0.2,5.1C401.1,47.3,401.3,48.1,401.6,48.7z"/>
				<path class="st45" d="M409.9,48.7c-0.4,0.2-0.9,0.4-1.2,0.5c-0.4,0.1-0.8,0.2-1.1,0.2c-0.5,0-0.9-0.1-1-0.4
					c-0.2-0.3-0.3-0.8-0.3-1.7c0-0.5,0-1.5,0.1-3.2c0.1-1.7,0.1-3.1,0.1-4.3c0-1.3-0.1-2.4-0.2-3.2c-0.1-0.8-0.3-1.5-0.6-2.1
					c0.4-0.2,0.8-0.4,1.2-0.5c0.4-0.1,0.8-0.2,1.2-0.2c0.5,0,0.8,0.1,1,0.4c0.2,0.2,0.3,0.7,0.3,1.3c0,0.2,0,1.1-0.1,2.7
					c-0.1,1.7-0.1,3.2-0.1,4.7c0,1.4,0.1,2.5,0.2,3.5C409.4,47.4,409.6,48.1,409.9,48.7z M409.8,29.2c0,0.6-0.2,1.1-0.6,1.5
					c-0.4,0.4-0.9,0.6-1.6,0.6c-0.6,0-1-0.2-1.3-0.5c-0.3-0.3-0.5-0.7-0.5-1.3c0-0.6,0.2-1.1,0.6-1.5c0.4-0.4,0.9-0.6,1.5-0.6
					c0.5,0,1,0.2,1.3,0.5C409.6,28.2,409.8,28.6,409.8,29.2z"/>
				<path class="st45" d="M412.1,36c0.4-0.7,0.8-1.3,1.2-1.6c0.4-0.3,0.7-0.5,1-0.5c0.5,0,0.9,0.3,1.3,1c0.4,0.6,1,2.1,1.7,4.5
					c0.1,0.3,0.3,0.8,0.5,1.5c1.2,3.9,2,5.8,2.3,5.8c0.2,0,0.5-0.3,0.9-0.8c0.4-0.6,0.9-1.3,1.4-2.2c0.9-1.6,1.5-3,1.9-4.2
					c0.4-1.2,0.6-2.4,0.6-3.4c0-0.3,0-0.6-0.1-0.9c-0.1-0.3-0.1-0.6-0.2-0.9c0.2-0.1,0.4-0.1,0.6-0.1c0.2,0,0.4,0,0.7,0
					c0.7,0,1.2,0.1,1.5,0.4c0.3,0.3,0.5,0.7,0.5,1.2c0,1-0.3,2.4-1,4c-0.7,1.7-1.7,3.5-2.9,5.5c-1.1,1.8-2,3-2.6,3.6
					c-0.7,0.6-1.3,1-1.8,1c-0.9,0-1.9-1.5-2.8-4.5c-0.3-1-0.6-1.8-0.8-2.4c-0.6-1.9-1.2-3.4-1.8-4.4C413.4,37.2,412.8,36.4,412.1,36
					z"/>
				<path class="st45" d="M442.1,46.1c0.2,0.3,0.4,0.5,0.5,0.8c0.1,0.2,0.2,0.5,0.2,0.7c0,0.6-0.4,1-1.3,1.4
					c-0.8,0.4-1.9,0.5-3.3,0.5c-2.5,0-4.4-0.7-5.8-2c-1.4-1.4-2.1-3.2-2.1-5.6c0-2.4,0.7-4.4,2.1-5.9c1.4-1.5,3.2-2.3,5.5-2.3
					c1.7,0,3.1,0.5,4.2,1.5c1.1,1,1.7,2.2,1.7,3.7c0,1.2-0.5,2-1.4,2.6c-0.9,0.5-2.5,0.8-4.7,0.8c-0.8,0-1.6,0-2.5-0.1
					c-0.8-0.1-1.6-0.1-2.4-0.3v0.2c0,1.6,0.5,2.9,1.4,3.9c1,0.9,2.3,1.4,3.9,1.4c0.8,0,1.5-0.1,2.1-0.3
					C440.9,46.8,441.5,46.5,442.1,46.1z M433,40c0.7,0.1,1.4,0.2,2.3,0.3c0.8,0.1,1.7,0.1,2.7,0.1c1.3,0,2.2-0.1,2.6-0.4
					c0.4-0.2,0.7-0.7,0.7-1.3c0-0.9-0.3-1.7-1-2.2c-0.7-0.6-1.6-0.8-2.7-0.8c-1.2,0-2.2,0.4-3,1.2C433.7,37.5,433.2,38.6,433,40z"/>
				<path class="st45" d="M449.6,37.2c0.8-1.1,1.5-1.9,2.2-2.4c0.7-0.5,1.4-0.8,2.1-0.8c0.6,0,1.1,0.2,1.5,0.6
					c0.4,0.4,0.6,0.8,0.6,1.4c0,0.4-0.1,0.7-0.4,1c-0.2,0.3-0.6,0.7-1.1,1c-0.2-0.5-0.4-0.8-0.6-1c-0.2-0.2-0.5-0.3-0.9-0.3
					c-0.5,0-1,0.3-1.6,0.8c-0.6,0.5-1.1,1.2-1.7,2.2c-0.1,0.5-0.1,0.9-0.1,1.4c0,0.5,0,1,0,1.4c0,1.6,0.1,2.9,0.3,3.9
					c0.2,1,0.4,1.9,0.8,2.6c-0.4,0.2-0.8,0.4-1.2,0.5c-0.4,0.1-0.8,0.2-1.2,0.2c-0.5,0-0.9-0.1-1.1-0.4c-0.2-0.3-0.3-0.8-0.3-1.5
					c0-0.3,0.1-1.4,0.2-3.2c0.1-1.9,0.2-3.6,0.2-5.2c0-1.3-0.1-2.3-0.2-3c-0.1-0.7-0.3-1.3-0.5-1.9c0.2-0.1,0.4-0.1,0.6-0.2
					c0.2,0,0.4-0.1,0.6-0.1c0.6,0,1,0.1,1.3,0.4c0.3,0.3,0.4,0.7,0.4,1.3c0,0.1,0,0.3,0,0.6C449.6,36.4,449.6,36.8,449.6,37.2z"/>
				<path class="st45" d="M461,54.2c0.5-0.4,1-0.9,1.5-1.6c0.4-0.6,0.9-1.4,1.3-2.3l0.5-1.1c-2.2-5.2-3.8-8.6-4.7-10.1
					c-0.9-1.5-1.7-2.3-2.3-2.4c0.2-0.9,0.5-1.5,0.9-2c0.4-0.5,0.8-0.7,1.2-0.7c0.3,0,0.6,0.1,0.8,0.2c0.2,0.2,0.4,0.4,0.6,0.8
					c0.1,0.1,0.6,1.4,1.6,3.9c1,2.5,2.1,5,3.3,7.4c1.4-3,2.5-5.5,3.2-7.3c0.7-1.8,1.1-3.1,1.1-3.8c0-0.1,0-0.3,0-0.4
					c0-0.1-0.1-0.2-0.1-0.4c0.1,0,0.2-0.1,0.3-0.1c0.8-0.3,1.3-0.4,1.6-0.4c0.4,0,0.7,0.1,0.9,0.3c0.2,0.2,0.3,0.5,0.3,0.8
					c0,0.4-0.7,2.2-2.2,5.2c-1.5,3-2.7,5.8-3.8,8.4c-0.3,0.8-0.7,1.8-1.2,3c-1.1,2.9-2,4.3-2.6,4.3c-0.3,0-0.7-0.2-1.1-0.5
					C461.8,55.2,461.4,54.8,461,54.2z"/>
			</g>
		</g>
	</g>
</g>
</svg>
