<svg xmlns="http://www.w3.org/2000/svg" xmlns:xlink="http://www.w3.org/1999/xlink" viewBox="0 0 290.81 291.07"><defs><style>.cls-1{fill:none;}.cls-2{fill:#42210b;}.cls-3{fill:#fff;}.cls-4{fill:#b3b3b3;}.cls-5{fill:#003b4f;}.cls-6{fill:#c7cb36;}.cls-7{fill:#999928;}.cls-8{opacity:0.2;}.cls-9{clip-path:url(#clip-path);}.cls-10{fill:#012833;}.cls-11{fill:#544b4c;}</style><clipPath id="clip-path"><rect class="cls-1" x="71.49" y="133.24" width="104.8" height="4.2"/></clipPath></defs><g id="Layer_2" data-name="Layer 2"><g id="Layer_1-2" data-name="Layer 1"><path class="cls-2" d="M241.32,6.5H55.74A49.49,49.49,0,0,0,6.25,56V241.57a49.5,49.5,0,0,0,49.49,49.5H241.32a49.49,49.49,0,0,0,49.49-49.5V56A49.49,49.49,0,0,0,241.32,6.5Z"/><rect class="cls-3" width="284.56" height="284.57" rx="49.49"/><path class="cls-4" d="M257.69,142.6l-.32,1.67L41.73,130.05l-1.25,4-22.85.07L130.78,284.57H235.07a49.49,49.49,0,0,0,49.49-49.5V177.91Z"/><path class="cls-3" d="M250.58,149.26h-1.23A.32.32,0,0,1,249,149a.31.31,0,0,1,.31-.31h1.24a.29.29,0,0,1,.3.3A.31.31,0,0,1,250.58,149.26Z"/><rect class="cls-5" x="116.99" y="155.04" width="11.09" height="1.23" transform="translate(-33.89 277.19) rotate(-89.64)"/><rect class="cls-5" x="193.67" y="155.66" width="11.09" height="1.23" transform="translate(41.36 354.24) rotate(-89.54)"/><path class="cls-5" d="M248.42,133.54s-10.49-11.5-59.56-9.13c-64.45,3.12-107.09,4.09-107.09,4.09L30,124.72s-9.3-.48-7.64,10.46c0,0,39.06,13.64,89.72,17.07,19,1.28,146.05,9.44,145.25-8,0,0,2.95-4.7-9-10.73"/><path class="cls-6" d="M248.42,150.92c-.77-1.43-4.63-9.75-.09-17.48l.09.1c11.9,6,9,10.73,9,10.73.13,2.87-3.22,5-9,6.65"/><path class="cls-6" d="M248.64,133.43,238,132.94l-1.55-2.11s6.09-2.94,12.21,2.6"/><path class="cls-6" d="M228.3,132.5c0,.83.34,1.49.75,1.49s.75-.67.75-1.5S229.45,131,229,131s-.74.67-.74,1.5"/><path class="cls-6" d="M225.89,132.5c0,.83.34,1.5.75,1.5s.75-.67.74-1.5-.33-1.49-.74-1.49-.75.67-.75,1.49"/><path class="cls-6" d="M223.48,132.51c0,.83.34,1.5.75,1.5s.75-.67.75-1.5-.34-1.49-.76-1.49-.74.67-.74,1.49"/><path class="cls-6" d="M221.08,132.52c0,.83.33,1.5.75,1.49s.74-.67.74-1.49-.34-1.5-.75-1.5-.74.68-.74,1.5"/><path class="cls-6" d="M218.67,132.53c0,.83.34,1.5.75,1.49s.74-.67.74-1.5-.34-1.49-.75-1.49-.75.67-.74,1.5"/><path class="cls-6" d="M216.25,132.54c0,.83.34,1.49.76,1.49s.74-.67.74-1.5S217.41,131,217,131s-.75.67-.75,1.5"/><path class="cls-6" d="M213.85,132.55c0,.82.34,1.49.75,1.49s.74-.67.74-1.5-.34-1.49-.75-1.49-.75.67-.74,1.5"/><path class="cls-6" d="M211.44,132.55c0,.83.34,1.5.75,1.5s.74-.67.74-1.5-.34-1.49-.75-1.49-.74.67-.74,1.49"/><path class="cls-6" d="M209,132.56c0,.83.34,1.5.75,1.49s.75-.67.74-1.49-.33-1.5-.75-1.49-.74.67-.74,1.49"/><path class="cls-6" d="M206.62,132.57c0,.82.34,1.49.75,1.49s.75-.67.75-1.49-.34-1.5-.76-1.49-.74.67-.74,1.49"/><path class="cls-6" d="M204.21,132.58c0,.82.34,1.49.76,1.49s.74-.67.74-1.5-.34-1.49-.75-1.49-.75.67-.75,1.5"/><path class="cls-6" d="M201.81,132.58c0,.83.34,1.5.75,1.5s.74-.67.74-1.5-.34-1.49-.76-1.49-.74.67-.73,1.49"/><path class="cls-6" d="M199.4,132.59c0,.83.33,1.5.75,1.5s.75-.67.74-1.5-.34-1.49-.75-1.49-.75.67-.74,1.49"/><path class="cls-6" d="M197,132.6c0,.83.34,1.5.75,1.49s.74-.67.74-1.49-.34-1.5-.75-1.5-.75.68-.74,1.5"/><path class="cls-6" d="M194.58,132.61c0,.83.33,1.5.75,1.49s.74-.67.74-1.49-.34-1.5-.75-1.5-.74.67-.74,1.5"/><path class="cls-6" d="M192.17,132.62c0,.83.34,1.49.75,1.49s.75-.67.74-1.5-.33-1.49-.75-1.49-.74.67-.74,1.5"/><path class="cls-6" d="M189.76,132.62c0,.83.34,1.5.75,1.5s.75-.67.75-1.5-.34-1.49-.76-1.49-.74.67-.74,1.49"/><path class="cls-6" d="M187.35,132.64c0,.82.34,1.49.75,1.48s.75-.66.75-1.49-.34-1.5-.75-1.49-.75.67-.75,1.5"/><path class="cls-6" d="M81.77,129.28l-15.12-6.1L36.77,88.32s-10.42-3.23-15-2.45l9.68,39.72Z"/><polygon class="cls-7" points="60.95 116.53 66.65 123.18 81.77 128.5 31.49 125.59 29.22 116.29 60.95 116.53"/><polygon class="cls-6" points="81.77 128.49 66.65 123.18 30.27 120.61 31.49 125.59 81.77 128.49"/><g class="cls-8"><g class="cls-9"><path class="cls-10" d="M176.29,133.24s-6.53.81-16.34,1.51c-4.91.4-10.64.69-16.78,1s-12.71.48-19.27.46c-3.27.06-6.55,0-9.78,0s-6.4-.14-9.48-.22-6-.24-8.86-.36-5.48-.27-7.93-.47c-4.91-.32-9-.64-11.86-.93l-4.5-.41,4.47.61c2.85.4,6.92,1,11.84,1.43,2.45.25,5.1.49,7.93.67s5.79.46,8.87.54,6.26.28,9.5.29,6.52.14,9.81.09c6.58,0,13.15-.3,19.31-.62s11.88-.86,16.79-1.36,9-1.1,11.82-1.5l4.46-.7"/></g></g><path class="cls-7" d="M178.56,146.44a3.85,3.85,0,1,0,.06-7.69S97.4,139.86,97.39,142s81.17,4.46,81.17,4.46"/><path class="cls-6" d="M178.65,144.55a3.85,3.85,0,0,0-.11-7.7s-81.17,2.83-81.15,5,81.26,2.75,81.26,2.75"/><path class="cls-7" d="M42.92,136.45c.69,0,1.28-.79,1.28-1.76s-.56-1.78-1.25-1.78c0,0-26.8.59-26.81,1.56s26.78,2,26.78,2"/><path class="cls-6" d="M43,135.57c.7,0,1.27-.82,1.26-1.79S43.62,132,42.92,132c0,0-26.79,1.38-26.78,2.35S43,135.57,43,135.57"/><path class="cls-5" d="M194.36,161.78a4.82,4.82,0,1,0,4.85-4.78,4.83,4.83,0,0,0-4.85,4.78"/><path class="cls-3" d="M196.46,161.8a2.71,2.71,0,1,0,2.73-2.69,2.71,2.71,0,0,0-2.73,2.69"/><path class="cls-11" d="M123.19,161.24a4.82,4.82,0,1,0,4.85-4.78,4.81,4.81,0,0,0-4.85,4.78"/><path class="cls-3" d="M125.29,161.26a2.71,2.71,0,1,0,2.73-2.69,2.71,2.71,0,0,0-2.73,2.69"/><path class="cls-11" d="M113.13,161.78A4.82,4.82,0,1,0,118,157a4.81,4.81,0,0,0-4.84,4.78"/><path class="cls-3" d="M115.23,161.8a2.71,2.71,0,1,0,2.73-2.69,2.71,2.71,0,0,0-2.73,2.69"/></g></g></svg>