<svg xmlns="http://www.w3.org/2000/svg" viewBox="0 0 290.81 291.06"><defs><style>.cls-1{fill:#42210b;}.cls-2{fill:#fff;}.cls-3{fill:#b3b3b3;}.cls-4{fill:#238e74;}.cls-5{fill:#bf3d3a;}.cls-6{fill:#17847c;}.cls-7{fill:#fbbc5d;}.cls-8{fill:#e44;}.cls-9{fill:#232725;}.cls-10{fill:#f5f7f7;}.cls-11{fill:#d0d2d3;}.cls-12{fill:#808184;}.cls-13{fill:#486661;}.cls-14{fill:#eff0f0;}</style></defs><g id="Layer_2" data-name="Layer 2"><g id="Layer_1-2" data-name="Layer 1"><path class="cls-1" d="M241.32,6.5H55.74A49.49,49.49,0,0,0,6.25,56V241.57a49.49,49.49,0,0,0,49.49,49.49H241.32a49.48,49.48,0,0,0,49.49-49.49V56A49.49,49.49,0,0,0,241.32,6.5Z"/><rect class="cls-2" width="284.56" height="284.56" rx="49.49"/><path class="cls-3" d="M284.56,235.07V178.78L265,151.23l-18.51,12.08-29.27,1.11L136,172.12l-7.17,2-25.35,1L70,165.4l-26.72-8.92-1.91,6.83,12.89,25.21,84.28,96h96.57A49.48,49.48,0,0,0,284.56,235.07Z"/><rect class="cls-4" x="103.46" y="138.6" width="15.84" height="19.73"/><rect class="cls-5" x="119.3" y="138.6" width="15.84" height="19.73"/><rect class="cls-6" x="135.14" y="138.6" width="15.84" height="19.73"/><rect class="cls-7" x="150.99" y="138.6" width="15.84" height="19.73"/><rect class="cls-4" x="127.22" y="118.88" width="15.84" height="19.73"/><rect class="cls-5" x="143.06" y="118.88" width="15.84" height="19.73"/><rect class="cls-6" x="158.91" y="118.88" width="15.84" height="19.73"/><rect class="cls-7" x="174.75" y="118.88" width="15.84" height="19.73"/><rect class="cls-5" x="166.83" y="138.6" width="15.84" height="19.73"/><rect class="cls-4" x="182.67" y="138.6" width="15.84" height="19.73"/><rect class="cls-6" x="203.35" y="141.93" width="13.17" height="16.4"/><rect class="cls-7" x="216.52" y="141.93" width="13.17" height="16.4"/><rect class="cls-4" x="229.7" y="141.93" width="13.17" height="16.4"/><path class="cls-8" d="M265,169V152a.81.81,0,0,0-.81-.81H206.93a.81.81,0,0,0-.75.49l-2.64,6.21H86.64l-4.84-6.7H36.52a.81.81,0,0,0-.81.81v17Z"/><path class="cls-9" d="M35,169a1.27,1.27,0,0,0-.83,2.23l20,17.25H248.79a18.37,18.37,0,0,0,18.37-18.38V169Z"/><path class="cls-10" d="M66.89,176.22a6.46,6.46,0,1,1,6.45-6.45A6.46,6.46,0,0,1,66.89,176.22Zm0-11.8a5.35,5.35,0,1,0,5.34,5.35A5.36,5.36,0,0,0,66.89,164.42Zm0,8.52a3.18,3.18,0,1,1,3.17-3.17A3.18,3.18,0,0,1,66.89,172.94Zm0-5.24A2.06,2.06,0,1,0,69,169.77,2.07,2.07,0,0,0,66.89,167.7Z"/><path class="cls-11" d="M66.89,164.42a5.35,5.35,0,1,0,5.34,5.35A5.36,5.36,0,0,0,66.89,164.42Zm0,8.52a3.18,3.18,0,1,1,3.17-3.17A3.18,3.18,0,0,1,66.89,172.94Z"/><path class="cls-12" d="M66.89,165.4a4.37,4.37,0,1,0,4.37,4.37A4.37,4.37,0,0,0,66.89,165.4Zm0,7.52a3.16,3.16,0,1,1,3.16-3.15A3.15,3.15,0,0,1,66.89,172.92Z"/><path class="cls-10" d="M92.54,176.22A6.46,6.46,0,1,1,99,169.77,6.46,6.46,0,0,1,92.54,176.22Zm0-11.8a5.35,5.35,0,1,0,5.34,5.35A5.36,5.36,0,0,0,92.54,164.42Zm0,8.52a3.18,3.18,0,1,1,3.17-3.17A3.17,3.17,0,0,1,92.54,172.94Zm0-5.24a2.06,2.06,0,1,0,2.06,2.07A2.07,2.07,0,0,0,92.54,167.7Z"/><path class="cls-11" d="M92.54,164.42a5.35,5.35,0,1,0,5.34,5.35A5.36,5.36,0,0,0,92.54,164.42Zm0,8.52a3.18,3.18,0,1,1,3.17-3.17A3.17,3.17,0,0,1,92.54,172.94Z"/><path class="cls-12" d="M92.54,165.4a4.37,4.37,0,1,0,4.37,4.37A4.37,4.37,0,0,0,92.54,165.4Zm0,7.52a3.16,3.16,0,1,1,3.16-3.15A3.15,3.15,0,0,1,92.54,172.92Z"/><path class="cls-10" d="M118.19,176.22a6.46,6.46,0,1,1,6.46-6.45A6.46,6.46,0,0,1,118.19,176.22Zm0-11.8a5.35,5.35,0,1,0,5.34,5.35A5.35,5.35,0,0,0,118.19,164.42Zm0,8.52a3.18,3.18,0,1,1,3.17-3.17A3.17,3.17,0,0,1,118.19,172.94Zm0-5.24a2.06,2.06,0,1,0,2.06,2.07A2.07,2.07,0,0,0,118.19,167.7Z"/><path class="cls-11" d="M118.19,164.42a5.35,5.35,0,1,0,5.34,5.35A5.35,5.35,0,0,0,118.19,164.42Zm0,8.52a3.18,3.18,0,1,1,3.17-3.17A3.17,3.17,0,0,1,118.19,172.94Z"/><path class="cls-12" d="M118.19,165.4a4.37,4.37,0,1,0,4.37,4.37A4.37,4.37,0,0,0,118.19,165.4Zm0,7.52a3.16,3.16,0,1,1,3.16-3.15A3.16,3.16,0,0,1,118.19,172.92Z"/><path class="cls-10" d="M143.84,176.22a6.46,6.46,0,1,1,6.46-6.45A6.46,6.46,0,0,1,143.84,176.22Zm0-11.8a5.35,5.35,0,1,0,5.34,5.35A5.35,5.35,0,0,0,143.84,164.42Zm0,8.52a3.18,3.18,0,1,1,3.17-3.17A3.17,3.17,0,0,1,143.84,172.94Zm0-5.24a2.06,2.06,0,1,0,2.06,2.07A2.07,2.07,0,0,0,143.84,167.7Z"/><path class="cls-11" d="M143.84,164.42a5.35,5.35,0,1,0,5.34,5.35A5.35,5.35,0,0,0,143.84,164.42Zm0,8.52a3.18,3.18,0,1,1,3.17-3.17A3.17,3.17,0,0,1,143.84,172.94Z"/><path class="cls-12" d="M143.84,165.4a4.37,4.37,0,1,0,4.37,4.37A4.37,4.37,0,0,0,143.84,165.4Zm0,7.52a3.16,3.16,0,1,1,3.16-3.15A3.16,3.16,0,0,1,143.84,172.92Z"/><path class="cls-10" d="M169.49,176.22a6.46,6.46,0,1,1,6.46-6.45A6.46,6.46,0,0,1,169.49,176.22Zm0-11.8a5.35,5.35,0,1,0,5.34,5.35A5.35,5.35,0,0,0,169.49,164.42Zm0,8.52a3.18,3.18,0,1,1,3.17-3.17A3.17,3.17,0,0,1,169.49,172.94Zm0-5.24a2.06,2.06,0,1,0,2.06,2.07A2.07,2.07,0,0,0,169.49,167.7Z"/><path class="cls-11" d="M169.49,164.42a5.35,5.35,0,1,0,5.34,5.35A5.35,5.35,0,0,0,169.49,164.42Zm0,8.52a3.18,3.18,0,1,1,3.17-3.17A3.17,3.17,0,0,1,169.49,172.94Z"/><path class="cls-12" d="M169.49,165.4a4.37,4.37,0,1,0,4.37,4.37A4.37,4.37,0,0,0,169.49,165.4Zm0,7.52a3.16,3.16,0,1,1,3.16-3.15A3.16,3.16,0,0,1,169.49,172.92Z"/><path class="cls-10" d="M195.14,176.22a6.46,6.46,0,1,1,6.46-6.45A6.45,6.45,0,0,1,195.14,176.22Zm0-11.8a5.35,5.35,0,1,0,5.35,5.35A5.35,5.35,0,0,0,195.14,164.42Zm0,8.52a3.18,3.18,0,1,1,3.18-3.17A3.17,3.17,0,0,1,195.14,172.94Zm0-5.24a2.06,2.06,0,1,0,2.06,2.07A2.07,2.07,0,0,0,195.14,167.7Z"/><path class="cls-11" d="M195.14,164.42a5.35,5.35,0,1,0,5.35,5.35A5.35,5.35,0,0,0,195.14,164.42Zm0,8.52a3.18,3.18,0,1,1,3.18-3.17A3.17,3.17,0,0,1,195.14,172.94Z"/><path class="cls-12" d="M195.14,165.4a4.37,4.37,0,1,0,4.37,4.37A4.37,4.37,0,0,0,195.14,165.4Zm0,7.52a3.16,3.16,0,1,1,3.16-3.15A3.16,3.16,0,0,1,195.14,172.92Z"/><path class="cls-10" d="M220.79,176.22a6.46,6.46,0,1,1,6.46-6.45A6.45,6.45,0,0,1,220.79,176.22Zm0-11.8a5.35,5.35,0,1,0,5.35,5.35A5.35,5.35,0,0,0,220.79,164.42Zm0,8.52a3.18,3.18,0,1,1,3.18-3.17A3.17,3.17,0,0,1,220.79,172.94Zm0-5.24a2.06,2.06,0,1,0,2.06,2.07A2.07,2.07,0,0,0,220.79,167.7Z"/><path class="cls-11" d="M220.79,164.42a5.35,5.35,0,1,0,5.35,5.35A5.35,5.35,0,0,0,220.79,164.42Zm0,8.52a3.18,3.18,0,1,1,3.18-3.17A3.17,3.17,0,0,1,220.79,172.94Z"/><path class="cls-12" d="M220.79,165.4a4.37,4.37,0,1,0,4.37,4.37A4.37,4.37,0,0,0,220.79,165.4Zm0,7.52a3.16,3.16,0,1,1,3.16-3.15A3.16,3.16,0,0,1,220.79,172.92Z"/><path class="cls-10" d="M246.44,176.22a6.46,6.46,0,1,1,6.46-6.45A6.45,6.45,0,0,1,246.44,176.22Zm0-11.8a5.35,5.35,0,1,0,5.35,5.35A5.35,5.35,0,0,0,246.44,164.42Zm0,8.52a3.18,3.18,0,1,1,3.18-3.17A3.17,3.17,0,0,1,246.44,172.94Zm0-5.24a2.06,2.06,0,1,0,2.06,2.07A2.07,2.07,0,0,0,246.44,167.7Z"/><path class="cls-11" d="M246.44,164.42a5.35,5.35,0,1,0,5.35,5.35A5.35,5.35,0,0,0,246.44,164.42Zm0,8.52a3.18,3.18,0,1,1,3.18-3.17A3.17,3.17,0,0,1,246.44,172.94Z"/><path class="cls-12" d="M246.44,165.4a4.37,4.37,0,1,0,4.37,4.37A4.36,4.36,0,0,0,246.44,165.4Zm0,7.52a3.16,3.16,0,1,1,3.16-3.15A3.15,3.15,0,0,1,246.44,172.92Z"/><rect class="cls-13" x="36.3" y="136.31" width="13.89" height="14.67"/><rect class="cls-8" x="55.02" y="135.44" width="13.48" height="15.54"/><polygon class="cls-8" points="70.35 124.24 80.74 124.24 80.74 150.98 68.5 150.98 68.5 135.44 70.35 124.24"/><rect class="cls-8" x="70.89" y="103.88" width="1.62" height="20.36"/><rect class="cls-13" x="72.51" y="111.92" width="3.39" height="12.32"/><polygon class="cls-13" points="57 135.44 66.52 135.44 65.5 115.73 58.02 115.73 57 135.44"/><polygon class="cls-13" points="58.22 111.92 58.13 113.64 65.39 113.64 65.3 111.92 58.22 111.92"/><polygon class="cls-13" points="65.1 107.95 58.42 107.95 58.32 109.84 65.2 109.84 65.1 107.95"/><polygon class="cls-14" points="65.2 109.84 58.32 109.84 58.22 111.92 65.3 111.92 65.2 109.84"/><polygon class="cls-14" points="58.02 115.73 65.5 115.73 65.39 113.64 58.13 113.64 58.02 115.73"/><path class="cls-14" d="M41.33,156.48a1.86,1.86,0,1,1-1.86-1.86A1.85,1.85,0,0,1,41.33,156.48Z"/><path class="cls-14" d="M49.92,156.48a1.86,1.86,0,1,1-1.85-1.86A1.85,1.85,0,0,1,49.92,156.48Z"/><path class="cls-14" d="M58.52,156.48a1.86,1.86,0,1,1-1.86-1.86A1.85,1.85,0,0,1,58.52,156.48Z"/><path class="cls-14" d="M67.12,156.48a1.86,1.86,0,1,1-1.86-1.86A1.85,1.85,0,0,1,67.12,156.48Z"/><path class="cls-10" d="M84.72,167.17a1,1,0,0,1-1,1H75.25a1,1,0,0,1-1-1h0a1,1,0,0,1,1-1h8.43a1,1,0,0,1,1,1Z"/><path class="cls-10" d="M110.35,167.17a1,1,0,0,1-1,1h-8.43a1,1,0,0,1-1-1h0a1,1,0,0,1,1-1h8.43a1,1,0,0,1,1,1Z"/><path class="cls-10" d="M136,167.17a1,1,0,0,1-1,1h-8.42a1,1,0,0,1-1-1h0a1,1,0,0,1,1-1h8.42a1,1,0,0,1,1,1Z"/><path class="cls-10" d="M161.62,167.17a1,1,0,0,1-1.05,1h-8.42a1,1,0,0,1-1.05-1h0a1,1,0,0,1,1.05-1h8.42a1,1,0,0,1,1.05,1Z"/><path class="cls-10" d="M187.25,167.17a1,1,0,0,1-1.05,1h-8.42a1,1,0,0,1-1.05-1h0a1,1,0,0,1,1.05-1h8.42a1,1,0,0,1,1.05,1Z"/><path class="cls-10" d="M212.88,167.17a1,1,0,0,1-1,1h-8.42a1,1,0,0,1-1-1h0a1,1,0,0,1,1-1h8.42a1,1,0,0,1,1,1Z"/><path class="cls-10" d="M238.51,167.17a1,1,0,0,1-1,1H229a1,1,0,0,1-1-1h0a1,1,0,0,1,1-1h8.42a1,1,0,0,1,1,1Z"/><path class="cls-10" d="M264.14,167.17a1,1,0,0,1-1,1h-8.43a1,1,0,0,1-1-1h0a1,1,0,0,1,1-1h8.43a1,1,0,0,1,1,1Z"/><path class="cls-9" d="M61.54,138.6a4.61,4.61,0,1,0,4.61,4.61A4.61,4.61,0,0,0,61.54,138.6Zm0,7.43a2.82,2.82,0,1,1,2.82-2.82A2.81,2.81,0,0,1,61.54,146Z"/></g></g></svg>