<svg xmlns="http://www.w3.org/2000/svg" viewBox="0 0 290.82 291.06"><defs><style>.cls-1{fill:#42210b;}.cls-2{fill:#fff;}.cls-3{fill:#b3b3b3;}.cls-4{fill:#3f4e51;}.cls-5{fill:#d94635;}.cls-6{fill:#e87326;}.cls-7{fill:#f6a300;}.cls-8{fill:#ff7a00;}.cls-9{fill:#b05a00;}</style></defs><g id="Layer_2" data-name="Layer 2"><g id="Layer_1-2" data-name="Layer 1"><path class="cls-1" d="M241.32,6.5H55.74A49.49,49.49,0,0,0,6.25,56V241.57a49.49,49.49,0,0,0,49.49,49.49H241.32a49.49,49.49,0,0,0,49.5-49.49V56A49.5,49.5,0,0,0,241.32,6.5Z"/><rect class="cls-2" width="284.57" height="284.56" rx="49.49"/><path class="cls-3" d="M284.57,235.07V156.53L227.84,92.07H167.29l-13.38,14.38-40.64-41-6.78,21.45L85,91.45,65,111l-7,34.76L55,170l.5,12-9,8.28-12.73,6.36,78.75,87.95H235.07A49.49,49.49,0,0,0,284.57,235.07Z"/><path class="cls-4" d="M100,179.12V65.48h13.32V180.23l-.16.14c-3.32,2.87-6.92,7.75-8.16,15.82,0,.14,0,.28-.07.42H33.76V179.12Z"/><path class="cls-4" d="M113.27,179.12h.42v.77l-.42.34Z"/><path class="cls-4" d="M113.27,180.37h-.16l.16-.14Z"/><path class="cls-4" d="M125.52,167.44l24.31-21.21c1.17-1,3.29-.5,4.74,1.16l4.86,5.56c1.45,1.67,1.68,3.84.51,4.86L141.37,174l-15.86-6.57Z"/><path class="cls-4" d="M207.35,153.73H182s-28.31,1.67-28.31,19.57,14.15,7.07,14.15,7.07h27.89l15.41-8.74L219,160.81Z"/><rect class="cls-4" x="202.35" y="120.85" width="12.49" height="52.87" rx="2.81"/><path class="cls-5" d="M127.84,174.13c.22-.45,20.5-42,28.77-61.48,3.63-8.54,7.71-12.61,10.49-14.52a10.9,10.9,0,0,1,4.84-2.06h42.69c3,0,5.11.7,6.4,2.1,1.91,2.06,1.77,5.3,1.75,5.6l0,.25v50.13h9.14V104.37c.1-1.49.21-7.59-4.06-12.3-3.09-3.41-7.53-5.14-13.21-5.14H172c-.84,0-4.47.15-9.1,3C157,93.64,152,100.07,148.2,109.07,140,128.31,118.53,173,118.31,173.4Z"/><path class="cls-4" d="M206.34,198.2a22.1,22.1,0,0,0,.95,6.39,21.87,21.87,0,1,0-.95-6.39Zm13.7,6.39a10.35,10.35,0,1,1,8.15,4A10.33,10.33,0,0,1,220,204.59Z"/><path class="cls-4" d="M112.51,200a20.08,20.08,0,0,0,40,2.63,20.75,20.75,0,0,0,.17-2.63,20.07,20.07,0,0,0-26.54-19,20.1,20.1,0,0,0-13.54,17.43C112.54,198.91,112.51,199.44,112.51,200Zm12.17,0a7.91,7.91,0,1,1,7.91,7.9A7.91,7.91,0,0,1,124.68,200Z"/><path class="cls-6" d="M201.11,206.18H159.06L158.65,190l-9.16-12.49-21.65-5.83h75.35l10-20.4H239s7.49,1.67,7.49,26.23l-8.74-2.91-9.16-2.09H218.17l-9.57,7.08-6.25,15.4Z"/><path class="cls-5" d="M245.68,182.59a24.25,24.25,0,0,0-35.45,0,26.78,26.78,0,0,0-7.35,18.6,27.47,27.47,0,0,0,1,7.49h-4.85a32.39,32.39,0,0,1-.87-7.49C198.19,184,211.52,170,228,170c15.77,0,28.68,12.86,29.7,29.14H253A26.75,26.75,0,0,0,245.68,182.59Z"/><path class="cls-5" d="M154.87,190.57A24.25,24.25,0,0,0,122,177.25a26.78,26.78,0,0,0-13.79,14.47,27.64,27.64,0,0,0-1.87,7.33l-4.5-1.83a33,33,0,0,1,2-7.27c6.48-16,24.08-23.92,39.31-17.74,14.62,5.93,21.74,22.7,16.57,38.17l-4.36-1.77A26.67,26.67,0,0,0,154.87,190.57Z"/><path class="cls-4" d="M168.73,138.32l-5.56-6.5a2.19,2.19,0,0,1,.24-3.09l.86-.74a2.2,2.2,0,0,1,3.1.24l12.77,14.94a2.19,2.19,0,0,1-.24,3.09L179,147a2.19,2.19,0,0,1-3.09-.24l-5.56-6.5-14.82,12.68L153.91,151Z"/><rect class="cls-7" x="39.99" y="124.45" width="56" height="55"/><rect class="cls-8" x="39.99" y="124.45" width="28" height="55"/><rect class="cls-9" x="63.99" y="124.45" width="7" height="15"/><rect class="cls-9" x="63.99" y="163.45" width="7" height="16"/><rect class="cls-7" x="39.99" y="69.45" width="56" height="55"/><rect class="cls-8" x="39.99" y="69.45" width="28" height="55"/><rect class="cls-9" x="63.99" y="69.45" width="7" height="15"/><rect class="cls-9" x="63.99" y="108.45" width="7" height="16"/></g></g></svg>