<svg xmlns="http://www.w3.org/2000/svg" viewBox="0 0 290.82 291.07"><defs><style>.cls-1{isolation:isolate;}.cls-2{fill:#42210b;}.cls-3{fill:#fff;}.cls-4{fill:#b3b3b3;}.cls-5{fill:#fec200;}.cls-6{fill:#14201f;}.cls-7{fill:#141a2a;}.cls-8{fill:#f15a24;}.cls-9{fill:#efe2ea;}.cls-10{fill:#e6a03e;}.cls-11{fill:#10a2a9;}.cls-12,.cls-13{fill:#333;}.cls-13{opacity:0.4;mix-blend-mode:multiply;}.cls-14{fill:#3e3e3c;}.cls-15{fill:#1a1a1a;}.cls-16{fill:#e6e6e6;}</style></defs><g class="cls-1"><g id="Layer_2" data-name="Layer 2"><g id="Layer_1-2" data-name="Layer 1"><path class="cls-2" d="M241.32,6.5H55.74A49.49,49.49,0,0,0,6.25,56V241.57a49.5,49.5,0,0,0,49.49,49.5H241.32a49.5,49.5,0,0,0,49.5-49.5V56A49.5,49.5,0,0,0,241.32,6.5Z"/><rect class="cls-3" width="284.57" height="284.57" rx="49.49"/><path class="cls-4" d="M94,284.57h141a49.5,49.5,0,0,0,49.5-49.5V118.25L268.49,99.39H229.43l-87.15,5.06-41.34,12.67-23.6,5.31-26,16.82v19.5L20.92,191.59Z"/><path class="cls-5" d="M62.4,117.12H99.47l-.06,13.12v57H86.28s-2.2-12.25-18.54-12.25-19.49,16.65-19.49,16.65H20.92V161.11Z"/><polygon class="cls-6" points="95.22 122.44 95.22 141.88 65.84 141.88 63.95 144.31 41.04 144.31 61.39 122.47 95.22 122.44"/><path class="cls-7" d="M78,151.45a2,2,0,0,0,2,2h7.72a2,2,0,0,0,2-2h0a2,2,0,0,0-2-2H80a2,2,0,0,0-2,2Z"/><path class="cls-8" d="M20.47,174.82H32.26A2.72,2.72,0,0,1,35,177.54v6.24a2.73,2.73,0,0,1-2.73,2.73H20.47a2.73,2.73,0,0,1-2.73-2.73v-6.24A2.72,2.72,0,0,1,20.47,174.82Z"/><path class="cls-9" d="M21.76,169.69V164.6a2.72,2.72,0,0,1,2.72-2.72H36.27A2.72,2.72,0,0,1,39,164.6v5.09a49.26,49.26,0,0,0-17.24,0Z"/><path class="cls-10" d="M36.27,173.57H24.48a2.72,2.72,0,0,1-2.72-2.72v-1.16a49.26,49.26,0,0,1,17.24,0v1.16A2.72,2.72,0,0,1,36.27,173.57Z"/><path class="cls-11" d="M65.12,129.3a5.43,5.43,0,0,0,5.43,5.43H86.28a5.43,5.43,0,0,0,5.43-5.43h0a5.43,5.43,0,0,0-5.43-5.43H70.55a5.43,5.43,0,0,0-5.43,5.43Z"/><path class="cls-8" d="M20.73,178.27a1.63,1.63,0,0,0,1.62,1.62H41.22a1.62,1.62,0,0,0,1.61-1.62h0a1.62,1.62,0,0,0-1.61-1.62H22.35a1.63,1.63,0,0,0-1.62,1.62Z"/><path class="cls-8" d="M47,170.63A1.34,1.34,0,0,0,48.32,172H95a1.35,1.35,0,0,0,1.35-1.35h0A1.36,1.36,0,0,0,95,169.28H48.32A1.35,1.35,0,0,0,47,170.63Z"/><path class="cls-12" d="M100.94,166.22H227v20.45h-2.39a30.28,30.28,0,0,1,.6,4.3h-8.05a21,21,0,0,0-41.78,0h-8a28,28,0,0,1,.55-4h-67Z"/><path class="cls-13" d="M229.43,99.39H218.9c-4.79,12.19-24.09,51-79.4,64.89h89.93Z"/><path class="cls-12" d="M218.9,99.39h-118v64.89H139.5C194.81,150.41,214.11,111.58,218.9,99.39Z"/><path class="cls-14" d="M196.58,174.09a17.31,17.31,0,0,0-17.28,17.29v.15a17.28,17.28,0,0,0,34.56,0v-.15A17.31,17.31,0,0,0,196.58,174.09Z"/><path class="cls-15" d="M196.58,204a12.7,12.7,0,0,1-12.66-12.55v-.11a12.67,12.67,0,0,1,25.34,0v.11A12.7,12.7,0,0,1,196.58,204Zm-11.89-12.56a11.93,11.93,0,0,0,11.89,11.79,11.77,11.77,0,0,0,11.89-11.6l.39.08h-.39a11.89,11.89,0,1,0-23.78-.28l-.39.07Z"/><path class="cls-16" d="M205.34,191.38a8.76,8.76,0,1,1-8.76-8.77A8.76,8.76,0,0,1,205.34,191.38Z"/><path class="cls-14" d="M68.58,174.09A17.31,17.31,0,0,0,51.3,191.38v.15a17.28,17.28,0,0,0,34.56,0v-.15A17.31,17.31,0,0,0,68.58,174.09Z"/><path class="cls-15" d="M68.58,204a12.7,12.7,0,0,1-12.66-12.55v-.11a12.67,12.67,0,0,1,25.34,0v.11A12.7,12.7,0,0,1,68.58,204ZM56.69,191.48a11.93,11.93,0,0,0,11.89,11.79,11.77,11.77,0,0,0,11.89-11.6l.39.08h-.39a11.89,11.89,0,1,0-23.78-.28l-.39.07Z"/><path class="cls-16" d="M77.34,191.38a8.76,8.76,0,1,1-8.76-8.77A8.76,8.76,0,0,1,77.34,191.38Z"/><path class="cls-3" d="M143,114.17a15.45,15.45,0,0,1,2.3-.17,4.81,4.81,0,0,1,3.39,1,3.84,3.84,0,0,1,1.18,3,4.43,4.43,0,0,1-1.2,3.25,5.17,5.17,0,0,1-3.7,1.21,18.14,18.14,0,0,1-2-.1Zm1.08,7.41a8.44,8.44,0,0,0,1.1.06,3.22,3.22,0,0,0,3.56-3.56c0-2-1.1-3.22-3.39-3.22a5.7,5.7,0,0,0-1.27.11Z"/><path class="cls-3" d="M155.65,118.51h-3.26v3H156v.9h-4.71v-8.37h4.53V115h-3.45v2.64h3.26Z"/><path class="cls-3" d="M157.42,114.06h1.08v7.47h3.58v.9h-4.66Z"/><path class="cls-3" d="M164.36,114.06v8.37h-1.08v-8.37Z"/><path class="cls-3" d="M168.09,122.43l-2.73-8.37h1.16l1.31,4.12c.36,1.13.67,2.15.89,3.13h0c.23-1,.58-2,.95-3.11l1.42-4.14h1.16l-3,8.37Z"/><path class="cls-3" d="M177.52,118.51h-3.26v3h3.63v.9h-4.71v-8.37h4.52V115h-3.44v2.64h3.26Z"/><path class="cls-3" d="M179.29,114.17a11.46,11.46,0,0,1,2.07-.17,3.46,3.46,0,0,1,2.43.68,2.08,2.08,0,0,1,.65,1.59,2.2,2.2,0,0,1-1.57,2.14v0a2.11,2.11,0,0,1,1.23,1.69,13.45,13.45,0,0,0,.64,2.3h-1.12a10.84,10.84,0,0,1-.55-2c-.25-1.15-.7-1.59-1.68-1.63h-1v3.63h-1.08Zm1.08,3.82h1.11c1.15,0,1.88-.64,1.88-1.59s-.78-1.56-1.92-1.57a4.42,4.42,0,0,0-1.07.1Z"/><path class="cls-3" d="M187.7,122.43v-3.55l-2.65-4.82h1.23l1.18,2.31c.32.63.57,1.14.83,1.73h0c.23-.55.52-1.1.84-1.73l1.21-2.31h1.23l-2.81,4.81v3.56Z"/><line class="cls-3" x1="130.6" y1="126.44" x2="204.04" y2="126.44"/><rect class="cls-3" x="130.6" y="126.19" width="73.44" height="0.5"/><line class="cls-3" x1="130.6" y1="135.4" x2="204.04" y2="135.4"/><rect class="cls-3" x="130.6" y="135.15" width="73.44" height="0.5"/><line class="cls-3" x1="130.6" y1="144.35" x2="204.04" y2="144.35"/><rect class="cls-3" x="130.6" y="144.1" width="73.44" height="0.5"/><polygon class="cls-5" points="232.5 99.39 268.5 99.39 232.5 101.5 232.5 99.39"/><polygon class="cls-5" points="232.5 103.02 263.75 103.02 232.5 104.45 232.5 103.02"/><polygon class="cls-5" points="232.5 106.5 256.86 106.5 232.5 107.94 232.5 106.5"/></g></g></g></svg>