<?xml version="1.0" encoding="utf-8"?>
<!-- Generator: Adobe Illustrator 24.3.0, SVG Export Plug-In . SVG Version: 6.00 Build 0)  -->
<svg version="1.1" id="Слой_1" xmlns="http://www.w3.org/2000/svg" xmlns:xlink="http://www.w3.org/1999/xlink" x="0px" y="0px"
	 viewBox="0 0 510.9 285.9" style="enable-background:new 0 0 510.9 285.9;" xml:space="preserve">
<style type="text/css">
	.st0{fill:#E55C2C;}
	.st1{fill:#893D2B;}
	.st2{fill:#893D2B;stroke:#E55C2C;stroke-dasharray:12;}
	.st3{fill:#F4D4CB;}
	.st4{font-family:'Arial-BoldMT';}
	.st5{font-size:48px;}
	.st6{font-size:26px;}
	.st7{fill:#E55C2C;stroke:#FFFFFF;stroke-dasharray:12;}
	.st8{fill:#684D3C;}
	.st9{font-size:39px;}
</style>
<g>
	<polygon class="st0" points="348.7,2.6 178.2,3 124.8,168.7 265.9,270.8 406.6,168.1 352.4,2.6 	"/>
	<polygon class="st1" points="341.5,7.6 181.9,8 130.7,166.8 265.9,264.6 400.7,166.2 348.8,7.6 	"/>
	<polygon class="st2" points="341.5,17.6 388.9,162.4 265.9,252.2 142.4,162.9 189.2,18 	"/>
	<text transform="matrix(1 0 0 1 205.7603 64.7454)" class="st3 st4 st5">100%</text>
	<text transform="matrix(1 0 0 1 166.7559 97.7483)" class="st3 st4 st6">SATISFACTION</text>
	<g>
		<g>
			<rect x="86.5" y="107" class="st0" width="350.4" height="81"/>
			<ellipse class="st7" cx="261.7" cy="147.5" rx="188.6" ry="77"/>
		</g>
		<g>
			<rect x="16.2" y="115.1" class="st0" width="82.9" height="60.3"/>
			<path class="st7" d="M22.5,121.4c0,8.9,0,38.8,0,47.7c9.8,0,60.5,0,70.3,0c0-8.9,0-38.8,0-47.7C82.9,121.4,32.3,121.4,22.5,121.4
				z"/>
		</g>
		<polygon class="st8" points="14.1,123.7 51.7,144.7 14.7,166.8 		"/>
		<g>
			<rect x="428.8" y="116.4" class="st0" width="82.9" height="60.3"/>
			<path class="st7" d="M435,122.7c0,8.9,0,38.8,0,47.7c9.8,0,60.5,0,70.3,0c0-8.9,0-38.8,0-47.7C495.5,122.7,444.9,122.7,435,122.7
				z"/>
		</g>
		<polygon class="st8" points="513.7,169.2 476.6,147.3 514.1,126.1 		"/>
	</g>
	<text transform="matrix(1 0 0 1 125.752 160.7551)" class="st3 st4 st9">HIGH QUALITY</text>
	<polygon class="st3" points="229,196 234.8,196.5 230.8,200.8 232,206.5 226.7,204.1 221.7,207 222.4,201.2 218,197.3 223.8,196.2 
		226.1,190.8 	"/>
	<polygon class="st3" points="248.6,195.8 254.5,196.3 250.5,200.6 251.7,206.3 246.4,203.8 241.4,206.8 242.1,201 237.7,197.1 
		243.5,196 245.8,190.6 	"/>
	<polygon class="st3" points="269,195.3 274.9,195.9 270.9,200.2 272.1,205.9 266.8,203.4 261.8,206.4 262.5,200.6 258.1,196.7 
		263.9,195.6 266.2,190.2 	"/>
	<polygon class="st3" points="289.3,196.2 295.1,196.8 291.1,201 292.3,206.8 287,204.3 282,207.2 282.7,201.4 278.3,197.5 
		284.1,196.4 286.4,191.1 	"/>
	<polygon class="st3" points="309.3,196.2 315.1,196.8 311.1,201 312.3,206.8 307,204.3 302,207.2 302.7,201.4 298.3,197.5 
		304.1,196.4 306.4,191.1 	"/>
</g>
</svg>
