<?xml version="1.0" encoding="utf-8"?>
<!-- Generator: Adobe Illustrator 24.3.0, SVG Export Plug-In . SVG Version: 6.00 Build 0)  -->
<svg version="1.1" id="Слой_1" xmlns="http://www.w3.org/2000/svg" xmlns:xlink="http://www.w3.org/1999/xlink" x="0px" y="0px"
	 viewBox="0 0 510.9 285.9" style="enable-background:new 0 0 510.9 285.9;" xml:space="preserve">
<style type="text/css">
	.st0{fill:#E55C2C;}
	.st1{fill:#E55C2C;stroke:#FFFFFF;stroke-dasharray:12;}
	.st2{fill:#F4D4CB;}
</style>
<g>
	<g>
		<polygon class="st0" points="237.8,158.7 155.4,168.7 152.5,165 290.6,59 341.7,125.6 208.2,228.2 		"/>
		<path class="st1" d="M288.7,73c8.2,10.6,30.8,40.1,39,50.8c-10.7,8.2-62,47.6-95.4,73.3c7.3-17.2,21.5-50.4,21.5-50.4
			s-47.9,5.8-72.4,8.8C211,132.7,277.1,82,288.7,73z"/>
	</g>
	<polygon class="st2" points="268.9,122.3 260.9,113.1 258.5,125 247.3,129.7 257.8,135.7 258.9,147.8 267.9,139.6 279.7,142.4 
		274.7,131.3 280.9,120.9 	"/>
</g>
</svg>
