<svg xmlns="http://www.w3.org/2000/svg" xmlns:xlink="http://www.w3.org/1999/xlink" viewBox="0 0 84.24 83.86"><defs><style>.cls-1{fill-opacity:0.05;}.cls-2{fill:url(#linear-gradient);}.cls-3{fill:url(#linear-gradient-2);}.cls-4{fill:url(#linear-gradient-3);}.cls-5{fill:#f7f7f7;}.cls-6{fill:#403227;}.cls-7{fill:#f7f3f0;}.cls-8{fill:#fff;}</style><linearGradient id="linear-gradient" x1="-845.64" y1="-64.28" x2="-845.64" y2="-92.04" gradientTransform="matrix(2.83, 0, 0, -2.83, 2436.39, -182.21)" gradientUnits="userSpaceOnUse"><stop offset="0" stop-color="#0098e5"/><stop offset="0.35" stop-color="#00a5f2"/><stop offset="0.68" stop-color="#7fd9ff"/><stop offset="1" stop-color="#007fcc"/></linearGradient><linearGradient id="linear-gradient-2" x1="-845.64" y1="-91.38" x2="-845.64" y2="-64.94" gradientTransform="matrix(2.83, 0, 0, -2.83, 2436.39, -182.21)" gradientUnits="userSpaceOnUse"><stop offset="0" stop-color="#b2edff"/><stop offset="1" stop-color="#00b2ff"/></linearGradient><linearGradient id="linear-gradient-3" x1="-845.64" y1="-91.38" x2="-845.64" y2="-77.51" gradientTransform="matrix(2.83, 0, 0, -2.83, 2436.39, -182.21)" gradientUnits="userSpaceOnUse"><stop offset="0" stop-color="#007fcc"/><stop offset="1" stop-color="#33bfff"/></linearGradient></defs><g id="Layer_2" data-name="Layer 2"><g id="Layer_1-2" data-name="Layer 1"><path id="_441794728" data-name=" 441794728" class="cls-1" d="M16.62.9H68.9A15.38,15.38,0,0,1,84.24,16.24V68.52A15.38,15.38,0,0,1,68.9,83.86H16.62A15.38,15.38,0,0,1,1.28,68.52V16.24A15.38,15.38,0,0,1,16.62.9Z"/><path id="_444224560" data-name=" 444224560" class="cls-1" d="M16.92,1.36H68.6A15.22,15.22,0,0,1,83.78,16.54V68.22A15.22,15.22,0,0,1,68.6,83.4H16.92A15.22,15.22,0,0,1,1.75,68.22V16.54A15.22,15.22,0,0,1,16.92,1.36Z"/><path id="_444224536" data-name=" 444224536" class="cls-1" d="M17.22,1.83H68.31a15,15,0,0,1,15,15v51.1a15,15,0,0,1-15,15H17.22a15,15,0,0,1-15-15V16.83A15,15,0,0,1,17.22,1.83Z"/><path id="_444225640" data-name=" 444225640" class="cls-1" d="M17.51,2.3H68A14.87,14.87,0,0,1,82.84,17.13v50.5A14.87,14.87,0,0,1,68,82.46H17.51A14.87,14.87,0,0,1,2.68,67.63V17.13A14.87,14.87,0,0,1,17.51,2.3Z"/><path id="_444225712" data-name=" 444225712" class="cls-1" d="M17.8,2.76H67.72A14.7,14.7,0,0,1,82.37,17.42V67.34A14.7,14.7,0,0,1,67.72,82H17.8A14.71,14.71,0,0,1,3.14,67.34V17.42A14.71,14.71,0,0,1,17.8,2.76Z"/><path id="_444225784" data-name=" 444225784" class="cls-1" d="M18.09,3.23H67.42A14.53,14.53,0,0,1,81.91,17.71V67A14.53,14.53,0,0,1,67.42,81.53H18.09A14.53,14.53,0,0,1,3.61,67V17.71A14.53,14.53,0,0,1,18.09,3.23Z"/><path id="_444225856" data-name=" 444225856" class="cls-1" d="M18.39,3.7H67.13A14.35,14.35,0,0,1,81.45,18V66.75A14.36,14.36,0,0,1,67.13,81.07H18.39A14.36,14.36,0,0,1,4.07,66.75V18A14.35,14.35,0,0,1,18.39,3.7Z"/><path id="_444225928" data-name=" 444225928" class="cls-1" d="M18.68,4.16H66.84A14.18,14.18,0,0,1,81,18.3V66.46A14.18,14.18,0,0,1,66.84,80.6H18.68A14.18,14.18,0,0,1,4.54,66.46V18.3A14.18,14.18,0,0,1,18.68,4.16Z"/><path id="_444226000" data-name=" 444226000" class="cls-1" d="M19,4.62H66.54a14,14,0,0,1,14,14V66.17a14,14,0,0,1-14,14H19a14,14,0,0,1-14-14V18.6A14,14,0,0,1,19,4.62Z"/><path id="_444226072" data-name=" 444226072" class="cls-1" d="M19.27,5.09h47a13.84,13.84,0,0,1,13.8,13.79v47a13.83,13.83,0,0,1-13.8,13.79h-47A13.83,13.83,0,0,1,5.47,65.87v-47A13.84,13.84,0,0,1,19.27,5.09Z"/><path id="_444226144" data-name=" 444226144" class="cls-1" d="M19.57,5.56H66A13.66,13.66,0,0,1,79.58,19.18v46.4A13.66,13.66,0,0,1,66,79.2H19.57A13.66,13.66,0,0,1,5.94,65.58V19.18A13.65,13.65,0,0,1,19.57,5.56Z"/><path id="_441794488" data-name=" 441794488" class="cls-1" d="M19.86,6H65.67A13.49,13.49,0,0,1,79.12,19.47V65.28A13.49,13.49,0,0,1,65.67,78.73H19.86A13.49,13.49,0,0,1,6.4,65.28V19.47A13.49,13.49,0,0,1,19.86,6Z"/><path id="_441786208" data-name=" 441786208" class="cls-2" d="M14.55,0H64.12A14.6,14.6,0,0,1,78.68,14.55V64.12A14.6,14.6,0,0,1,64.12,78.68H14.55A14.6,14.6,0,0,1,0,64.12V14.55A14.6,14.6,0,0,1,14.55,0Z"/><path id="_441786112" data-name=" 441786112" class="cls-3" d="M15,1.86H63.7A13.15,13.15,0,0,1,76.82,15V63.7A13.16,13.16,0,0,1,63.7,76.83H15A13.16,13.16,0,0,1,1.86,63.7V15A13.15,13.15,0,0,1,15,1.86Z"/><path id="_441786016" data-name=" 441786016" class="cls-4" d="M76.82,42.8V63.7A13.15,13.15,0,0,1,63.7,76.82H15A13.15,13.15,0,0,1,1.86,63.7V42.8a130.39,130.39,0,0,1,37.48-5.29A130.34,130.34,0,0,1,76.82,42.8Z"/><path class="cls-5" d="M26.89,53.91H17.4a8.3,8.3,0,0,0,16.6,0Z"/><path class="cls-6" d="M28.15,13.27A2.16,2.16,0,0,0,27,12.36a3.15,3.15,0,0,0-.75-.1l-.59,0-.59,0a3.23,3.23,0,0,0-.76.1,2.17,2.17,0,0,0-1.1.91h0l1.27,40.63h2.38l1.26-40.63Zm-2.45,7c-.64,0-1.16-1.28-1.16-2.86s.52-2.86,1.16-2.86,1.15,1.28,1.15,2.86S26.34,20.24,25.7,20.24Z"/><path class="cls-6" d="M44.71,13.27a1.89,1.89,0,0,0-.94-.91,2.38,2.38,0,0,0-.65-.1l-.5,0-.51,0a2.37,2.37,0,0,0-.64.1,1.94,1.94,0,0,0-.95.91h0L41.6,45.66h2l1.09-32.38Zm-2.09,7c-.67,0-1.21-1.28-1.21-2.86s.54-2.86,1.21-2.86,1.21,1.28,1.21,2.86S43.29,20.24,42.62,20.24Z"/><path class="cls-7" d="M48,48.34a2.75,2.75,0,0,0-2.75-2.68H40a2.75,2.75,0,0,0-2.75,2.68L36.83,61.8a1,1,0,0,0,1,1.07h9.51a1,1,0,0,0,1-1.07ZM39.4,59.64a.72.72,0,0,1-.69.71h0a.72.72,0,0,1-.73-.73L38.11,49a.72.72,0,0,1,.69-.72h0a.73.73,0,0,1,.73.74Zm2.53,0a.72.72,0,0,1-.69.71h0a.72.72,0,0,1-.72-.74L40.69,49a.73.73,0,0,1,.7-.71h0a.72.72,0,0,1,.72.74Zm2.09.71h0a.72.72,0,0,1-.69-.71L43.11,49a.72.72,0,0,1,.72-.74h0a.72.72,0,0,1,.69.71l.2,10.6A.72.72,0,0,1,44,60.35Zm2.53,0h0a.72.72,0,0,1-.69-.71L45.69,49a.72.72,0,0,1,.73-.74h0a.72.72,0,0,1,.69.72l.15,10.6A.71.71,0,0,1,46.55,60.35Z"/><path class="cls-6" d="M59.85,13.27a1.94,1.94,0,0,0-1-.91,2.25,2.25,0,0,0-.64-.1l-.51,0-.5,0a2.38,2.38,0,0,0-.65.1,2,2,0,0,0-.94.91h0l1.09,32.38h2l1.08-32.38Zm-2.1,7c-.67,0-1.21-1.28-1.21-2.86s.54-2.86,1.21-2.86S59,15.8,59,17.38,58.42,20.24,57.75,20.24Z"/><path class="cls-8" d="M62.71,61.39l.75-13.57a2.05,2.05,0,0,0-2-2.16H54.09a2.05,2.05,0,0,0-2,2.16l.75,13.57a1.56,1.56,0,0,0,1.55,1.48h6.8A1.57,1.57,0,0,0,62.71,61.39Z"/></g></g></svg>