<svg xmlns="http://www.w3.org/2000/svg" xmlns:xlink="http://www.w3.org/1999/xlink" viewBox="0 0 72.27 80.52"><defs><style>.cls-1{fill:#fff;}.cls-2{fill:url(#linear-gradient);}.cls-3{fill:#f0f0f0;}.cls-4{fill:url(#linear-gradient-2);}.cls-5{fill:url(#linear-gradient-3);}.cls-6{fill:url(#linear-gradient-4);}.cls-7{fill:url(#linear-gradient-5);}.cls-8{fill:url(#linear-gradient-6);}.cls-9{fill:url(#linear-gradient-7);}.cls-10{fill:url(#linear-gradient-8);}.cls-11{fill:url(#linear-gradient-9);}.cls-12{fill:url(#linear-gradient-10);}.cls-13{fill:url(#linear-gradient-11);}.cls-14{fill:url(#linear-gradient-12);}.cls-15{fill:url(#linear-gradient-13);}.cls-16{fill:url(#linear-gradient-14);}.cls-17{fill:url(#linear-gradient-15);}.cls-18{fill:url(#linear-gradient-16);}.cls-19{fill:url(#linear-gradient-17);}.cls-20{fill:url(#linear-gradient-18);}.cls-21{fill:url(#linear-gradient-19);}.cls-22{fill:url(#linear-gradient-20);}.cls-23{fill:url(#linear-gradient-21);}.cls-24{fill:url(#linear-gradient-22);}.cls-25{fill:url(#linear-gradient-23);}.cls-26{fill:url(#linear-gradient-24);}.cls-27{fill:url(#linear-gradient-25);}.cls-28{fill:url(#linear-gradient-26);}.cls-29{fill:url(#linear-gradient-27);}.cls-30{fill:url(#linear-gradient-28);}.cls-31{fill:url(#linear-gradient-29);}.cls-32{fill:url(#linear-gradient-30);}.cls-33{fill:url(#linear-gradient-31);}.cls-34{fill:url(#linear-gradient-32);}.cls-35{fill:url(#linear-gradient-33);}.cls-36{fill:url(#linear-gradient-37);}.cls-37{fill:url(#linear-gradient-38);}.cls-38{fill:url(#linear-gradient-39);}.cls-39{fill:url(#linear-gradient-40);}.cls-40{fill:url(#linear-gradient-41);}.cls-41{fill:url(#linear-gradient-44);}.cls-42{fill:url(#linear-gradient-45);}.cls-43{fill:url(#linear-gradient-46);}.cls-44{fill:url(#linear-gradient-47);}.cls-45{fill:url(#linear-gradient-48);}.cls-46{fill:url(#linear-gradient-49);}.cls-47{fill:url(#linear-gradient-50);}.cls-48{fill:url(#linear-gradient-51);}.cls-49{fill:url(#linear-gradient-52);}.cls-50{fill:url(#linear-gradient-53);}.cls-51{fill:#8b9b5e;}.cls-52{fill:url(#linear-gradient-54);}.cls-53{fill:url(#linear-gradient-55);}.cls-54{fill:url(#linear-gradient-56);}.cls-55{fill:url(#linear-gradient-57);}.cls-56{fill:url(#linear-gradient-58);}.cls-57{fill:url(#linear-gradient-59);}.cls-58{fill:url(#linear-gradient-60);}.cls-59{fill:url(#linear-gradient-61);}.cls-60{fill:url(#linear-gradient-62);}.cls-61{fill:url(#linear-gradient-63);}.cls-62{fill:url(#linear-gradient-64);}.cls-63{fill:#97989a;}.cls-64{fill:url(#linear-gradient-65);}.cls-65{fill:url(#linear-gradient-66);}.cls-66{fill:url(#linear-gradient-67);}</style><linearGradient id="linear-gradient" x1="4.81" y1="15.66" x2="41.37" y2="15.66" gradientUnits="userSpaceOnUse"><stop offset="0" stop-color="#f4f5da"/><stop offset="1" stop-color="#e2e8ba"/></linearGradient><linearGradient id="linear-gradient-2" x1="7.43" y1="27.56" x2="27.16" y2="27.56" xlink:href="#linear-gradient"/><linearGradient id="linear-gradient-3" x1="7.97" y1="27.77" x2="17.74" y2="27.77" gradientUnits="userSpaceOnUse"><stop offset="0" stop-color="#79943f"/><stop offset="1" stop-color="#768f47"/></linearGradient><linearGradient id="linear-gradient-4" x1="18.93" y1="4.14" x2="21.45" y2="4.14" xlink:href="#linear-gradient-3"/><linearGradient id="linear-gradient-5" x1="36.82" y1="18.83" x2="39.2" y2="18.83" xlink:href="#linear-gradient-3"/><linearGradient id="linear-gradient-6" x1="27.1" y1="22.55" x2="38.1" y2="22.55" xlink:href="#linear-gradient-3"/><linearGradient id="linear-gradient-7" x1="9.47" y1="16.26" x2="34.82" y2="16.26" xlink:href="#linear-gradient-3"/><linearGradient id="linear-gradient-8" x1="35.71" y1="20.27" x2="35.71" y2="20.27" xlink:href="#linear-gradient-3"/><linearGradient id="linear-gradient-9" x1="6.19" y1="29.7" x2="9.47" y2="29.7" xlink:href="#linear-gradient-3"/><linearGradient id="linear-gradient-10" x1="32.09" y1="19.14" x2="33.29" y2="19.14" gradientUnits="userSpaceOnUse"><stop offset="0" stop-color="#3f4e1e"/><stop offset="1" stop-color="#2c3b1c"/></linearGradient><linearGradient id="linear-gradient-11" x1="32.65" y1="18.4" x2="33.7" y2="18.4" xlink:href="#linear-gradient-10"/><linearGradient id="linear-gradient-12" x1="33.45" y1="16.87" x2="34.55" y2="16.87" xlink:href="#linear-gradient-10"/><linearGradient id="linear-gradient-13" x1="16.26" y1="27.72" x2="25.12" y2="27.72" xlink:href="#linear-gradient-10"/><linearGradient id="linear-gradient-14" x1="17.52" y1="16.81" x2="19.75" y2="16.81" xlink:href="#linear-gradient-10"/><linearGradient id="linear-gradient-15" x1="28.11" y1="27.27" x2="30.33" y2="27.27" xlink:href="#linear-gradient-10"/><linearGradient id="linear-gradient-16" x1="11.03" y1="30.44" x2="16.54" y2="30.44" xlink:href="#linear-gradient-10"/><linearGradient id="linear-gradient-17" x1="18.72" y1="21.68" x2="19.83" y2="21.68" xlink:href="#linear-gradient-10"/><linearGradient id="linear-gradient-18" x1="30.53" y1="23.68" x2="32.83" y2="23.68" xlink:href="#linear-gradient-10"/><linearGradient id="linear-gradient-19" x1="33.05" y1="19.66" x2="35.52" y2="19.66" xlink:href="#linear-gradient-10"/><linearGradient id="linear-gradient-20" x1="33.66" y1="15.69" x2="35.07" y2="15.69" xlink:href="#linear-gradient-10"/><linearGradient id="linear-gradient-21" x1="21.87" y1="16.57" x2="22.33" y2="16.57" xlink:href="#linear-gradient-10"/><linearGradient id="linear-gradient-22" x1="23.48" y1="18.79" x2="30.15" y2="18.79" xlink:href="#linear-gradient-10"/><linearGradient id="linear-gradient-23" x1="23.87" y1="18.78" x2="29.82" y2="18.78" xlink:href="#linear-gradient-10"/><linearGradient id="linear-gradient-24" x1="25.24" y1="18.55" x2="27.08" y2="18.55" xlink:href="#linear-gradient-10"/><linearGradient id="linear-gradient-25" x1="20.67" y1="15.17" x2="21.26" y2="15.17" xlink:href="#linear-gradient-10"/><linearGradient id="linear-gradient-26" x1="20.17" y1="17.39" x2="20.92" y2="17.39" xlink:href="#linear-gradient-10"/><linearGradient id="linear-gradient-27" x1="18.48" y1="9.64" x2="20.75" y2="9.64" xlink:href="#linear-gradient-10"/><linearGradient id="linear-gradient-28" x1="18.1" y1="13.08" x2="20.27" y2="13.08" xlink:href="#linear-gradient-10"/><linearGradient id="linear-gradient-29" x1="18.19" y1="11.87" x2="20.35" y2="11.87" xlink:href="#linear-gradient-10"/><linearGradient id="linear-gradient-30" x1="21.01" y1="12.9" x2="21.73" y2="12.9" xlink:href="#linear-gradient-10"/><linearGradient id="linear-gradient-31" x1="25.51" y1="18.81" x2="28.25" y2="18.81" xlink:href="#linear-gradient-10"/><linearGradient id="linear-gradient-32" x1="17.63" y1="15.42" x2="19.85" y2="15.42" xlink:href="#linear-gradient-10"/><linearGradient id="linear-gradient-33" x1="29.74" y1="24.7" x2="30.08" y2="24.7" xlink:href="#linear-gradient-10"/><linearGradient id="linear-gradient-37" x1="29.7" y1="23.71" x2="30.83" y2="23.71" xlink:href="#linear-gradient-10"/><linearGradient id="linear-gradient-38" x1="29.07" y1="24.51" x2="30.2" y2="24.51" xlink:href="#linear-gradient-10"/><linearGradient id="linear-gradient-39" x1="23" y1="14.77" x2="23.13" y2="14.77" xlink:href="#linear-gradient-10"/><linearGradient id="linear-gradient-40" x1="28.25" y1="27.14" x2="30.33" y2="27.14" xlink:href="#linear-gradient-10"/><linearGradient id="linear-gradient-41" x1="28.54" y1="25.37" x2="29.67" y2="25.37" xlink:href="#linear-gradient-10"/><linearGradient id="linear-gradient-44" x1="27.64" y1="26.72" x2="28.88" y2="26.72" xlink:href="#linear-gradient-10"/><linearGradient id="linear-gradient-45" x1="23.04" y1="14.38" x2="23.59" y2="14.38" xlink:href="#linear-gradient-10"/><linearGradient id="linear-gradient-46" x1="22.53" y1="13.27" x2="22.97" y2="13.27" xlink:href="#linear-gradient-10"/><linearGradient id="linear-gradient-47" x1="31.7" y1="20.12" x2="32.8" y2="20.12" xlink:href="#linear-gradient-10"/><linearGradient id="linear-gradient-48" x1="33.05" y1="19.66" x2="35.34" y2="19.66" xlink:href="#linear-gradient-10"/><linearGradient id="linear-gradient-49" x1="22.36" y1="14.43" x2="22.63" y2="14.43" xlink:href="#linear-gradient-10"/><linearGradient id="linear-gradient-50" x1="27.04" y1="27.75" x2="28.16" y2="27.75" xlink:href="#linear-gradient-10"/><linearGradient id="linear-gradient-51" x1="30.14" y1="22.8" x2="31.24" y2="22.8" xlink:href="#linear-gradient-10"/><linearGradient id="linear-gradient-52" x1="31.16" y1="21.07" x2="32.2" y2="21.07" xlink:href="#linear-gradient-10"/><linearGradient id="linear-gradient-53" x1="30.68" y1="21.96" x2="31.82" y2="21.96" xlink:href="#linear-gradient-10"/><linearGradient id="linear-gradient-54" x1="-628.19" y1="464.99" x2="-627.22" y2="464.99" gradientTransform="matrix(15.61, 22.29, 22.29, -15.61, -527.97, 21292.29)" gradientUnits="userSpaceOnUse"><stop offset="0" stop-color="#ccde95"/><stop offset="1" stop-color="#a5c863"/></linearGradient><linearGradient id="linear-gradient-55" x1="-606.17" y1="494.53" x2="-605.21" y2="494.53" gradientTransform="matrix(4.99, 7.13, 7.13, -4.99, -447.34, 6820.57)" gradientUnits="userSpaceOnUse"><stop offset="0" stop-color="#97bf1f"/><stop offset="1" stop-color="#72b32c"/></linearGradient><linearGradient id="linear-gradient-56" x1="-606.13" y1="494.77" x2="-605.16" y2="494.77" gradientTransform="matrix(4.99, 7.13, 7.13, -4.99, -479.68, 6843.26)" xlink:href="#linear-gradient-55"/><linearGradient id="linear-gradient-57" x1="-625.19" y1="468.94" x2="-624.23" y2="468.94" gradientTransform="matrix(12.15, 17.36, 17.36, -12.15, -506.89, 16585.18)" gradientUnits="userSpaceOnUse"><stop offset="0" stop-color="#97bf1f"/><stop offset="0.16" stop-color="#91bd21"/><stop offset="1" stop-color="#72b32c"/></linearGradient><linearGradient id="linear-gradient-58" x1="-623.44" y1="471.25" x2="-622.48" y2="471.25" gradientTransform="matrix(10.74, 15.33, 15.33, -10.74, -497.42, 14655.98)" gradientUnits="userSpaceOnUse"><stop offset="0" stop-color="#e8e894"/><stop offset="0.01" stop-color="#e8e894"/><stop offset="1" stop-color="#c9d761"/></linearGradient><linearGradient id="linear-gradient-59" x1="-630.72" y1="466.52" x2="-629.76" y2="466.52" gradientTransform="matrix(11.5, 24.67, 24.67, -11.5, -4217.2, 20958.95)" xlink:href="#linear-gradient-54"/><linearGradient id="linear-gradient-60" x1="-614.14" y1="499.49" x2="-613.17" y2="499.49" gradientTransform="matrix(3.68, 7.89, 7.89, -3.68, -1625.67, 6719.07)" xlink:href="#linear-gradient-55"/><linearGradient id="linear-gradient-61" x1="-614.21" y1="499.62" x2="-613.24" y2="499.62" gradientTransform="matrix(3.68, 7.89, 7.89, -3.68, -1659.85, 6735.1)" xlink:href="#linear-gradient-55"/><linearGradient id="linear-gradient-62" x1="-628.51" y1="470.95" x2="-627.54" y2="470.95" gradientTransform="matrix(8.96, 19.2, 19.2, -8.96, -3379.17, 16325.13)" xlink:href="#linear-gradient-57"/><linearGradient id="linear-gradient-63" x1="-627.21" y1="473.61" x2="-626.25" y2="473.61" gradientTransform="matrix(7.91, 16.97, 16.97, -7.91, -3035.85, 14427)" xlink:href="#linear-gradient-58"/><linearGradient id="linear-gradient-64" x1="-638.26" y1="459.52" x2="-637.3" y2="459.52" gradientTransform="matrix(0, 55.51, 55.51, 0, -25474.13, 35456.13)" gradientUnits="userSpaceOnUse"><stop offset="0" stop-color="#a81916"/><stop offset="0" stop-color="#a61917"/><stop offset="0.03" stop-color="#951720"/><stop offset="0.07" stop-color="#8a1626"/><stop offset="0.11" stop-color="#871628"/><stop offset="1" stop-color="#ec631c"/></linearGradient><linearGradient id="linear-gradient-65" x1="-620.38" y1="451.02" x2="-619.42" y2="451.02" gradientTransform="matrix(26.07, 0.71, 0.71, -26.07, 15894.97, 12249.11)" gradientUnits="userSpaceOnUse"><stop offset="0" stop-color="#a0182c"/><stop offset="0.19" stop-color="#b11822"/><stop offset="0.42" stop-color="#be171b"/><stop offset="0.63" stop-color="#c21718"/><stop offset="0.76" stop-color="#bf171a"/><stop offset="0.88" stop-color="#b41720"/><stop offset="0.99" stop-color="#a2182b"/><stop offset="1" stop-color="#a0182c"/></linearGradient><linearGradient id="linear-gradient-66" x1="-583.53" y1="449.12" x2="-582.57" y2="449.12" gradientTransform="matrix(8.59, -0.06, -0.06, -8.59, 5084.54, 3878.61)" gradientUnits="userSpaceOnUse"><stop offset="0" stop-color="#38381b"/><stop offset="0.17" stop-color="#696529"/><stop offset="0.43" stop-color="#514e20"/><stop offset="0.57" stop-color="#535122"/><stop offset="0.65" stop-color="#5c5929"/><stop offset="0.73" stop-color="#6a6734"/><stop offset="0.76" stop-color="#73713c"/><stop offset="1" stop-color="#484423"/></linearGradient><linearGradient id="linear-gradient-67" x1="-667.66" y1="417.23" x2="-666.7" y2="417.23" gradientTransform="matrix(-6.72, -8.2, -8.2, 6.72, -1013.03, -8218.24)" gradientUnits="userSpaceOnUse"><stop offset="0" stop-color="#c7c8ca"/><stop offset="0.42" stop-color="#fff"/><stop offset="1" stop-color="#87888a"/></linearGradient></defs><g id="Layer_2" data-name="Layer 2"><g id="Layer_2-2" data-name="Layer 2"><rect class="cls-1" x="23.13" y="15.28" width="8.06" height="6.74"/><path class="cls-2" d="M35.5,11.89c-2.06-2.37-3-1.36-5.48-1.74C23.67,9.14,22.1,5.34,19.6,0c-2.29,6-2.2,12.19-4,18.25-1.29,4.27-3.9,6.43-7,9.32C7.25,28.76,6,30,4.81,31.32H11a3,3,0,0,1,.29-.33,5.1,5.1,0,0,1,1.19-.74,3,3,0,0,0,.86-.18A1.05,1.05,0,0,1,14,30a1.21,1.21,0,0,0,.72-.11,3.42,3.42,0,0,1,1.79-.3l-1,.17a1.27,1.27,0,0,0-.5.42c-.28.33-.24.16-.07,0s.24-.33.19-.3a3.33,3.33,0,0,1-.71.26c-.16,0-.43-.11-.6,0a2.19,2.19,0,0,1-.67.21,4.37,4.37,0,0,0-.78.16,4.46,4.46,0,0,0-1.17.79s0,0-.08.1h4.21s0,0,.06,0,.1,0,.1,0h6.26a.59.59,0,0,0-.16-.07c-.31-.13-.58-.79-.69-1.1s-.2-.58-.34-.58c-2.35-.08,0-.55-.35-.66s-.47-.52-1-.45-.95.25-.83.5,0,.23-.25,0-.5-.25-.34-.35a1.17,1.17,0,0,0,.33-.37,6.48,6.48,0,0,0-1.73-.18l-.08,0c.12-.53.19-1.08.84-.57h0A.19.19,0,0,1,17,27.3c0-.18.63-.7-.09-.67s-.7-.09-.67-.23.37-.24.07-.29.22-.94.38-.84.27-.45.48-.41l.95.18s-.71-.28-.65-.47.37-.2.69-.21a1.73,1.73,0,0,0,.67-.23,7.18,7.18,0,0,1,1.93.51c.2.24.34.42.33.49s.3.15.53.25a1,1,0,0,1,.64.78c0,.44.53.42.75.83a3.8,3.8,0,0,1,.56,1.24,3.09,3.09,0,0,0,.95,1.62,1.75,1.75,0,0,1,.55,1.47h4A101.45,101.45,0,0,0,41.37,18.15C36.7,19.32,37.58,14.31,35.5,11.89Zm-1.77,3.4a.92.92,0,0,1,.28.14l.2.11.09,0h.06s0,0,0-.06,0-.09.06-.15a3.07,3.07,0,0,0-.49-.64l0-.14a5.13,5.13,0,0,1,1.06,1.71l-.18.4c0,.08-.07.13-.11.13s-.08,0-.14-.08a1.8,1.8,0,0,1-.17-.25,1.37,1.37,0,0,1-.15-.38.88.88,0,0,1,0-.36.08.08,0,0,1-.08,0,.46.46,0,0,1-.19-.09,1.46,1.46,0,0,0-.38-.18C33.69,15.4,33.7,15.36,33.73,15.29Zm-.23.55a4.82,4.82,0,0,1,1,1.58l-.17.33a.31.31,0,0,1-.07.12.12.12,0,0,1-.1,0,.27.27,0,0,1-.13-.1,1.73,1.73,0,0,1-.15-.2,2.41,2.41,0,0,1-.18-.42.64.64,0,0,1,0-.41,2.72,2.72,0,0,1,.11-.25,2.74,2.74,0,0,0-.45-.54A.69.69,0,0,0,33.5,15.84Zm-.8,1.81a3.83,3.83,0,0,1,.81,1l0-.24v-.21l.12.19a1.34,1.34,0,0,0,0,.34,2.05,2.05,0,0,0,.07.31.11.11,0,0,0,0,.06,4.89,4.89,0,0,0-1-1.37Zm-1,1.91a.21.21,0,0,1,.19-.13.35.35,0,0,1,.26.11c0,.06,0,.08,0,.13a.35.35,0,0,0-.19-.09.12.12,0,0,0-.11.07.27.27,0,0,0,0,.2.76.76,0,0,0,.13.2.26.26,0,0,0,.17.1.1.1,0,0,0,.12,0,.17.17,0,0,0,0-.1l.1.14s0,0,0,0a.4.4,0,0,0,0,.17.48.48,0,0,0,.09.21.4.4,0,0,0,.13.11.07.07,0,0,0,.09,0,.22.22,0,0,0,0-.16.64.64,0,0,0-.1-.23.6.6,0,0,0,.08-.08.76.76,0,0,1,.13.34.36.36,0,0,1,0,.26.12.12,0,0,1-.11.07.2.2,0,0,1-.14,0,.8.8,0,0,1-.13-.13.64.64,0,0,1-.1-.18.63.63,0,0,1,0-.19.16.16,0,0,1-.15,0,.5.5,0,0,1-.19-.13.77.77,0,0,1-.19-.31A.35.35,0,0,1,31.74,19.56Zm-.53,1,.27.22.21-.39.12.12c.17.44.25.67.39,1.12l-.05.09a4.79,4.79,0,0,0-.62-.72l-.07.12L31.35,21l.07-.12-.26-.22Zm-.49.85a.23.23,0,0,1,.19-.13.37.37,0,0,1,.27.09l-.05.12a.32.32,0,0,0-.18-.07.17.17,0,0,0-.12.08.21.21,0,0,0,0,.19.69.69,0,0,0,.15.21.46.46,0,0,0,.2.1.13.13,0,0,0,.14-.07.27.27,0,0,0,0-.12.28.28,0,0,0,0-.13.34.34,0,0,1,.08-.09,6.82,6.82,0,0,1,.43.62c-.09.16-.15.24-.24.4l-.11-.12c.08-.13.11-.2.2-.33l-.23-.32a.37.37,0,0,1,0,.22.21.21,0,0,1-.2.1.49.49,0,0,1-.28-.14.76.76,0,0,1-.21-.27A.34.34,0,0,1,30.72,21.43Zm-.54.94a.27.27,0,0,1,.26-.13.76.76,0,0,1,.43.23,1.11,1.11,0,0,1,.35.48.36.36,0,0,1,0,.31.19.19,0,0,1-.16.09.4.4,0,0,1-.21-.08l.05-.11a.28.28,0,0,0,.12.05.1.1,0,0,0,.11-.05.14.14,0,0,0,0-.11.47.47,0,0,0-.06-.19,1,1,0,0,0-.21-.24.31.31,0,0,1,0,.18.29.29,0,0,1,0,.14.21.21,0,0,1-.2.1.54.54,0,0,1-.28-.13.85.85,0,0,1-.16-.17.31.31,0,0,1-.08-.19A.27.27,0,0,1,30.18,22.37ZM22.82,12.6l.15.11c-.12.5-.18.74-.28,1.24l-.16-.1C22.63,13.35,22.69,13.1,22.82,12.6Zm-.34,1.51.15.1-.25,1.34-.16-.09C22.32,14.92,22.37,14.64,22.48,14.11Zm-.31,1.63.16.09c-.12.63-.17.94-.3,1.57l-.16-.08C22,16.69,22.06,16.37,22.17,15.74Zm-.74-4.08.3.31c-.19.86-.27,1.29-.42,2.16l-.3-.25C21.16,13,21.24,12.53,21.43,11.66Zm-2.69-4a.93.93,0,0,0,.15.6c.56.88.86,1.35,1.5,2.21.19.25.29.34.36.19-.07.41-.1.62-.16,1a29.65,29.65,0,0,1-1.87-2.47c-.12-.19-.18-.15-.24,0Zm.69,3.29a4,4,0,0,1,.92,2.45A1.25,1.25,0,0,0,20,12.7c-.6-.63-.89-1-1.44-1.63-.13-.15-.27-.26-.39-.05C18.33,10.53,18.64,9.92,19.43,10.91Zm-1.91,4.91a.64.64,0,0,0,.3.56c.59.33.88.47,1.5.76a.31.31,0,0,0,.43-.1,1,1,0,0,1-1.37.67C17.56,17.39,17.49,16.41,17.52,15.82Zm1,6.39a10.42,10.42,0,0,0,.61-1.14l.15,0a9.32,9.32,0,0,1-.61,1.12Zm.38.37-.15,0a9.11,9.11,0,0,0,1-1.75l.16,0A11.27,11.27,0,0,1,18.87,22.58ZM19.52,16c-.61-.37-.9-.55-1.48-1-.15-.1-.29-.15-.41.09.14-.51.48-1.21,1.28-.58a2.47,2.47,0,0,1,.94,1.95A.71.71,0,0,0,19.52,16ZM19,14.13a3.05,3.05,0,0,1-.87-2.42,1.08,1.08,0,0,0,.29.72c.56.57.86.87,1.46,1.4.15.13.3.22.42.06C20.13,14.26,19.77,14.81,19,14.13Zm1.5,4.39-.3-.12c.21-.84.29-1.26.45-2.13l.3.17C20.76,17.28,20.68,17.7,20.47,18.52Zm.2-2.57c.12-.7.18-1,.29-1.75l.3.24c-.12.68-.17,1-.29,1.7Zm.52,4.46L21,20.34c.13-.36.2-.54.31-.9l.15.07C21.39,19.87,21.33,20.06,21.19,20.41Zm.36-1.06-.16-.08c.09-.31.13-.46.21-.78l.16.08C21.68,18.88,21.64,19,21.55,19.35Zm.09-1c.07-.29.11-.43.17-.72l.15.08c-.06.29-.09.43-.16.72Zm.44,1.37-.24-.14c.12-.37.17-.55.27-.91l.26.15C22.26,19.17,22.2,19.35,22.08,19.71Zm.35-1.08-.27-.15c.11-.39.16-.59.25-1l.29.16C22.6,18.05,22.55,18.24,22.43,18.63Zm.32-1.17-.29-.16.25-1.14.33.17C22.93,16.78,22.87,17,22.75,17.46Zm.34-1.34-.34-.18c0-.21.07-.32.12-.52l.35.17Zm.15-.64a2.91,2.91,0,0,1-.35-.18c.05-.23.07-.34.13-.56l.36.18C23.32,15.15,23.3,15.26,23.24,15.48Zm-.2-.86c.06-.27.09-.4.16-.67l.39.19c-.08.27-.11.4-.18.66Zm.52,2.7c.41-1.31,3-1.48,4.56-1.12A2.77,2.77,0,0,1,29.89,20a3,3,0,0,1-4.07,1.2C24.32,20.5,23.15,18.62,23.56,17.32Zm6.36,7.08a.35.35,0,0,1,.14.06.32.32,0,0,1,.13.2.25.25,0,0,1,0,.22A.2.2,0,0,1,30,25a.3.3,0,0,1-.22-.06.27.27,0,0,1-.1-.11.32.32,0,0,1,0-.14.34.34,0,0,1-.17.05.56.56,0,0,1-.19-.07.47.47,0,0,1-.19-.23.25.25,0,0,1,0-.26.26.26,0,0,1,.22-.15.4.4,0,0,1,.29.08.43.43,0,0,1,.14.16.28.28,0,0,1,0,.18A.22.22,0,0,1,29.92,24.4Zm-1.19,2.29a.21.21,0,0,0-.06-.1.68.68,0,0,0-.18-.15.72.72,0,0,0-.27-.09.41.41,0,0,0-.22,0,.5.5,0,0,0-.15.14.38.38,0,0,0-.05.16.61.61,0,0,0,0,.15l.2.11.16-.25.12.07-.22.36-.41-.22a1.21,1.21,0,0,1,0-.25.48.48,0,0,1,.07-.21.46.46,0,0,1,.22-.19.5.5,0,0,1,.3,0,.94.94,0,0,1,.32.11.68.68,0,0,1,.24.2.32.32,0,0,1,.09.23.41.41,0,0,1-.08.25.57.57,0,0,1-.13.14.37.37,0,0,1-.16.07.46.46,0,0,1-.2,0,.53.53,0,0,1,0-.12.36.36,0,0,0,.14,0,.43.43,0,0,0,.12-.05.47.47,0,0,0,.1-.1.53.53,0,0,0,.05-.15A.17.17,0,0,0,28.73,26.69Zm-.05-1.23a.57.57,0,0,1-.13-.22.25.25,0,0,1,0-.21.31.31,0,0,1,.18-.12A.39.39,0,0,1,29,25l-.05.1a.33.33,0,0,0-.16,0,.1.1,0,0,0-.1.06.19.19,0,0,0,0,.1.27.27,0,0,0,0,.11.77.77,0,0,0,.1.12l.15.11h0a.33.33,0,0,1,0-.14.22.22,0,0,1,0-.14.26.26,0,0,1,.21-.12.43.43,0,0,1,.28.08.48.48,0,0,1,.19.22.33.33,0,0,1,0,.24.3.3,0,0,1-.14.11.34.34,0,0,1-.2,0,1.38,1.38,0,0,1-.31-.13A1.65,1.65,0,0,1,28.68,25.46Zm-1.57,2a5.88,5.88,0,0,0,.86.44.49.49,0,0,1,0-.13.33.33,0,0,1,0-.14l.12,0a.64.64,0,0,0,0,.2.53.53,0,0,0,.07.15l0,.06A5.27,5.27,0,0,1,27,27.53Zm1.21,1.38-.21-.06c.92-1.25,1.22-1.87,2-3l.21.13C29.54,27,29.24,27.57,28.32,28.81Zm2.09-4.58a1.74,1.74,0,0,0-.16-.36,1.8,1.8,0,0,0-.55-.64l.07-.11a1.65,1.65,0,0,1,.29.26,1.45,1.45,0,0,1,.25.36,1.2,1.2,0,0,1,.16.35l.26-.4.1.1-.33.52Zm.32,1.06-.2-.16c.85-1.23,1.27-1.83,2.09-3.06l.21.3C32,23.54,31.58,24.1,30.73,25.29Zm2.11-5.52a1,1,0,0,1-.1-.18,1.85,1.85,0,0,1-.09-.23c0-.09,0-.22-.08-.39s-.06-.23-.07-.27l0-.12-.23.45-.13-.11c.12-.25.19-.37.31-.62l.09.1a1.12,1.12,0,0,1,.1.22,1.59,1.59,0,0,1,.08.33,4.72,4.72,0,0,0,.12.46.84.84,0,0,0,.11.25.4.4,0,0,0,.14.13.08.08,0,0,0,.11,0,.26.26,0,0,0,0-.2.67.67,0,0,0-.12-.26l.08-.09a1.28,1.28,0,0,1,.16.4.56.56,0,0,1,0,.3.15.15,0,0,1-.19.08A.53.53,0,0,1,32.84,19.77Zm.43,2-.22-.34a32.3,32.3,0,0,0,2.23-3.83c.1.2.14.31.24.51A32.76,32.76,0,0,1,33.27,21.75Z"/><path class="cls-3" d="M25.9,21.06a2.82,2.82,0,0,0,3.8-1.16,2.56,2.56,0,0,0-1.65-3.54c-1.5-.35-3.82-.14-4.23,1.08S24.48,20.41,25.9,21.06ZM24,17.51c.41-1.18,2.6-1.41,4.06-1.07a2.45,2.45,0,0,1,1.57,3.4A2.7,2.7,0,0,1,25.94,21C24.57,20.35,23.55,18.69,24,17.51Z"/><path class="cls-3" d="M25.13,18a1.86,1.86,0,0,0,1.18,2.21,1.81,1.81,0,0,0,2.38-.85,1.56,1.56,0,0,0-1-2.18C26.73,17,25.46,17.24,25.13,18Zm2.58-.17.15-.51c.16.42.24.64.39,1.09l-.58.25c0,.14.13.15.21.15l.17-.15c0,.09,0,.13,0,.22a.26.26,0,0,1,.09.32.3.3,0,0,1-.39.15c-.12,0-.21-.17-.31-.07.1.17.16.26.26.44l-1.06.52c.07-.16.11-.25.19-.41s0-.34,0-.55a4,4,0,0,0-.27-.31,2.56,2.56,0,0,1-.11.24c-.34-.13-.52-.19-.89-.35a1.63,1.63,0,0,1,.09-.19l.69.26a.42.42,0,0,0,0-.06h0l0,0-.67-.26.08-.18.67.25a.75.75,0,0,1,.06-.13l-.67-.25a1.42,1.42,0,0,1,.08-.18l.67.24.08-.17-.68-.24a1,1,0,0,1,.07-.15l.92.32a2.4,2.4,0,0,1-.11.23h.3Zm-.63-.58a.36.36,0,0,1,0,.09,1.7,1.7,0,0,0-1.61.78A1.44,1.44,0,0,0,26,19.74a.25.25,0,0,0,0,.09,1.57,1.57,0,0,1-.61-1.72A1.84,1.84,0,0,1,27.08,17.28Z"/><path class="cls-3" d="M29.76,24.59a.15.15,0,0,0,0,.13.18.18,0,0,0,.08.11.2.2,0,0,0,.13,0,.11.11,0,0,0,.1-.06.19.19,0,0,0,0-.13.21.21,0,0,0-.08-.11.17.17,0,0,0-.13,0A.13.13,0,0,0,29.76,24.59Z"/><path class="cls-4" d="M7.52,31.32a2.4,2.4,0,0,1,.12-.38l.35,0c0,.13-.1.27-.14.41h2.26a.46.46,0,0,1-.1-.39c.06-.24.71-.58,1.17-1A6.65,6.65,0,0,1,12.72,29a12.28,12.28,0,0,1,1.9-.67c.49-.09,1.32-.19,1.74-.29a6.48,6.48,0,0,1,1.73.18,1.17,1.17,0,0,1-.33.37c-.16.1.11.14.34.35s.38.23.25,0,.28-.43.83-.5.68.33,1,.45-2,.57.35.66c.14,0,.23.28.34.58s.38,1,.69,1.1a.59.59,0,0,1,.16.07h5.12l.11-.05s0,0,0,.05h.1a3.5,3.5,0,0,0,.09-.55,2.07,2.07,0,0,1-.1.33l-.34.14a3,3,0,0,0,.1-.32l.35-.16v-.15l-.3.15a3.06,3.06,0,0,0,.05-.32l.25-.14a.92.92,0,0,0,0-.16l-.24.14c0-.11,0-.22,0-.33l.21-.12a1.24,1.24,0,0,1,0-.16l-.2.12a1.59,1.59,0,0,0-.08-.35l.18-.11-.06-.18a1.88,1.88,0,0,0-.18.12c-.05-.12-.11-.24-.18-.37l.2-.12-.11-.21-.19.13c-.08-.13-.16-.27-.27-.42l.21-.14-.15-.22-.21.14-.37-.43.23-.17c-.06-.07-.12-.15-.19-.22l-.23.19A5.6,5.6,0,0,0,25,27a3,3,0,0,0,.25-.23l-.21-.21a2.84,2.84,0,0,0-.26.24c-.15-.13-.31-.25-.48-.38a3.4,3.4,0,0,0,.26-.29l.13.1a14.51,14.51,0,0,0-1.35-1.08,7.08,7.08,0,0,0-3.5-1.33l.14,0-.12.36-.56-.14c0-.11.05-.19.08-.28h-.3c0,.08,0,.14-.06.24a2.65,2.65,0,0,0-.56,0,1.93,1.93,0,0,1,.05-.2,2.85,2.85,0,0,0-.29,0s0,.11,0,.18l-.56.1a1.91,1.91,0,0,0,0-.21l-.28,0a1.57,1.57,0,0,0,0,.23l-.57.18a2.23,2.23,0,0,0,0-.27l.21-.07a20,20,0,0,0-7.58,4.05,5.4,5.4,0,0,0-2,3.23ZM23.81,25.6l.54.36-.26.3-.52-.36ZM23,25.09l.34.2.23.13-.23.32-.22-.13-.33-.19C22.84,25.29,22.88,25.22,23,25.09Zm-.88-.44.59.29-.19.33L21.91,25Zm-.89-.39.6.25-.17.35a5.89,5.89,0,0,0-.58-.24A2.28,2.28,0,0,0,21.19,24.26Zm-.88-.3.59.19c0,.14-.08.22-.14.36-.2-.07-.38-.14-.57-.19ZM16,24.49l.59-.26c0,.1,0,.16,0,.26l-.56.24Zm-.29.14v.23l-.56.27c0-.09,0-.13,0-.21Zm-.88.43a1.91,1.91,0,0,1,0,.21l-.56.29a1.52,1.52,0,0,0-.06-.2Zm-.87.46.07.18-.55.3-.1-.18Zm-.87.46a1,1,0,0,1,.11.17l-.54.29-.13-.16C12.68,26.18,12.87,26.07,13.06,26Zm-.84.45.15.17-.52.3-.18-.15Zm-.82.47.19.15-.49.32-.22-.14Zm-.77.49.23.14-.45.33-.26-.13Zm-1,.76.3-.24.27.12-.41.35-.29-.11Zm-.33.3.29.11c-.12.11-.24.24-.35.36a1.92,1.92,0,0,1-.32-.09ZM8.74,29l.32.08a3.57,3.57,0,0,0-.3.38l-.34,0C8.52,29.3,8.63,29.16,8.74,29Zm-.46.61.34.05c-.09.13-.17.26-.25.39l-.35,0C8.1,29.92,8.19,29.78,8.28,29.64Zm-.37.64h.35a3,3,0,0,0-.19.41H7.72C7.78,30.57,7.84,30.42,7.91,30.28Z"/><path class="cls-5" d="M9.8,31.32c-.13-.11-.22-.32-.18-.8.12-1.34,7.37-3,7.37-3a2.21,2.21,0,0,0,.53-.41,3.68,3.68,0,0,0,.21-1.21,9.9,9.9,0,0,1-.19-1.11c0-.05.19-.53.19-.53l-.15,0A24.48,24.48,0,0,0,10,28.31a5.92,5.92,0,0,0-2,3Z"/><path class="cls-6" d="M21.45,6c-.79-1.47-1.16-2.32-1.79-3.62a13.47,13.47,0,0,0-.73,2.12C19.48,3.76,20.4,4.42,21.45,6Z"/><path class="cls-7" d="M38.23,20.82a12.84,12.84,0,0,0,1-1.27c-1.22-.17-1.62-1.05-2.38-2.71C37.63,19,38.31,20.17,38.23,20.82Z"/><path class="cls-8" d="M35.54,19.85C32.9,23.47,30.1,27,27.35,30.52a4.32,4.32,0,0,1-.25.8h1C31.58,28.14,34.8,24.5,38,21.08c.4-.83-.61-2.76-1.81-5.61A7.23,7.23,0,0,0,35,13.79C36,15.5,36.26,18.76,35.54,19.85Zm-1.65,4.83h0a.88.88,0,0,1-.86,0c-.32-.21-.22-.64-.14-.9a.28.28,0,0,0,.09.16,2.45,2.45,0,0,0,.84.6.45.45,0,0,0,.37,0Zm.62-.52c0-.06-.07-.09-.14-.12a2.52,2.52,0,0,1-.87-.66.25.25,0,0,0-.32-.08,1.5,1.5,0,0,1,.28-.18.83.83,0,0,1,.79.23C34.66,23.69,34.63,24,34.51,24.16Zm.89-.89h0a.84.84,0,0,1-.91-.11A.94.94,0,0,1,34.28,22a.38.38,0,0,0,.1.26,2.6,2.6,0,0,0,.91.82.43.43,0,0,0,.4,0l-.31.17Zm.6-.51a.31.31,0,0,0-.15-.15,2.57,2.57,0,0,1-1-.88c-.09-.12-.18-.21-.32-.15a.76.76,0,0,1,.28-.16c.21-.05.49,0,.82.39S36.11,22.54,36,22.76Zm.77-1.19c.15.09.24.09.33,0h0l-.41.47a2.53,2.53,0,0,1-1.28-1.2c-.08-.12-.13-.13-.2-.09h0l.42-.6a.4.4,0,0,0,.07.23A3,3,0,0,0,36.77,21.57Z"/><path class="cls-9" d="M20.15,9c.37-1.72,1.78-1,3.11.37a9.4,9.4,0,0,0,3.58,1.81h0c3.62.6,4.9.51,8,2.48C31.1,10,25.23,12.5,22.12,7.15,20.7,4.88,19.36,3.66,18.8,5c-1.73,9.27-1.57,16.84-9.33,23.13a28.41,28.41,0,0,1,5.71-3.32C18.83,19.9,19.15,14.84,20.15,9Z"/><path class="cls-10" d="M35.71,20.26h0v0Z"/><path class="cls-11" d="M7.35,31.32a6.35,6.35,0,0,1,2.12-3.23,43.48,43.48,0,0,0-3.28,3.23Z"/><path class="cls-12" d="M32.45,18.58l0,.12s0,.13.07.27.06.3.08.39a1.85,1.85,0,0,0,.09.23,1,1,0,0,0,.1.18.53.53,0,0,0,.22.21.15.15,0,0,0,.19-.08.56.56,0,0,0,0-.3,1.28,1.28,0,0,0-.16-.4l-.08.09a.67.67,0,0,1,.12.26.26.26,0,0,1,0,.2.08.08,0,0,1-.11,0,.4.4,0,0,1-.14-.13.84.84,0,0,1-.11-.25,4.72,4.72,0,0,1-.12-.46,1.59,1.59,0,0,0-.08-.33,1.12,1.12,0,0,0-.1-.22l-.09-.1c-.12.25-.19.37-.31.62l.13.11Z"/><path class="cls-13" d="M33.67,19.14a.11.11,0,0,1,0-.06,2.05,2.05,0,0,1-.07-.31,1.34,1.34,0,0,1,0-.34l-.12-.19v.21l0,.24a3.83,3.83,0,0,0-.81-1l-.05.12A4.89,4.89,0,0,1,33.67,19.14Z"/><path class="cls-14" d="M33.79,16.76a.64.64,0,0,0,0,.41,2.41,2.41,0,0,0,.18.42,1.73,1.73,0,0,0,.15.2.27.27,0,0,0,.13.1.12.12,0,0,0,.1,0,.31.31,0,0,0,.07-.12l.17-.33a4.82,4.82,0,0,0-1-1.58.69.69,0,0,1,0,.13,2.74,2.74,0,0,1,.45.54A2.72,2.72,0,0,0,33.79,16.76ZM34,16.7a4,4,0,0,1,.35.62,1.51,1.51,0,0,1-.11.22c0,.06,0,.09-.06.1s-.05,0-.09,0a.65.65,0,0,1-.12-.15.9.9,0,0,1-.11-.28.4.4,0,0,1,0-.24Z"/><path class="cls-15" d="M16.35,26.11c.3.05-.05.16-.07.29s0,.26.67.23.11.49.09.67a.19.19,0,0,0,.12.21h0c-.65-.51-.72,0-.84.57l.08,0a6.48,6.48,0,0,1,1.73.18,1.17,1.17,0,0,1-.33.37c-.16.1.11.14.34.35s.38.23.25,0,.28-.43.83-.5.68.33,1,.45-2,.57.35.66c.14,0,.23.28.34.58s.38,1,.69,1.1a.59.59,0,0,1,.16.07h3.36a1.75,1.75,0,0,0-.55-1.47,3.09,3.09,0,0,1-.95-1.62A3.8,3.8,0,0,0,23.05,27c-.22-.41-.72-.39-.75-.83a1,1,0,0,0-.64-.78c-.23-.1-.55-.08-.53-.25s-.13-.25-.33-.49a7.18,7.18,0,0,0-1.93-.51,1.73,1.73,0,0,1-.67.23c-.32,0-.62,0-.69.21s.65.47.65.47l-.95-.18c-.21,0-.33.5-.48.41S16.05,26.06,16.35,26.11Z"/><path class="cls-16" d="M18.38,17.71A1,1,0,0,0,19.75,17a.31.31,0,0,1-.43.1c-.62-.29-.91-.43-1.5-.76a.64.64,0,0,1-.3-.56C17.49,16.41,17.56,17.39,18.38,17.71Z"/><path class="cls-17" d="M28.11,28.75l.21.06c.92-1.24,1.22-1.84,2-2.95l-.21-.13C29.33,26.88,29,27.5,28.11,28.75Z"/><path class="cls-18" d="M11.12,31.32c0-.06.07-.1.08-.1a4.46,4.46,0,0,1,1.17-.79,4.37,4.37,0,0,1,.78-.16,2.19,2.19,0,0,0,.67-.21c.17-.08.44.06.6,0a3.33,3.33,0,0,0,.71-.26s0,.09-.19.3-.21.37.07,0a1.27,1.27,0,0,1,.5-.42l1-.17a3.42,3.42,0,0,0-1.79.3A1.21,1.21,0,0,1,14,30a1.05,1.05,0,0,0-.66.08,3,3,0,0,1-.86.18,5.1,5.1,0,0,0-1.19.74,3,3,0,0,0-.29.33Z"/><path class="cls-19" d="M19.83,20.83l-.16,0a9.11,9.11,0,0,1-1,1.75l.15,0A11.27,11.27,0,0,0,19.83,20.83Z"/><path class="cls-20" d="M32.83,22.37l-.21-.3c-.82,1.23-1.24,1.83-2.09,3.06l.2.16C31.58,24.1,32,23.54,32.83,22.37Z"/><path class="cls-21" d="M33.27,21.75a32.76,32.76,0,0,0,2.25-3.66c-.1-.2-.14-.31-.24-.51a32.3,32.3,0,0,1-2.23,3.83Z"/><path class="cls-22" d="M34.23,15.73a.08.08,0,0,0,.08,0,.88.88,0,0,0,0,.36,1.37,1.37,0,0,0,.15.38,1.8,1.8,0,0,0,.17.25c.06.06.1.09.14.08s.08,0,.11-.13l.18-.4A5.13,5.13,0,0,0,34,14.57l0,.14a3.07,3.07,0,0,1,.49.64c0,.06,0,.08-.06.15s0,.05,0,.06H34.3l-.09,0-.2-.11a.92.92,0,0,0-.28-.14c0,.07,0,.11-.07.17a1.46,1.46,0,0,1,.38.18A.46.46,0,0,0,34.23,15.73Zm.23.09c0-.11.07-.17.11-.28.14.24.21.37.34.63l-.13.29c0,.07-.07.1-.11.07a.51.51,0,0,1-.14-.17,1.54,1.54,0,0,1-.08-.19.67.67,0,0,1,0-.18A.35.35,0,0,1,34.46,15.82Z"/><path class="cls-23" d="M22.33,15.83l-.16-.09c-.11.63-.17,1-.3,1.58l.16.08C22.16,16.77,22.21,16.46,22.33,15.83Z"/><path class="cls-24" d="M25.82,21.21A3,3,0,0,0,29.89,20a2.77,2.77,0,0,0-1.77-3.81c-1.61-.36-4.15-.19-4.56,1.12S24.32,20.5,25.82,21.21Zm-2-3.77c.41-1.22,2.73-1.43,4.23-1.08A2.56,2.56,0,0,1,29.7,19.9a2.82,2.82,0,0,1-3.8,1.16C24.48,20.41,23.41,18.67,23.82,17.44Z"/><path class="cls-25" d="M25.94,21a2.7,2.7,0,0,0,3.65-1.14A2.45,2.45,0,0,0,28,16.44c-1.46-.34-3.65-.11-4.06,1.07S24.57,20.35,25.94,21Zm-.41-.55A3.24,3.24,0,0,1,25,20l.22-.12a3,3,0,0,0,.45.42Zm.91.44a2.32,2.32,0,0,1-.37-.13l-.25-.13.13-.2.23.11a1.61,1.61,0,0,0,.33.12A2,2,0,0,0,26.44,20.87Zm.33.07c0-.1,0-.15,0-.25a2.42,2.42,0,0,0,.6,0c0,.1,0,.15,0,.25A2.91,2.91,0,0,1,26.77,20.94Zm1-.05-.08-.25a2.21,2.21,0,0,0,.55-.23c.06.1.09.14.14.24A3.22,3.22,0,0,1,27.76,20.89Zm.89-.43-.18-.21a2.32,2.32,0,0,0,.4-.43l.24.16A1.91,1.91,0,0,1,28.65,20.46Zm.64-.78-.15,0-.12-.1a1.62,1.62,0,0,0,.16-.57l.28.06A2.15,2.15,0,0,1,29.29,19.68Zm.18-1-.28,0a1.71,1.71,0,0,0-.11-.59l.26-.07A2.22,2.22,0,0,1,29.47,18.69Zm-.65-1.51a2.53,2.53,0,0,1,.39.52l-.25.12a1.74,1.74,0,0,0-.33-.46ZM28,16.72a2.18,2.18,0,0,1,.58.26,1.77,1.77,0,0,1-.17.2,2.07,2.07,0,0,0-.52-.24C27.93,16.85,28,16.81,28,16.72Zm-.33-.07a1.87,1.87,0,0,0-.07.22,3.49,3.49,0,0,0-.65,0c0-.09,0-.14,0-.23A3.54,3.54,0,0,1,27.67,16.65Zm0,.56a1.56,1.56,0,0,1,1,2.18,1.81,1.81,0,0,1-2.38.85A1.86,1.86,0,0,1,25.13,18C25.46,17.24,26.73,17,27.69,17.21Zm-1.14-.59c0,.09,0,.14.06.23a5.2,5.2,0,0,0-.67.11l-.16-.22A4.76,4.76,0,0,1,26.55,16.62Zm-1.13.21.21.23a2,2,0,0,0-.52.28l-.29-.21A2.24,2.24,0,0,1,25.42,16.83Zm-1.05.87a1.07,1.07,0,0,1,.22-.37l.33.19a1.18,1.18,0,0,0-.25.45l-.34-.14A.5.5,0,0,1,24.37,17.7Zm-.08.41.34.11a1.74,1.74,0,0,0,.05.55l-.31,0A2,2,0,0,1,24.29,18.11Zm.19.95h.29a3.92,3.92,0,0,0,.29.53l-.25.09A3,3,0,0,1,24.48,19.06Z"/><path class="cls-26" d="M25.93,19.83a.25.25,0,0,1,0-.09,1.44,1.44,0,0,1-.54-1.59A1.7,1.7,0,0,1,27,17.37a.36.36,0,0,0,0-.09,1.84,1.84,0,0,0-1.76.83A1.57,1.57,0,0,0,25.93,19.83Z"/><path class="cls-27" d="M21,16.14c.12-.68.17-1,.29-1.7L21,14.2c-.11.7-.17,1.05-.29,1.75Z"/><path class="cls-28" d="M20.17,18.4l.3.12c.21-.82.29-1.24.45-2.08l-.3-.17C20.46,17.14,20.38,17.56,20.17,18.4Z"/><path class="cls-29" d="M18.72,9.19a29.65,29.65,0,0,0,1.87,2.47c.06-.42.09-.63.16-1-.07.15-.17.06-.36-.19-.64-.86-.94-1.33-1.5-2.21a.93.93,0,0,1-.15-.6L18.48,9.2C18.54,9,18.6,9,18.72,9.19Z"/><path class="cls-30" d="M20.27,13.89c-.12.16-.27.07-.42-.06-.6-.53-.9-.83-1.46-1.4a1.08,1.08,0,0,1-.29-.72A3.05,3.05,0,0,0,19,14.13C19.77,14.81,20.13,14.26,20.27,13.89Z"/><path class="cls-31" d="M18.58,11.07c.55.66.84,1,1.44,1.63a1.25,1.25,0,0,1,.33.66,4,4,0,0,0-.92-2.45c-.79-1-1.1-.38-1.24.11C18.31,10.81,18.45,10.92,18.58,11.07Z"/><path class="cls-32" d="M21.73,12l-.3-.31c-.19.87-.27,1.32-.42,2.22l.3.25C21.46,13.26,21.54,12.83,21.73,12Z"/><path class="cls-33" d="M26.92,18.11,26,17.79a1,1,0,0,0-.07.15l.68.24-.08.17-.67-.24a1.42,1.42,0,0,0-.08.18l.67.25a.75.75,0,0,0-.06.13l-.67-.25-.08.18.67.26,0,0h0a.42.42,0,0,1,0,.06l-.69-.26a1.63,1.63,0,0,0-.09.19c.37.16.55.22.89.35a2.56,2.56,0,0,0,.11-.24,4,4,0,0,1,.27.31c0,.21,0,.33,0,.55s-.12.25-.19.41l1.06-.52c-.1-.18-.16-.27-.26-.44.1-.1.19,0,.31.07a.3.3,0,0,0,.39-.15.26.26,0,0,0-.09-.32c0-.09,0-.13,0-.22l-.17.15c-.08,0-.21,0-.21-.15l.58-.25c-.15-.45-.23-.67-.39-1.09l-.15.51-.6.47h-.3A2.4,2.4,0,0,0,26.92,18.11Z"/><path class="cls-34" d="M18,15.06c.58.41.87.59,1.48,1a.71.71,0,0,1,.33.5,2.47,2.47,0,0,0-.94-1.95c-.8-.63-1.14.07-1.28.58C17.75,14.91,17.89,15,18,15.06Z"/><path class="cls-35" d="M30.08,24.68a.19.19,0,0,1,0,.13.11.11,0,0,1-.1.06.2.2,0,0,1-.13,0,.18.18,0,0,1-.08-.11.15.15,0,0,1,0-.13.13.13,0,0,1,.11-.06.17.17,0,0,1,.13,0A.21.21,0,0,1,30.08,24.68Z"/><path class="cls-1" d="M9.31,31.08c.06.07,0,.11.08.13s0,.05,0,.11h.91a1.13,1.13,0,0,0-.08-.24c-.17-.31.14-.66,2.39-1.83s2.63-.83,2.84-.89,1.74-.13,1.74-.13c-.08-.37-.11-.56-.18-.93l-.09,0a3.75,3.75,0,0,0-1.69-.16,6.76,6.76,0,0,1-1.15.43,5.55,5.55,0,0,0-1.29.45,7.92,7.92,0,0,1-1.12.57,7.1,7.1,0,0,0-1.39.65,7.68,7.68,0,0,0-1,.81c-.2.21-.27.59-.19.68S9.25,31,9.31,31.08Z"/><path class="cls-13" d="M33.6,18.43l-.12-.19v.21l0,.24a3.83,3.83,0,0,0-.81-1l-.05.12a4.89,4.89,0,0,1,1,1.37.11.11,0,0,1,0-.06,2.05,2.05,0,0,1-.07-.31A1.34,1.34,0,0,1,33.6,18.43Z"/><path class="cls-12" d="M33.13,19.2l-.08.09a.67.67,0,0,1,.12.26.26.26,0,0,1,0,.2.08.08,0,0,1-.11,0,.4.4,0,0,1-.14-.13.84.84,0,0,1-.11-.25,4.72,4.72,0,0,1-.12-.46,1.59,1.59,0,0,0-.08-.33,1.12,1.12,0,0,0-.1-.22l-.09-.1c-.12.25-.19.37-.31.62l.13.11.23-.45,0,.12s0,.13.07.27.06.3.08.39a1.85,1.85,0,0,0,.09.23,1,1,0,0,0,.1.18.53.53,0,0,0,.22.21.15.15,0,0,0,.19-.08.56.56,0,0,0,0-.3A1.28,1.28,0,0,0,33.13,19.2Z"/><path class="cls-20" d="M30.53,25.13l.2.16c.85-1.19,1.28-1.75,2.1-2.92l-.21-.3C31.8,23.3,31.38,23.9,30.53,25.13Z"/><path class="cls-36" d="M30.73,23.69l-.26.4a1.2,1.2,0,0,0-.16-.35,1.45,1.45,0,0,0-.25-.36,1.65,1.65,0,0,0-.29-.26l-.07.11a1.8,1.8,0,0,1,.55.64,1.74,1.74,0,0,1,.16.36l.09.08.33-.52Z"/><path class="cls-37" d="M30.06,24.46a.35.35,0,0,0-.14-.06.22.22,0,0,0-.13,0,.28.28,0,0,0,0-.18.43.43,0,0,0-.14-.16.4.4,0,0,0-.29-.08.26.26,0,0,0-.22.15.25.25,0,0,0,0,.26.47.47,0,0,0,.19.23.56.56,0,0,0,.19.07.34.34,0,0,0,.17-.05.32.32,0,0,0,0,.14.27.27,0,0,0,.1.11A.3.3,0,0,0,30,25a.2.2,0,0,0,.17-.11.25.25,0,0,0,0-.22A.32.32,0,0,0,30.06,24.46Z"/><path class="cls-38" d="M23,14.79h.13L23,14.74A.08.08,0,0,0,23,14.79Z"/><path class="cls-39" d="M30.12,25.73c-.74,1.09-1.06,1.7-1.87,2.82a2.28,2.28,0,0,0,.58-.45c.56-.81.88-1.37,1.5-2.24Z"/><path class="cls-40" d="M29.47,25.23a.43.43,0,0,0-.28-.08.26.26,0,0,0-.21.12.22.22,0,0,0,0,.14.33.33,0,0,0,0,.14h0l-.15-.11a.77.77,0,0,1-.1-.12.27.27,0,0,1,0-.11.19.19,0,0,1,0-.1.1.1,0,0,1,.1-.06.33.33,0,0,1,.16,0L29,25a.39.39,0,0,0-.25-.05.31.31,0,0,0-.18.12.25.25,0,0,0,0,.21.57.57,0,0,0,.13.22,1.65,1.65,0,0,0,.3.23,1.38,1.38,0,0,0,.31.13.34.34,0,0,0,.2,0,.3.3,0,0,0,.14-.11.33.33,0,0,0,0-.24A.48.48,0,0,0,29.47,25.23Z"/><path class="cls-22" d="M34,14.71a3.07,3.07,0,0,1,.49.64c0,.06,0,.08-.06.15s0,.05,0,.06H34.3l-.09,0-.2-.11a.92.92,0,0,0-.28-.14c0,.07,0,.11-.07.17a1.46,1.46,0,0,1,.38.18.46.46,0,0,0,.19.09.08.08,0,0,0,.08,0,.88.88,0,0,0,0,.36,1.37,1.37,0,0,0,.15.38,1.8,1.8,0,0,0,.17.25c.06.06.1.09.14.08s.08,0,.11-.13l.18-.4A5.13,5.13,0,0,0,34,14.57Z"/><path class="cls-14" d="M33.45,16a2.74,2.74,0,0,1,.45.54,2.72,2.72,0,0,0-.11.25.64.64,0,0,0,0,.41,2.41,2.41,0,0,0,.18.42,1.73,1.73,0,0,0,.15.2.27.27,0,0,0,.13.1.12.12,0,0,0,.1,0,.31.31,0,0,0,.07-.12l.17-.33a4.82,4.82,0,0,0-1-1.58A.69.69,0,0,1,33.45,16Z"/><path class="cls-41" d="M28.55,26.33a.94.94,0,0,0-.32-.11.5.5,0,0,0-.3,0,.46.46,0,0,0-.22.19.48.48,0,0,0-.07.21,1.21,1.21,0,0,0,0,.25l.41.22.22-.36-.12-.07-.16.25-.2-.11a.61.61,0,0,1,0-.15.38.38,0,0,1,.05-.16.5.5,0,0,1,.15-.14.41.41,0,0,1,.22,0,.72.72,0,0,1,.27.09.68.68,0,0,1,.18.15.21.21,0,0,1,.06.1.17.17,0,0,1,0,.12.53.53,0,0,1-.05.15.47.47,0,0,1-.1.1.43.43,0,0,1-.12.05.36.36,0,0,1-.14,0,.53.53,0,0,0,0,.12.46.46,0,0,0,.2,0,.37.37,0,0,0,.16-.07A.57.57,0,0,0,28.8,27a.41.41,0,0,0,.08-.25.32.32,0,0,0-.09-.23A.68.68,0,0,0,28.55,26.33Z"/><path class="cls-42" d="M23,14.62l.37.18c.07-.26.1-.39.18-.66L23.2,14C23.13,14.22,23.1,14.35,23,14.62Z"/><path class="cls-43" d="M22.53,13.85l.16.1c.1-.5.16-.74.28-1.24l-.15-.11C22.69,13.1,22.63,13.35,22.53,13.85Z"/><path class="cls-44" d="M31.91,20.17a.5.5,0,0,0,.19.13.16.16,0,0,0,.15,0,.63.63,0,0,0,0,.19.64.64,0,0,0,.1.18.8.8,0,0,0,.13.13.2.2,0,0,0,.14,0,.12.12,0,0,0,.11-.07.36.36,0,0,0,0-.26.76.76,0,0,0-.13-.34.6.6,0,0,1-.08.08.64.64,0,0,1,.1.23.22.22,0,0,1,0,.16.07.07,0,0,1-.09,0,.4.4,0,0,1-.13-.11.48.48,0,0,1-.09-.21.4.4,0,0,1,0-.17s0,0,0,0l-.1-.14a.17.17,0,0,1,0,.1.1.1,0,0,1-.12,0,.26.26,0,0,1-.17-.1.76.76,0,0,1-.13-.2.27.27,0,0,1,0-.2.12.12,0,0,1,.11-.07.35.35,0,0,1,.19.09c0-.05,0-.07,0-.13a.35.35,0,0,0-.26-.11.21.21,0,0,0-.19.13.35.35,0,0,0,0,.3A.77.77,0,0,0,31.91,20.17Z"/><path class="cls-45" d="M33.05,21.41l.22.34c.25-.36.46-.68.65-1,.4-.74.77-1.44.94-1.69a5.07,5.07,0,0,0,.48-1.39l-.06-.12A32.3,32.3,0,0,1,33.05,21.41Z"/><path class="cls-46" d="M22.48,14.11c-.05.24-.09.44-.12.62l.17,0,.1-.54Z"/><path class="cls-47" d="M28.08,27.65l-.12,0a.33.33,0,0,0,0,.14.49.49,0,0,0,0,.13,5.88,5.88,0,0,1-.86-.44l-.07.1a5.27,5.27,0,0,0,1.08.53l0-.06a.53.53,0,0,1-.07-.15A.64.64,0,0,1,28.08,27.65Z"/><path class="cls-48" d="M30.39,22.91a.54.54,0,0,0,.28.13.21.21,0,0,0,.2-.1.29.29,0,0,0,0-.14.31.31,0,0,0,0-.18,1,1,0,0,1,.21.24.47.47,0,0,1,.06.19.14.14,0,0,1,0,.11.1.1,0,0,1-.11.05.28.28,0,0,1-.12-.05l-.05.11a.4.4,0,0,0,.21.08.19.19,0,0,0,.16-.09.36.36,0,0,0,0-.31,1.11,1.11,0,0,0-.35-.48.76.76,0,0,0-.43-.23.27.27,0,0,0-.26.13.27.27,0,0,0,0,.18.31.31,0,0,0,.08.19A.85.85,0,0,0,30.39,22.91Z"/><path class="cls-49" d="M31.35,21l.11.11.07-.12a4.79,4.79,0,0,1,.62.72l.05-.09c-.14-.45-.22-.68-.39-1.12l-.12-.12-.21.39-.27-.22-.05.11.26.22Z"/><path class="cls-50" d="M30.93,22a.49.49,0,0,0,.28.14.21.21,0,0,0,.2-.1.37.37,0,0,0,0-.22l.23.32c-.09.13-.12.2-.2.33l.11.12c.09-.16.15-.24.24-.4a6.82,6.82,0,0,0-.43-.62.34.34,0,0,0-.08.09.28.28,0,0,1,0,.13.27.27,0,0,1,0,.12.13.13,0,0,1-.14.07.46.46,0,0,1-.2-.1.69.69,0,0,1-.15-.21.21.21,0,0,1,0-.19.17.17,0,0,1,.12-.08.32.32,0,0,1,.18.07l.05-.12a.37.37,0,0,0-.27-.09.23.23,0,0,0-.19.13.34.34,0,0,0,0,.34A.76.76,0,0,0,30.93,22Z"/><path class="cls-51" d="M70.14,35.81a3,3,0,0,1-.75,4.24L28.52,68.67a3,3,0,0,1-4.24-.75L9,46a3,3,0,0,1,.75-4.24L50.57,13.17a3,3,0,0,1,4.24.75Z"/><path class="cls-52" d="M66,35.44A2.57,2.57,0,0,1,65.19,39L29,64.36a2.58,2.58,0,0,1-3.61-.44L13.08,46.4a2.57,2.57,0,0,1,.82-3.54L50.14,17.48a2.58,2.58,0,0,1,3.61.45Z"/><path class="cls-53" d="M58.11,29.64a4.2,4.2,0,1,1-5.84-1A4.2,4.2,0,0,1,58.11,29.64Z"/><path class="cls-54" d="M27.78,50.88a4.2,4.2,0,1,1-5.85-1A4.2,4.2,0,0,1,27.78,50.88Z"/><path class="cls-55" d="M46.47,37.8C49.7,42.42,49.23,48.34,45.41,51s-9.55,1.1-12.78-3.52-2.77-10.54,1-13.22S43.23,33.17,46.47,37.8Z"/><path class="cls-56" d="M45.17,42.11c-1.16-1.65-2.88-2-5.49-1.36-1.91.49-2.8.62-3.33-.13s-.23-1.52.92-2.32a6.63,6.63,0,0,1,2.84-1.16l-.91-2.56a8.47,8.47,0,0,0-2.87,1.16l-.22-.31c-.36-.52-.85-.8-1.1-.62l-1.28.89c-.24.18-.15.73.21,1.25l.35.51a4.18,4.18,0,0,0-.45,5.26c1.19,1.7,3.21,1.89,5.63,1.21,1.76-.49,2.61-.46,3.12.27s.25,1.72-1,2.57a8.22,8.22,0,0,1-3.45,1.33l1,2.57a9.2,9.2,0,0,0,3.44-1.34l.37.53c.36.51.85.79,1.1.62l1.28-.9c.25-.17.15-.73-.21-1.24l-.51-.73A4.29,4.29,0,0,0,45.17,42.11Z"/><path class="cls-51" d="M72,45.09a3,3,0,0,1-1.47,4L25.29,70.23a3,3,0,0,1-4.05-1.48L9.94,44.53a3,3,0,0,1,1.48-4L56.64,19.4a3,3,0,0,1,4,1.47Z"/><path class="cls-57" d="M68,45.73a2.59,2.59,0,0,1-1.42,3.35l-40.1,18.7A2.58,2.58,0,0,1,23,66.71L14,47.34A2.58,2.58,0,0,1,15.36,44l40.1-18.7a2.58,2.58,0,0,1,3.48,1.07Z"/><path class="cls-58" d="M61.51,37a4.2,4.2,0,1,1-5.58-2A4.19,4.19,0,0,1,61.51,37Z"/><path class="cls-59" d="M28,52.6a4.2,4.2,0,1,1-5.58-2A4.2,4.2,0,0,1,28,52.6Z"/><path class="cls-60" d="M48.62,43c2.38,5.12.89,10.86-3.34,12.84s-9.59-.58-12-5.69-.89-10.87,3.34-12.84S46.23,37.85,48.62,43Z"/><path class="cls-61" d="M46.59,47c-.85-1.83-2.48-2.52-5.16-2.3-2,.15-2.88.12-3.26-.7s0-1.54,1.3-2.13a6.8,6.8,0,0,1,3-.65L42,38.54a8.65,8.65,0,0,0-3,.63l-.16-.34c-.26-.57-.7-.93-1-.8l-1.42.66c-.27.13-.28.69,0,1.26l.26.56a4.21,4.21,0,0,0-1.37,5.11c.88,1.88,2.84,2.42,5.35,2.17,1.82-.17,2.65,0,3,.81s0,1.74-1.4,2.36a8.11,8.11,0,0,1-3.63.71l.54,2.7a9.12,9.12,0,0,0,3.62-.72l.27.59c.27.57.7.93,1,.8l1.41-.66c.27-.13.28-.69,0-1.27l-.38-.8A4.28,4.28,0,0,0,46.59,47Z"/><path class="cls-62" d="M67,74.53a5.89,5.89,0,0,1-5.78,6H5.78a5.89,5.89,0,0,1-5.78-6V33.11a5.89,5.89,0,0,1,5.78-6H61.19a5.89,5.89,0,0,1,5.78,6Z"/><path class="cls-63" d="M63.35,72.51a5.13,5.13,0,0,1-1.83,3.95L62,77a5.84,5.84,0,0,0,2.09-4.51Zm0-5.87v4.82h.72V66.64Zm0-6.74v4.82h.72V59.9Zm0-6.75V58h.72V53.15Zm0-6.74v4.82h.72V46.41Zm0-6.75v4.82h.72V39.66ZM63,33.12a5.1,5.1,0,0,1,.4,2v2.62h.72V35.12a5.94,5.94,0,0,0-.45-2.28Zm-5.05-3h.59A4.74,4.74,0,0,1,62,31.61l.53-.49a5.42,5.42,0,0,0-4-1.76H57.9Zm-6.75,0H56v-.72H51.15Zm-6.74,0h4.81v-.72H44.41Zm-6.75,0h4.82v-.72H37.66Zm-6.74,0h4.81v-.72H30.92Zm-6.75,0H29v-.72H24.17Zm-6.74,0h4.81v-.72H17.43Zm-6.75,0H15.5v-.72H10.68ZM4.79,31.84a4.78,4.78,0,0,1,3.69-1.76h.27v-.72H8.48a5.46,5.46,0,0,0-4.25,2ZM3.62,38.06V35.12a5.19,5.19,0,0,1,.29-1.73l-.68-.23a6,6,0,0,0-.33,2v2.94Zm0,6.74V40H2.9V44.8Zm0,6.75V46.73H2.9v4.82Zm0,6.74V53.48H2.9v4.81Zm0,6.75V60.22H2.9V65Zm0,6.74V67H2.9v4.81Zm2.77,5.29a5,5,0,0,1-2.65-3.45L3,73.78a5.77,5.77,0,0,0,3,3.94Zm6.5.49H8.1L8,78.27h4.85Zm6.74,0H14.81v.72h4.82Zm6.75,0H21.56v.72h4.82Zm6.74,0H28.3v.72h4.82Zm6.75,0H35.05v.72h4.82Zm6.74,0H41.79v.72h4.82Zm6.75,0H48.54v.72h4.82Zm6.6-.23a4.76,4.76,0,0,1-1.47.23H55.28v.72h3.21a5.36,5.36,0,0,0,1.7-.27Z"/><path class="cls-64" d="M43,56.75a3,3,0,0,0,3.16,2.87H66.08a3,3,0,0,0,3.16-2.87V49.64a3,3,0,0,0-3.16-2.87H46.19A3,3,0,0,0,43,49.64Z"/><path class="cls-63" d="M45.94,55.93a2.46,2.46,0,0,0,2.55,2.33h.21V58h-.21a2.22,2.22,0,0,1-2.31-2.09Zm0-4.08v3.86h.24V51.85Zm3.29-3.72h-.74A2.53,2.53,0,0,0,46,49.9l.24.06a2.28,2.28,0,0,1,2.24-1.59h.74Zm5.78,0H51.16v.24H55Zm5.78,0H56.94v.24h3.85Zm5.35,1.45a2.56,2.56,0,0,0-2.36-1.45H62.72v.24h1.06a2.31,2.31,0,0,1,2.14,1.31Zm.19,5.81V51.53h-.24v3.86Zm-4.14,2.87h1.59a2.6,2.6,0,0,0,2.07-1l-.18-.14a2.41,2.41,0,0,1-1.89.88H62.19Zm-5.78,0h3.85V58H56.41Zm-5.78,0h3.85V58H50.63Z"/><path class="cls-65" d="M53.2,53.06a4.36,4.36,0,1,1-4.36-4.36A4.36,4.36,0,0,1,53.2,53.06Z"/><path class="cls-66" d="M52.8,53.06a4,4,0,1,1-4-4A4,4,0,0,1,52.8,53.06Z"/></g></g></svg>