<svg xmlns="http://www.w3.org/2000/svg" xmlns:xlink="http://www.w3.org/1999/xlink" viewBox="0 0 63.56 70.55"><defs><style>.cls-1{fill:#fff;}.cls-2{fill:#fefefe;}.cls-3{fill:#fdfdfd;}.cls-4{fill:#fcfcfc;}.cls-5{fill:#fbfbfb;}.cls-6{fill:#fafafa;}.cls-7{fill:#f9f9f9;}.cls-8{fill:#f8f8f8;}.cls-9{fill:#f7f7f7;}.cls-10{fill:#f7f7f6;}.cls-11{fill:#f6f6f6;}.cls-12{fill:#f5f5f5;}.cls-13{fill:#f4f4f4;}.cls-14{fill:#f3f3f3;}.cls-15{fill:#f2f2f2;}.cls-16{fill:#f2f1f1;}.cls-17{fill:#f1f1f1;}.cls-18{fill:#f0f0f0;}.cls-19{fill:#efefef;}.cls-20{fill:#eee;}.cls-21{fill:#ededed;}.cls-22{fill:#ececec;}.cls-23{fill:#ebebeb;}.cls-24{fill:#eaeaea;}.cls-25{fill:#eaeae9;}.cls-26{fill:#e9e9e9;}.cls-27{fill:#e8e8e8;}.cls-28{fill:#e7e7e7;}.cls-29{fill:#e6e6e6;}.cls-30{fill:#e5e5e5;}.cls-31{fill:#e5e4e4;}.cls-32{fill:#e4e4e4;}.cls-33{fill:#e3e3e3;}.cls-34{fill:#e2e2e2;}.cls-35{fill:#e2e2e1;}.cls-36{fill:#e1e1e1;}.cls-37{fill:#e0e0e0;}.cls-38{fill:#e0dfdf;}.cls-39{fill:#dfdfdf;}.cls-40{fill:#dedede;}.cls-41{fill:#ddd;}.cls-42{fill:#dddddc;}.cls-43{fill:#dcdcdc;}.cls-44{fill:#dbdbdb;}.cls-45{fill:#dadada;}.cls-46{fill:#dadad9;}.cls-47{fill:#d9d9d9;}.cls-48{fill:#d8d8d8;}.cls-49{fill:#d7d7d7;}.cls-50{fill:#d7d7d6;}.cls-51{fill:#d6d6d6;}.cls-52{fill:#d5d5d5;}.cls-53{fill:#d4d4d4;}.cls-54{fill:#d4d3d3;}.cls-55{fill:#d3d3d3;}.cls-56{fill:#d2d2d2;}.cls-57{fill:#d1d1d1;}.cls-58{fill:#d0d0d0;}.cls-59{fill:#d0d0cf;}.cls-60{fill:#cfcfcf;}.cls-61{fill:#cecece;}.cls-62{fill:#cdcdcd;}.cls-63{fill:#cdcccc;}.cls-64{fill:#cccccb;}.cls-65{fill:#cbcbcb;}.cls-66{fill:#cacaca;}.cls-67{fill:#cac9c9;}.cls-68{fill:#c9c9c8;}.cls-69{fill:#c8c8c8;}.cls-70{fill:#c7c7c7;}.cls-71{fill:#c6c6c6;}.cls-72{fill:#c6c6c5;}.cls-73{fill:#c5c5c5;}.cls-74{fill:#c4c4c4;}.cls-75{fill:#c3c3c3;}.cls-76{fill:#c3c3c2;}.cls-77{fill:#c2c2c1;}.cls-78{fill:#c1c1c1;}.cls-79{fill:silver;}.cls-80{fill:#c0bfbf;}.cls-81{fill:#bfbfbe;}.cls-82{fill:#bebebe;}.cls-83{fill:#bdbdbd;}.cls-84{fill:#a6a6a6;}.Graphic-Style-518{fill:url(#linear-gradient);}.Graphic-Style-517{fill:url(#linear-gradient-2);}.Graphic-Style-516{fill:#212121;}.Graphic-Style-515{fill:#3d3d3d;}.Graphic-Style-514{fill:url(#linear-gradient-3);}</style><linearGradient id="linear-gradient" x1="31.99" y1="67.46" x2="31.99" gradientUnits="userSpaceOnUse"><stop offset="0" stop-color="#4f3d1a"/><stop offset="0.13" stop-color="#675a36"/><stop offset="1" stop-color="#837044"/></linearGradient><linearGradient id="linear-gradient-2" x1="31.99" y1="66.17" x2="31.99" y2="1.29" gradientUnits="userSpaceOnUse"><stop offset="0" stop-color="#e3e3e2"/><stop offset="0.4" stop-color="#f8f7f7"/><stop offset="1" stop-color="#fff"/></linearGradient><linearGradient id="linear-gradient-3" x1="34.7" y1="60.36" x2="34.7" y2="8.53" gradientTransform="translate(0 -0.7)" gradientUnits="userSpaceOnUse"><stop offset="0" stop-color="#8c8c8c"/><stop offset="1" stop-color="#b4b4b4"/></linearGradient></defs><g id="Layer_2" data-name="Layer 2"><g id="Layer_2-2" data-name="Layer 2"><path class="cls-1" d="M63.56,67.61c0,1.62-14.23,2.94-31.78,2.94S0,69.23,0,67.61s14.23-2.93,31.78-2.93S63.56,66,63.56,67.61Z"/><path class="cls-2" d="M63.46,67.61c0,1.61-14.18,2.91-31.68,2.91S.1,69.22.1,67.61s14.18-2.9,31.68-2.9S63.46,66,63.46,67.61Z"/><path class="cls-2" d="M63.37,67.61c0,1.59-14.15,2.88-31.59,2.88S.2,69.2.2,67.61s14.14-2.88,31.58-2.88S63.37,66,63.37,67.61Z"/><path class="cls-3" d="M63.27,67.6c0,1.58-14.1,2.86-31.49,2.86S.3,69.18.3,67.6s14.09-2.85,31.48-2.85S63.27,66,63.27,67.6Z"/><path class="cls-4" d="M63.17,67.6c0,1.56-14.06,2.83-31.39,2.83S.4,69.16.4,67.6s14.05-2.83,31.38-2.83S63.17,66,63.17,67.6Z"/><path class="cls-4" d="M63.07,67.59c0,1.56-14,2.81-31.29,2.81S.49,69.15.49,67.59s14-2.8,31.29-2.8S63.07,66,63.07,67.59Z"/><path class="cls-5" d="M63,67.59c0,1.54-14,2.79-31.19,2.79S.59,69.13.59,67.59s14-2.78,31.19-2.78S63,66.05,63,67.59Z"/><path class="cls-6" d="M62.87,67.59c0,1.52-13.92,2.76-31.09,2.76S.69,69.11.69,67.59s13.92-2.76,31.09-2.76S62.87,66.06,62.87,67.59Z"/><path class="cls-7" d="M62.77,67.58c0,1.51-13.87,2.74-31,2.74s-31-1.23-31-2.74,13.87-2.73,31-2.73S62.77,66.07,62.77,67.58Z"/><path class="cls-7" d="M62.67,67.58c0,1.49-13.83,2.71-30.89,2.71S.89,69.07.89,67.58s13.83-2.71,30.89-2.71S62.67,66.08,62.67,67.58Z"/><path class="cls-8" d="M62.58,67.57c0,1.49-13.79,2.69-30.8,2.69S1,69.06,1,67.57s13.78-2.68,30.79-2.68S62.58,66.09,62.58,67.57Z"/><path class="cls-9" d="M62.48,67.57c0,1.47-13.75,2.66-30.7,2.66S1.09,69,1.09,67.57s13.74-2.66,30.69-2.66S62.48,66.1,62.48,67.57Z"/><path class="cls-10" d="M62.38,67.56c0,1.46-13.7,2.64-30.6,2.64S1.19,69,1.19,67.56s13.69-2.63,30.59-2.63S62.38,66.11,62.38,67.56Z"/><path class="cls-11" d="M62.28,67.56c0,1.44-13.66,2.61-30.5,2.61S1.28,69,1.28,67.56,14.94,65,31.78,65,62.28,66.12,62.28,67.56Z"/><path class="cls-12" d="M62.18,67.56c0,1.42-13.61,2.58-30.4,2.58S1.38,69,1.38,67.56,15,65,31.78,65,62.18,66.13,62.18,67.56Z"/><path class="cls-13" d="M62.08,67.55c0,1.42-13.57,2.56-30.3,2.56S1.48,69,1.48,67.55,15.05,65,31.78,65,62.08,66.14,62.08,67.55Z"/><path class="cls-13" d="M62,67.55c0,1.4-13.52,2.54-30.2,2.54S1.58,69,1.58,67.55,15.1,65,31.78,65,62,66.15,62,67.55Z"/><path class="cls-14" d="M61.88,67.54c0,1.39-13.48,2.52-30.1,2.52s-30.1-1.13-30.1-2.52S15.16,65,31.78,65,61.88,66.16,61.88,67.54Z"/><path class="cls-15" d="M61.78,67.54c0,1.37-13.43,2.49-30,2.49s-30-1.12-30-2.49,13.43-2.48,30-2.48S61.78,66.17,61.78,67.54Z"/><path class="cls-16" d="M61.69,67.54C61.69,68.9,48.3,70,31.78,70s-29.9-1.1-29.9-2.46,13.38-2.46,29.9-2.46S61.69,66.18,61.69,67.54Z"/><path class="cls-17" d="M61.59,67.53c0,1.35-13.35,2.44-29.81,2.44S2,68.88,2,67.53s13.34-2.43,29.8-2.43S61.59,66.19,61.59,67.53Z"/><path class="cls-18" d="M61.49,67.53c0,1.33-13.3,2.41-29.71,2.41S2.07,68.86,2.07,67.53s13.3-2.41,29.71-2.41S61.49,66.2,61.49,67.53Z"/><path class="cls-19" d="M61.39,67.52c0,1.32-13.26,2.39-29.61,2.39S2.17,68.84,2.17,67.52s13.26-2.38,29.61-2.38S61.39,66.21,61.39,67.52Z"/><path class="cls-19" d="M61.29,67.52c0,1.3-13.21,2.36-29.51,2.36S2.27,68.82,2.27,67.52s13.21-2.36,29.51-2.36S61.29,66.22,61.29,67.52Z"/><path class="cls-20" d="M61.19,67.52c0,1.29-13.17,2.33-29.41,2.33s-29.41-1-29.41-2.33,13.17-2.34,29.41-2.34S61.19,66.23,61.19,67.52Z"/><path class="cls-21" d="M61.09,67.51c0,1.28-13.12,2.32-29.31,2.32s-29.31-1-29.31-2.32S15.59,65.2,31.78,65.2,61.09,66.24,61.09,67.51Z"/><path class="cls-22" d="M61,67.51c0,1.26-13.08,2.29-29.21,2.29s-29.21-1-29.21-2.29,13.08-2.29,29.21-2.29S61,66.25,61,67.51Z"/><path class="cls-22" d="M60.9,67.5c0,1.25-13,2.27-29.12,2.27s-29.11-1-29.11-2.27,13-2.26,29.11-2.26S60.9,66.25,60.9,67.5Z"/><path class="cls-23" d="M60.8,67.5c0,1.23-13,2.24-29,2.24s-29-1-29-2.24,13-2.24,29-2.24S60.8,66.26,60.8,67.5Z"/><path class="cls-24" d="M60.7,67.5c0,1.22-13,2.21-28.92,2.21s-28.91-1-28.91-2.21,12.94-2.22,28.91-2.22S60.7,66.27,60.7,67.5Z"/><path class="cls-25" d="M60.6,67.49c0,1.21-12.9,2.19-28.82,2.19S3,68.7,3,67.49s12.9-2.19,28.82-2.19S60.6,66.28,60.6,67.49Z"/><path class="cls-26" d="M60.5,67.49c0,1.19-12.86,2.16-28.72,2.16s-28.72-1-28.72-2.16,12.86-2.16,28.72-2.16S60.5,66.29,60.5,67.49Z"/><path class="cls-27" d="M60.4,67.48c0,1.18-12.81,2.14-28.62,2.14s-28.62-1-28.62-2.14S16,65.35,31.78,65.35,60.4,66.3,60.4,67.48Z"/><path class="cls-28" d="M60.3,67.48c0,1.17-12.77,2.11-28.52,2.11S3.26,68.65,3.26,67.48,16,65.37,31.78,65.37,60.3,66.31,60.3,67.48Z"/><path class="cls-28" d="M60.2,67.47c0,1.16-12.72,2.09-28.42,2.09S3.36,68.63,3.36,67.47s12.72-2.08,28.42-2.08S60.2,66.32,60.2,67.47Z"/><path class="cls-29" d="M60.1,67.47c0,1.14-12.68,2.07-28.32,2.07S3.46,68.61,3.46,67.47s12.68-2.06,28.32-2.06S60.1,66.33,60.1,67.47Z"/><path class="cls-30" d="M60,67.47c0,1.12-12.64,2-28.23,2s-28.22-.92-28.22-2,12.63-2,28.22-2S60,66.34,60,67.47Z"/><path class="cls-31" d="M59.91,67.46c0,1.11-12.6,2-28.13,2s-28.12-.91-28.12-2,12.59-2,28.12-2S59.91,66.35,59.91,67.46Z"/><path class="cls-32" d="M59.81,67.46c0,1.1-12.55,2-28,2s-28-.89-28-2,12.55-2,28-2S59.81,66.36,59.81,67.46Z"/><path class="cls-33" d="M59.71,67.45c0,1.09-12.51,2-27.93,2s-27.93-.88-27.93-2,12.51-2,27.93-2S59.71,66.37,59.71,67.45Z"/><path class="cls-34" d="M59.61,67.45c0,1.07-12.46,1.94-27.83,1.94S4,68.52,4,67.45s12.46-1.94,27.83-1.94S59.61,66.38,59.61,67.45Z"/><path class="cls-35" d="M59.51,67.45c0,1-12.42,1.91-27.73,1.91S4.05,68.5,4.05,67.45s12.41-1.92,27.73-1.92S59.51,66.39,59.51,67.45Z"/><path class="cls-36" d="M59.41,67.44c0,1-12.37,1.89-27.63,1.89S4.15,68.48,4.15,67.44s12.37-1.89,27.63-1.89S59.41,66.4,59.41,67.44Z"/><path class="cls-37" d="M59.31,67.44c0,1-12.32,1.86-27.53,1.86S4.25,68.47,4.25,67.44s12.32-1.87,27.53-1.87S59.31,66.41,59.31,67.44Z"/><path class="cls-38" d="M59.22,67.43c0,1-12.29,1.85-27.44,1.85S4.35,68.45,4.35,67.43s12.28-1.84,27.43-1.84S59.22,66.42,59.22,67.43Z"/><path class="cls-39" d="M59.12,67.43c0,1-12.24,1.82-27.34,1.82S4.45,68.43,4.45,67.43s12.23-1.82,27.33-1.82S59.12,66.43,59.12,67.43Z"/><path class="cls-40" d="M59,67.42c0,1-12.2,1.8-27.24,1.8s-27.24-.81-27.24-1.8,12.2-1.79,27.24-1.79S59,66.44,59,67.42Z"/><path class="cls-41" d="M58.92,67.42c0,1-12.15,1.77-27.14,1.77S4.64,68.4,4.64,67.42s12.15-1.76,27.14-1.76S58.92,66.45,58.92,67.42Z"/><path class="cls-42" d="M58.82,67.42c0,1-12.11,1.74-27,1.74s-27-.78-27-1.74,12.11-1.74,27-1.74S58.82,66.46,58.82,67.42Z"/><path class="cls-43" d="M58.72,67.41c0,1-12.06,1.72-26.94,1.72S4.84,68.36,4.84,67.41,16.9,65.7,31.78,65.7,58.72,66.46,58.72,67.41Z"/><path class="cls-44" d="M58.62,67.41c0,.93-12,1.69-26.84,1.69S4.94,68.34,4.94,67.41s12-1.69,26.84-1.69S58.62,66.47,58.62,67.41Z"/><path class="cls-45" d="M58.52,67.4c0,.92-12,1.67-26.74,1.67S5,68.32,5,67.4s12-1.66,26.74-1.66S58.52,66.48,58.52,67.4Z"/><path class="cls-46" d="M58.43,67.4c0,.91-11.94,1.64-26.65,1.64S5.14,68.31,5.14,67.4s11.92-1.64,26.64-1.64S58.43,66.49,58.43,67.4Z"/><path class="cls-47" d="M58.33,67.4c0,.89-11.89,1.61-26.55,1.61S5.24,68.29,5.24,67.4s11.88-1.62,26.54-1.62S58.33,66.5,58.33,67.4Z"/><path class="cls-48" d="M58.23,67.39c0,.88-11.84,1.6-26.45,1.6s-26.44-.72-26.44-1.6S17.17,65.8,31.78,65.8,58.23,66.51,58.23,67.39Z"/><path class="cls-49" d="M58.13,67.39c0,.86-11.8,1.57-26.35,1.57S5.43,68.25,5.43,67.39s11.8-1.57,26.35-1.57S58.13,66.52,58.13,67.39Z"/><path class="cls-50" d="M58,67.38c0,.85-11.75,1.55-26.25,1.55s-26.25-.7-26.25-1.55,11.75-1.54,26.25-1.54S58,66.53,58,67.38Z"/><path class="cls-51" d="M57.93,67.38c0,.84-11.71,1.52-26.15,1.52S5.63,68.22,5.63,67.38s11.71-1.52,26.15-1.52S57.93,66.54,57.93,67.38Z"/><path class="cls-52" d="M57.83,67.38c0,.82-11.66,1.49-26,1.49s-26-.67-26-1.49,11.66-1.5,26.05-1.5S57.83,66.55,57.83,67.38Z"/><path class="cls-53" d="M57.73,67.37c0,.81-11.62,1.47-25.95,1.47S5.83,68.18,5.83,67.37s11.62-1.47,26-1.47S57.73,66.56,57.73,67.37Z"/><path class="cls-54" d="M57.64,67.37c0,.79-11.58,1.44-25.86,1.44S5.93,68.16,5.93,67.37s11.57-1.45,25.85-1.45S57.64,66.57,57.64,67.37Z"/><path class="cls-55" d="M57.54,67.36c0,.79-11.54,1.42-25.76,1.42S6,68.15,6,67.36s11.53-1.42,25.75-1.42S57.54,66.58,57.54,67.36Z"/><path class="cls-56" d="M57.44,67.36c0,.77-11.49,1.39-25.66,1.39S6.13,68.13,6.13,67.36,17.61,66,31.78,66,57.44,66.59,57.44,67.36Z"/><path class="cls-57" d="M57.34,67.36c0,.75-11.45,1.36-25.56,1.36S6.22,68.11,6.22,67.36,17.67,66,31.78,66,57.34,66.6,57.34,67.36Z"/><path class="cls-58" d="M57.24,67.35c0,.74-11.4,1.35-25.46,1.35S6.32,68.09,6.32,67.35,17.72,66,31.78,66,57.24,66.61,57.24,67.35Z"/><path class="cls-59" d="M57.14,67.35c0,.72-11.35,1.32-25.36,1.32s-25.36-.6-25.36-1.32S17.77,66,31.78,66,57.14,66.62,57.14,67.35Z"/><path class="cls-60" d="M57,67.34c0,.72-11.31,1.3-25.26,1.3s-25.26-.58-25.26-1.3,11.31-1.29,25.26-1.29S57,66.63,57,67.34Z"/><path class="cls-61" d="M56.94,67.34c0,.7-11.26,1.27-25.16,1.27S6.62,68,6.62,67.34s11.26-1.27,25.16-1.27S56.94,66.64,56.94,67.34Z"/><path class="cls-62" d="M56.84,67.33c0,.69-11.22,1.25-25.06,1.25S6.72,68,6.72,67.33s11.22-1.24,25.06-1.24S56.84,66.65,56.84,67.33Z"/><path class="cls-63" d="M56.75,67.33c0,.67-11.18,1.22-25,1.22s-25-.55-25-1.22,11.17-1.22,25-1.22S56.75,66.66,56.75,67.33Z"/><path class="cls-64" d="M56.65,67.33c0,.66-11.14,1.19-24.87,1.19S6.92,68,6.92,67.33s11.13-1.2,24.86-1.2S56.65,66.67,56.65,67.33Z"/><path class="cls-65" d="M56.55,67.32c0,.65-11.09,1.17-24.77,1.17S7,68,7,67.32s11.09-1.17,24.77-1.17S56.55,66.68,56.55,67.32Z"/><path class="cls-66" d="M56.45,67.32c0,.63-11.05,1.14-24.67,1.14S7.11,68,7.11,67.32s11.05-1.15,24.67-1.15S56.45,66.69,56.45,67.32Z"/><path class="cls-67" d="M56.35,67.31c0,.62-11,1.13-24.57,1.13S7.21,67.93,7.21,67.31s11-1.12,24.57-1.12S56.35,66.69,56.35,67.31Z"/><path class="cls-68" d="M56.25,67.31c0,.6-11,1.1-24.47,1.1s-24.47-.5-24.47-1.1,11-1.1,24.47-1.1S56.25,66.7,56.25,67.31Z"/><path class="cls-69" d="M56.15,67.31c0,.59-10.91,1.07-24.37,1.07S7.41,67.9,7.41,67.31s10.91-1.08,24.37-1.08S56.15,66.71,56.15,67.31Z"/><path class="cls-70" d="M56.05,67.3c0,.58-10.86,1-24.27,1s-24.27-.47-24.27-1,10.86-1,24.27-1S56.05,66.72,56.05,67.3Z"/><path class="cls-71" d="M56,67.3c0,.56-10.83,1-24.18,1s-24.17-.46-24.17-1,10.82-1,24.17-1S56,66.73,56,67.3Z"/><path class="cls-72" d="M55.86,67.29c0,.55-10.78,1-24.08,1s-24.07-.45-24.07-1,10.77-1,24.07-1S55.86,66.74,55.86,67.29Z"/><path class="cls-73" d="M55.76,67.29c0,.53-10.74,1-24,1s-24-.44-24-1,10.73-1,24-1S55.76,66.75,55.76,67.29Z"/><path class="cls-74" d="M55.66,67.29c0,.52-10.69.94-23.88.94S7.9,67.81,7.9,67.29s10.69-1,23.88-1S55.66,66.76,55.66,67.29Z"/><path class="cls-75" d="M55.56,67.28c0,.51-10.65.92-23.78.92S8,67.79,8,67.28s10.65-.92,23.78-.92S55.56,66.77,55.56,67.28Z"/><path class="cls-76" d="M55.46,67.28c0,.49-10.6.89-23.68.89S8.1,67.77,8.1,67.28s10.6-.9,23.68-.9S55.46,66.78,55.46,67.28Z"/><path class="cls-77" d="M55.36,67.27c0,.48-10.56.88-23.58.88S8.2,67.75,8.2,67.27s10.56-.87,23.58-.87S55.36,66.79,55.36,67.27Z"/><path class="cls-78" d="M55.26,67.27c0,.47-10.51.85-23.48.85S8.3,67.74,8.3,67.27s10.51-.85,23.48-.85S55.26,66.8,55.26,67.27Z"/><path class="cls-79" d="M55.17,67.26c0,.46-10.48.83-23.39.83S8.4,67.72,8.4,67.26s10.47-.82,23.38-.82S55.17,66.81,55.17,67.26Z"/><path class="cls-80" d="M55.07,67.26c0,.44-10.43.8-23.29.8S8.5,67.7,8.5,67.26s10.42-.8,23.28-.8S55.07,66.82,55.07,67.26Z"/><path class="cls-81" d="M55,67.26c0,.42-10.39.77-23.19.77S8.6,67.68,8.6,67.26s10.38-.78,23.18-.78S55,66.83,55,67.26Z"/><path class="cls-82" d="M54.87,67.25c0,.41-10.34.75-23.09.75s-23.09-.34-23.09-.75S19,66.5,31.78,66.5,54.87,66.84,54.87,67.25Z"/><path class="cls-83" d="M54.77,67.25c0,.4-10.29.72-23,.72s-23-.32-23-.72,10.29-.73,23-.73S54.77,66.85,54.77,67.25Z"/><path class="cls-84" d="M54.67,67.24c0,.39-10.25.7-22.89.7s-22.89-.31-22.89-.7,10.25-.7,22.89-.7S54.67,66.86,54.67,67.24Z"/><rect class="Graphic-Style-518" x="5.06" width="53.87" height="67.46" rx="5.34"/><rect class="Graphic-Style-517" x="6.35" y="1.29" width="51.28" height="64.87" rx="4.05"/><path class="Graphic-Style-516" d="M12.36,8.4A2.6,2.6,0,1,1,9.77,5.8,2.6,2.6,0,0,1,12.36,8.4Z"/><path class="Graphic-Style-515" d="M9.77,6.81H4A1.6,1.6,0,0,0,4,10H9.77a1.6,1.6,0,0,0,0-3.19Z"/><path class="Graphic-Style-516" d="M12.36,16.92a2.6,2.6,0,1,1-2.59-2.6A2.59,2.59,0,0,1,12.36,16.92Z"/><path class="Graphic-Style-515" d="M9.77,15.33H4a1.59,1.59,0,0,0,0,3.18H9.77a1.59,1.59,0,0,0,0-3.18Z"/><path class="Graphic-Style-516" d="M12.36,25.44a2.6,2.6,0,1,1-2.59-2.6A2.59,2.59,0,0,1,12.36,25.44Z"/><path class="Graphic-Style-515" d="M9.77,23.85H4A1.59,1.59,0,1,0,4,27H9.77a1.59,1.59,0,0,0,0-3.18Z"/><path class="Graphic-Style-516" d="M12.36,34a2.6,2.6,0,1,1-2.59-2.61A2.6,2.6,0,0,1,12.36,34Z"/><path class="Graphic-Style-515" d="M9.77,32.36H4a1.6,1.6,0,0,0,0,3.19H9.77a1.6,1.6,0,0,0,0-3.19Z"/><path class="Graphic-Style-516" d="M12.36,42.47a2.6,2.6,0,1,1-2.59-2.6A2.59,2.59,0,0,1,12.36,42.47Z"/><path class="Graphic-Style-515" d="M9.77,40.88H4a1.59,1.59,0,0,0,0,3.18H9.77a1.59,1.59,0,0,0,0-3.18Z"/><path class="Graphic-Style-516" d="M12.36,51a2.6,2.6,0,1,1-2.59-2.6A2.59,2.59,0,0,1,12.36,51Z"/><path class="Graphic-Style-515" d="M9.77,49.4H4a1.59,1.59,0,0,0,0,3.18H9.77a1.59,1.59,0,1,0,0-3.18Z"/><path class="Graphic-Style-516" d="M12.36,59.51A2.6,2.6,0,1,1,9.77,56.9,2.59,2.59,0,0,1,12.36,59.51Z"/><path class="Graphic-Style-515" d="M9.77,57.92H4A1.59,1.59,0,0,0,4,61.1H9.77a1.59,1.59,0,1,0,0-3.18Z"/><path class="Graphic-Style-514" d="M16.15,7.83v.32H53.29V7.83Zm0,6.7H53.24v-.32H16.1Zm0,5H53.24v-.31H16.1Zm0,5H53.24V24.3H16.1Zm0,5.05H53.24v-.32H16.1Zm0,5H53.24v-.31H16.1Zm0,5H53.24v-.32H16.1Zm0,5H53.24v-.32H16.1Zm0,5H53.24v-.31H16.1Zm0,5.05H53.24v-.32H16.1Zm0,4.78H53.24v-.31H16.1Z"/></g></g></svg>