<svg xmlns="http://www.w3.org/2000/svg" xmlns:xlink="http://www.w3.org/1999/xlink" viewBox="0 0 84.25 115.76"><defs><style>.cls-1{isolation:isolate;}.cls-2{fill-opacity:0.05;}.cls-3{fill:url(#linear-gradient);}.cls-4{fill:url(#linear-gradient-2);}.cls-5{fill:url(#linear-gradient-3);}.cls-11,.cls-15,.cls-19,.cls-6{mix-blend-mode:multiply;}.cls-6{fill:url(#radial-gradient);}.cls-7{fill:#343433;}.cls-8{fill:url(#radial-gradient-2);}.cls-9{fill:url(#linear-gradient-4);}.cls-10{fill:url(#radial-gradient-3);}.cls-11{fill:url(#radial-gradient-4);}.cls-12{fill:url(#linear-gradient-5);}.cls-13{fill:url(#radial-gradient-5);}.cls-14{fill:url(#linear-gradient-6);}.cls-15{fill:url(#linear-gradient-7);}.cls-16{fill:url(#linear-gradient-8);}.cls-17{fill:url(#radial-gradient-6);}.cls-18{fill:url(#linear-gradient-9);}.cls-19{fill:url(#linear-gradient-10);}.cls-20{fill:url(#linear-gradient-11);}.cls-21{fill:url(#linear-gradient-12);}.cls-22{font-size:20px;fill:#58595b;font-family:TitrBold, Titr;}</style><linearGradient id="linear-gradient" x1="-507.1" y1="40.36" x2="-507.1" y2="12.6" gradientTransform="matrix(2.83, 0, 0, -2.83, 1476.78, 114.39)" gradientUnits="userSpaceOnUse"><stop offset="0" stop-color="#e4005e"/><stop offset="0.35" stop-color="#f10068"/><stop offset="0.68" stop-color="#ff7eb8"/><stop offset="1" stop-color="#cb004b"/></linearGradient><linearGradient id="linear-gradient-2" x1="-507.1" y1="13.26" x2="-507.1" y2="39.7" gradientTransform="matrix(2.83, 0, 0, -2.83, 1476.78, 114.39)" gradientUnits="userSpaceOnUse"><stop offset="0" stop-color="#ffb1d9"/><stop offset="1" stop-color="#ff0072"/></linearGradient><linearGradient id="linear-gradient-3" x1="-507.1" y1="13.26" x2="-507.1" y2="27.12" gradientTransform="matrix(2.83, 0, 0, -2.83, 1476.78, 114.39)" gradientUnits="userSpaceOnUse"><stop offset="0" stop-color="#cb004b"/><stop offset="1" stop-color="#ff328b"/></linearGradient><radialGradient id="radial-gradient" cx="-1303.34" cy="-987.29" r="31.61" gradientTransform="matrix(-1.09, 0, 0, 0.15, -1376.91, 210.6)" gradientUnits="userSpaceOnUse"><stop offset="0" stop-color="#b2b5b6"/><stop offset="0.2" stop-color="#c8cacb"/><stop offset="0.52" stop-color="#e6e7e7"/><stop offset="0.79" stop-color="#f8f9f9"/><stop offset="0.99" stop-color="#fff"/></radialGradient><radialGradient id="radial-gradient-2" cx="124.94" cy="35.65" r="3.84" gradientTransform="translate(-76.45 27.67) scale(0.94)" gradientUnits="userSpaceOnUse"><stop offset="0" stop-color="#4a4a4a"/><stop offset="1"/></radialGradient><linearGradient id="linear-gradient-4" x1="37.3" y1="1.9" x2="40.68" y2="52.79" gradientUnits="userSpaceOnUse"><stop offset="0.17"/><stop offset="0.5" stop-color="#737373"/><stop offset="0.74"/></linearGradient><radialGradient id="radial-gradient-3" cx="121.86" cy="-26.32" r="21.16" gradientTransform="translate(-76.45 27.67) scale(0.94)" gradientUnits="userSpaceOnUse"><stop offset="0.23"/><stop offset="0.65" stop-color="#737373"/><stop offset="0.95"/></radialGradient><radialGradient id="radial-gradient-4" cx="123.58" cy="-12.16" r="19.18" gradientTransform="translate(-76.45 27.67) scale(0.94)" gradientUnits="userSpaceOnUse"><stop offset="0" stop-color="#fff"/><stop offset="0.53" stop-color="#737373"/><stop offset="0.8"/></radialGradient><linearGradient id="linear-gradient-5" x1="-88.37" y1="-111.03" x2="-72.64" y2="-85.42" gradientTransform="matrix(0.97, 0.24, -0.24, 0.97, 77.99, 161.4)" gradientUnits="userSpaceOnUse"><stop offset="0.17"/><stop offset="0.34" stop-color="#fff"/><stop offset="0.48" stop-color="#6e6e6e"/><stop offset="0.54" stop-color="#6e6e6e"/><stop offset="0.66" stop-color="#fff"/><stop offset="0.74" stop-color="#e0e0e0"/><stop offset="0.79" stop-color="#474747"/></linearGradient><radialGradient id="radial-gradient-5" cx="-5.52" cy="-142.98" r="11.76" gradientTransform="matrix(0.91, 0.22, -0.22, 0.91, -3.02, 177.81)" gradientUnits="userSpaceOnUse"><stop offset="0.15" stop-color="#fff"/><stop offset="0.45" stop-color="#e0e0e0"/><stop offset="0.79" stop-color="#9b9b9b"/></radialGradient><linearGradient id="linear-gradient-6" x1="-69.68" y1="-91.72" x2="-82.14" y2="-109.26" gradientTransform="matrix(0.97, 0.24, -0.24, 0.97, 77.99, 161.4)" gradientUnits="userSpaceOnUse"><stop offset="0"/><stop offset="0.11" stop-color="#0c0c0c"/><stop offset="0.3" stop-color="#2a2a2a"/><stop offset="0.54" stop-color="#5c5c5c"/><stop offset="0.66" stop-color="#767676"/><stop offset="0.68" stop-color="#6e6e6e"/><stop offset="0.76" stop-color="#515151"/><stop offset="0.85" stop-color="#3c3c3c"/><stop offset="0.92" stop-color="#2f2f2f"/><stop offset="1" stop-color="#2b2b2b"/></linearGradient><linearGradient id="linear-gradient-7" x1="34.16" y1="37.84" x2="24.7" y2="51.26" gradientUnits="userSpaceOnUse"><stop offset="0.24" stop-color="#737373"/><stop offset="0.8"/></linearGradient><linearGradient id="linear-gradient-8" x1="-1324.36" y1="191.82" x2="-1308.63" y2="217.43" gradientTransform="matrix(-0.97, 0.24, 0.24, 0.97, -1272.38, 161.4)" xlink:href="#linear-gradient-5"/><radialGradient id="radial-gradient-6" cx="-1405.84" cy="200.13" r="11.76" gradientTransform="matrix(-0.91, 0.22, 0.22, 0.91, -1266.89, 177.81)" xlink:href="#radial-gradient-5"/><linearGradient id="linear-gradient-9" x1="-1305.67" y1="211.13" x2="-1318.13" y2="193.6" gradientTransform="matrix(-0.97, 0.24, 0.24, 0.97, -1272.38, 161.4)" gradientUnits="userSpaceOnUse"><stop offset="0"/><stop offset="0.11" stop-color="#0c0c0c"/><stop offset="0.29" stop-color="#2a2a2a"/><stop offset="0.54" stop-color="#5c5c5c"/><stop offset="0.66" stop-color="#767676"/><stop offset="0.68" stop-color="#6e6e6e"/><stop offset="0.76" stop-color="#515151"/><stop offset="0.84" stop-color="#3c3c3c"/><stop offset="0.92" stop-color="#2f2f2f"/><stop offset="1" stop-color="#2b2b2b"/></linearGradient><linearGradient id="linear-gradient-10" x1="-1238.43" y1="37.84" x2="-1247.89" y2="51.26" gradientTransform="matrix(-1, 0, 0, 1, -1194.39, 0)" xlink:href="#linear-gradient-7"/><linearGradient id="linear-gradient-11" x1="-851.26" y1="-154.55" x2="-851.26" y2="-173.02" gradientTransform="matrix(-0.93, -0.38, -0.38, 0.93, -801.22, -125.83)" gradientUnits="userSpaceOnUse"><stop offset="0" stop-color="#171717"/><stop offset="0.12" stop-color="#232323"/><stop offset="0.32" stop-color="#414141"/><stop offset="0.59" stop-color="#737373"/><stop offset="0.72" stop-color="#8c8c8c"/><stop offset="0.72" stop-color="#8b8b8b"/><stop offset="0.79" stop-color="#6e6e6e"/><stop offset="0.86" stop-color="#5a5959"/><stop offset="0.93" stop-color="#4d4c4c"/><stop offset="1" stop-color="#494848"/></linearGradient><linearGradient id="linear-gradient-12" x1="330.62" y1="329.58" x2="330.62" y2="311.28" gradientTransform="matrix(0.93, -0.38, 0.38, 0.93, -397.51, -125.83)" xlink:href="#linear-gradient-11"/></defs><g class="cls-1"><g id="Layer_2" data-name="Layer 2"><g id="Layer_1-2" data-name="Layer 1"><path id="_441799720" data-name=" 441799720" class="cls-2" d="M16.63.89H68.89A15.41,15.41,0,0,1,84.25,16.25V68.51A15.41,15.41,0,0,1,68.89,83.86H16.63A15.39,15.39,0,0,1,1.28,68.51V16.25A15.39,15.39,0,0,1,16.63.89Z"/><path id="_441805768" data-name=" 441805768" class="cls-2" d="M16.92,1.36H68.61A15.22,15.22,0,0,1,83.78,16.54V68.22A15.21,15.21,0,0,1,68.61,83.39H16.92A15.21,15.21,0,0,1,1.74,68.22V16.54A15.22,15.22,0,0,1,16.92,1.36Z"/><path id="_441805744" data-name=" 441805744" class="cls-2" d="M17.22,1.83H68.31a15,15,0,0,1,15,15V67.92a15,15,0,0,1-15,15H17.22a15,15,0,0,1-15-15V16.83A15,15,0,0,1,17.22,1.83Z"/><path id="_442166504" data-name=" 442166504" class="cls-2" d="M17.51,2.29H68A14.88,14.88,0,0,1,82.85,17.12V67.63A14.88,14.88,0,0,1,68,82.46H17.51A14.87,14.87,0,0,1,2.68,67.63V17.12A14.88,14.88,0,0,1,17.51,2.29Z"/><path id="_442166840" data-name=" 442166840" class="cls-2" d="M17.8,2.76H67.72A14.7,14.7,0,0,1,82.38,17.42V67.34A14.69,14.69,0,0,1,67.72,82H17.8A14.7,14.7,0,0,1,3.14,67.34V17.42A14.71,14.71,0,0,1,17.8,2.76Z"/><path id="_442166384" data-name=" 442166384" class="cls-2" d="M18.1,3.23H67.43A14.52,14.52,0,0,1,81.91,17.71V67A14.53,14.53,0,0,1,67.43,81.53H18.1A14.53,14.53,0,0,1,3.61,67V17.71A14.52,14.52,0,0,1,18.1,3.23Z"/><path id="_442165184" data-name=" 442165184" class="cls-2" d="M18.39,3.69H67.13A14.35,14.35,0,0,1,81.45,18V66.75A14.35,14.35,0,0,1,67.13,81.06H18.39A14.35,14.35,0,0,1,4.08,66.75V18A14.35,14.35,0,0,1,18.39,3.69Z"/><path id="_442165760" data-name=" 442165760" class="cls-2" d="M18.68,4.16H66.84A14.19,14.19,0,0,1,81,18.3V66.45A14.19,14.19,0,0,1,66.84,80.6H18.68A14.19,14.19,0,0,1,4.54,66.45V18.3A14.18,14.18,0,0,1,18.68,4.16Z"/><path id="_442166720" data-name=" 442166720" class="cls-2" d="M19,4.62H66.55a14,14,0,0,1,14,14V66.16a14,14,0,0,1-14,14H19a14,14,0,0,1-14-14V18.59A14,14,0,0,1,19,4.62Z"/><path id="_442165280" data-name=" 442165280" class="cls-2" d="M19.27,5.09h47a13.84,13.84,0,0,1,13.8,13.79v47a13.83,13.83,0,0,1-13.8,13.79h-47A13.83,13.83,0,0,1,5.47,65.87v-47A13.84,13.84,0,0,1,19.27,5.09Z"/><path id="_442165736" data-name=" 442165736" class="cls-2" d="M19.57,5.56H66A13.65,13.65,0,0,1,79.58,19.18V65.57A13.66,13.66,0,0,1,66,79.2H19.57A13.67,13.67,0,0,1,5.94,65.57V19.18A13.66,13.66,0,0,1,19.57,5.56Z"/><path id="_441799480" data-name=" 441799480" class="cls-2" d="M19.86,6h45.8A13.49,13.49,0,0,1,79.12,19.47V65.28A13.5,13.5,0,0,1,65.66,78.74H19.86A13.5,13.5,0,0,1,6.4,65.28V19.47A13.49,13.49,0,0,1,19.86,6Z"/><path id="_441792688" data-name=" 441792688" class="cls-3" d="M14.56,0H64.13A14.6,14.6,0,0,1,78.68,14.56V64.12A14.6,14.6,0,0,1,64.13,78.68H14.56A14.6,14.6,0,0,1,0,64.12V14.56A14.6,14.6,0,0,1,14.56,0Z"/><path id="_441792592" data-name=" 441792592" class="cls-4" d="M15,1.86H63.71A13.15,13.15,0,0,1,76.82,15V63.7A13.15,13.15,0,0,1,63.71,76.82H15A13.16,13.16,0,0,1,1.86,63.7V15A13.16,13.16,0,0,1,15,1.86Z"/><path id="_441792496" data-name=" 441792496" class="cls-5" d="M76.82,42.8V63.7A13.16,13.16,0,0,1,63.71,76.82H15A13.17,13.17,0,0,1,1.86,63.7V42.8a130.39,130.39,0,0,1,37.48-5.29A130.34,130.34,0,0,1,76.82,42.8Z"/><path class="cls-6" d="M4.82,63c0,2.61,15.37,4.73,34.33,4.73S73.51,65.61,73.51,63s-15.39-4.72-34.36-4.72S4.82,60.39,4.82,63Z"/><path class="cls-7" d="M39.87,62.69c-.93,0-1.79,0-2.58-.08l.09-1.4c6.66.44,17.58-.92,21.09-5.35a2.83,2.83,0,0,0,.28-3.13,4.16,4.16,0,0,0-3.87-2.26l0-1.41H55a5.63,5.63,0,0,1,5.06,3,4.25,4.25,0,0,1-.44,4.63c-3.54,4.48-13,6-19.7,6Z"/><ellipse class="cls-8" cx="40.37" cy="61.71" rx="4.22" ry="2.84"/><path class="cls-9" d="M28,55.22h0c-.14-.21-14.43-21.66-8.14-35.36,2.83-6.18,9.5-9.93,19.81-11.15h-.08c.1,0,10.07,0,15.95,6.67,3.66,4.14,5,10,4.06,17.4A42.23,42.23,0,0,1,49.51,55.35l1.14,1.13C51,56.12,59.23,47.7,61.16,33c1-7.89-.47-14.18-4.46-18.68C50.32,7.11,40,7.11,39.54,7.12h-.08c-10.91,1.29-18,5.35-21.09,12.08-6.65,14.52,7.66,36,8.27,36.92Z"/><path class="cls-10" d="M22.84,12.8s-.21.49-.14.65c.27.61,1.12,1.88,3.37,1.27,1.76-.47,4.84-5,13.39-5.05,8-.08,11.38,4.21,11.38,4.21s1.48,1.94,3.43,1a14.1,14.1,0,0,0,1.78-1c.21-.15-.07-.74-.07-.74s-4-7.19-16.26-7.15C26.94,6,23,12.55,22.84,12.8Z"/><path class="cls-11" d="M55.89,12.94a1.45,1.45,0,0,1-1.38.31A11.93,11.93,0,0,1,51.1,11.7S47.54,8.54,39.53,8.63C31,8.72,27.93,12,26.17,12.5c-2,.52-2.88.81-3.26.17l-.07.13s-.21.49-.14.65c.27.61,1.12,1.88,3.37,1.27,1.76-.47,4.84-5,13.39-5.05,8-.08,11.38,4.21,11.38,4.21s1.48,1.94,3.43,1a14.1,14.1,0,0,0,1.78-1c.21-.15-.07-.74-.07-.74A1.56,1.56,0,0,0,55.89,12.94Z"/><path class="cls-12" d="M22.31,38.93a2.13,2.13,0,0,0-1.52.86c-.69.87-2.6,5.29-.32,10.6,2.06,4.8,6.33,6.28,7.63,6a3.52,3.52,0,0,0,1.78-.7C30.25,55.33,22.31,38.93,22.31,38.93Z"/><path class="cls-13" d="M20.79,39.79c-.69.87-2.68,4.91-.32,10.6,2.08,5,6,6.16,7.46,6-4.87-10-6.41-15.32-6.82-17A3.4,3.4,0,0,0,20.79,39.79Z"/><path class="cls-14" d="M22.1,36.78s.25-.55,1.47-.72a.5.5,0,0,1,.43.18,1,1,0,0,1,.42-.58,2,2,0,0,1,2.52.13c1.08,1,4.28,9,7,17.11,1.14,3.38-1.07,3.71-1.91,3.53a2,2,0,0,1-1.59.83.85.85,0,0,1-.7-.39s-.27-.13-3.88-8.95C22,38.6,21.58,37.78,22.1,36.78Z"/><path class="cls-15" d="M24.42,35.66a1,1,0,0,0-.42.58.5.5,0,0,0-.43-.18l-.06,0c3,6.27,4.89,13.11,8.33,20.56a2.52,2.52,0,0,0,.19-.21,2.09,2.09,0,0,0,.95,0c-2.94-6.9-5.71-13.91-8.41-20.82Z"/><path class="cls-16" d="M55.89,38.93a2.12,2.12,0,0,1,1.52.86c.69.87,2.6,5.29.32,10.6-2.06,4.8-6.33,6.28-7.62,6a3.44,3.44,0,0,1-1.78-.7C48,55.33,55.89,38.93,55.89,38.93Z"/><path class="cls-17" d="M57.41,39.79c.69.87,2.69,4.91.32,10.6-2.08,5-6,6.16-7.45,6,4.86-10,6.4-15.32,6.81-17A2.53,2.53,0,0,1,57.41,39.79Z"/><path class="cls-18" d="M56.1,36.78s-.25-.55-1.46-.72a.51.51,0,0,0-.44.18,1,1,0,0,0-.42-.58,2,2,0,0,0-2.52.13c-1.08,1-4.28,9-7,17.11-1.13,3.38,1.07,3.71,1.91,3.53a2,2,0,0,0,1.59.83.85.85,0,0,0,.7-.39s.27-.13,3.88-8.95C56.16,38.6,56.62,37.78,56.1,36.78Z"/><path class="cls-19" d="M53.78,35.66a1,1,0,0,1,.42.58.51.51,0,0,1,.44-.18l0,0c-3,6.27-4.89,13.11-8.33,20.56a2.52,2.52,0,0,1-.19-.21,2,2,0,0,1-.94,0c2.93-6.9,5.7-13.91,8.4-20.82Z"/><path class="cls-20" d="M52.6,36.93c-.67-.28-.56-.54-1.23-.83-.11-.05,0,.1,0,0s-.15.06,0,.11c.67.28.65.32,1.32.61.11,0,.33-.13.3-.05A.33.33,0,0,1,52.6,36.93ZM51,36.48c0,.09.09,0,.2.06.66.28.64.35,1.3.64.11,0,0,0,0,0s.1,0,0,0c-.66-.28-.64-.34-1.3-.62C51.09,36.47,51,36.4,51,36.48Zm-.12.77c0,.08-.22.32-.11.37.67.28.78,0,1.44.28.12.05,0,0,.07,0s.24-.4.13-.45c-.66-.28-.81.08-1.47-.2C50.82,37.15,50.91,37.17,50.88,37.25Zm-.46.71c0,.08,0,.15.14.19.66.29.55.58,1.21.86.12.05.28-.25.31-.33s-.07.06-.19,0c-.66-.29-.6-.43-1.26-.72C50.51,37.94,50.45,37.88,50.42,38Zm-.29.47c0,.08.08.26.2.31.66.28.58.49,1.24.77.12.06.31-.24.34-.32s-.1.05-.21,0c-.67-.29-.6-.46-1.26-.75C50.33,38.4,50.17,38.35,50.13,38.43Zm-.27.41c0,.08.23.15.35.2.66.28.72.14,1.38.43.11.05.27.31.3.23s-.16-.25-.27-.3c-.67-.29-.61-.43-1.27-.72A.65.65,0,0,0,49.86,38.84Zm.09.85c0,.09-.12,0,0,0,.66.28.48.73,1.14,1,.12,0,.24-.34.27-.42s.18-.36.06-.41c-.66-.28-.75-.07-1.41-.35C49.9,39.49,50,39.62,50,39.69Zm-.73.6c0,.08.12.59.24.64.66.28.72.13,1.38.41a.47.47,0,0,0,.42-.17c0-.08-.08-.33-.2-.38-.66-.28-.59-.46-1.25-.75C49.69,40,49.26,40.21,49.22,40.29Zm.05.73c0,.08,0,.12.08.17.67.28.6.46,1.26.75.11.05.13-.2.16-.28s.18-.24.06-.29c-.66-.29-.65-.31-1.31-.59C49.4,40.73,49.3,40.94,49.27,41Zm-.13.46c0,.08-.18.37-.07.42l1.34.55c.11,0,.13-.27.16-.35s.23-.3.11-.34c-.66-.29-.83.15-1.5-.14C49.07,41.57,49.17,41.4,49.14,41.48Zm-.27.71c0,.08-.13.21,0,.26.67.28.7.19,1.37.47.11,0,.16,0,.19-.07s.07-.24,0-.29c-.66-.28-.76,0-1.42-.31C48.82,42.2,48.91,42.11,48.87,42.19Zm-.45.72c0,.08-.06.45.06.5.66.28.81-.1,1.47.18.12,0,.14.12.17,0s.12-.43,0-.48l-1.32-.58C48.69,42.52,48.45,42.83,48.42,42.91Zm-.2.66c0,.08,0,.14.12.19.66.28.73.1,1.39.38.12,0,.34.31.37.23a.7.7,0,0,0-.27-.47c-.66-.28-.71-.17-1.37-.45C48.34,43.4,48.26,43.49,48.22,43.57Zm-.3.39c0,.08.2,0,.31.06.67.28.7.2,1.36.49.11.05.08.3.12.22s0-.11-.14-.16c-.67-.29-.63-.38-1.29-.67C48.16,43.86,48,43.88,47.92,44Zm-.26,1.17c0,.08-.08.18,0,.23.66.29.68.23,1.35.52.11,0,.06,0,.09-.12s0,.08-.06,0c-.67-.29-.52-.65-1.19-.93C47.78,44.82,47.69,45.05,47.66,45.13Zm-.32.39c0,.08.1.16.21.21.66.29.74.09,1.41.37.11,0,0,.19,0,.11s.11,0,0-.08c-.66-.28-.51-.66-1.17-.94C47.65,45.14,47.37,45.44,47.34,45.52Zm-.25.71c0,.08.07.15.19.2.66.28.72.13,1.38.41.12,0,.33.3.37.22s-.24-.2-.35-.26c-.67-.28-.73-.11-1.39-.4C47.17,46.35,47.13,46.15,47.09,46.23Zm-.26.8c0,.08,0,.28.08.33.66.28.8-.07,1.46.21.12,0,.06.23.09.15s0-.15-.07-.2c-.66-.28-.56-.54-1.22-.82C47.05,46.65,46.86,46.94,46.83,47Zm-.14.53c0,.08,0,.11.08.16.66.28.67.24,1.34.52.11,0,.35.17.38.09s-.22-.16-.34-.21c-.66-.28-.68-.22-1.34-.5C46.69,47.57,46.73,47.48,46.69,47.56Zm-.07.49c0,.08-.07-.14.05-.09.66.28.45.81,1.11,1.1.12,0,.15-.36.18-.44s.25-.29.13-.34c-.66-.28-.77,0-1.43-.3C46.54,47.93,46.65,48,46.62,48.05Zm-.35.67c0,.08-.07.09,0,.14.66.28.75.08,1.41.36.11.05.2.3.23.22s0-.38-.15-.43c-.66-.28-.77,0-1.43-.3C46.26,48.66,46.3,48.64,46.27,48.72Zm-.48.7c0,.08.19-.07.31,0,.66.29.44.84,1.1,1.12.12,0,.22-.31.25-.39s.12-.21,0-.26c-.66-.28-.81.09-1.47-.19C45.87,49.63,45.82,49.34,45.79,49.42Zm-.31.57a.61.61,0,0,0,.2.47c.66.28.82-.13,1.48.15.12,0,.31.33.34.25s-.09-.53-.2-.57c-.67-.29-.88.24-1.54,0C45.64,50.2,45.51,49.91,45.48,50Zm-.16.46c0,.08.12.26.24.31.66.28.62.39,1.28.68.11.05.27-.13.3-.21s-.12.09-.23,0c-.67-.28-.55-.59-1.21-.88C45.59,50.35,45.35,50.37,45.32,50.45Zm-.07.79c0,.08-.07.12,0,.17.66.28.72.14,1.38.42.12.05.38.27.41.19s-.27-.21-.38-.26c-.66-.28-.67-.27-1.33-.56C45.27,51.15,45.28,51.16,45.25,51.24Zm-.44.72c0,.08.08.15.19.2.66.28.72.14,1.39.42.11.05.12.2.15.12s.11-.45,0-.5c-.67-.28-.71-.17-1.38-.45C45.05,51.7,44.84,51.87,44.81,52Zm-.08.71c0,.09,0-.11.09-.07.67.29.48.77,1.14,1,.11.05.44-.17.48-.25a.53.53,0,0,0-.22-.4c-.66-.28-.62-.39-1.28-.67C44.82,52.28,44.77,52.59,44.73,52.67Zm-.5.31c0,.08.24.18.35.23.67.28.72.15,1.38.43.12,0,.22.27.25.19s-.2,0-.31,0c-.67-.28-.58-.51-1.24-.79C44.55,53,44.26,52.9,44.23,53Z"/><path class="cls-21" d="M25.57,37.43c0-.08.19.1.31,0,.66-.29.64-.33,1.31-.61.11,0-.07-.19,0-.11s.1-.07,0,0c-.67.29-.56.55-1.22.84A.34.34,0,0,1,25.57,37.43Zm1.73-.27c-.66.28-.64.34-1.3.62-.12,0-.05-.08,0,0s-.08.09,0,0c.66-.29.64-.35,1.3-.64.12,0,.24,0,.2,0S27.42,37.11,27.3,37.16Zm.27.68c-.66.29-.81-.08-1.47.2-.11.05.1.37.13.45s-.05.1.07,0c.66-.29.78,0,1.44-.28.11,0-.07-.29-.11-.37S27.69,37.79,27.57,37.84Zm.31.79c-.66.28-.6.42-1.26.71-.12,0-.22-.1-.19,0s.2.38.31.33c.66-.28.55-.57,1.21-.85.12,0,.18-.12.14-.2S28,38.58,27.88,38.63Zm.19.46c-.66.29-.59.46-1.26.75-.11,0-.25-.09-.21,0s.22.38.34.32c.66-.28.58-.49,1.24-.77.12-.05.23-.23.2-.31S28.19,39,28.07,39.09Zm.09.23c-.66.29-.6.44-1.27.72-.11.05-.3.23-.27.31s.19-.19.3-.24c.67-.28.72-.14,1.38-.43.12,0,.38-.12.35-.2A.65.65,0,0,0,28.16,39.32Zm.34.86c-.66.28-.75.07-1.41.36-.11,0,0,.32.06.4s.15.47.27.42c.66-.29.48-.74,1.15-1,.11-.05,0,.08,0,0S28.62,40.13,28.5,40.18Zm.2.51c-.66.28-.59.46-1.25.74a.44.44,0,0,0-.2.38.5.5,0,0,0,.42.18c.66-.29.72-.14,1.38-.42.12,0,.27-.55.24-.64S28.82,40.64,28.7,40.69Zm.29.73c-.66.28-.65.31-1.31.59-.12.05,0,.21.06.29s.05.33.16.28c.66-.28.59-.47,1.26-.75.11,0,.11-.09.08-.17S29.11,41.37,29,41.42Zm.34.84c-.67.29-.84-.15-1.5.14-.12.05.08.26.11.34s0,.4.16.35c.67-.28.68-.26,1.34-.55.11,0,0-.33-.07-.41S29.44,42.22,29.33,42.26Zm.25.63c-.67.28-.77,0-1.43.31-.12,0-.08.21,0,.29s.08.12.19.08c.67-.29.7-.2,1.37-.48.11-.05,0-.18,0-.26S29.69,42.84,29.58,42.89Zm.12.32-1.32.58c-.11.05,0,.4,0,.48s.05,0,.17,0c.66-.28.81.1,1.48-.18.11,0,.08-.42.05-.5S29.82,43.16,29.7,43.21Zm.35.88c-.66.28-.71.17-1.37.45a.74.74,0,0,0-.27.47c0,.08.25-.18.37-.23.66-.28.73-.1,1.4-.38.11,0,.14-.11.11-.19S30.17,44,30.05,44.09Zm.19.46c-.67.28-.63.38-1.29.66-.12,0-.18.08-.15.16s0-.17.12-.22c.66-.29.69-.2,1.36-.49.11,0,.35,0,.31-.06S30.35,44.5,30.24,44.55Zm.38,1c-.67.29-.52.64-1.19.93-.11,0-.09-.12-.06,0s0,.17.1.12c.66-.28.68-.23,1.34-.52.12,0,.07-.15,0-.23S30.73,45.46,30.62,45.51Zm.12.32c-.66.29-.51.66-1.17,1-.12,0,0,0,0,.07s-.12-.06,0-.11c.67-.28.75-.08,1.41-.37.11,0,.25-.13.21-.21S30.86,45.78,30.74,45.83ZM31.22,47c-.66.29-.72.12-1.39.4-.11.06-.38.18-.35.26s.25-.17.37-.22c.66-.28.72-.13,1.38-.41.12,0,.22-.12.19-.2S31.34,47,31.22,47Zm.12.3c-.66.28-.56.54-1.22.82-.12.05-.1.12-.07.21s0-.11.09-.16c.66-.28.8.07,1.46-.21.12,0,.12-.25.08-.33S31.46,47.29,31.34,47.34Zm.37.92c-.67.28-.69.22-1.35.5-.12.05-.37.13-.34.21s.27,0,.38-.08c.67-.29.68-.25,1.35-.53.11,0,.1-.08.07-.16S31.82,48.21,31.71,48.26Zm.14.36c-.66.29-.77,0-1.43.3-.11,0,.1.27.13.34s.06.49.18.44c.66-.28.45-.81,1.11-1.1.12-.05.08.17.05.09S32,48.57,31.85,48.62Zm.29.73c-.66.28-.77,0-1.43.3-.11.05-.18.35-.15.43s.12-.17.23-.22c.66-.28.75-.07,1.41-.36.12,0,.08-.06,0-.14S32.25,49.3,32.14,49.35Zm.38,1c-.66.28-.8-.09-1.47.2-.11,0,0,.17,0,.25s.13.44.25.39c.66-.28.44-.83,1.11-1.11.11,0,.34.09.31,0S32.64,50.27,32.52,50.32Zm.23.57c-.66.28-.87-.25-1.54,0a.88.88,0,0,0-.2.57c0,.08.22-.2.33-.24.67-.29.83.12,1.49-.16a.58.58,0,0,0,.2-.47C33,50.55,32.87,50.84,32.75,50.89Zm.06.15c-.66.28-.54.59-1.2.87-.12.05-.28-.12-.24,0s.19.26.3.21c.67-.28.62-.4,1.28-.68.12,0,.27-.23.24-.31S32.92,51,32.81,51Zm.32.8-1.33.57c-.11,0-.41.17-.38.25s.29-.14.41-.19c.66-.28.72-.13,1.38-.42.12,0,.08-.09,0-.17S33.25,51.8,33.13,51.84Zm.22.55c-.67.29-.71.17-1.38.45-.11,0,0,.42,0,.5s0-.07.16-.12c.66-.28.72-.14,1.38-.42.12,0,.23-.12.19-.2S33.46,52.34,33.35,52.39Zm.23.58c-.67.28-.62.39-1.29.67a.52.52,0,0,0-.21.4c0,.08.36.3.47.26.66-.29.47-.77,1.14-1,.11,0,.12.15.09.07S33.69,52.92,33.58,53Z"/><text class="cls-22" transform="translate(17.86 104.42)">ﺻﻮﺗﯽ<tspan x="41.75" y="0"> </tspan></text></g></g></g></svg>