<svg xmlns="http://www.w3.org/2000/svg" xmlns:xlink="http://www.w3.org/1999/xlink" viewBox="0 0 84.25 83.86"><defs><style>.cls-1{fill-opacity:0.05;}.cls-2{fill:url(#linear-gradient);}.cls-3{fill:url(#linear-gradient-2);}.cls-4{fill:url(#linear-gradient-3);}.cls-5{fill:#fff;}</style><linearGradient id="linear-gradient" x1="-675.03" y1="33.37" x2="-675.03" y2="5.61" gradientTransform="matrix(2.83, 0, 0, -2.83, 1952.77, 94.59)" gradientUnits="userSpaceOnUse"><stop offset="0" stop-color="#ce5415"/><stop offset="0.35" stop-color="#da5516"/><stop offset="0.68" stop-color="#f3a98a"/><stop offset="1" stop-color="#b85113"/></linearGradient><linearGradient id="linear-gradient-2" x1="-675.03" y1="6.27" x2="-675.03" y2="32.71" gradientTransform="matrix(2.83, 0, 0, -2.83, 1952.77, 94.59)" gradientUnits="userSpaceOnUse"><stop offset="0" stop-color="#f7c7b9"/><stop offset="1" stop-color="#e65618"/></linearGradient><linearGradient id="linear-gradient-3" x1="-675.03" y1="6.27" x2="-675.03" y2="20.14" gradientTransform="matrix(2.83, 0, 0, -2.83, 1952.77, 94.59)" gradientUnits="userSpaceOnUse"><stop offset="0" stop-color="#b85113"/><stop offset="1" stop-color="#eb7a45"/></linearGradient></defs><g id="Layer_2" data-name="Layer 2"><g id="Layer_1-2" data-name="Layer 1"><path id="_441796264" data-name=" 441796264" class="cls-1" d="M16.63.9H68.89A15.4,15.4,0,0,1,84.25,16.25V68.52A15.4,15.4,0,0,1,68.89,83.86H16.63A15.38,15.38,0,0,1,1.28,68.52V16.25A15.39,15.39,0,0,1,16.63.9Z"/><path id="_441797440" data-name=" 441797440" class="cls-1" d="M16.92,1.36H68.61A15.22,15.22,0,0,1,83.78,16.54V68.22A15.21,15.21,0,0,1,68.61,83.39H16.92A15.21,15.21,0,0,1,1.74,68.22V16.54A15.22,15.22,0,0,1,16.92,1.36Z"/><path id="_441797824" data-name=" 441797824" class="cls-1" d="M17.22,1.83H68.31a15,15,0,0,1,15,15v51.1a15,15,0,0,1-15,15H17.22a15,15,0,0,1-15-15V16.83A15,15,0,0,1,17.22,1.83Z"/><path id="_444221800" data-name=" 444221800" class="cls-1" d="M17.51,2.29H68A14.88,14.88,0,0,1,82.85,17.13v50.5A14.88,14.88,0,0,1,68,82.46H17.51A14.87,14.87,0,0,1,2.68,67.63V17.13A14.88,14.88,0,0,1,17.51,2.29Z"/><path id="_444221872" data-name=" 444221872" class="cls-1" d="M17.8,2.76H67.72A14.7,14.7,0,0,1,82.38,17.42V67.34A14.7,14.7,0,0,1,67.72,82H17.8A14.71,14.71,0,0,1,3.14,67.34V17.42A14.71,14.71,0,0,1,17.8,2.76Z"/><path id="_444221944" data-name=" 444221944" class="cls-1" d="M18.1,3.23H67.43A14.53,14.53,0,0,1,81.91,17.71V67.05A14.52,14.52,0,0,1,67.43,81.53H18.1A14.52,14.52,0,0,1,3.61,67.05V17.71A14.53,14.53,0,0,1,18.1,3.23Z"/><path id="_444222016" data-name=" 444222016" class="cls-1" d="M18.39,3.7H67.13A14.35,14.35,0,0,1,81.45,18V66.75A14.36,14.36,0,0,1,67.13,81.07H18.39A14.35,14.35,0,0,1,4.08,66.75V18A14.35,14.35,0,0,1,18.39,3.7Z"/><path id="_444222088" data-name=" 444222088" class="cls-1" d="M18.68,4.16H66.84A14.19,14.19,0,0,1,81,18.3V66.46A14.19,14.19,0,0,1,66.84,80.6H18.68A14.19,14.19,0,0,1,4.54,66.46V18.3A14.18,14.18,0,0,1,18.68,4.16Z"/><path id="_444222160" data-name=" 444222160" class="cls-1" d="M19,4.62H66.55a14,14,0,0,1,14,14V66.16a14,14,0,0,1-14,14H19a14,14,0,0,1-14-14V18.59A14,14,0,0,1,19,4.62Z"/><path id="_444222232" data-name=" 444222232" class="cls-1" d="M19.27,5.09h47a13.84,13.84,0,0,1,13.8,13.8v47a13.84,13.84,0,0,1-13.8,13.8h-47a13.84,13.84,0,0,1-13.8-13.8v-47A13.84,13.84,0,0,1,19.27,5.09Z"/><path id="_444222304" data-name=" 444222304" class="cls-1" d="M19.57,5.56H66A13.65,13.65,0,0,1,79.58,19.18v46.4A13.65,13.65,0,0,1,66,79.2H19.57A13.66,13.66,0,0,1,5.94,65.58V19.18A13.66,13.66,0,0,1,19.57,5.56Z"/><path id="_441796024" data-name=" 441796024" class="cls-1" d="M19.86,6h45.8A13.49,13.49,0,0,1,79.12,19.47V65.28A13.49,13.49,0,0,1,65.66,78.73H19.86A13.49,13.49,0,0,1,6.4,65.28V19.47A13.49,13.49,0,0,1,19.86,6Z"/><path id="_441786832" data-name=" 441786832" class="cls-2" d="M14.56,0H64.13A14.6,14.6,0,0,1,78.68,14.56V64.12A14.6,14.6,0,0,1,64.13,78.68H14.56A14.6,14.6,0,0,1,0,64.12V14.56A14.6,14.6,0,0,1,14.56,0Z"/><path id="_441786736" data-name=" 441786736" class="cls-3" d="M15,1.86H63.71A13.15,13.15,0,0,1,76.82,15V63.7A13.15,13.15,0,0,1,63.71,76.82H15A13.16,13.16,0,0,1,1.86,63.7V15A13.16,13.16,0,0,1,15,1.86Z"/><path id="_441786640" data-name=" 441786640" class="cls-4" d="M76.82,42.8V63.7A13.15,13.15,0,0,1,63.71,76.82H15A13.16,13.16,0,0,1,1.86,63.7V42.8a130,130,0,0,1,37.48-5.29A130,130,0,0,1,76.82,42.8Z"/><circle class="cls-5" cx="68.07" cy="15.71" r="5.42"/><circle class="cls-5" cx="14.75" cy="15.46" r="5.42"/><path class="cls-5" d="M46.65,23.07a5.42,5.42,0,1,0-5.41,5.42A5.41,5.41,0,0,0,46.65,23.07Z"/><path class="cls-5" d="M28,13.15s3.81,22.09,12.7,21.33S52.91,20,53.67,14.17c0,0,1.89,25.73-12.56,26.41C27.52,41.21,26.76,16.71,28,13.15Z"/><path class="cls-5" d="M53.32,69.28S49.52,47.19,40.63,48s-12.19,14.47-13,20.31c0,0-1.89-25.73,12.57-26.4C53.83,41.22,54.59,65.73,53.32,69.28Z"/><path class="cls-5" d="M14.58,13.42s29.2-8.12,52.05,1C66.63,14.44,47.84.47,14.58,13.42Z"/></g></g></svg>